0
SECTION
2
HEADER
9
$INSUNITS
70
4
0
ENDSEC
0
SECTION
2
TABLES
0
TABLE
2
LTYPE
0
LTYPE
72
65
70
64
2
CONTINUOUS
3
______
73
0
40
0
0
ENDTAB
0
TABLE
2
LAYER
0
ENDTAB
0
ENDSEC
0
SECTION
2
ENTITIES
0
LINE
8
0
10
3.425
20
-2.525
11
15.625
21
-2.525
0
LINE
8
0
10
3.425
20
-16.525
11
15.625
21
-16.525
0
LINE
8
0
10
2.525
20
-3.425
11
2.525
21
-15.625
0
LINE
8
0
10
16.525
20
-3.425
11
16.525
21
-15.625
0
ARC
8
0
10
3.425
20
-3.425
40
0.9
50
90
51
180
0
ARC
8
0
10
15.625
20
-3.425
40
0.9
50
0
51
90
0
ARC
8
0
10
3.425
20
-15.625
40
0.9
50
180
51
270
0
ARC
8
0
10
15.625
20
-15.625
40
0.9
50
270
51
0
0
LINE
8
0
10
22.475
20
-2.525
11
34.675
21
-2.525
0
LINE
8
0
10
22.475
20
-16.525
11
34.675
21
-16.525
0
LINE
8
0
10
21.575
20
-3.425
11
21.575
21
-15.625
0
LINE
8
0
10
35.575
20
-3.425
11
35.575
21
-15.625
0
ARC
8
0
10
22.475
20
-3.425
40
0.9
50
90
51
180
0
ARC
8
0
10
34.675
20
-3.425
40
0.9
50
0
51
90
0
ARC
8
0
10
22.475
20
-15.625
40
0.9
50
180
51
270
0
ARC
8
0
10
34.675
20
-15.625
40
0.9
50
270
51
0
0
LINE
8
0
10
41.525
20
-2.525
11
53.725
21
-2.525
0
LINE
8
0
10
41.525
20
-16.525
11
53.725
21
-16.525
0
LINE
8
0
10
40.625
20
-3.425
11
40.625
21
-15.625
0
LINE
8
0
10
54.625
20
-3.425
11
54.625
21
-15.625
0
ARC
8
0
10
41.525
20
-3.425
40
0.9
50
90
51
180
0
ARC
8
0
10
53.725
20
-3.425
40
0.9
50
0
51
90
0
ARC
8
0
10
41.525
20
-15.625
40
0.9
50
180
51
270
0
ARC
8
0
10
53.725
20
-15.625
40
0.9
50
270
51
0
0
LINE
8
0
10
3.425
20
-21.575
11
15.625
21
-21.575
0
LINE
8
0
10
3.425
20
-35.575
11
15.625
21
-35.575
0
LINE
8
0
10
2.525
20
-22.475
11
2.525
21
-34.675
0
LINE
8
0
10
16.525
20
-22.475
11
16.525
21
-34.675
0
ARC
8
0
10
3.425
20
-22.475
40
0.9
50
90
51
180
0
ARC
8
0
10
15.625
20
-22.475
40
0.9
50
0
51
90
0
ARC
8
0
10
3.425
20
-34.675
40
0.9
50
180
51
270
0
ARC
8
0
10
15.625
20
-34.675
40
0.9
50
270
51
0
0
LINE
8
0
10
22.475
20
-21.575
11
34.675
21
-21.575
0
LINE
8
0
10
22.475
20
-35.575
11
34.675
21
-35.575
0
LINE
8
0
10
21.575
20
-22.475
11
21.575
21
-34.675
0
LINE
8
0
10
35.575
20
-22.475
11
35.575
21
-34.675
0
ARC
8
0
10
22.475
20
-22.475
40
0.9
50
90
51
180
0
ARC
8
0
10
34.675
20
-22.475
40
0.9
50
0
51
90
0
ARC
8
0
10
22.475
20
-34.675
40
0.9
50
180
51
270
0
ARC
8
0
10
34.675
20
-34.675
40
0.9
50
270
51
0
0
LINE
8
0
10
41.525
20
-21.575
11
53.725
21
-21.575
0
LINE
8
0
10
41.525
20
-35.575
11
53.725
21
-35.575
0
LINE
8
0
10
40.625
20
-22.475
11
40.625
21
-34.675
0
LINE
8
0
10
54.625
20
-22.475
11
54.625
21
-34.675
0
ARC
8
0
10
41.525
20
-22.475
40
0.9
50
90
51
180
0
ARC
8
0
10
53.725
20
-22.475
40
0.9
50
0
51
90
0
ARC
8
0
10
41.525
20
-34.675
40
0.9
50
180
51
270
0
ARC
8
0
10
53.725
20
-34.675
40
0.9
50
270
51
0
0
LINE
8
0
10
0
20
-38.1
11
57.15
21
-38.1
0
LINE
8
0
10
0
20
0
11
57.15
21
0
0
LINE
8
0
10
0
20
-38.1
11
0
21
0
0
LINE
8
0
10
57.15
20
-38.1
11
57.15
21
0
0
ENDSEC
0
EOF