%TF.GenerationSoftware,KiCad,Pcbnew,9.0.6*%
%TF.CreationDate,2025-11-16T20:26:59+06:00*%
%TF.ProjectId,MiniMicroG,4d696e69-4d69-4637-926f-472e6b696361,rev?*%
%TF.SameCoordinates,Original*%
%TF.FileFunction,Legend,Top*%
%TF.FilePolarity,Positive*%
%FSLAX46Y46*%
G04 Gerber Fmt 4.6, Leading zero omitted, Abs format (unit mm)*
G04 Created by KiCad (PCBNEW 9.0.6) date 2025-11-16 20:26:59*
%MOMM*%
%LPD*%
G01*
G04 APERTURE LIST*
%ADD10C,0.100000*%
%ADD11C,0.800000*%
%ADD12C,0.150000*%
%ADD13C,0.101600*%
%ADD14C,0.120000*%
%ADD15C,0.127000*%
%ADD16C,0.504000*%
%ADD17C,0.040000*%
G04 APERTURE END LIST*
D10*
X88875312Y-54777180D02*
X88827693Y-54824800D01*
X88827693Y-54824800D02*
X88684836Y-54872419D01*
X88684836Y-54872419D02*
X88589598Y-54872419D01*
X88589598Y-54872419D02*
X88446741Y-54824800D01*
X88446741Y-54824800D02*
X88351503Y-54729561D01*
X88351503Y-54729561D02*
X88303884Y-54634323D01*
X88303884Y-54634323D02*
X88256265Y-54443847D01*
X88256265Y-54443847D02*
X88256265Y-54300990D01*
X88256265Y-54300990D02*
X88303884Y-54110514D01*
X88303884Y-54110514D02*
X88351503Y-54015276D01*
X88351503Y-54015276D02*
X88446741Y-53920038D01*
X88446741Y-53920038D02*
X88589598Y-53872419D01*
X88589598Y-53872419D02*
X88684836Y-53872419D01*
X88684836Y-53872419D02*
X88827693Y-53920038D01*
X88827693Y-53920038D02*
X88875312Y-53967657D01*
X89303884Y-54872419D02*
X89303884Y-54205752D01*
X89303884Y-54396228D02*
X89351503Y-54300990D01*
X89351503Y-54300990D02*
X89399122Y-54253371D01*
X89399122Y-54253371D02*
X89494360Y-54205752D01*
X89494360Y-54205752D02*
X89589598Y-54205752D01*
X90303884Y-54824800D02*
X90208646Y-54872419D01*
X90208646Y-54872419D02*
X90018170Y-54872419D01*
X90018170Y-54872419D02*
X89922932Y-54824800D01*
X89922932Y-54824800D02*
X89875313Y-54729561D01*
X89875313Y-54729561D02*
X89875313Y-54348609D01*
X89875313Y-54348609D02*
X89922932Y-54253371D01*
X89922932Y-54253371D02*
X90018170Y-54205752D01*
X90018170Y-54205752D02*
X90208646Y-54205752D01*
X90208646Y-54205752D02*
X90303884Y-54253371D01*
X90303884Y-54253371D02*
X90351503Y-54348609D01*
X90351503Y-54348609D02*
X90351503Y-54443847D01*
X90351503Y-54443847D02*
X89875313Y-54539085D01*
X91208646Y-54872419D02*
X91208646Y-54348609D01*
X91208646Y-54348609D02*
X91161027Y-54253371D01*
X91161027Y-54253371D02*
X91065789Y-54205752D01*
X91065789Y-54205752D02*
X90875313Y-54205752D01*
X90875313Y-54205752D02*
X90780075Y-54253371D01*
X91208646Y-54824800D02*
X91113408Y-54872419D01*
X91113408Y-54872419D02*
X90875313Y-54872419D01*
X90875313Y-54872419D02*
X90780075Y-54824800D01*
X90780075Y-54824800D02*
X90732456Y-54729561D01*
X90732456Y-54729561D02*
X90732456Y-54634323D01*
X90732456Y-54634323D02*
X90780075Y-54539085D01*
X90780075Y-54539085D02*
X90875313Y-54491466D01*
X90875313Y-54491466D02*
X91113408Y-54491466D01*
X91113408Y-54491466D02*
X91208646Y-54443847D01*
X91541980Y-54205752D02*
X91922932Y-54205752D01*
X91684837Y-53872419D02*
X91684837Y-54729561D01*
X91684837Y-54729561D02*
X91732456Y-54824800D01*
X91732456Y-54824800D02*
X91827694Y-54872419D01*
X91827694Y-54872419D02*
X91922932Y-54872419D01*
X92637218Y-54824800D02*
X92541980Y-54872419D01*
X92541980Y-54872419D02*
X92351504Y-54872419D01*
X92351504Y-54872419D02*
X92256266Y-54824800D01*
X92256266Y-54824800D02*
X92208647Y-54729561D01*
X92208647Y-54729561D02*
X92208647Y-54348609D01*
X92208647Y-54348609D02*
X92256266Y-54253371D01*
X92256266Y-54253371D02*
X92351504Y-54205752D01*
X92351504Y-54205752D02*
X92541980Y-54205752D01*
X92541980Y-54205752D02*
X92637218Y-54253371D01*
X92637218Y-54253371D02*
X92684837Y-54348609D01*
X92684837Y-54348609D02*
X92684837Y-54443847D01*
X92684837Y-54443847D02*
X92208647Y-54539085D01*
X93541980Y-54872419D02*
X93541980Y-53872419D01*
X93541980Y-54824800D02*
X93446742Y-54872419D01*
X93446742Y-54872419D02*
X93256266Y-54872419D01*
X93256266Y-54872419D02*
X93161028Y-54824800D01*
X93161028Y-54824800D02*
X93113409Y-54777180D01*
X93113409Y-54777180D02*
X93065790Y-54681942D01*
X93065790Y-54681942D02*
X93065790Y-54396228D01*
X93065790Y-54396228D02*
X93113409Y-54300990D01*
X93113409Y-54300990D02*
X93161028Y-54253371D01*
X93161028Y-54253371D02*
X93256266Y-54205752D01*
X93256266Y-54205752D02*
X93446742Y-54205752D01*
X93446742Y-54205752D02*
X93541980Y-54253371D01*
X94780076Y-54872419D02*
X94780076Y-53872419D01*
X94780076Y-54253371D02*
X94875314Y-54205752D01*
X94875314Y-54205752D02*
X95065790Y-54205752D01*
X95065790Y-54205752D02*
X95161028Y-54253371D01*
X95161028Y-54253371D02*
X95208647Y-54300990D01*
X95208647Y-54300990D02*
X95256266Y-54396228D01*
X95256266Y-54396228D02*
X95256266Y-54681942D01*
X95256266Y-54681942D02*
X95208647Y-54777180D01*
X95208647Y-54777180D02*
X95161028Y-54824800D01*
X95161028Y-54824800D02*
X95065790Y-54872419D01*
X95065790Y-54872419D02*
X94875314Y-54872419D01*
X94875314Y-54872419D02*
X94780076Y-54824800D01*
X95589600Y-54205752D02*
X95827695Y-54872419D01*
X96065790Y-54205752D02*
X95827695Y-54872419D01*
X95827695Y-54872419D02*
X95732457Y-55110514D01*
X95732457Y-55110514D02*
X95684838Y-55158133D01*
X95684838Y-55158133D02*
X95589600Y-55205752D01*
X97827695Y-54396228D02*
X97780076Y-54348609D01*
X97780076Y-54348609D02*
X97684838Y-54300990D01*
X97684838Y-54300990D02*
X97589600Y-54300990D01*
X97589600Y-54300990D02*
X97494362Y-54348609D01*
X97494362Y-54348609D02*
X97446743Y-54396228D01*
X97446743Y-54396228D02*
X97399124Y-54491466D01*
X97399124Y-54491466D02*
X97399124Y-54586704D01*
X97399124Y-54586704D02*
X97446743Y-54681942D01*
X97446743Y-54681942D02*
X97494362Y-54729561D01*
X97494362Y-54729561D02*
X97589600Y-54777180D01*
X97589600Y-54777180D02*
X97684838Y-54777180D01*
X97684838Y-54777180D02*
X97780076Y-54729561D01*
X97780076Y-54729561D02*
X97827695Y-54681942D01*
X97827695Y-54300990D02*
X97827695Y-54681942D01*
X97827695Y-54681942D02*
X97875314Y-54729561D01*
X97875314Y-54729561D02*
X97922933Y-54729561D01*
X97922933Y-54729561D02*
X98018172Y-54681942D01*
X98018172Y-54681942D02*
X98065791Y-54586704D01*
X98065791Y-54586704D02*
X98065791Y-54348609D01*
X98065791Y-54348609D02*
X97970553Y-54205752D01*
X97970553Y-54205752D02*
X97827695Y-54110514D01*
X97827695Y-54110514D02*
X97637219Y-54062895D01*
X97637219Y-54062895D02*
X97446743Y-54110514D01*
X97446743Y-54110514D02*
X97303886Y-54205752D01*
X97303886Y-54205752D02*
X97208648Y-54348609D01*
X97208648Y-54348609D02*
X97161029Y-54539085D01*
X97161029Y-54539085D02*
X97208648Y-54729561D01*
X97208648Y-54729561D02*
X97303886Y-54872419D01*
X97303886Y-54872419D02*
X97446743Y-54967657D01*
X97446743Y-54967657D02*
X97637219Y-55015276D01*
X97637219Y-55015276D02*
X97827695Y-54967657D01*
X97827695Y-54967657D02*
X97970553Y-54872419D01*
X98922933Y-54824800D02*
X98827695Y-54872419D01*
X98827695Y-54872419D02*
X98637219Y-54872419D01*
X98637219Y-54872419D02*
X98541981Y-54824800D01*
X98541981Y-54824800D02*
X98494362Y-54777180D01*
X98494362Y-54777180D02*
X98446743Y-54681942D01*
X98446743Y-54681942D02*
X98446743Y-54396228D01*
X98446743Y-54396228D02*
X98494362Y-54300990D01*
X98494362Y-54300990D02*
X98541981Y-54253371D01*
X98541981Y-54253371D02*
X98637219Y-54205752D01*
X98637219Y-54205752D02*
X98827695Y-54205752D01*
X98827695Y-54205752D02*
X98922933Y-54253371D01*
X99494362Y-54872419D02*
X99399124Y-54824800D01*
X99399124Y-54824800D02*
X99351505Y-54777180D01*
X99351505Y-54777180D02*
X99303886Y-54681942D01*
X99303886Y-54681942D02*
X99303886Y-54396228D01*
X99303886Y-54396228D02*
X99351505Y-54300990D01*
X99351505Y-54300990D02*
X99399124Y-54253371D01*
X99399124Y-54253371D02*
X99494362Y-54205752D01*
X99494362Y-54205752D02*
X99637219Y-54205752D01*
X99637219Y-54205752D02*
X99732457Y-54253371D01*
X99732457Y-54253371D02*
X99780076Y-54300990D01*
X99780076Y-54300990D02*
X99827695Y-54396228D01*
X99827695Y-54396228D02*
X99827695Y-54681942D01*
X99827695Y-54681942D02*
X99780076Y-54777180D01*
X99780076Y-54777180D02*
X99732457Y-54824800D01*
X99732457Y-54824800D02*
X99637219Y-54872419D01*
X99637219Y-54872419D02*
X99494362Y-54872419D01*
X100684838Y-54872419D02*
X100684838Y-53872419D01*
X100684838Y-54824800D02*
X100589600Y-54872419D01*
X100589600Y-54872419D02*
X100399124Y-54872419D01*
X100399124Y-54872419D02*
X100303886Y-54824800D01*
X100303886Y-54824800D02*
X100256267Y-54777180D01*
X100256267Y-54777180D02*
X100208648Y-54681942D01*
X100208648Y-54681942D02*
X100208648Y-54396228D01*
X100208648Y-54396228D02*
X100256267Y-54300990D01*
X100256267Y-54300990D02*
X100303886Y-54253371D01*
X100303886Y-54253371D02*
X100399124Y-54205752D01*
X100399124Y-54205752D02*
X100589600Y-54205752D01*
X100589600Y-54205752D02*
X100684838Y-54253371D01*
X101541981Y-54824800D02*
X101446743Y-54872419D01*
X101446743Y-54872419D02*
X101256267Y-54872419D01*
X101256267Y-54872419D02*
X101161029Y-54824800D01*
X101161029Y-54824800D02*
X101113410Y-54729561D01*
X101113410Y-54729561D02*
X101113410Y-54348609D01*
X101113410Y-54348609D02*
X101161029Y-54253371D01*
X101161029Y-54253371D02*
X101256267Y-54205752D01*
X101256267Y-54205752D02*
X101446743Y-54205752D01*
X101446743Y-54205752D02*
X101541981Y-54253371D01*
X101541981Y-54253371D02*
X101589600Y-54348609D01*
X101589600Y-54348609D02*
X101589600Y-54443847D01*
X101589600Y-54443847D02*
X101113410Y-54539085D01*
X102446743Y-54824800D02*
X102351505Y-54872419D01*
X102351505Y-54872419D02*
X102161029Y-54872419D01*
X102161029Y-54872419D02*
X102065791Y-54824800D01*
X102065791Y-54824800D02*
X102018172Y-54777180D01*
X102018172Y-54777180D02*
X101970553Y-54681942D01*
X101970553Y-54681942D02*
X101970553Y-54396228D01*
X101970553Y-54396228D02*
X102018172Y-54300990D01*
X102018172Y-54300990D02*
X102065791Y-54253371D01*
X102065791Y-54253371D02*
X102161029Y-54205752D01*
X102161029Y-54205752D02*
X102351505Y-54205752D01*
X102351505Y-54205752D02*
X102446743Y-54253371D01*
X103018172Y-54872419D02*
X102922934Y-54824800D01*
X102922934Y-54824800D02*
X102875315Y-54777180D01*
X102875315Y-54777180D02*
X102827696Y-54681942D01*
X102827696Y-54681942D02*
X102827696Y-54396228D01*
X102827696Y-54396228D02*
X102875315Y-54300990D01*
X102875315Y-54300990D02*
X102922934Y-54253371D01*
X102922934Y-54253371D02*
X103018172Y-54205752D01*
X103018172Y-54205752D02*
X103161029Y-54205752D01*
X103161029Y-54205752D02*
X103256267Y-54253371D01*
X103256267Y-54253371D02*
X103303886Y-54300990D01*
X103303886Y-54300990D02*
X103351505Y-54396228D01*
X103351505Y-54396228D02*
X103351505Y-54681942D01*
X103351505Y-54681942D02*
X103303886Y-54777180D01*
X103303886Y-54777180D02*
X103256267Y-54824800D01*
X103256267Y-54824800D02*
X103161029Y-54872419D01*
X103161029Y-54872419D02*
X103018172Y-54872419D01*
X103922934Y-54872419D02*
X103827696Y-54824800D01*
X103827696Y-54824800D02*
X103780077Y-54777180D01*
X103780077Y-54777180D02*
X103732458Y-54681942D01*
X103732458Y-54681942D02*
X103732458Y-54396228D01*
X103732458Y-54396228D02*
X103780077Y-54300990D01*
X103780077Y-54300990D02*
X103827696Y-54253371D01*
X103827696Y-54253371D02*
X103922934Y-54205752D01*
X103922934Y-54205752D02*
X104065791Y-54205752D01*
X104065791Y-54205752D02*
X104161029Y-54253371D01*
X104161029Y-54253371D02*
X104208648Y-54300990D01*
X104208648Y-54300990D02*
X104256267Y-54396228D01*
X104256267Y-54396228D02*
X104256267Y-54681942D01*
X104256267Y-54681942D02*
X104208648Y-54777180D01*
X104208648Y-54777180D02*
X104161029Y-54824800D01*
X104161029Y-54824800D02*
X104065791Y-54872419D01*
X104065791Y-54872419D02*
X103922934Y-54872419D01*
X104684839Y-54872419D02*
X104684839Y-53872419D01*
X104780077Y-54491466D02*
X105065791Y-54872419D01*
X105065791Y-54205752D02*
X104684839Y-54586704D01*
X105875315Y-54824800D02*
X105780077Y-54872419D01*
X105780077Y-54872419D02*
X105589601Y-54872419D01*
X105589601Y-54872419D02*
X105494363Y-54824800D01*
X105494363Y-54824800D02*
X105446744Y-54729561D01*
X105446744Y-54729561D02*
X105446744Y-54348609D01*
X105446744Y-54348609D02*
X105494363Y-54253371D01*
X105494363Y-54253371D02*
X105589601Y-54205752D01*
X105589601Y-54205752D02*
X105780077Y-54205752D01*
X105780077Y-54205752D02*
X105875315Y-54253371D01*
X105875315Y-54253371D02*
X105922934Y-54348609D01*
X105922934Y-54348609D02*
X105922934Y-54443847D01*
X105922934Y-54443847D02*
X105446744Y-54539085D01*
X106351506Y-54872419D02*
X106351506Y-54205752D01*
X106351506Y-54396228D02*
X106399125Y-54300990D01*
X106399125Y-54300990D02*
X106446744Y-54253371D01*
X106446744Y-54253371D02*
X106541982Y-54205752D01*
X106541982Y-54205752D02*
X106637220Y-54205752D01*
X107494363Y-54872419D02*
X106922935Y-54872419D01*
X107208649Y-54872419D02*
X107208649Y-53872419D01*
X107208649Y-53872419D02*
X107113411Y-54015276D01*
X107113411Y-54015276D02*
X107018173Y-54110514D01*
X107018173Y-54110514D02*
X106922935Y-54158133D01*
D11*
X91468876Y-93521304D02*
X87468876Y-93521304D01*
X87468876Y-93521304D02*
X90326019Y-92187970D01*
X90326019Y-92187970D02*
X87468876Y-90854637D01*
X87468876Y-90854637D02*
X91468876Y-90854637D01*
X91468876Y-88949875D02*
X88802209Y-88949875D01*
X87468876Y-88949875D02*
X87659352Y-89140351D01*
X87659352Y-89140351D02*
X87849828Y-88949875D01*
X87849828Y-88949875D02*
X87659352Y-88759398D01*
X87659352Y-88759398D02*
X87468876Y-88949875D01*
X87468876Y-88949875D02*
X87849828Y-88949875D01*
X88802209Y-87045113D02*
X91468876Y-87045113D01*
X89183161Y-87045113D02*
X88992685Y-86854636D01*
X88992685Y-86854636D02*
X88802209Y-86473684D01*
X88802209Y-86473684D02*
X88802209Y-85902255D01*
X88802209Y-85902255D02*
X88992685Y-85521303D01*
X88992685Y-85521303D02*
X89373638Y-85330827D01*
X89373638Y-85330827D02*
X91468876Y-85330827D01*
X91468876Y-83426065D02*
X88802209Y-83426065D01*
X87468876Y-83426065D02*
X87659352Y-83616541D01*
X87659352Y-83616541D02*
X87849828Y-83426065D01*
X87849828Y-83426065D02*
X87659352Y-83235588D01*
X87659352Y-83235588D02*
X87468876Y-83426065D01*
X87468876Y-83426065D02*
X87849828Y-83426065D01*
X91468876Y-81521303D02*
X87468876Y-81521303D01*
X87468876Y-81521303D02*
X90326019Y-80187969D01*
X90326019Y-80187969D02*
X87468876Y-78854636D01*
X87468876Y-78854636D02*
X91468876Y-78854636D01*
X91468876Y-76949874D02*
X88802209Y-76949874D01*
X87468876Y-76949874D02*
X87659352Y-77140350D01*
X87659352Y-77140350D02*
X87849828Y-76949874D01*
X87849828Y-76949874D02*
X87659352Y-76759397D01*
X87659352Y-76759397D02*
X87468876Y-76949874D01*
X87468876Y-76949874D02*
X87849828Y-76949874D01*
X91278400Y-73330826D02*
X91468876Y-73711778D01*
X91468876Y-73711778D02*
X91468876Y-74473683D01*
X91468876Y-74473683D02*
X91278400Y-74854635D01*
X91278400Y-74854635D02*
X91087923Y-75045112D01*
X91087923Y-75045112D02*
X90706971Y-75235588D01*
X90706971Y-75235588D02*
X89564114Y-75235588D01*
X89564114Y-75235588D02*
X89183161Y-75045112D01*
X89183161Y-75045112D02*
X88992685Y-74854635D01*
X88992685Y-74854635D02*
X88802209Y-74473683D01*
X88802209Y-74473683D02*
X88802209Y-73711778D01*
X88802209Y-73711778D02*
X88992685Y-73330826D01*
X91468876Y-71616541D02*
X88802209Y-71616541D01*
X89564114Y-71616541D02*
X89183161Y-71426064D01*
X89183161Y-71426064D02*
X88992685Y-71235588D01*
X88992685Y-71235588D02*
X88802209Y-70854636D01*
X88802209Y-70854636D02*
X88802209Y-70473683D01*
X91468876Y-68568922D02*
X91278400Y-68949874D01*
X91278400Y-68949874D02*
X91087923Y-69140351D01*
X91087923Y-69140351D02*
X90706971Y-69330827D01*
X90706971Y-69330827D02*
X89564114Y-69330827D01*
X89564114Y-69330827D02*
X89183161Y-69140351D01*
X89183161Y-69140351D02*
X88992685Y-68949874D01*
X88992685Y-68949874D02*
X88802209Y-68568922D01*
X88802209Y-68568922D02*
X88802209Y-67997493D01*
X88802209Y-67997493D02*
X88992685Y-67616541D01*
X88992685Y-67616541D02*
X89183161Y-67426065D01*
X89183161Y-67426065D02*
X89564114Y-67235589D01*
X89564114Y-67235589D02*
X90706971Y-67235589D01*
X90706971Y-67235589D02*
X91087923Y-67426065D01*
X91087923Y-67426065D02*
X91278400Y-67616541D01*
X91278400Y-67616541D02*
X91468876Y-67997493D01*
X91468876Y-67997493D02*
X91468876Y-68568922D01*
X87659352Y-63426064D02*
X87468876Y-63807017D01*
X87468876Y-63807017D02*
X87468876Y-64378445D01*
X87468876Y-64378445D02*
X87659352Y-64949874D01*
X87659352Y-64949874D02*
X88040304Y-65330826D01*
X88040304Y-65330826D02*
X88421257Y-65521303D01*
X88421257Y-65521303D02*
X89183161Y-65711779D01*
X89183161Y-65711779D02*
X89754590Y-65711779D01*
X89754590Y-65711779D02*
X90516495Y-65521303D01*
X90516495Y-65521303D02*
X90897447Y-65330826D01*
X90897447Y-65330826D02*
X91278400Y-64949874D01*
X91278400Y-64949874D02*
X91468876Y-64378445D01*
X91468876Y-64378445D02*
X91468876Y-63997493D01*
X91468876Y-63997493D02*
X91278400Y-63426064D01*
X91278400Y-63426064D02*
X91087923Y-63235588D01*
X91087923Y-63235588D02*
X89754590Y-63235588D01*
X89754590Y-63235588D02*
X89754590Y-63997493D01*
X91087923Y-58473684D02*
X91278400Y-58283207D01*
X91278400Y-58283207D02*
X91468876Y-58473684D01*
X91468876Y-58473684D02*
X91278400Y-58664160D01*
X91278400Y-58664160D02*
X91087923Y-58473684D01*
X91087923Y-58473684D02*
X91468876Y-58473684D01*
X89945066Y-58473684D02*
X87659352Y-58664160D01*
X87659352Y-58664160D02*
X87468876Y-58473684D01*
X87468876Y-58473684D02*
X87659352Y-58283207D01*
X87659352Y-58283207D02*
X89945066Y-58473684D01*
X89945066Y-58473684D02*
X87468876Y-58473684D01*
D12*
X109466667Y-60707200D02*
X109609524Y-60754819D01*
X109609524Y-60754819D02*
X109847619Y-60754819D01*
X109847619Y-60754819D02*
X109942857Y-60707200D01*
X109942857Y-60707200D02*
X109990476Y-60659580D01*
X109990476Y-60659580D02*
X110038095Y-60564342D01*
X110038095Y-60564342D02*
X110038095Y-60469104D01*
X110038095Y-60469104D02*
X109990476Y-60373866D01*
X109990476Y-60373866D02*
X109942857Y-60326247D01*
X109942857Y-60326247D02*
X109847619Y-60278628D01*
X109847619Y-60278628D02*
X109657143Y-60231009D01*
X109657143Y-60231009D02*
X109561905Y-60183390D01*
X109561905Y-60183390D02*
X109514286Y-60135771D01*
X109514286Y-60135771D02*
X109466667Y-60040533D01*
X109466667Y-60040533D02*
X109466667Y-59945295D01*
X109466667Y-59945295D02*
X109514286Y-59850057D01*
X109514286Y-59850057D02*
X109561905Y-59802438D01*
X109561905Y-59802438D02*
X109657143Y-59754819D01*
X109657143Y-59754819D02*
X109895238Y-59754819D01*
X109895238Y-59754819D02*
X110038095Y-59802438D01*
X110371429Y-59754819D02*
X110609524Y-60754819D01*
X110609524Y-60754819D02*
X110800000Y-60040533D01*
X110800000Y-60040533D02*
X110990476Y-60754819D01*
X110990476Y-60754819D02*
X111228572Y-59754819D01*
X111514286Y-59754819D02*
X112180952Y-59754819D01*
X112180952Y-59754819D02*
X111752381Y-60754819D01*
X118511905Y-122204819D02*
X118511905Y-121204819D01*
X118511905Y-121204819D02*
X118750000Y-121204819D01*
X118750000Y-121204819D02*
X118892857Y-121252438D01*
X118892857Y-121252438D02*
X118988095Y-121347676D01*
X118988095Y-121347676D02*
X119035714Y-121442914D01*
X119035714Y-121442914D02*
X119083333Y-121633390D01*
X119083333Y-121633390D02*
X119083333Y-121776247D01*
X119083333Y-121776247D02*
X119035714Y-121966723D01*
X119035714Y-121966723D02*
X118988095Y-122061961D01*
X118988095Y-122061961D02*
X118892857Y-122157200D01*
X118892857Y-122157200D02*
X118750000Y-122204819D01*
X118750000Y-122204819D02*
X118511905Y-122204819D01*
X119464286Y-121300057D02*
X119511905Y-121252438D01*
X119511905Y-121252438D02*
X119607143Y-121204819D01*
X119607143Y-121204819D02*
X119845238Y-121204819D01*
X119845238Y-121204819D02*
X119940476Y-121252438D01*
X119940476Y-121252438D02*
X119988095Y-121300057D01*
X119988095Y-121300057D02*
X120035714Y-121395295D01*
X120035714Y-121395295D02*
X120035714Y-121490533D01*
X120035714Y-121490533D02*
X119988095Y-121633390D01*
X119988095Y-121633390D02*
X119416667Y-122204819D01*
X119416667Y-122204819D02*
X120035714Y-122204819D01*
X122221428Y-119512704D02*
X122678571Y-119512704D01*
X122449999Y-119512704D02*
X122449999Y-120312704D01*
X122449999Y-120312704D02*
X122526190Y-120198419D01*
X122526190Y-120198419D02*
X122602380Y-120122228D01*
X122602380Y-120122228D02*
X122678571Y-120084133D01*
X137735417Y-101758200D02*
X137878274Y-101805819D01*
X137878274Y-101805819D02*
X138116369Y-101805819D01*
X138116369Y-101805819D02*
X138211607Y-101758200D01*
X138211607Y-101758200D02*
X138259226Y-101710580D01*
X138259226Y-101710580D02*
X138306845Y-101615342D01*
X138306845Y-101615342D02*
X138306845Y-101520104D01*
X138306845Y-101520104D02*
X138259226Y-101424866D01*
X138259226Y-101424866D02*
X138211607Y-101377247D01*
X138211607Y-101377247D02*
X138116369Y-101329628D01*
X138116369Y-101329628D02*
X137925893Y-101282009D01*
X137925893Y-101282009D02*
X137830655Y-101234390D01*
X137830655Y-101234390D02*
X137783036Y-101186771D01*
X137783036Y-101186771D02*
X137735417Y-101091533D01*
X137735417Y-101091533D02*
X137735417Y-100996295D01*
X137735417Y-100996295D02*
X137783036Y-100901057D01*
X137783036Y-100901057D02*
X137830655Y-100853438D01*
X137830655Y-100853438D02*
X137925893Y-100805819D01*
X137925893Y-100805819D02*
X138163988Y-100805819D01*
X138163988Y-100805819D02*
X138306845Y-100853438D01*
X138640179Y-100805819D02*
X138878274Y-101805819D01*
X138878274Y-101805819D02*
X139068750Y-101091533D01*
X139068750Y-101091533D02*
X139259226Y-101805819D01*
X139259226Y-101805819D02*
X139497322Y-100805819D01*
X140354464Y-100805819D02*
X139878274Y-100805819D01*
X139878274Y-100805819D02*
X139830655Y-101282009D01*
X139830655Y-101282009D02*
X139878274Y-101234390D01*
X139878274Y-101234390D02*
X139973512Y-101186771D01*
X139973512Y-101186771D02*
X140211607Y-101186771D01*
X140211607Y-101186771D02*
X140306845Y-101234390D01*
X140306845Y-101234390D02*
X140354464Y-101282009D01*
X140354464Y-101282009D02*
X140402083Y-101377247D01*
X140402083Y-101377247D02*
X140402083Y-101615342D01*
X140402083Y-101615342D02*
X140354464Y-101710580D01*
X140354464Y-101710580D02*
X140306845Y-101758200D01*
X140306845Y-101758200D02*
X140211607Y-101805819D01*
X140211607Y-101805819D02*
X139973512Y-101805819D01*
X139973512Y-101805819D02*
X139878274Y-101758200D01*
X139878274Y-101758200D02*
X139830655Y-101710580D01*
X118685417Y-82708200D02*
X118828274Y-82755819D01*
X118828274Y-82755819D02*
X119066369Y-82755819D01*
X119066369Y-82755819D02*
X119161607Y-82708200D01*
X119161607Y-82708200D02*
X119209226Y-82660580D01*
X119209226Y-82660580D02*
X119256845Y-82565342D01*
X119256845Y-82565342D02*
X119256845Y-82470104D01*
X119256845Y-82470104D02*
X119209226Y-82374866D01*
X119209226Y-82374866D02*
X119161607Y-82327247D01*
X119161607Y-82327247D02*
X119066369Y-82279628D01*
X119066369Y-82279628D02*
X118875893Y-82232009D01*
X118875893Y-82232009D02*
X118780655Y-82184390D01*
X118780655Y-82184390D02*
X118733036Y-82136771D01*
X118733036Y-82136771D02*
X118685417Y-82041533D01*
X118685417Y-82041533D02*
X118685417Y-81946295D01*
X118685417Y-81946295D02*
X118733036Y-81851057D01*
X118733036Y-81851057D02*
X118780655Y-81803438D01*
X118780655Y-81803438D02*
X118875893Y-81755819D01*
X118875893Y-81755819D02*
X119113988Y-81755819D01*
X119113988Y-81755819D02*
X119256845Y-81803438D01*
X119590179Y-81755819D02*
X119828274Y-82755819D01*
X119828274Y-82755819D02*
X120018750Y-82041533D01*
X120018750Y-82041533D02*
X120209226Y-82755819D01*
X120209226Y-82755819D02*
X120447322Y-81755819D01*
X121352083Y-82755819D02*
X120780655Y-82755819D01*
X121066369Y-82755819D02*
X121066369Y-81755819D01*
X121066369Y-81755819D02*
X120971131Y-81898676D01*
X120971131Y-81898676D02*
X120875893Y-81993914D01*
X120875893Y-81993914D02*
X120780655Y-82041533D01*
X138035714Y-122204819D02*
X138035714Y-121204819D01*
X138035714Y-121204819D02*
X138273809Y-121204819D01*
X138273809Y-121204819D02*
X138416666Y-121252438D01*
X138416666Y-121252438D02*
X138511904Y-121347676D01*
X138511904Y-121347676D02*
X138559523Y-121442914D01*
X138559523Y-121442914D02*
X138607142Y-121633390D01*
X138607142Y-121633390D02*
X138607142Y-121776247D01*
X138607142Y-121776247D02*
X138559523Y-121966723D01*
X138559523Y-121966723D02*
X138511904Y-122061961D01*
X138511904Y-122061961D02*
X138416666Y-122157200D01*
X138416666Y-122157200D02*
X138273809Y-122204819D01*
X138273809Y-122204819D02*
X138035714Y-122204819D01*
X139559523Y-122204819D02*
X138988095Y-122204819D01*
X139273809Y-122204819D02*
X139273809Y-121204819D01*
X139273809Y-121204819D02*
X139178571Y-121347676D01*
X139178571Y-121347676D02*
X139083333Y-121442914D01*
X139083333Y-121442914D02*
X138988095Y-121490533D01*
X139940476Y-121300057D02*
X139988095Y-121252438D01*
X139988095Y-121252438D02*
X140083333Y-121204819D01*
X140083333Y-121204819D02*
X140321428Y-121204819D01*
X140321428Y-121204819D02*
X140416666Y-121252438D01*
X140416666Y-121252438D02*
X140464285Y-121300057D01*
X140464285Y-121300057D02*
X140511904Y-121395295D01*
X140511904Y-121395295D02*
X140511904Y-121490533D01*
X140511904Y-121490533D02*
X140464285Y-121633390D01*
X140464285Y-121633390D02*
X139892857Y-122204819D01*
X139892857Y-122204819D02*
X140511904Y-122204819D01*
X142221428Y-119512704D02*
X142678571Y-119512704D01*
X142449999Y-119512704D02*
X142449999Y-120312704D01*
X142449999Y-120312704D02*
X142526190Y-120198419D01*
X142526190Y-120198419D02*
X142602380Y-120122228D01*
X142602380Y-120122228D02*
X142678571Y-120084133D01*
D13*
X77153479Y-118983809D02*
X77667526Y-118983809D01*
X77667526Y-118983809D02*
X77728002Y-118953571D01*
X77728002Y-118953571D02*
X77758241Y-118923333D01*
X77758241Y-118923333D02*
X77788479Y-118862857D01*
X77788479Y-118862857D02*
X77788479Y-118741904D01*
X77788479Y-118741904D02*
X77758241Y-118681428D01*
X77758241Y-118681428D02*
X77728002Y-118651190D01*
X77728002Y-118651190D02*
X77667526Y-118620952D01*
X77667526Y-118620952D02*
X77153479Y-118620952D01*
X77788479Y-117985952D02*
X77788479Y-118348809D01*
X77788479Y-118167381D02*
X77153479Y-118167381D01*
X77153479Y-118167381D02*
X77244193Y-118227857D01*
X77244193Y-118227857D02*
X77304669Y-118288333D01*
X77304669Y-118288333D02*
X77334907Y-118348809D01*
D12*
X118685417Y-101758200D02*
X118828274Y-101805819D01*
X118828274Y-101805819D02*
X119066369Y-101805819D01*
X119066369Y-101805819D02*
X119161607Y-101758200D01*
X119161607Y-101758200D02*
X119209226Y-101710580D01*
X119209226Y-101710580D02*
X119256845Y-101615342D01*
X119256845Y-101615342D02*
X119256845Y-101520104D01*
X119256845Y-101520104D02*
X119209226Y-101424866D01*
X119209226Y-101424866D02*
X119161607Y-101377247D01*
X119161607Y-101377247D02*
X119066369Y-101329628D01*
X119066369Y-101329628D02*
X118875893Y-101282009D01*
X118875893Y-101282009D02*
X118780655Y-101234390D01*
X118780655Y-101234390D02*
X118733036Y-101186771D01*
X118733036Y-101186771D02*
X118685417Y-101091533D01*
X118685417Y-101091533D02*
X118685417Y-100996295D01*
X118685417Y-100996295D02*
X118733036Y-100901057D01*
X118733036Y-100901057D02*
X118780655Y-100853438D01*
X118780655Y-100853438D02*
X118875893Y-100805819D01*
X118875893Y-100805819D02*
X119113988Y-100805819D01*
X119113988Y-100805819D02*
X119256845Y-100853438D01*
X119590179Y-100805819D02*
X119828274Y-101805819D01*
X119828274Y-101805819D02*
X120018750Y-101091533D01*
X120018750Y-101091533D02*
X120209226Y-101805819D01*
X120209226Y-101805819D02*
X120447322Y-100805819D01*
X120780655Y-100901057D02*
X120828274Y-100853438D01*
X120828274Y-100853438D02*
X120923512Y-100805819D01*
X120923512Y-100805819D02*
X121161607Y-100805819D01*
X121161607Y-100805819D02*
X121256845Y-100853438D01*
X121256845Y-100853438D02*
X121304464Y-100901057D01*
X121304464Y-100901057D02*
X121352083Y-100996295D01*
X121352083Y-100996295D02*
X121352083Y-101091533D01*
X121352083Y-101091533D02*
X121304464Y-101234390D01*
X121304464Y-101234390D02*
X120733036Y-101805819D01*
X120733036Y-101805819D02*
X121352083Y-101805819D01*
X166439819Y-70308333D02*
X167154104Y-70308333D01*
X167154104Y-70308333D02*
X167296961Y-70355952D01*
X167296961Y-70355952D02*
X167392200Y-70451190D01*
X167392200Y-70451190D02*
X167439819Y-70594047D01*
X167439819Y-70594047D02*
X167439819Y-70689285D01*
X167439819Y-69308333D02*
X167439819Y-69879761D01*
X167439819Y-69594047D02*
X166439819Y-69594047D01*
X166439819Y-69594047D02*
X166582676Y-69689285D01*
X166582676Y-69689285D02*
X166677914Y-69784523D01*
X166677914Y-69784523D02*
X166725533Y-69879761D01*
X145956428Y-69339819D02*
X146146904Y-69339819D01*
X146146904Y-69339819D02*
X146242142Y-69387438D01*
X146242142Y-69387438D02*
X146337380Y-69482676D01*
X146337380Y-69482676D02*
X146384999Y-69673152D01*
X146384999Y-69673152D02*
X146384999Y-70006485D01*
X146384999Y-70006485D02*
X146337380Y-70196961D01*
X146337380Y-70196961D02*
X146242142Y-70292200D01*
X146242142Y-70292200D02*
X146146904Y-70339819D01*
X146146904Y-70339819D02*
X145956428Y-70339819D01*
X145956428Y-70339819D02*
X145861190Y-70292200D01*
X145861190Y-70292200D02*
X145765952Y-70196961D01*
X145765952Y-70196961D02*
X145718333Y-70006485D01*
X145718333Y-70006485D02*
X145718333Y-69673152D01*
X145718333Y-69673152D02*
X145765952Y-69482676D01*
X145765952Y-69482676D02*
X145861190Y-69387438D01*
X145861190Y-69387438D02*
X145956428Y-69339819D01*
X147289761Y-70339819D02*
X146813571Y-70339819D01*
X146813571Y-70339819D02*
X146813571Y-69339819D01*
X147623095Y-69816009D02*
X147956428Y-69816009D01*
X148099285Y-70339819D02*
X147623095Y-70339819D01*
X147623095Y-70339819D02*
X147623095Y-69339819D01*
X147623095Y-69339819D02*
X148099285Y-69339819D01*
X148527857Y-70339819D02*
X148527857Y-69339819D01*
X148527857Y-69339819D02*
X148765952Y-69339819D01*
X148765952Y-69339819D02*
X148908809Y-69387438D01*
X148908809Y-69387438D02*
X149004047Y-69482676D01*
X149004047Y-69482676D02*
X149051666Y-69577914D01*
X149051666Y-69577914D02*
X149099285Y-69768390D01*
X149099285Y-69768390D02*
X149099285Y-69911247D01*
X149099285Y-69911247D02*
X149051666Y-70101723D01*
X149051666Y-70101723D02*
X149004047Y-70196961D01*
X149004047Y-70196961D02*
X148908809Y-70292200D01*
X148908809Y-70292200D02*
X148765952Y-70339819D01*
X148765952Y-70339819D02*
X148527857Y-70339819D01*
X150289762Y-70339819D02*
X150289762Y-69339819D01*
X150289762Y-69339819D02*
X150670714Y-69339819D01*
X150670714Y-69339819D02*
X150765952Y-69387438D01*
X150765952Y-69387438D02*
X150813571Y-69435057D01*
X150813571Y-69435057D02*
X150861190Y-69530295D01*
X150861190Y-69530295D02*
X150861190Y-69673152D01*
X150861190Y-69673152D02*
X150813571Y-69768390D01*
X150813571Y-69768390D02*
X150765952Y-69816009D01*
X150765952Y-69816009D02*
X150670714Y-69863628D01*
X150670714Y-69863628D02*
X150289762Y-69863628D01*
X151718333Y-70339819D02*
X151718333Y-69816009D01*
X151718333Y-69816009D02*
X151670714Y-69720771D01*
X151670714Y-69720771D02*
X151575476Y-69673152D01*
X151575476Y-69673152D02*
X151385000Y-69673152D01*
X151385000Y-69673152D02*
X151289762Y-69720771D01*
X151718333Y-70292200D02*
X151623095Y-70339819D01*
X151623095Y-70339819D02*
X151385000Y-70339819D01*
X151385000Y-70339819D02*
X151289762Y-70292200D01*
X151289762Y-70292200D02*
X151242143Y-70196961D01*
X151242143Y-70196961D02*
X151242143Y-70101723D01*
X151242143Y-70101723D02*
X151289762Y-70006485D01*
X151289762Y-70006485D02*
X151385000Y-69958866D01*
X151385000Y-69958866D02*
X151623095Y-69958866D01*
X151623095Y-69958866D02*
X151718333Y-69911247D01*
X152194524Y-69673152D02*
X152194524Y-70339819D01*
X152194524Y-69768390D02*
X152242143Y-69720771D01*
X152242143Y-69720771D02*
X152337381Y-69673152D01*
X152337381Y-69673152D02*
X152480238Y-69673152D01*
X152480238Y-69673152D02*
X152575476Y-69720771D01*
X152575476Y-69720771D02*
X152623095Y-69816009D01*
X152623095Y-69816009D02*
X152623095Y-70339819D01*
X153480238Y-70292200D02*
X153385000Y-70339819D01*
X153385000Y-70339819D02*
X153194524Y-70339819D01*
X153194524Y-70339819D02*
X153099286Y-70292200D01*
X153099286Y-70292200D02*
X153051667Y-70196961D01*
X153051667Y-70196961D02*
X153051667Y-69816009D01*
X153051667Y-69816009D02*
X153099286Y-69720771D01*
X153099286Y-69720771D02*
X153194524Y-69673152D01*
X153194524Y-69673152D02*
X153385000Y-69673152D01*
X153385000Y-69673152D02*
X153480238Y-69720771D01*
X153480238Y-69720771D02*
X153527857Y-69816009D01*
X153527857Y-69816009D02*
X153527857Y-69911247D01*
X153527857Y-69911247D02*
X153051667Y-70006485D01*
X154099286Y-70339819D02*
X154004048Y-70292200D01*
X154004048Y-70292200D02*
X153956429Y-70196961D01*
X153956429Y-70196961D02*
X153956429Y-69339819D01*
X134688450Y-66985713D02*
X134724164Y-66878571D01*
X134724164Y-66878571D02*
X134724164Y-66699999D01*
X134724164Y-66699999D02*
X134688450Y-66628571D01*
X134688450Y-66628571D02*
X134652735Y-66592856D01*
X134652735Y-66592856D02*
X134581307Y-66557142D01*
X134581307Y-66557142D02*
X134509878Y-66557142D01*
X134509878Y-66557142D02*
X134438450Y-66592856D01*
X134438450Y-66592856D02*
X134402735Y-66628571D01*
X134402735Y-66628571D02*
X134367021Y-66699999D01*
X134367021Y-66699999D02*
X134331307Y-66842856D01*
X134331307Y-66842856D02*
X134295592Y-66914285D01*
X134295592Y-66914285D02*
X134259878Y-66949999D01*
X134259878Y-66949999D02*
X134188450Y-66985713D01*
X134188450Y-66985713D02*
X134117021Y-66985713D01*
X134117021Y-66985713D02*
X134045592Y-66949999D01*
X134045592Y-66949999D02*
X134009878Y-66914285D01*
X134009878Y-66914285D02*
X133974164Y-66842856D01*
X133974164Y-66842856D02*
X133974164Y-66664285D01*
X133974164Y-66664285D02*
X134009878Y-66557142D01*
X134724164Y-66235713D02*
X133974164Y-66235713D01*
X133974164Y-66235713D02*
X133974164Y-66057142D01*
X133974164Y-66057142D02*
X134009878Y-65949999D01*
X134009878Y-65949999D02*
X134081307Y-65878570D01*
X134081307Y-65878570D02*
X134152735Y-65842856D01*
X134152735Y-65842856D02*
X134295592Y-65807142D01*
X134295592Y-65807142D02*
X134402735Y-65807142D01*
X134402735Y-65807142D02*
X134545592Y-65842856D01*
X134545592Y-65842856D02*
X134617021Y-65878570D01*
X134617021Y-65878570D02*
X134688450Y-65949999D01*
X134688450Y-65949999D02*
X134724164Y-66057142D01*
X134724164Y-66057142D02*
X134724164Y-66235713D01*
X134509878Y-65521427D02*
X134509878Y-65164285D01*
X134724164Y-65592856D02*
X133974164Y-65342856D01*
X133974164Y-65342856D02*
X134724164Y-65092856D01*
X134009878Y-74266428D02*
X133974164Y-74337857D01*
X133974164Y-74337857D02*
X133974164Y-74444999D01*
X133974164Y-74444999D02*
X134009878Y-74552142D01*
X134009878Y-74552142D02*
X134081307Y-74623571D01*
X134081307Y-74623571D02*
X134152735Y-74659285D01*
X134152735Y-74659285D02*
X134295592Y-74694999D01*
X134295592Y-74694999D02*
X134402735Y-74694999D01*
X134402735Y-74694999D02*
X134545592Y-74659285D01*
X134545592Y-74659285D02*
X134617021Y-74623571D01*
X134617021Y-74623571D02*
X134688450Y-74552142D01*
X134688450Y-74552142D02*
X134724164Y-74444999D01*
X134724164Y-74444999D02*
X134724164Y-74373571D01*
X134724164Y-74373571D02*
X134688450Y-74266428D01*
X134688450Y-74266428D02*
X134652735Y-74230714D01*
X134652735Y-74230714D02*
X134402735Y-74230714D01*
X134402735Y-74230714D02*
X134402735Y-74373571D01*
X134724164Y-73909285D02*
X133974164Y-73909285D01*
X133974164Y-73909285D02*
X134724164Y-73480714D01*
X134724164Y-73480714D02*
X133974164Y-73480714D01*
X134724164Y-73123571D02*
X133974164Y-73123571D01*
X133974164Y-73123571D02*
X133974164Y-72945000D01*
X133974164Y-72945000D02*
X134009878Y-72837857D01*
X134009878Y-72837857D02*
X134081307Y-72766428D01*
X134081307Y-72766428D02*
X134152735Y-72730714D01*
X134152735Y-72730714D02*
X134295592Y-72695000D01*
X134295592Y-72695000D02*
X134402735Y-72695000D01*
X134402735Y-72695000D02*
X134545592Y-72730714D01*
X134545592Y-72730714D02*
X134617021Y-72766428D01*
X134617021Y-72766428D02*
X134688450Y-72837857D01*
X134688450Y-72837857D02*
X134724164Y-72945000D01*
X134724164Y-72945000D02*
X134724164Y-73123571D01*
X133974164Y-72154999D02*
X134724164Y-71904999D01*
X134724164Y-71904999D02*
X133974164Y-71654999D01*
X134652735Y-70976428D02*
X134688450Y-71012142D01*
X134688450Y-71012142D02*
X134724164Y-71119285D01*
X134724164Y-71119285D02*
X134724164Y-71190713D01*
X134724164Y-71190713D02*
X134688450Y-71297856D01*
X134688450Y-71297856D02*
X134617021Y-71369285D01*
X134617021Y-71369285D02*
X134545592Y-71404999D01*
X134545592Y-71404999D02*
X134402735Y-71440713D01*
X134402735Y-71440713D02*
X134295592Y-71440713D01*
X134295592Y-71440713D02*
X134152735Y-71404999D01*
X134152735Y-71404999D02*
X134081307Y-71369285D01*
X134081307Y-71369285D02*
X134009878Y-71297856D01*
X134009878Y-71297856D02*
X133974164Y-71190713D01*
X133974164Y-71190713D02*
X133974164Y-71119285D01*
X133974164Y-71119285D02*
X134009878Y-71012142D01*
X134009878Y-71012142D02*
X134045592Y-70976428D01*
X134652735Y-70226428D02*
X134688450Y-70262142D01*
X134688450Y-70262142D02*
X134724164Y-70369285D01*
X134724164Y-70369285D02*
X134724164Y-70440713D01*
X134724164Y-70440713D02*
X134688450Y-70547856D01*
X134688450Y-70547856D02*
X134617021Y-70619285D01*
X134617021Y-70619285D02*
X134545592Y-70654999D01*
X134545592Y-70654999D02*
X134402735Y-70690713D01*
X134402735Y-70690713D02*
X134295592Y-70690713D01*
X134295592Y-70690713D02*
X134152735Y-70654999D01*
X134152735Y-70654999D02*
X134081307Y-70619285D01*
X134081307Y-70619285D02*
X134009878Y-70547856D01*
X134009878Y-70547856D02*
X133974164Y-70440713D01*
X133974164Y-70440713D02*
X133974164Y-70369285D01*
X133974164Y-70369285D02*
X134009878Y-70262142D01*
X134009878Y-70262142D02*
X134045592Y-70226428D01*
X134688450Y-69507856D02*
X134724164Y-69400714D01*
X134724164Y-69400714D02*
X134724164Y-69222142D01*
X134724164Y-69222142D02*
X134688450Y-69150714D01*
X134688450Y-69150714D02*
X134652735Y-69114999D01*
X134652735Y-69114999D02*
X134581307Y-69079285D01*
X134581307Y-69079285D02*
X134509878Y-69079285D01*
X134509878Y-69079285D02*
X134438450Y-69114999D01*
X134438450Y-69114999D02*
X134402735Y-69150714D01*
X134402735Y-69150714D02*
X134367021Y-69222142D01*
X134367021Y-69222142D02*
X134331307Y-69364999D01*
X134331307Y-69364999D02*
X134295592Y-69436428D01*
X134295592Y-69436428D02*
X134259878Y-69472142D01*
X134259878Y-69472142D02*
X134188450Y-69507856D01*
X134188450Y-69507856D02*
X134117021Y-69507856D01*
X134117021Y-69507856D02*
X134045592Y-69472142D01*
X134045592Y-69472142D02*
X134009878Y-69436428D01*
X134009878Y-69436428D02*
X133974164Y-69364999D01*
X133974164Y-69364999D02*
X133974164Y-69186428D01*
X133974164Y-69186428D02*
X134009878Y-69079285D01*
X134652735Y-68329285D02*
X134688450Y-68364999D01*
X134688450Y-68364999D02*
X134724164Y-68472142D01*
X134724164Y-68472142D02*
X134724164Y-68543570D01*
X134724164Y-68543570D02*
X134688450Y-68650713D01*
X134688450Y-68650713D02*
X134617021Y-68722142D01*
X134617021Y-68722142D02*
X134545592Y-68757856D01*
X134545592Y-68757856D02*
X134402735Y-68793570D01*
X134402735Y-68793570D02*
X134295592Y-68793570D01*
X134295592Y-68793570D02*
X134152735Y-68757856D01*
X134152735Y-68757856D02*
X134081307Y-68722142D01*
X134081307Y-68722142D02*
X134009878Y-68650713D01*
X134009878Y-68650713D02*
X133974164Y-68543570D01*
X133974164Y-68543570D02*
X133974164Y-68472142D01*
X133974164Y-68472142D02*
X134009878Y-68364999D01*
X134009878Y-68364999D02*
X134045592Y-68329285D01*
X134724164Y-67650713D02*
X134724164Y-68007856D01*
X134724164Y-68007856D02*
X133974164Y-68007856D01*
X156785714Y-122204819D02*
X156785714Y-121204819D01*
X156785714Y-121204819D02*
X157023809Y-121204819D01*
X157023809Y-121204819D02*
X157166666Y-121252438D01*
X157166666Y-121252438D02*
X157261904Y-121347676D01*
X157261904Y-121347676D02*
X157309523Y-121442914D01*
X157309523Y-121442914D02*
X157357142Y-121633390D01*
X157357142Y-121633390D02*
X157357142Y-121776247D01*
X157357142Y-121776247D02*
X157309523Y-121966723D01*
X157309523Y-121966723D02*
X157261904Y-122061961D01*
X157261904Y-122061961D02*
X157166666Y-122157200D01*
X157166666Y-122157200D02*
X157023809Y-122204819D01*
X157023809Y-122204819D02*
X156785714Y-122204819D01*
X158309523Y-122204819D02*
X157738095Y-122204819D01*
X158023809Y-122204819D02*
X158023809Y-121204819D01*
X158023809Y-121204819D02*
X157928571Y-121347676D01*
X157928571Y-121347676D02*
X157833333Y-121442914D01*
X157833333Y-121442914D02*
X157738095Y-121490533D01*
X159261904Y-122204819D02*
X158690476Y-122204819D01*
X158976190Y-122204819D02*
X158976190Y-121204819D01*
X158976190Y-121204819D02*
X158880952Y-121347676D01*
X158880952Y-121347676D02*
X158785714Y-121442914D01*
X158785714Y-121442914D02*
X158690476Y-121490533D01*
X160971428Y-119512704D02*
X161428571Y-119512704D01*
X161199999Y-119512704D02*
X161199999Y-120312704D01*
X161199999Y-120312704D02*
X161276190Y-120198419D01*
X161276190Y-120198419D02*
X161352380Y-120122228D01*
X161352380Y-120122228D02*
X161428571Y-120084133D01*
X152785714Y-100454819D02*
X152785714Y-99454819D01*
X152785714Y-99454819D02*
X153023809Y-99454819D01*
X153023809Y-99454819D02*
X153166666Y-99502438D01*
X153166666Y-99502438D02*
X153261904Y-99597676D01*
X153261904Y-99597676D02*
X153309523Y-99692914D01*
X153309523Y-99692914D02*
X153357142Y-99883390D01*
X153357142Y-99883390D02*
X153357142Y-100026247D01*
X153357142Y-100026247D02*
X153309523Y-100216723D01*
X153309523Y-100216723D02*
X153261904Y-100311961D01*
X153261904Y-100311961D02*
X153166666Y-100407200D01*
X153166666Y-100407200D02*
X153023809Y-100454819D01*
X153023809Y-100454819D02*
X152785714Y-100454819D01*
X154309523Y-100454819D02*
X153738095Y-100454819D01*
X154023809Y-100454819D02*
X154023809Y-99454819D01*
X154023809Y-99454819D02*
X153928571Y-99597676D01*
X153928571Y-99597676D02*
X153833333Y-99692914D01*
X153833333Y-99692914D02*
X153738095Y-99740533D01*
X154928571Y-99454819D02*
X155023809Y-99454819D01*
X155023809Y-99454819D02*
X155119047Y-99502438D01*
X155119047Y-99502438D02*
X155166666Y-99550057D01*
X155166666Y-99550057D02*
X155214285Y-99645295D01*
X155214285Y-99645295D02*
X155261904Y-99835771D01*
X155261904Y-99835771D02*
X155261904Y-100073866D01*
X155261904Y-100073866D02*
X155214285Y-100264342D01*
X155214285Y-100264342D02*
X155166666Y-100359580D01*
X155166666Y-100359580D02*
X155119047Y-100407200D01*
X155119047Y-100407200D02*
X155023809Y-100454819D01*
X155023809Y-100454819D02*
X154928571Y-100454819D01*
X154928571Y-100454819D02*
X154833333Y-100407200D01*
X154833333Y-100407200D02*
X154785714Y-100359580D01*
X154785714Y-100359580D02*
X154738095Y-100264342D01*
X154738095Y-100264342D02*
X154690476Y-100073866D01*
X154690476Y-100073866D02*
X154690476Y-99835771D01*
X154690476Y-99835771D02*
X154738095Y-99645295D01*
X154738095Y-99645295D02*
X154785714Y-99550057D01*
X154785714Y-99550057D02*
X154833333Y-99502438D01*
X154833333Y-99502438D02*
X154928571Y-99454819D01*
X155028571Y-99037295D02*
X154571428Y-99037295D01*
X154800000Y-99037295D02*
X154800000Y-98237295D01*
X154800000Y-98237295D02*
X154723809Y-98351580D01*
X154723809Y-98351580D02*
X154647619Y-98427771D01*
X154647619Y-98427771D02*
X154571428Y-98465866D01*
X137735417Y-82708200D02*
X137878274Y-82755819D01*
X137878274Y-82755819D02*
X138116369Y-82755819D01*
X138116369Y-82755819D02*
X138211607Y-82708200D01*
X138211607Y-82708200D02*
X138259226Y-82660580D01*
X138259226Y-82660580D02*
X138306845Y-82565342D01*
X138306845Y-82565342D02*
X138306845Y-82470104D01*
X138306845Y-82470104D02*
X138259226Y-82374866D01*
X138259226Y-82374866D02*
X138211607Y-82327247D01*
X138211607Y-82327247D02*
X138116369Y-82279628D01*
X138116369Y-82279628D02*
X137925893Y-82232009D01*
X137925893Y-82232009D02*
X137830655Y-82184390D01*
X137830655Y-82184390D02*
X137783036Y-82136771D01*
X137783036Y-82136771D02*
X137735417Y-82041533D01*
X137735417Y-82041533D02*
X137735417Y-81946295D01*
X137735417Y-81946295D02*
X137783036Y-81851057D01*
X137783036Y-81851057D02*
X137830655Y-81803438D01*
X137830655Y-81803438D02*
X137925893Y-81755819D01*
X137925893Y-81755819D02*
X138163988Y-81755819D01*
X138163988Y-81755819D02*
X138306845Y-81803438D01*
X138640179Y-81755819D02*
X138878274Y-82755819D01*
X138878274Y-82755819D02*
X139068750Y-82041533D01*
X139068750Y-82041533D02*
X139259226Y-82755819D01*
X139259226Y-82755819D02*
X139497322Y-81755819D01*
X140306845Y-82089152D02*
X140306845Y-82755819D01*
X140068750Y-81708200D02*
X139830655Y-82422485D01*
X139830655Y-82422485D02*
X140449702Y-82422485D01*
X134261905Y-100454819D02*
X134261905Y-99454819D01*
X134261905Y-99454819D02*
X134500000Y-99454819D01*
X134500000Y-99454819D02*
X134642857Y-99502438D01*
X134642857Y-99502438D02*
X134738095Y-99597676D01*
X134738095Y-99597676D02*
X134785714Y-99692914D01*
X134785714Y-99692914D02*
X134833333Y-99883390D01*
X134833333Y-99883390D02*
X134833333Y-100026247D01*
X134833333Y-100026247D02*
X134785714Y-100216723D01*
X134785714Y-100216723D02*
X134738095Y-100311961D01*
X134738095Y-100311961D02*
X134642857Y-100407200D01*
X134642857Y-100407200D02*
X134500000Y-100454819D01*
X134500000Y-100454819D02*
X134261905Y-100454819D01*
X135690476Y-99454819D02*
X135500000Y-99454819D01*
X135500000Y-99454819D02*
X135404762Y-99502438D01*
X135404762Y-99502438D02*
X135357143Y-99550057D01*
X135357143Y-99550057D02*
X135261905Y-99692914D01*
X135261905Y-99692914D02*
X135214286Y-99883390D01*
X135214286Y-99883390D02*
X135214286Y-100264342D01*
X135214286Y-100264342D02*
X135261905Y-100359580D01*
X135261905Y-100359580D02*
X135309524Y-100407200D01*
X135309524Y-100407200D02*
X135404762Y-100454819D01*
X135404762Y-100454819D02*
X135595238Y-100454819D01*
X135595238Y-100454819D02*
X135690476Y-100407200D01*
X135690476Y-100407200D02*
X135738095Y-100359580D01*
X135738095Y-100359580D02*
X135785714Y-100264342D01*
X135785714Y-100264342D02*
X135785714Y-100026247D01*
X135785714Y-100026247D02*
X135738095Y-99931009D01*
X135738095Y-99931009D02*
X135690476Y-99883390D01*
X135690476Y-99883390D02*
X135595238Y-99835771D01*
X135595238Y-99835771D02*
X135404762Y-99835771D01*
X135404762Y-99835771D02*
X135309524Y-99883390D01*
X135309524Y-99883390D02*
X135261905Y-99931009D01*
X135261905Y-99931009D02*
X135214286Y-100026247D01*
X136028571Y-99037295D02*
X135571428Y-99037295D01*
X135800000Y-99037295D02*
X135800000Y-98237295D01*
X135800000Y-98237295D02*
X135723809Y-98351580D01*
X135723809Y-98351580D02*
X135647619Y-98427771D01*
X135647619Y-98427771D02*
X135571428Y-98465866D01*
X156785417Y-101758200D02*
X156928274Y-101805819D01*
X156928274Y-101805819D02*
X157166369Y-101805819D01*
X157166369Y-101805819D02*
X157261607Y-101758200D01*
X157261607Y-101758200D02*
X157309226Y-101710580D01*
X157309226Y-101710580D02*
X157356845Y-101615342D01*
X157356845Y-101615342D02*
X157356845Y-101520104D01*
X157356845Y-101520104D02*
X157309226Y-101424866D01*
X157309226Y-101424866D02*
X157261607Y-101377247D01*
X157261607Y-101377247D02*
X157166369Y-101329628D01*
X157166369Y-101329628D02*
X156975893Y-101282009D01*
X156975893Y-101282009D02*
X156880655Y-101234390D01*
X156880655Y-101234390D02*
X156833036Y-101186771D01*
X156833036Y-101186771D02*
X156785417Y-101091533D01*
X156785417Y-101091533D02*
X156785417Y-100996295D01*
X156785417Y-100996295D02*
X156833036Y-100901057D01*
X156833036Y-100901057D02*
X156880655Y-100853438D01*
X156880655Y-100853438D02*
X156975893Y-100805819D01*
X156975893Y-100805819D02*
X157213988Y-100805819D01*
X157213988Y-100805819D02*
X157356845Y-100853438D01*
X157690179Y-100805819D02*
X157928274Y-101805819D01*
X157928274Y-101805819D02*
X158118750Y-101091533D01*
X158118750Y-101091533D02*
X158309226Y-101805819D01*
X158309226Y-101805819D02*
X158547322Y-100805819D01*
X159071131Y-101234390D02*
X158975893Y-101186771D01*
X158975893Y-101186771D02*
X158928274Y-101139152D01*
X158928274Y-101139152D02*
X158880655Y-101043914D01*
X158880655Y-101043914D02*
X158880655Y-100996295D01*
X158880655Y-100996295D02*
X158928274Y-100901057D01*
X158928274Y-100901057D02*
X158975893Y-100853438D01*
X158975893Y-100853438D02*
X159071131Y-100805819D01*
X159071131Y-100805819D02*
X159261607Y-100805819D01*
X159261607Y-100805819D02*
X159356845Y-100853438D01*
X159356845Y-100853438D02*
X159404464Y-100901057D01*
X159404464Y-100901057D02*
X159452083Y-100996295D01*
X159452083Y-100996295D02*
X159452083Y-101043914D01*
X159452083Y-101043914D02*
X159404464Y-101139152D01*
X159404464Y-101139152D02*
X159356845Y-101186771D01*
X159356845Y-101186771D02*
X159261607Y-101234390D01*
X159261607Y-101234390D02*
X159071131Y-101234390D01*
X159071131Y-101234390D02*
X158975893Y-101282009D01*
X158975893Y-101282009D02*
X158928274Y-101329628D01*
X158928274Y-101329628D02*
X158880655Y-101424866D01*
X158880655Y-101424866D02*
X158880655Y-101615342D01*
X158880655Y-101615342D02*
X158928274Y-101710580D01*
X158928274Y-101710580D02*
X158975893Y-101758200D01*
X158975893Y-101758200D02*
X159071131Y-101805819D01*
X159071131Y-101805819D02*
X159261607Y-101805819D01*
X159261607Y-101805819D02*
X159356845Y-101758200D01*
X159356845Y-101758200D02*
X159404464Y-101710580D01*
X159404464Y-101710580D02*
X159452083Y-101615342D01*
X159452083Y-101615342D02*
X159452083Y-101424866D01*
X159452083Y-101424866D02*
X159404464Y-101329628D01*
X159404464Y-101329628D02*
X159356845Y-101282009D01*
X159356845Y-101282009D02*
X159261607Y-101234390D01*
X156785417Y-82708200D02*
X156928274Y-82755819D01*
X156928274Y-82755819D02*
X157166369Y-82755819D01*
X157166369Y-82755819D02*
X157261607Y-82708200D01*
X157261607Y-82708200D02*
X157309226Y-82660580D01*
X157309226Y-82660580D02*
X157356845Y-82565342D01*
X157356845Y-82565342D02*
X157356845Y-82470104D01*
X157356845Y-82470104D02*
X157309226Y-82374866D01*
X157309226Y-82374866D02*
X157261607Y-82327247D01*
X157261607Y-82327247D02*
X157166369Y-82279628D01*
X157166369Y-82279628D02*
X156975893Y-82232009D01*
X156975893Y-82232009D02*
X156880655Y-82184390D01*
X156880655Y-82184390D02*
X156833036Y-82136771D01*
X156833036Y-82136771D02*
X156785417Y-82041533D01*
X156785417Y-82041533D02*
X156785417Y-81946295D01*
X156785417Y-81946295D02*
X156833036Y-81851057D01*
X156833036Y-81851057D02*
X156880655Y-81803438D01*
X156880655Y-81803438D02*
X156975893Y-81755819D01*
X156975893Y-81755819D02*
X157213988Y-81755819D01*
X157213988Y-81755819D02*
X157356845Y-81803438D01*
X157690179Y-81755819D02*
X157928274Y-82755819D01*
X157928274Y-82755819D02*
X158118750Y-82041533D01*
X158118750Y-82041533D02*
X158309226Y-82755819D01*
X158309226Y-82755819D02*
X158547322Y-81755819D01*
X159356845Y-81755819D02*
X159166369Y-81755819D01*
X159166369Y-81755819D02*
X159071131Y-81803438D01*
X159071131Y-81803438D02*
X159023512Y-81851057D01*
X159023512Y-81851057D02*
X158928274Y-81993914D01*
X158928274Y-81993914D02*
X158880655Y-82184390D01*
X158880655Y-82184390D02*
X158880655Y-82565342D01*
X158880655Y-82565342D02*
X158928274Y-82660580D01*
X158928274Y-82660580D02*
X158975893Y-82708200D01*
X158975893Y-82708200D02*
X159071131Y-82755819D01*
X159071131Y-82755819D02*
X159261607Y-82755819D01*
X159261607Y-82755819D02*
X159356845Y-82708200D01*
X159356845Y-82708200D02*
X159404464Y-82660580D01*
X159404464Y-82660580D02*
X159452083Y-82565342D01*
X159452083Y-82565342D02*
X159452083Y-82327247D01*
X159452083Y-82327247D02*
X159404464Y-82232009D01*
X159404464Y-82232009D02*
X159356845Y-82184390D01*
X159356845Y-82184390D02*
X159261607Y-82136771D01*
X159261607Y-82136771D02*
X159071131Y-82136771D01*
X159071131Y-82136771D02*
X158975893Y-82184390D01*
X158975893Y-82184390D02*
X158928274Y-82232009D01*
X158928274Y-82232009D02*
X158880655Y-82327247D01*
X115261905Y-100454819D02*
X115261905Y-99454819D01*
X115261905Y-99454819D02*
X115500000Y-99454819D01*
X115500000Y-99454819D02*
X115642857Y-99502438D01*
X115642857Y-99502438D02*
X115738095Y-99597676D01*
X115738095Y-99597676D02*
X115785714Y-99692914D01*
X115785714Y-99692914D02*
X115833333Y-99883390D01*
X115833333Y-99883390D02*
X115833333Y-100026247D01*
X115833333Y-100026247D02*
X115785714Y-100216723D01*
X115785714Y-100216723D02*
X115738095Y-100311961D01*
X115738095Y-100311961D02*
X115642857Y-100407200D01*
X115642857Y-100407200D02*
X115500000Y-100454819D01*
X115500000Y-100454819D02*
X115261905Y-100454819D01*
X116785714Y-100454819D02*
X116214286Y-100454819D01*
X116500000Y-100454819D02*
X116500000Y-99454819D01*
X116500000Y-99454819D02*
X116404762Y-99597676D01*
X116404762Y-99597676D02*
X116309524Y-99692914D01*
X116309524Y-99692914D02*
X116214286Y-99740533D01*
X116278571Y-99037295D02*
X115821428Y-99037295D01*
X116050000Y-99037295D02*
X116050000Y-98237295D01*
X116050000Y-98237295D02*
X115973809Y-98351580D01*
X115973809Y-98351580D02*
X115897619Y-98427771D01*
X115897619Y-98427771D02*
X115821428Y-98465866D01*
D14*
%TO.C,SW7*%
X107700000Y-63400000D02*
X108300000Y-63400000D01*
X108000000Y-63700000D02*
X107700000Y-63400000D01*
X108300000Y-63400000D02*
X108000000Y-63700000D01*
X109400000Y-61600000D02*
X109400000Y-73400000D01*
X113500000Y-61600000D02*
X109400000Y-61600000D01*
X113500000Y-73400000D02*
X109400000Y-73400000D01*
X115000000Y-67500000D02*
X116000000Y-67500000D01*
X115500000Y-67000000D02*
X115500000Y-68000000D01*
X117500000Y-61600000D02*
X121600000Y-61600000D01*
X121600000Y-61600000D02*
X121600000Y-64000000D01*
X121600000Y-66200000D02*
X121600000Y-68800000D01*
X121600000Y-71000000D02*
X121600000Y-73400000D01*
X121600000Y-73400000D02*
X117500000Y-73400000D01*
X118500000Y-67500000D02*
G75*
G02*
X112500000Y-67500000I-3000000J0D01*
G01*
X112500000Y-67500000D02*
G75*
G02*
X118500000Y-67500000I3000000J0D01*
G01*
%TO.C,D2*%
X116450000Y-117600000D02*
X116450000Y-121000000D01*
X116450000Y-117600000D02*
X117050000Y-117000000D01*
X122050000Y-117000000D02*
X117050000Y-117000000D01*
X122050000Y-121000000D02*
X116450000Y-121000000D01*
X122050000Y-121000000D02*
X122050000Y-117000000D01*
%TO.C,SW5*%
X132083750Y-102240000D02*
X146053750Y-102240000D01*
X132083750Y-116210000D02*
X132083750Y-102240000D01*
X146053750Y-102240000D02*
X146053750Y-116210000D01*
X146053750Y-116210000D02*
X132083750Y-116210000D01*
%TO.C,SW1*%
X113033750Y-83190000D02*
X127003750Y-83190000D01*
X113033750Y-97160000D02*
X113033750Y-83190000D01*
X127003750Y-83190000D02*
X127003750Y-97160000D01*
X127003750Y-97160000D02*
X113033750Y-97160000D01*
%TO.C,D12*%
X136450000Y-117600000D02*
X136450000Y-121000000D01*
X136450000Y-117600000D02*
X137050000Y-117000000D01*
X142050000Y-117000000D02*
X137050000Y-117000000D01*
X142050000Y-121000000D02*
X136450000Y-121000000D01*
X142050000Y-121000000D02*
X142050000Y-117000000D01*
D15*
%TO.C,U1*%
X77549000Y-113991272D02*
X77549000Y-105996000D01*
X78049000Y-105496000D02*
X78959000Y-105496000D01*
D10*
X78959000Y-103015000D02*
X78959000Y-116985000D01*
D15*
X78959000Y-103015000D02*
X78959000Y-116985000D01*
X78959000Y-114495000D02*
X78048728Y-114491272D01*
X98009000Y-101110000D02*
X80864000Y-101110000D01*
X98009000Y-118890000D02*
X80864000Y-118890000D01*
X99914000Y-116985000D02*
X99914000Y-103015000D01*
X77549000Y-105996000D02*
G75*
G02*
X78049000Y-105496000I500000J0D01*
G01*
X78048728Y-114491272D02*
G75*
G02*
X77549001Y-113991272I291J500018D01*
G01*
X78959000Y-103015000D02*
G75*
G02*
X80864000Y-101110000I1905000J0D01*
G01*
X80864000Y-118890000D02*
G75*
G02*
X78959000Y-116985000I1J1905001D01*
G01*
X98009000Y-101110000D02*
G75*
G02*
X99914000Y-103015000I0J-1905000D01*
G01*
X99914000Y-116985000D02*
G75*
G02*
X98009000Y-118890000I-1905001J1D01*
G01*
D16*
X79452000Y-118950000D02*
G75*
G02*
X78948000Y-118950000I-252000J0D01*
G01*
X78948000Y-118950000D02*
G75*
G02*
X79452000Y-118950000I252000J0D01*
G01*
X80332000Y-117807000D02*
G75*
G02*
X79828000Y-117807000I-252000J0D01*
G01*
X79828000Y-117807000D02*
G75*
G02*
X80332000Y-117807000I252000J0D01*
G01*
D14*
%TO.C,SW2*%
X113033750Y-102240000D02*
X127003750Y-102240000D01*
X113033750Y-116210000D02*
X113033750Y-102240000D01*
X127003750Y-102240000D02*
X127003750Y-116210000D01*
X127003750Y-116210000D02*
X113033750Y-116210000D01*
D17*
%TO.C,J1*%
X130885000Y-63885000D02*
X130885000Y-75885000D01*
X130885000Y-75885000D02*
X168885000Y-75885000D01*
X135885000Y-75885000D02*
X135885000Y-63885000D01*
X165385000Y-75885000D02*
X165385000Y-63885000D01*
X168885000Y-63885000D02*
X130885000Y-63885000D01*
X168885000Y-75885000D02*
X168885000Y-63885000D01*
D14*
%TO.C,D11*%
X155200000Y-117600000D02*
X155200000Y-121000000D01*
X155200000Y-117600000D02*
X155800000Y-117000000D01*
X160800000Y-117000000D02*
X155800000Y-117000000D01*
X160800000Y-121000000D02*
X155200000Y-121000000D01*
X160800000Y-121000000D02*
X160800000Y-117000000D01*
%TO.C,D10*%
X155200000Y-97550000D02*
X155200000Y-101550000D01*
X155200000Y-97550000D02*
X160800000Y-97550000D01*
X155200000Y-101550000D02*
X160200000Y-101550000D01*
X160800000Y-100950000D02*
X160200000Y-101550000D01*
X160800000Y-100950000D02*
X160800000Y-97550000D01*
%TO.C,SW4*%
X132083750Y-83190000D02*
X146053750Y-83190000D01*
X132083750Y-97160000D02*
X132083750Y-83190000D01*
X146053750Y-83190000D02*
X146053750Y-97160000D01*
X146053750Y-97160000D02*
X132083750Y-97160000D01*
%TO.C,D6*%
X136200000Y-97550000D02*
X136200000Y-101550000D01*
X136200000Y-97550000D02*
X141800000Y-97550000D01*
X136200000Y-101550000D02*
X141200000Y-101550000D01*
X141800000Y-100950000D02*
X141200000Y-101550000D01*
X141800000Y-100950000D02*
X141800000Y-97550000D01*
%TO.C,SW8*%
X151133750Y-102240000D02*
X165103750Y-102240000D01*
X151133750Y-116210000D02*
X151133750Y-102240000D01*
X165103750Y-102240000D02*
X165103750Y-116210000D01*
X165103750Y-116210000D02*
X151133750Y-116210000D01*
%TO.C,SW6*%
X151133750Y-83190000D02*
X165103750Y-83190000D01*
X151133750Y-97160000D02*
X151133750Y-83190000D01*
X165103750Y-83190000D02*
X165103750Y-97160000D01*
X165103750Y-97160000D02*
X151133750Y-97160000D01*
%TO.C,D1*%
X116450000Y-97550000D02*
X116450000Y-101550000D01*
X116450000Y-97550000D02*
X122050000Y-97550000D01*
X116450000Y-101550000D02*
X121450000Y-101550000D01*
X122050000Y-100950000D02*
X121450000Y-101550000D01*
X122050000Y-100950000D02*
X122050000Y-97550000D01*
%TD*%
M02*
