%TF.GenerationSoftware,KiCad,Pcbnew,9.0.6*%
%TF.CreationDate,2025-11-19T10:03:52+06:00*%
%TF.ProjectId,MiniMicroG,4d696e69-4d69-4637-926f-472e6b696361,rev?*%
%TF.SameCoordinates,Original*%
%TF.FileFunction,Legend,Bot*%
%TF.FilePolarity,Positive*%
%FSLAX46Y46*%
G04 Gerber Fmt 4.6, Leading zero omitted, Abs format (unit mm)*
G04 Created by KiCad (PCBNEW 9.0.6) date 2025-11-19 10:03:52*
%MOMM*%
%LPD*%
G01*
G04 APERTURE LIST*
%ADD10C,0.100000*%
%ADD11C,0.150000*%
%ADD12C,0.120000*%
G04 APERTURE END LIST*
D10*
X103124687Y-54777180D02*
X103172306Y-54824800D01*
X103172306Y-54824800D02*
X103315163Y-54872419D01*
X103315163Y-54872419D02*
X103410401Y-54872419D01*
X103410401Y-54872419D02*
X103553258Y-54824800D01*
X103553258Y-54824800D02*
X103648496Y-54729561D01*
X103648496Y-54729561D02*
X103696115Y-54634323D01*
X103696115Y-54634323D02*
X103743734Y-54443847D01*
X103743734Y-54443847D02*
X103743734Y-54300990D01*
X103743734Y-54300990D02*
X103696115Y-54110514D01*
X103696115Y-54110514D02*
X103648496Y-54015276D01*
X103648496Y-54015276D02*
X103553258Y-53920038D01*
X103553258Y-53920038D02*
X103410401Y-53872419D01*
X103410401Y-53872419D02*
X103315163Y-53872419D01*
X103315163Y-53872419D02*
X103172306Y-53920038D01*
X103172306Y-53920038D02*
X103124687Y-53967657D01*
X102696115Y-54872419D02*
X102696115Y-54205752D01*
X102696115Y-54396228D02*
X102648496Y-54300990D01*
X102648496Y-54300990D02*
X102600877Y-54253371D01*
X102600877Y-54253371D02*
X102505639Y-54205752D01*
X102505639Y-54205752D02*
X102410401Y-54205752D01*
X101696115Y-54824800D02*
X101791353Y-54872419D01*
X101791353Y-54872419D02*
X101981829Y-54872419D01*
X101981829Y-54872419D02*
X102077067Y-54824800D01*
X102077067Y-54824800D02*
X102124686Y-54729561D01*
X102124686Y-54729561D02*
X102124686Y-54348609D01*
X102124686Y-54348609D02*
X102077067Y-54253371D01*
X102077067Y-54253371D02*
X101981829Y-54205752D01*
X101981829Y-54205752D02*
X101791353Y-54205752D01*
X101791353Y-54205752D02*
X101696115Y-54253371D01*
X101696115Y-54253371D02*
X101648496Y-54348609D01*
X101648496Y-54348609D02*
X101648496Y-54443847D01*
X101648496Y-54443847D02*
X102124686Y-54539085D01*
X100791353Y-54872419D02*
X100791353Y-54348609D01*
X100791353Y-54348609D02*
X100838972Y-54253371D01*
X100838972Y-54253371D02*
X100934210Y-54205752D01*
X100934210Y-54205752D02*
X101124686Y-54205752D01*
X101124686Y-54205752D02*
X101219924Y-54253371D01*
X100791353Y-54824800D02*
X100886591Y-54872419D01*
X100886591Y-54872419D02*
X101124686Y-54872419D01*
X101124686Y-54872419D02*
X101219924Y-54824800D01*
X101219924Y-54824800D02*
X101267543Y-54729561D01*
X101267543Y-54729561D02*
X101267543Y-54634323D01*
X101267543Y-54634323D02*
X101219924Y-54539085D01*
X101219924Y-54539085D02*
X101124686Y-54491466D01*
X101124686Y-54491466D02*
X100886591Y-54491466D01*
X100886591Y-54491466D02*
X100791353Y-54443847D01*
X100458019Y-54205752D02*
X100077067Y-54205752D01*
X100315162Y-53872419D02*
X100315162Y-54729561D01*
X100315162Y-54729561D02*
X100267543Y-54824800D01*
X100267543Y-54824800D02*
X100172305Y-54872419D01*
X100172305Y-54872419D02*
X100077067Y-54872419D01*
X99362781Y-54824800D02*
X99458019Y-54872419D01*
X99458019Y-54872419D02*
X99648495Y-54872419D01*
X99648495Y-54872419D02*
X99743733Y-54824800D01*
X99743733Y-54824800D02*
X99791352Y-54729561D01*
X99791352Y-54729561D02*
X99791352Y-54348609D01*
X99791352Y-54348609D02*
X99743733Y-54253371D01*
X99743733Y-54253371D02*
X99648495Y-54205752D01*
X99648495Y-54205752D02*
X99458019Y-54205752D01*
X99458019Y-54205752D02*
X99362781Y-54253371D01*
X99362781Y-54253371D02*
X99315162Y-54348609D01*
X99315162Y-54348609D02*
X99315162Y-54443847D01*
X99315162Y-54443847D02*
X99791352Y-54539085D01*
X98458019Y-54872419D02*
X98458019Y-53872419D01*
X98458019Y-54824800D02*
X98553257Y-54872419D01*
X98553257Y-54872419D02*
X98743733Y-54872419D01*
X98743733Y-54872419D02*
X98838971Y-54824800D01*
X98838971Y-54824800D02*
X98886590Y-54777180D01*
X98886590Y-54777180D02*
X98934209Y-54681942D01*
X98934209Y-54681942D02*
X98934209Y-54396228D01*
X98934209Y-54396228D02*
X98886590Y-54300990D01*
X98886590Y-54300990D02*
X98838971Y-54253371D01*
X98838971Y-54253371D02*
X98743733Y-54205752D01*
X98743733Y-54205752D02*
X98553257Y-54205752D01*
X98553257Y-54205752D02*
X98458019Y-54253371D01*
X97219923Y-54872419D02*
X97219923Y-53872419D01*
X97219923Y-54253371D02*
X97124685Y-54205752D01*
X97124685Y-54205752D02*
X96934209Y-54205752D01*
X96934209Y-54205752D02*
X96838971Y-54253371D01*
X96838971Y-54253371D02*
X96791352Y-54300990D01*
X96791352Y-54300990D02*
X96743733Y-54396228D01*
X96743733Y-54396228D02*
X96743733Y-54681942D01*
X96743733Y-54681942D02*
X96791352Y-54777180D01*
X96791352Y-54777180D02*
X96838971Y-54824800D01*
X96838971Y-54824800D02*
X96934209Y-54872419D01*
X96934209Y-54872419D02*
X97124685Y-54872419D01*
X97124685Y-54872419D02*
X97219923Y-54824800D01*
X96410399Y-54205752D02*
X96172304Y-54872419D01*
X95934209Y-54205752D02*
X96172304Y-54872419D01*
X96172304Y-54872419D02*
X96267542Y-55110514D01*
X96267542Y-55110514D02*
X96315161Y-55158133D01*
X96315161Y-55158133D02*
X96410399Y-55205752D01*
X94172304Y-54396228D02*
X94219923Y-54348609D01*
X94219923Y-54348609D02*
X94315161Y-54300990D01*
X94315161Y-54300990D02*
X94410399Y-54300990D01*
X94410399Y-54300990D02*
X94505637Y-54348609D01*
X94505637Y-54348609D02*
X94553256Y-54396228D01*
X94553256Y-54396228D02*
X94600875Y-54491466D01*
X94600875Y-54491466D02*
X94600875Y-54586704D01*
X94600875Y-54586704D02*
X94553256Y-54681942D01*
X94553256Y-54681942D02*
X94505637Y-54729561D01*
X94505637Y-54729561D02*
X94410399Y-54777180D01*
X94410399Y-54777180D02*
X94315161Y-54777180D01*
X94315161Y-54777180D02*
X94219923Y-54729561D01*
X94219923Y-54729561D02*
X94172304Y-54681942D01*
X94172304Y-54300990D02*
X94172304Y-54681942D01*
X94172304Y-54681942D02*
X94124685Y-54729561D01*
X94124685Y-54729561D02*
X94077066Y-54729561D01*
X94077066Y-54729561D02*
X93981827Y-54681942D01*
X93981827Y-54681942D02*
X93934208Y-54586704D01*
X93934208Y-54586704D02*
X93934208Y-54348609D01*
X93934208Y-54348609D02*
X94029447Y-54205752D01*
X94029447Y-54205752D02*
X94172304Y-54110514D01*
X94172304Y-54110514D02*
X94362780Y-54062895D01*
X94362780Y-54062895D02*
X94553256Y-54110514D01*
X94553256Y-54110514D02*
X94696113Y-54205752D01*
X94696113Y-54205752D02*
X94791351Y-54348609D01*
X94791351Y-54348609D02*
X94838970Y-54539085D01*
X94838970Y-54539085D02*
X94791351Y-54729561D01*
X94791351Y-54729561D02*
X94696113Y-54872419D01*
X94696113Y-54872419D02*
X94553256Y-54967657D01*
X94553256Y-54967657D02*
X94362780Y-55015276D01*
X94362780Y-55015276D02*
X94172304Y-54967657D01*
X94172304Y-54967657D02*
X94029447Y-54872419D01*
X93077066Y-54824800D02*
X93172304Y-54872419D01*
X93172304Y-54872419D02*
X93362780Y-54872419D01*
X93362780Y-54872419D02*
X93458018Y-54824800D01*
X93458018Y-54824800D02*
X93505637Y-54777180D01*
X93505637Y-54777180D02*
X93553256Y-54681942D01*
X93553256Y-54681942D02*
X93553256Y-54396228D01*
X93553256Y-54396228D02*
X93505637Y-54300990D01*
X93505637Y-54300990D02*
X93458018Y-54253371D01*
X93458018Y-54253371D02*
X93362780Y-54205752D01*
X93362780Y-54205752D02*
X93172304Y-54205752D01*
X93172304Y-54205752D02*
X93077066Y-54253371D01*
X92505637Y-54872419D02*
X92600875Y-54824800D01*
X92600875Y-54824800D02*
X92648494Y-54777180D01*
X92648494Y-54777180D02*
X92696113Y-54681942D01*
X92696113Y-54681942D02*
X92696113Y-54396228D01*
X92696113Y-54396228D02*
X92648494Y-54300990D01*
X92648494Y-54300990D02*
X92600875Y-54253371D01*
X92600875Y-54253371D02*
X92505637Y-54205752D01*
X92505637Y-54205752D02*
X92362780Y-54205752D01*
X92362780Y-54205752D02*
X92267542Y-54253371D01*
X92267542Y-54253371D02*
X92219923Y-54300990D01*
X92219923Y-54300990D02*
X92172304Y-54396228D01*
X92172304Y-54396228D02*
X92172304Y-54681942D01*
X92172304Y-54681942D02*
X92219923Y-54777180D01*
X92219923Y-54777180D02*
X92267542Y-54824800D01*
X92267542Y-54824800D02*
X92362780Y-54872419D01*
X92362780Y-54872419D02*
X92505637Y-54872419D01*
X91315161Y-54872419D02*
X91315161Y-53872419D01*
X91315161Y-54824800D02*
X91410399Y-54872419D01*
X91410399Y-54872419D02*
X91600875Y-54872419D01*
X91600875Y-54872419D02*
X91696113Y-54824800D01*
X91696113Y-54824800D02*
X91743732Y-54777180D01*
X91743732Y-54777180D02*
X91791351Y-54681942D01*
X91791351Y-54681942D02*
X91791351Y-54396228D01*
X91791351Y-54396228D02*
X91743732Y-54300990D01*
X91743732Y-54300990D02*
X91696113Y-54253371D01*
X91696113Y-54253371D02*
X91600875Y-54205752D01*
X91600875Y-54205752D02*
X91410399Y-54205752D01*
X91410399Y-54205752D02*
X91315161Y-54253371D01*
X90458018Y-54824800D02*
X90553256Y-54872419D01*
X90553256Y-54872419D02*
X90743732Y-54872419D01*
X90743732Y-54872419D02*
X90838970Y-54824800D01*
X90838970Y-54824800D02*
X90886589Y-54729561D01*
X90886589Y-54729561D02*
X90886589Y-54348609D01*
X90886589Y-54348609D02*
X90838970Y-54253371D01*
X90838970Y-54253371D02*
X90743732Y-54205752D01*
X90743732Y-54205752D02*
X90553256Y-54205752D01*
X90553256Y-54205752D02*
X90458018Y-54253371D01*
X90458018Y-54253371D02*
X90410399Y-54348609D01*
X90410399Y-54348609D02*
X90410399Y-54443847D01*
X90410399Y-54443847D02*
X90886589Y-54539085D01*
X89553256Y-54824800D02*
X89648494Y-54872419D01*
X89648494Y-54872419D02*
X89838970Y-54872419D01*
X89838970Y-54872419D02*
X89934208Y-54824800D01*
X89934208Y-54824800D02*
X89981827Y-54777180D01*
X89981827Y-54777180D02*
X90029446Y-54681942D01*
X90029446Y-54681942D02*
X90029446Y-54396228D01*
X90029446Y-54396228D02*
X89981827Y-54300990D01*
X89981827Y-54300990D02*
X89934208Y-54253371D01*
X89934208Y-54253371D02*
X89838970Y-54205752D01*
X89838970Y-54205752D02*
X89648494Y-54205752D01*
X89648494Y-54205752D02*
X89553256Y-54253371D01*
X88981827Y-54872419D02*
X89077065Y-54824800D01*
X89077065Y-54824800D02*
X89124684Y-54777180D01*
X89124684Y-54777180D02*
X89172303Y-54681942D01*
X89172303Y-54681942D02*
X89172303Y-54396228D01*
X89172303Y-54396228D02*
X89124684Y-54300990D01*
X89124684Y-54300990D02*
X89077065Y-54253371D01*
X89077065Y-54253371D02*
X88981827Y-54205752D01*
X88981827Y-54205752D02*
X88838970Y-54205752D01*
X88838970Y-54205752D02*
X88743732Y-54253371D01*
X88743732Y-54253371D02*
X88696113Y-54300990D01*
X88696113Y-54300990D02*
X88648494Y-54396228D01*
X88648494Y-54396228D02*
X88648494Y-54681942D01*
X88648494Y-54681942D02*
X88696113Y-54777180D01*
X88696113Y-54777180D02*
X88743732Y-54824800D01*
X88743732Y-54824800D02*
X88838970Y-54872419D01*
X88838970Y-54872419D02*
X88981827Y-54872419D01*
X88077065Y-54872419D02*
X88172303Y-54824800D01*
X88172303Y-54824800D02*
X88219922Y-54777180D01*
X88219922Y-54777180D02*
X88267541Y-54681942D01*
X88267541Y-54681942D02*
X88267541Y-54396228D01*
X88267541Y-54396228D02*
X88219922Y-54300990D01*
X88219922Y-54300990D02*
X88172303Y-54253371D01*
X88172303Y-54253371D02*
X88077065Y-54205752D01*
X88077065Y-54205752D02*
X87934208Y-54205752D01*
X87934208Y-54205752D02*
X87838970Y-54253371D01*
X87838970Y-54253371D02*
X87791351Y-54300990D01*
X87791351Y-54300990D02*
X87743732Y-54396228D01*
X87743732Y-54396228D02*
X87743732Y-54681942D01*
X87743732Y-54681942D02*
X87791351Y-54777180D01*
X87791351Y-54777180D02*
X87838970Y-54824800D01*
X87838970Y-54824800D02*
X87934208Y-54872419D01*
X87934208Y-54872419D02*
X88077065Y-54872419D01*
X87315160Y-54872419D02*
X87315160Y-53872419D01*
X87219922Y-54491466D02*
X86934208Y-54872419D01*
X86934208Y-54205752D02*
X87315160Y-54586704D01*
X86124684Y-54824800D02*
X86219922Y-54872419D01*
X86219922Y-54872419D02*
X86410398Y-54872419D01*
X86410398Y-54872419D02*
X86505636Y-54824800D01*
X86505636Y-54824800D02*
X86553255Y-54729561D01*
X86553255Y-54729561D02*
X86553255Y-54348609D01*
X86553255Y-54348609D02*
X86505636Y-54253371D01*
X86505636Y-54253371D02*
X86410398Y-54205752D01*
X86410398Y-54205752D02*
X86219922Y-54205752D01*
X86219922Y-54205752D02*
X86124684Y-54253371D01*
X86124684Y-54253371D02*
X86077065Y-54348609D01*
X86077065Y-54348609D02*
X86077065Y-54443847D01*
X86077065Y-54443847D02*
X86553255Y-54539085D01*
X85648493Y-54872419D02*
X85648493Y-54205752D01*
X85648493Y-54396228D02*
X85600874Y-54300990D01*
X85600874Y-54300990D02*
X85553255Y-54253371D01*
X85553255Y-54253371D02*
X85458017Y-54205752D01*
X85458017Y-54205752D02*
X85362779Y-54205752D01*
X84505636Y-54872419D02*
X85077064Y-54872419D01*
X84791350Y-54872419D02*
X84791350Y-53872419D01*
X84791350Y-53872419D02*
X84886588Y-54015276D01*
X84886588Y-54015276D02*
X84981826Y-54110514D01*
X84981826Y-54110514D02*
X85077064Y-54158133D01*
X164124687Y-54777180D02*
X164172306Y-54824800D01*
X164172306Y-54824800D02*
X164315163Y-54872419D01*
X164315163Y-54872419D02*
X164410401Y-54872419D01*
X164410401Y-54872419D02*
X164553258Y-54824800D01*
X164553258Y-54824800D02*
X164648496Y-54729561D01*
X164648496Y-54729561D02*
X164696115Y-54634323D01*
X164696115Y-54634323D02*
X164743734Y-54443847D01*
X164743734Y-54443847D02*
X164743734Y-54300990D01*
X164743734Y-54300990D02*
X164696115Y-54110514D01*
X164696115Y-54110514D02*
X164648496Y-54015276D01*
X164648496Y-54015276D02*
X164553258Y-53920038D01*
X164553258Y-53920038D02*
X164410401Y-53872419D01*
X164410401Y-53872419D02*
X164315163Y-53872419D01*
X164315163Y-53872419D02*
X164172306Y-53920038D01*
X164172306Y-53920038D02*
X164124687Y-53967657D01*
X163696115Y-54872419D02*
X163696115Y-53872419D01*
X163267544Y-54872419D02*
X163267544Y-54348609D01*
X163267544Y-54348609D02*
X163315163Y-54253371D01*
X163315163Y-54253371D02*
X163410401Y-54205752D01*
X163410401Y-54205752D02*
X163553258Y-54205752D01*
X163553258Y-54205752D02*
X163648496Y-54253371D01*
X163648496Y-54253371D02*
X163696115Y-54300990D01*
X162410401Y-54824800D02*
X162505639Y-54872419D01*
X162505639Y-54872419D02*
X162696115Y-54872419D01*
X162696115Y-54872419D02*
X162791353Y-54824800D01*
X162791353Y-54824800D02*
X162838972Y-54729561D01*
X162838972Y-54729561D02*
X162838972Y-54348609D01*
X162838972Y-54348609D02*
X162791353Y-54253371D01*
X162791353Y-54253371D02*
X162696115Y-54205752D01*
X162696115Y-54205752D02*
X162505639Y-54205752D01*
X162505639Y-54205752D02*
X162410401Y-54253371D01*
X162410401Y-54253371D02*
X162362782Y-54348609D01*
X162362782Y-54348609D02*
X162362782Y-54443847D01*
X162362782Y-54443847D02*
X162838972Y-54539085D01*
X161505639Y-54824800D02*
X161600877Y-54872419D01*
X161600877Y-54872419D02*
X161791353Y-54872419D01*
X161791353Y-54872419D02*
X161886591Y-54824800D01*
X161886591Y-54824800D02*
X161934210Y-54777180D01*
X161934210Y-54777180D02*
X161981829Y-54681942D01*
X161981829Y-54681942D02*
X161981829Y-54396228D01*
X161981829Y-54396228D02*
X161934210Y-54300990D01*
X161934210Y-54300990D02*
X161886591Y-54253371D01*
X161886591Y-54253371D02*
X161791353Y-54205752D01*
X161791353Y-54205752D02*
X161600877Y-54205752D01*
X161600877Y-54205752D02*
X161505639Y-54253371D01*
X161077067Y-54872419D02*
X161077067Y-53872419D01*
X160981829Y-54491466D02*
X160696115Y-54872419D01*
X160696115Y-54205752D02*
X161077067Y-54586704D01*
X159362781Y-54872419D02*
X159458019Y-54824800D01*
X159458019Y-54824800D02*
X159505638Y-54777180D01*
X159505638Y-54777180D02*
X159553257Y-54681942D01*
X159553257Y-54681942D02*
X159553257Y-54396228D01*
X159553257Y-54396228D02*
X159505638Y-54300990D01*
X159505638Y-54300990D02*
X159458019Y-54253371D01*
X159458019Y-54253371D02*
X159362781Y-54205752D01*
X159362781Y-54205752D02*
X159219924Y-54205752D01*
X159219924Y-54205752D02*
X159124686Y-54253371D01*
X159124686Y-54253371D02*
X159077067Y-54300990D01*
X159077067Y-54300990D02*
X159029448Y-54396228D01*
X159029448Y-54396228D02*
X159029448Y-54681942D01*
X159029448Y-54681942D02*
X159077067Y-54777180D01*
X159077067Y-54777180D02*
X159124686Y-54824800D01*
X159124686Y-54824800D02*
X159219924Y-54872419D01*
X159219924Y-54872419D02*
X159362781Y-54872419D01*
X158172305Y-54205752D02*
X158172305Y-54872419D01*
X158600876Y-54205752D02*
X158600876Y-54729561D01*
X158600876Y-54729561D02*
X158553257Y-54824800D01*
X158553257Y-54824800D02*
X158458019Y-54872419D01*
X158458019Y-54872419D02*
X158315162Y-54872419D01*
X158315162Y-54872419D02*
X158219924Y-54824800D01*
X158219924Y-54824800D02*
X158172305Y-54777180D01*
X157838971Y-54205752D02*
X157458019Y-54205752D01*
X157696114Y-53872419D02*
X157696114Y-54729561D01*
X157696114Y-54729561D02*
X157648495Y-54824800D01*
X157648495Y-54824800D02*
X157553257Y-54872419D01*
X157553257Y-54872419D02*
X157458019Y-54872419D01*
X156505637Y-54205752D02*
X156124685Y-54205752D01*
X156362780Y-53872419D02*
X156362780Y-54729561D01*
X156362780Y-54729561D02*
X156315161Y-54824800D01*
X156315161Y-54824800D02*
X156219923Y-54872419D01*
X156219923Y-54872419D02*
X156124685Y-54872419D01*
X155791351Y-54872419D02*
X155791351Y-53872419D01*
X155362780Y-54872419D02*
X155362780Y-54348609D01*
X155362780Y-54348609D02*
X155410399Y-54253371D01*
X155410399Y-54253371D02*
X155505637Y-54205752D01*
X155505637Y-54205752D02*
X155648494Y-54205752D01*
X155648494Y-54205752D02*
X155743732Y-54253371D01*
X155743732Y-54253371D02*
X155791351Y-54300990D01*
X154505637Y-54824800D02*
X154600875Y-54872419D01*
X154600875Y-54872419D02*
X154791351Y-54872419D01*
X154791351Y-54872419D02*
X154886589Y-54824800D01*
X154886589Y-54824800D02*
X154934208Y-54729561D01*
X154934208Y-54729561D02*
X154934208Y-54348609D01*
X154934208Y-54348609D02*
X154886589Y-54253371D01*
X154886589Y-54253371D02*
X154791351Y-54205752D01*
X154791351Y-54205752D02*
X154600875Y-54205752D01*
X154600875Y-54205752D02*
X154505637Y-54253371D01*
X154505637Y-54253371D02*
X154458018Y-54348609D01*
X154458018Y-54348609D02*
X154458018Y-54443847D01*
X154458018Y-54443847D02*
X154934208Y-54539085D01*
X153315160Y-54824800D02*
X153219922Y-54872419D01*
X153219922Y-54872419D02*
X153029446Y-54872419D01*
X153029446Y-54872419D02*
X152934208Y-54824800D01*
X152934208Y-54824800D02*
X152886589Y-54729561D01*
X152886589Y-54729561D02*
X152886589Y-54681942D01*
X152886589Y-54681942D02*
X152934208Y-54586704D01*
X152934208Y-54586704D02*
X153029446Y-54539085D01*
X153029446Y-54539085D02*
X153172303Y-54539085D01*
X153172303Y-54539085D02*
X153267541Y-54491466D01*
X153267541Y-54491466D02*
X153315160Y-54396228D01*
X153315160Y-54396228D02*
X153315160Y-54348609D01*
X153315160Y-54348609D02*
X153267541Y-54253371D01*
X153267541Y-54253371D02*
X153172303Y-54205752D01*
X153172303Y-54205752D02*
X153029446Y-54205752D01*
X153029446Y-54205752D02*
X152934208Y-54253371D01*
X152315160Y-54872419D02*
X152410398Y-54824800D01*
X152410398Y-54824800D02*
X152458017Y-54777180D01*
X152458017Y-54777180D02*
X152505636Y-54681942D01*
X152505636Y-54681942D02*
X152505636Y-54396228D01*
X152505636Y-54396228D02*
X152458017Y-54300990D01*
X152458017Y-54300990D02*
X152410398Y-54253371D01*
X152410398Y-54253371D02*
X152315160Y-54205752D01*
X152315160Y-54205752D02*
X152172303Y-54205752D01*
X152172303Y-54205752D02*
X152077065Y-54253371D01*
X152077065Y-54253371D02*
X152029446Y-54300990D01*
X152029446Y-54300990D02*
X151981827Y-54396228D01*
X151981827Y-54396228D02*
X151981827Y-54681942D01*
X151981827Y-54681942D02*
X152029446Y-54777180D01*
X152029446Y-54777180D02*
X152077065Y-54824800D01*
X152077065Y-54824800D02*
X152172303Y-54872419D01*
X152172303Y-54872419D02*
X152315160Y-54872419D01*
X151124684Y-54205752D02*
X151124684Y-54872419D01*
X151553255Y-54205752D02*
X151553255Y-54729561D01*
X151553255Y-54729561D02*
X151505636Y-54824800D01*
X151505636Y-54824800D02*
X151410398Y-54872419D01*
X151410398Y-54872419D02*
X151267541Y-54872419D01*
X151267541Y-54872419D02*
X151172303Y-54824800D01*
X151172303Y-54824800D02*
X151124684Y-54777180D01*
X150648493Y-54872419D02*
X150648493Y-54205752D01*
X150648493Y-54396228D02*
X150600874Y-54300990D01*
X150600874Y-54300990D02*
X150553255Y-54253371D01*
X150553255Y-54253371D02*
X150458017Y-54205752D01*
X150458017Y-54205752D02*
X150362779Y-54205752D01*
X149600874Y-54824800D02*
X149696112Y-54872419D01*
X149696112Y-54872419D02*
X149886588Y-54872419D01*
X149886588Y-54872419D02*
X149981826Y-54824800D01*
X149981826Y-54824800D02*
X150029445Y-54777180D01*
X150029445Y-54777180D02*
X150077064Y-54681942D01*
X150077064Y-54681942D02*
X150077064Y-54396228D01*
X150077064Y-54396228D02*
X150029445Y-54300990D01*
X150029445Y-54300990D02*
X149981826Y-54253371D01*
X149981826Y-54253371D02*
X149886588Y-54205752D01*
X149886588Y-54205752D02*
X149696112Y-54205752D01*
X149696112Y-54205752D02*
X149600874Y-54253371D01*
X148791350Y-54824800D02*
X148886588Y-54872419D01*
X148886588Y-54872419D02*
X149077064Y-54872419D01*
X149077064Y-54872419D02*
X149172302Y-54824800D01*
X149172302Y-54824800D02*
X149219921Y-54729561D01*
X149219921Y-54729561D02*
X149219921Y-54348609D01*
X149219921Y-54348609D02*
X149172302Y-54253371D01*
X149172302Y-54253371D02*
X149077064Y-54205752D01*
X149077064Y-54205752D02*
X148886588Y-54205752D01*
X148886588Y-54205752D02*
X148791350Y-54253371D01*
X148791350Y-54253371D02*
X148743731Y-54348609D01*
X148743731Y-54348609D02*
X148743731Y-54443847D01*
X148743731Y-54443847D02*
X149219921Y-54539085D01*
X147124683Y-54872419D02*
X147124683Y-54348609D01*
X147124683Y-54348609D02*
X147172302Y-54253371D01*
X147172302Y-54253371D02*
X147267540Y-54205752D01*
X147267540Y-54205752D02*
X147458016Y-54205752D01*
X147458016Y-54205752D02*
X147553254Y-54253371D01*
X147124683Y-54824800D02*
X147219921Y-54872419D01*
X147219921Y-54872419D02*
X147458016Y-54872419D01*
X147458016Y-54872419D02*
X147553254Y-54824800D01*
X147553254Y-54824800D02*
X147600873Y-54729561D01*
X147600873Y-54729561D02*
X147600873Y-54634323D01*
X147600873Y-54634323D02*
X147553254Y-54539085D01*
X147553254Y-54539085D02*
X147458016Y-54491466D01*
X147458016Y-54491466D02*
X147219921Y-54491466D01*
X147219921Y-54491466D02*
X147124683Y-54443847D01*
X146791349Y-54205752D02*
X146410397Y-54205752D01*
X146648492Y-53872419D02*
X146648492Y-54729561D01*
X146648492Y-54729561D02*
X146600873Y-54824800D01*
X146600873Y-54824800D02*
X146505635Y-54872419D01*
X146505635Y-54872419D02*
X146410397Y-54872419D01*
X145315158Y-54872419D02*
X145315158Y-53872419D01*
X144886587Y-54872419D02*
X144886587Y-54348609D01*
X144886587Y-54348609D02*
X144934206Y-54253371D01*
X144934206Y-54253371D02*
X145029444Y-54205752D01*
X145029444Y-54205752D02*
X145172301Y-54205752D01*
X145172301Y-54205752D02*
X145267539Y-54253371D01*
X145267539Y-54253371D02*
X145315158Y-54300990D01*
X144553253Y-54205752D02*
X144172301Y-54205752D01*
X144410396Y-53872419D02*
X144410396Y-54729561D01*
X144410396Y-54729561D02*
X144362777Y-54824800D01*
X144362777Y-54824800D02*
X144267539Y-54872419D01*
X144267539Y-54872419D02*
X144172301Y-54872419D01*
X143981824Y-54205752D02*
X143600872Y-54205752D01*
X143838967Y-53872419D02*
X143838967Y-54729561D01*
X143838967Y-54729561D02*
X143791348Y-54824800D01*
X143791348Y-54824800D02*
X143696110Y-54872419D01*
X143696110Y-54872419D02*
X143600872Y-54872419D01*
X143267538Y-54205752D02*
X143267538Y-55205752D01*
X143267538Y-54253371D02*
X143172300Y-54205752D01*
X143172300Y-54205752D02*
X142981824Y-54205752D01*
X142981824Y-54205752D02*
X142886586Y-54253371D01*
X142886586Y-54253371D02*
X142838967Y-54300990D01*
X142838967Y-54300990D02*
X142791348Y-54396228D01*
X142791348Y-54396228D02*
X142791348Y-54681942D01*
X142791348Y-54681942D02*
X142838967Y-54777180D01*
X142838967Y-54777180D02*
X142886586Y-54824800D01*
X142886586Y-54824800D02*
X142981824Y-54872419D01*
X142981824Y-54872419D02*
X143172300Y-54872419D01*
X143172300Y-54872419D02*
X143267538Y-54824800D01*
X142410395Y-54824800D02*
X142315157Y-54872419D01*
X142315157Y-54872419D02*
X142124681Y-54872419D01*
X142124681Y-54872419D02*
X142029443Y-54824800D01*
X142029443Y-54824800D02*
X141981824Y-54729561D01*
X141981824Y-54729561D02*
X141981824Y-54681942D01*
X141981824Y-54681942D02*
X142029443Y-54586704D01*
X142029443Y-54586704D02*
X142124681Y-54539085D01*
X142124681Y-54539085D02*
X142267538Y-54539085D01*
X142267538Y-54539085D02*
X142362776Y-54491466D01*
X142362776Y-54491466D02*
X142410395Y-54396228D01*
X142410395Y-54396228D02*
X142410395Y-54348609D01*
X142410395Y-54348609D02*
X142362776Y-54253371D01*
X142362776Y-54253371D02*
X142267538Y-54205752D01*
X142267538Y-54205752D02*
X142124681Y-54205752D01*
X142124681Y-54205752D02*
X142029443Y-54253371D01*
X141553252Y-54777180D02*
X141505633Y-54824800D01*
X141505633Y-54824800D02*
X141553252Y-54872419D01*
X141553252Y-54872419D02*
X141600871Y-54824800D01*
X141600871Y-54824800D02*
X141553252Y-54777180D01*
X141553252Y-54777180D02*
X141553252Y-54872419D01*
X141553252Y-54253371D02*
X141505633Y-54300990D01*
X141505633Y-54300990D02*
X141553252Y-54348609D01*
X141553252Y-54348609D02*
X141600871Y-54300990D01*
X141600871Y-54300990D02*
X141553252Y-54253371D01*
X141553252Y-54253371D02*
X141553252Y-54348609D01*
X140362777Y-53824800D02*
X141219919Y-55110514D01*
X139315158Y-53824800D02*
X140172300Y-55110514D01*
X138553253Y-54205752D02*
X138553253Y-55015276D01*
X138553253Y-55015276D02*
X138600872Y-55110514D01*
X138600872Y-55110514D02*
X138648491Y-55158133D01*
X138648491Y-55158133D02*
X138743729Y-55205752D01*
X138743729Y-55205752D02*
X138886586Y-55205752D01*
X138886586Y-55205752D02*
X138981824Y-55158133D01*
X138553253Y-54824800D02*
X138648491Y-54872419D01*
X138648491Y-54872419D02*
X138838967Y-54872419D01*
X138838967Y-54872419D02*
X138934205Y-54824800D01*
X138934205Y-54824800D02*
X138981824Y-54777180D01*
X138981824Y-54777180D02*
X139029443Y-54681942D01*
X139029443Y-54681942D02*
X139029443Y-54396228D01*
X139029443Y-54396228D02*
X138981824Y-54300990D01*
X138981824Y-54300990D02*
X138934205Y-54253371D01*
X138934205Y-54253371D02*
X138838967Y-54205752D01*
X138838967Y-54205752D02*
X138648491Y-54205752D01*
X138648491Y-54205752D02*
X138553253Y-54253371D01*
X138077062Y-54872419D02*
X138077062Y-54205752D01*
X138077062Y-53872419D02*
X138124681Y-53920038D01*
X138124681Y-53920038D02*
X138077062Y-53967657D01*
X138077062Y-53967657D02*
X138029443Y-53920038D01*
X138029443Y-53920038D02*
X138077062Y-53872419D01*
X138077062Y-53872419D02*
X138077062Y-53967657D01*
X137743729Y-54205752D02*
X137362777Y-54205752D01*
X137600872Y-53872419D02*
X137600872Y-54729561D01*
X137600872Y-54729561D02*
X137553253Y-54824800D01*
X137553253Y-54824800D02*
X137458015Y-54872419D01*
X137458015Y-54872419D02*
X137362777Y-54872419D01*
X137029443Y-54872419D02*
X137029443Y-53872419D01*
X136600872Y-54872419D02*
X136600872Y-54348609D01*
X136600872Y-54348609D02*
X136648491Y-54253371D01*
X136648491Y-54253371D02*
X136743729Y-54205752D01*
X136743729Y-54205752D02*
X136886586Y-54205752D01*
X136886586Y-54205752D02*
X136981824Y-54253371D01*
X136981824Y-54253371D02*
X137029443Y-54300990D01*
X135696110Y-54205752D02*
X135696110Y-54872419D01*
X136124681Y-54205752D02*
X136124681Y-54729561D01*
X136124681Y-54729561D02*
X136077062Y-54824800D01*
X136077062Y-54824800D02*
X135981824Y-54872419D01*
X135981824Y-54872419D02*
X135838967Y-54872419D01*
X135838967Y-54872419D02*
X135743729Y-54824800D01*
X135743729Y-54824800D02*
X135696110Y-54777180D01*
X135219919Y-54872419D02*
X135219919Y-53872419D01*
X135219919Y-54253371D02*
X135124681Y-54205752D01*
X135124681Y-54205752D02*
X134934205Y-54205752D01*
X134934205Y-54205752D02*
X134838967Y-54253371D01*
X134838967Y-54253371D02*
X134791348Y-54300990D01*
X134791348Y-54300990D02*
X134743729Y-54396228D01*
X134743729Y-54396228D02*
X134743729Y-54681942D01*
X134743729Y-54681942D02*
X134791348Y-54777180D01*
X134791348Y-54777180D02*
X134838967Y-54824800D01*
X134838967Y-54824800D02*
X134934205Y-54872419D01*
X134934205Y-54872419D02*
X135124681Y-54872419D01*
X135124681Y-54872419D02*
X135219919Y-54824800D01*
X134315157Y-54777180D02*
X134267538Y-54824800D01*
X134267538Y-54824800D02*
X134315157Y-54872419D01*
X134315157Y-54872419D02*
X134362776Y-54824800D01*
X134362776Y-54824800D02*
X134315157Y-54777180D01*
X134315157Y-54777180D02*
X134315157Y-54872419D01*
X133410396Y-54824800D02*
X133505634Y-54872419D01*
X133505634Y-54872419D02*
X133696110Y-54872419D01*
X133696110Y-54872419D02*
X133791348Y-54824800D01*
X133791348Y-54824800D02*
X133838967Y-54777180D01*
X133838967Y-54777180D02*
X133886586Y-54681942D01*
X133886586Y-54681942D02*
X133886586Y-54396228D01*
X133886586Y-54396228D02*
X133838967Y-54300990D01*
X133838967Y-54300990D02*
X133791348Y-54253371D01*
X133791348Y-54253371D02*
X133696110Y-54205752D01*
X133696110Y-54205752D02*
X133505634Y-54205752D01*
X133505634Y-54205752D02*
X133410396Y-54253371D01*
X132838967Y-54872419D02*
X132934205Y-54824800D01*
X132934205Y-54824800D02*
X132981824Y-54777180D01*
X132981824Y-54777180D02*
X133029443Y-54681942D01*
X133029443Y-54681942D02*
X133029443Y-54396228D01*
X133029443Y-54396228D02*
X132981824Y-54300990D01*
X132981824Y-54300990D02*
X132934205Y-54253371D01*
X132934205Y-54253371D02*
X132838967Y-54205752D01*
X132838967Y-54205752D02*
X132696110Y-54205752D01*
X132696110Y-54205752D02*
X132600872Y-54253371D01*
X132600872Y-54253371D02*
X132553253Y-54300990D01*
X132553253Y-54300990D02*
X132505634Y-54396228D01*
X132505634Y-54396228D02*
X132505634Y-54681942D01*
X132505634Y-54681942D02*
X132553253Y-54777180D01*
X132553253Y-54777180D02*
X132600872Y-54824800D01*
X132600872Y-54824800D02*
X132696110Y-54872419D01*
X132696110Y-54872419D02*
X132838967Y-54872419D01*
X132077062Y-54872419D02*
X132077062Y-54205752D01*
X132077062Y-54300990D02*
X132029443Y-54253371D01*
X132029443Y-54253371D02*
X131934205Y-54205752D01*
X131934205Y-54205752D02*
X131791348Y-54205752D01*
X131791348Y-54205752D02*
X131696110Y-54253371D01*
X131696110Y-54253371D02*
X131648491Y-54348609D01*
X131648491Y-54348609D02*
X131648491Y-54872419D01*
X131648491Y-54348609D02*
X131600872Y-54253371D01*
X131600872Y-54253371D02*
X131505634Y-54205752D01*
X131505634Y-54205752D02*
X131362777Y-54205752D01*
X131362777Y-54205752D02*
X131267538Y-54253371D01*
X131267538Y-54253371D02*
X131219919Y-54348609D01*
X131219919Y-54348609D02*
X131219919Y-54872419D01*
X130029444Y-53824800D02*
X130886586Y-55110514D01*
X129267539Y-54824800D02*
X129362777Y-54872419D01*
X129362777Y-54872419D02*
X129553253Y-54872419D01*
X129553253Y-54872419D02*
X129648491Y-54824800D01*
X129648491Y-54824800D02*
X129696110Y-54777180D01*
X129696110Y-54777180D02*
X129743729Y-54681942D01*
X129743729Y-54681942D02*
X129743729Y-54396228D01*
X129743729Y-54396228D02*
X129696110Y-54300990D01*
X129696110Y-54300990D02*
X129648491Y-54253371D01*
X129648491Y-54253371D02*
X129553253Y-54205752D01*
X129553253Y-54205752D02*
X129362777Y-54205752D01*
X129362777Y-54205752D02*
X129267539Y-54253371D01*
X128696110Y-54872419D02*
X128791348Y-54824800D01*
X128791348Y-54824800D02*
X128838967Y-54777180D01*
X128838967Y-54777180D02*
X128886586Y-54681942D01*
X128886586Y-54681942D02*
X128886586Y-54396228D01*
X128886586Y-54396228D02*
X128838967Y-54300990D01*
X128838967Y-54300990D02*
X128791348Y-54253371D01*
X128791348Y-54253371D02*
X128696110Y-54205752D01*
X128696110Y-54205752D02*
X128553253Y-54205752D01*
X128553253Y-54205752D02*
X128458015Y-54253371D01*
X128458015Y-54253371D02*
X128410396Y-54300990D01*
X128410396Y-54300990D02*
X128362777Y-54396228D01*
X128362777Y-54396228D02*
X128362777Y-54681942D01*
X128362777Y-54681942D02*
X128410396Y-54777180D01*
X128410396Y-54777180D02*
X128458015Y-54824800D01*
X128458015Y-54824800D02*
X128553253Y-54872419D01*
X128553253Y-54872419D02*
X128696110Y-54872419D01*
X127505634Y-54872419D02*
X127505634Y-53872419D01*
X127505634Y-54824800D02*
X127600872Y-54872419D01*
X127600872Y-54872419D02*
X127791348Y-54872419D01*
X127791348Y-54872419D02*
X127886586Y-54824800D01*
X127886586Y-54824800D02*
X127934205Y-54777180D01*
X127934205Y-54777180D02*
X127981824Y-54681942D01*
X127981824Y-54681942D02*
X127981824Y-54396228D01*
X127981824Y-54396228D02*
X127934205Y-54300990D01*
X127934205Y-54300990D02*
X127886586Y-54253371D01*
X127886586Y-54253371D02*
X127791348Y-54205752D01*
X127791348Y-54205752D02*
X127600872Y-54205752D01*
X127600872Y-54205752D02*
X127505634Y-54253371D01*
X126648491Y-54824800D02*
X126743729Y-54872419D01*
X126743729Y-54872419D02*
X126934205Y-54872419D01*
X126934205Y-54872419D02*
X127029443Y-54824800D01*
X127029443Y-54824800D02*
X127077062Y-54729561D01*
X127077062Y-54729561D02*
X127077062Y-54348609D01*
X127077062Y-54348609D02*
X127029443Y-54253371D01*
X127029443Y-54253371D02*
X126934205Y-54205752D01*
X126934205Y-54205752D02*
X126743729Y-54205752D01*
X126743729Y-54205752D02*
X126648491Y-54253371D01*
X126648491Y-54253371D02*
X126600872Y-54348609D01*
X126600872Y-54348609D02*
X126600872Y-54443847D01*
X126600872Y-54443847D02*
X127077062Y-54539085D01*
X125743729Y-54824800D02*
X125838967Y-54872419D01*
X125838967Y-54872419D02*
X126029443Y-54872419D01*
X126029443Y-54872419D02*
X126124681Y-54824800D01*
X126124681Y-54824800D02*
X126172300Y-54777180D01*
X126172300Y-54777180D02*
X126219919Y-54681942D01*
X126219919Y-54681942D02*
X126219919Y-54396228D01*
X126219919Y-54396228D02*
X126172300Y-54300990D01*
X126172300Y-54300990D02*
X126124681Y-54253371D01*
X126124681Y-54253371D02*
X126029443Y-54205752D01*
X126029443Y-54205752D02*
X125838967Y-54205752D01*
X125838967Y-54205752D02*
X125743729Y-54253371D01*
X125172300Y-54872419D02*
X125267538Y-54824800D01*
X125267538Y-54824800D02*
X125315157Y-54777180D01*
X125315157Y-54777180D02*
X125362776Y-54681942D01*
X125362776Y-54681942D02*
X125362776Y-54396228D01*
X125362776Y-54396228D02*
X125315157Y-54300990D01*
X125315157Y-54300990D02*
X125267538Y-54253371D01*
X125267538Y-54253371D02*
X125172300Y-54205752D01*
X125172300Y-54205752D02*
X125029443Y-54205752D01*
X125029443Y-54205752D02*
X124934205Y-54253371D01*
X124934205Y-54253371D02*
X124886586Y-54300990D01*
X124886586Y-54300990D02*
X124838967Y-54396228D01*
X124838967Y-54396228D02*
X124838967Y-54681942D01*
X124838967Y-54681942D02*
X124886586Y-54777180D01*
X124886586Y-54777180D02*
X124934205Y-54824800D01*
X124934205Y-54824800D02*
X125029443Y-54872419D01*
X125029443Y-54872419D02*
X125172300Y-54872419D01*
X124267538Y-54872419D02*
X124362776Y-54824800D01*
X124362776Y-54824800D02*
X124410395Y-54777180D01*
X124410395Y-54777180D02*
X124458014Y-54681942D01*
X124458014Y-54681942D02*
X124458014Y-54396228D01*
X124458014Y-54396228D02*
X124410395Y-54300990D01*
X124410395Y-54300990D02*
X124362776Y-54253371D01*
X124362776Y-54253371D02*
X124267538Y-54205752D01*
X124267538Y-54205752D02*
X124124681Y-54205752D01*
X124124681Y-54205752D02*
X124029443Y-54253371D01*
X124029443Y-54253371D02*
X123981824Y-54300990D01*
X123981824Y-54300990D02*
X123934205Y-54396228D01*
X123934205Y-54396228D02*
X123934205Y-54681942D01*
X123934205Y-54681942D02*
X123981824Y-54777180D01*
X123981824Y-54777180D02*
X124029443Y-54824800D01*
X124029443Y-54824800D02*
X124124681Y-54872419D01*
X124124681Y-54872419D02*
X124267538Y-54872419D01*
X123505633Y-54872419D02*
X123505633Y-53872419D01*
X123410395Y-54491466D02*
X123124681Y-54872419D01*
X123124681Y-54205752D02*
X123505633Y-54586704D01*
X122315157Y-54824800D02*
X122410395Y-54872419D01*
X122410395Y-54872419D02*
X122600871Y-54872419D01*
X122600871Y-54872419D02*
X122696109Y-54824800D01*
X122696109Y-54824800D02*
X122743728Y-54729561D01*
X122743728Y-54729561D02*
X122743728Y-54348609D01*
X122743728Y-54348609D02*
X122696109Y-54253371D01*
X122696109Y-54253371D02*
X122600871Y-54205752D01*
X122600871Y-54205752D02*
X122410395Y-54205752D01*
X122410395Y-54205752D02*
X122315157Y-54253371D01*
X122315157Y-54253371D02*
X122267538Y-54348609D01*
X122267538Y-54348609D02*
X122267538Y-54443847D01*
X122267538Y-54443847D02*
X122743728Y-54539085D01*
X121838966Y-54872419D02*
X121838966Y-54205752D01*
X121838966Y-54396228D02*
X121791347Y-54300990D01*
X121791347Y-54300990D02*
X121743728Y-54253371D01*
X121743728Y-54253371D02*
X121648490Y-54205752D01*
X121648490Y-54205752D02*
X121553252Y-54205752D01*
X120696109Y-54872419D02*
X121267537Y-54872419D01*
X120981823Y-54872419D02*
X120981823Y-53872419D01*
X120981823Y-53872419D02*
X121077061Y-54015276D01*
X121077061Y-54015276D02*
X121172299Y-54110514D01*
X121172299Y-54110514D02*
X121267537Y-54158133D01*
X119553252Y-53824800D02*
X120410394Y-55110514D01*
X119219918Y-54872419D02*
X119219918Y-53872419D01*
X119219918Y-53872419D02*
X118886585Y-54586704D01*
X118886585Y-54586704D02*
X118553252Y-53872419D01*
X118553252Y-53872419D02*
X118553252Y-54872419D01*
X118077061Y-54872419D02*
X118077061Y-54205752D01*
X118077061Y-53872419D02*
X118124680Y-53920038D01*
X118124680Y-53920038D02*
X118077061Y-53967657D01*
X118077061Y-53967657D02*
X118029442Y-53920038D01*
X118029442Y-53920038D02*
X118077061Y-53872419D01*
X118077061Y-53872419D02*
X118077061Y-53967657D01*
X117600871Y-54205752D02*
X117600871Y-54872419D01*
X117600871Y-54300990D02*
X117553252Y-54253371D01*
X117553252Y-54253371D02*
X117458014Y-54205752D01*
X117458014Y-54205752D02*
X117315157Y-54205752D01*
X117315157Y-54205752D02*
X117219919Y-54253371D01*
X117219919Y-54253371D02*
X117172300Y-54348609D01*
X117172300Y-54348609D02*
X117172300Y-54872419D01*
X116696109Y-54872419D02*
X116696109Y-54205752D01*
X116696109Y-53872419D02*
X116743728Y-53920038D01*
X116743728Y-53920038D02*
X116696109Y-53967657D01*
X116696109Y-53967657D02*
X116648490Y-53920038D01*
X116648490Y-53920038D02*
X116696109Y-53872419D01*
X116696109Y-53872419D02*
X116696109Y-53967657D01*
X116219919Y-54872419D02*
X116219919Y-53872419D01*
X116219919Y-53872419D02*
X115886586Y-54586704D01*
X115886586Y-54586704D02*
X115553253Y-53872419D01*
X115553253Y-53872419D02*
X115553253Y-54872419D01*
X114648491Y-54872419D02*
X114648491Y-54348609D01*
X114648491Y-54348609D02*
X114696110Y-54253371D01*
X114696110Y-54253371D02*
X114791348Y-54205752D01*
X114791348Y-54205752D02*
X114981824Y-54205752D01*
X114981824Y-54205752D02*
X115077062Y-54253371D01*
X114648491Y-54824800D02*
X114743729Y-54872419D01*
X114743729Y-54872419D02*
X114981824Y-54872419D01*
X114981824Y-54872419D02*
X115077062Y-54824800D01*
X115077062Y-54824800D02*
X115124681Y-54729561D01*
X115124681Y-54729561D02*
X115124681Y-54634323D01*
X115124681Y-54634323D02*
X115077062Y-54539085D01*
X115077062Y-54539085D02*
X114981824Y-54491466D01*
X114981824Y-54491466D02*
X114743729Y-54491466D01*
X114743729Y-54491466D02*
X114648491Y-54443847D01*
X113743729Y-54824800D02*
X113838967Y-54872419D01*
X113838967Y-54872419D02*
X114029443Y-54872419D01*
X114029443Y-54872419D02*
X114124681Y-54824800D01*
X114124681Y-54824800D02*
X114172300Y-54777180D01*
X114172300Y-54777180D02*
X114219919Y-54681942D01*
X114219919Y-54681942D02*
X114219919Y-54396228D01*
X114219919Y-54396228D02*
X114172300Y-54300990D01*
X114172300Y-54300990D02*
X114124681Y-54253371D01*
X114124681Y-54253371D02*
X114029443Y-54205752D01*
X114029443Y-54205752D02*
X113838967Y-54205752D01*
X113838967Y-54205752D02*
X113743729Y-54253371D01*
X113315157Y-54872419D02*
X113315157Y-54205752D01*
X113315157Y-54396228D02*
X113267538Y-54300990D01*
X113267538Y-54300990D02*
X113219919Y-54253371D01*
X113219919Y-54253371D02*
X113124681Y-54205752D01*
X113124681Y-54205752D02*
X113029443Y-54205752D01*
X112553252Y-54872419D02*
X112648490Y-54824800D01*
X112648490Y-54824800D02*
X112696109Y-54777180D01*
X112696109Y-54777180D02*
X112743728Y-54681942D01*
X112743728Y-54681942D02*
X112743728Y-54396228D01*
X112743728Y-54396228D02*
X112696109Y-54300990D01*
X112696109Y-54300990D02*
X112648490Y-54253371D01*
X112648490Y-54253371D02*
X112553252Y-54205752D01*
X112553252Y-54205752D02*
X112410395Y-54205752D01*
X112410395Y-54205752D02*
X112315157Y-54253371D01*
X112315157Y-54253371D02*
X112267538Y-54300990D01*
X112267538Y-54300990D02*
X112219919Y-54396228D01*
X112219919Y-54396228D02*
X112219919Y-54681942D01*
X112219919Y-54681942D02*
X112267538Y-54777180D01*
X112267538Y-54777180D02*
X112315157Y-54824800D01*
X112315157Y-54824800D02*
X112410395Y-54872419D01*
X112410395Y-54872419D02*
X112553252Y-54872419D01*
X111267538Y-53920038D02*
X111362776Y-53872419D01*
X111362776Y-53872419D02*
X111505633Y-53872419D01*
X111505633Y-53872419D02*
X111648490Y-53920038D01*
X111648490Y-53920038D02*
X111743728Y-54015276D01*
X111743728Y-54015276D02*
X111791347Y-54110514D01*
X111791347Y-54110514D02*
X111838966Y-54300990D01*
X111838966Y-54300990D02*
X111838966Y-54443847D01*
X111838966Y-54443847D02*
X111791347Y-54634323D01*
X111791347Y-54634323D02*
X111743728Y-54729561D01*
X111743728Y-54729561D02*
X111648490Y-54824800D01*
X111648490Y-54824800D02*
X111505633Y-54872419D01*
X111505633Y-54872419D02*
X111410395Y-54872419D01*
X111410395Y-54872419D02*
X111267538Y-54824800D01*
X111267538Y-54824800D02*
X111219919Y-54777180D01*
X111219919Y-54777180D02*
X111219919Y-54443847D01*
X111219919Y-54443847D02*
X111410395Y-54443847D01*
D11*
X151574819Y-108451905D02*
X150574819Y-108451905D01*
X150574819Y-108451905D02*
X150574819Y-108690000D01*
X150574819Y-108690000D02*
X150622438Y-108832857D01*
X150622438Y-108832857D02*
X150717676Y-108928095D01*
X150717676Y-108928095D02*
X150812914Y-108975714D01*
X150812914Y-108975714D02*
X151003390Y-109023333D01*
X151003390Y-109023333D02*
X151146247Y-109023333D01*
X151146247Y-109023333D02*
X151336723Y-108975714D01*
X151336723Y-108975714D02*
X151431961Y-108928095D01*
X151431961Y-108928095D02*
X151527200Y-108832857D01*
X151527200Y-108832857D02*
X151574819Y-108690000D01*
X151574819Y-108690000D02*
X151574819Y-108451905D01*
X151574819Y-109499524D02*
X151574819Y-109690000D01*
X151574819Y-109690000D02*
X151527200Y-109785238D01*
X151527200Y-109785238D02*
X151479580Y-109832857D01*
X151479580Y-109832857D02*
X151336723Y-109928095D01*
X151336723Y-109928095D02*
X151146247Y-109975714D01*
X151146247Y-109975714D02*
X150765295Y-109975714D01*
X150765295Y-109975714D02*
X150670057Y-109928095D01*
X150670057Y-109928095D02*
X150622438Y-109880476D01*
X150622438Y-109880476D02*
X150574819Y-109785238D01*
X150574819Y-109785238D02*
X150574819Y-109594762D01*
X150574819Y-109594762D02*
X150622438Y-109499524D01*
X150622438Y-109499524D02*
X150670057Y-109451905D01*
X150670057Y-109451905D02*
X150765295Y-109404286D01*
X150765295Y-109404286D02*
X151003390Y-109404286D01*
X151003390Y-109404286D02*
X151098628Y-109451905D01*
X151098628Y-109451905D02*
X151146247Y-109499524D01*
X151146247Y-109499524D02*
X151193866Y-109594762D01*
X151193866Y-109594762D02*
X151193866Y-109785238D01*
X151193866Y-109785238D02*
X151146247Y-109880476D01*
X151146247Y-109880476D02*
X151098628Y-109928095D01*
X151098628Y-109928095D02*
X151003390Y-109975714D01*
X151254819Y-112738095D02*
X150254819Y-112738095D01*
X151254819Y-113309523D02*
X150683390Y-112880952D01*
X150254819Y-113309523D02*
X150826247Y-112738095D01*
X112574819Y-108451905D02*
X111574819Y-108451905D01*
X111574819Y-108451905D02*
X111574819Y-108690000D01*
X111574819Y-108690000D02*
X111622438Y-108832857D01*
X111622438Y-108832857D02*
X111717676Y-108928095D01*
X111717676Y-108928095D02*
X111812914Y-108975714D01*
X111812914Y-108975714D02*
X112003390Y-109023333D01*
X112003390Y-109023333D02*
X112146247Y-109023333D01*
X112146247Y-109023333D02*
X112336723Y-108975714D01*
X112336723Y-108975714D02*
X112431961Y-108928095D01*
X112431961Y-108928095D02*
X112527200Y-108832857D01*
X112527200Y-108832857D02*
X112574819Y-108690000D01*
X112574819Y-108690000D02*
X112574819Y-108451905D01*
X111574819Y-109928095D02*
X111574819Y-109451905D01*
X111574819Y-109451905D02*
X112051009Y-109404286D01*
X112051009Y-109404286D02*
X112003390Y-109451905D01*
X112003390Y-109451905D02*
X111955771Y-109547143D01*
X111955771Y-109547143D02*
X111955771Y-109785238D01*
X111955771Y-109785238D02*
X112003390Y-109880476D01*
X112003390Y-109880476D02*
X112051009Y-109928095D01*
X112051009Y-109928095D02*
X112146247Y-109975714D01*
X112146247Y-109975714D02*
X112384342Y-109975714D01*
X112384342Y-109975714D02*
X112479580Y-109928095D01*
X112479580Y-109928095D02*
X112527200Y-109880476D01*
X112527200Y-109880476D02*
X112574819Y-109785238D01*
X112574819Y-109785238D02*
X112574819Y-109547143D01*
X112574819Y-109547143D02*
X112527200Y-109451905D01*
X112527200Y-109451905D02*
X112479580Y-109404286D01*
X112254819Y-112738095D02*
X111254819Y-112738095D01*
X112254819Y-113309523D02*
X111683390Y-112880952D01*
X111254819Y-113309523D02*
X111826247Y-112738095D01*
X132574819Y-90451905D02*
X131574819Y-90451905D01*
X131574819Y-90451905D02*
X131574819Y-90690000D01*
X131574819Y-90690000D02*
X131622438Y-90832857D01*
X131622438Y-90832857D02*
X131717676Y-90928095D01*
X131717676Y-90928095D02*
X131812914Y-90975714D01*
X131812914Y-90975714D02*
X132003390Y-91023333D01*
X132003390Y-91023333D02*
X132146247Y-91023333D01*
X132146247Y-91023333D02*
X132336723Y-90975714D01*
X132336723Y-90975714D02*
X132431961Y-90928095D01*
X132431961Y-90928095D02*
X132527200Y-90832857D01*
X132527200Y-90832857D02*
X132574819Y-90690000D01*
X132574819Y-90690000D02*
X132574819Y-90451905D01*
X131574819Y-91356667D02*
X131574819Y-92023333D01*
X131574819Y-92023333D02*
X132574819Y-91594762D01*
X132254819Y-94738095D02*
X131254819Y-94738095D01*
X132254819Y-95309523D02*
X131683390Y-94880952D01*
X131254819Y-95309523D02*
X131826247Y-94738095D01*
X132574819Y-108451905D02*
X131574819Y-108451905D01*
X131574819Y-108451905D02*
X131574819Y-108690000D01*
X131574819Y-108690000D02*
X131622438Y-108832857D01*
X131622438Y-108832857D02*
X131717676Y-108928095D01*
X131717676Y-108928095D02*
X131812914Y-108975714D01*
X131812914Y-108975714D02*
X132003390Y-109023333D01*
X132003390Y-109023333D02*
X132146247Y-109023333D01*
X132146247Y-109023333D02*
X132336723Y-108975714D01*
X132336723Y-108975714D02*
X132431961Y-108928095D01*
X132431961Y-108928095D02*
X132527200Y-108832857D01*
X132527200Y-108832857D02*
X132574819Y-108690000D01*
X132574819Y-108690000D02*
X132574819Y-108451905D01*
X132003390Y-109594762D02*
X131955771Y-109499524D01*
X131955771Y-109499524D02*
X131908152Y-109451905D01*
X131908152Y-109451905D02*
X131812914Y-109404286D01*
X131812914Y-109404286D02*
X131765295Y-109404286D01*
X131765295Y-109404286D02*
X131670057Y-109451905D01*
X131670057Y-109451905D02*
X131622438Y-109499524D01*
X131622438Y-109499524D02*
X131574819Y-109594762D01*
X131574819Y-109594762D02*
X131574819Y-109785238D01*
X131574819Y-109785238D02*
X131622438Y-109880476D01*
X131622438Y-109880476D02*
X131670057Y-109928095D01*
X131670057Y-109928095D02*
X131765295Y-109975714D01*
X131765295Y-109975714D02*
X131812914Y-109975714D01*
X131812914Y-109975714D02*
X131908152Y-109928095D01*
X131908152Y-109928095D02*
X131955771Y-109880476D01*
X131955771Y-109880476D02*
X132003390Y-109785238D01*
X132003390Y-109785238D02*
X132003390Y-109594762D01*
X132003390Y-109594762D02*
X132051009Y-109499524D01*
X132051009Y-109499524D02*
X132098628Y-109451905D01*
X132098628Y-109451905D02*
X132193866Y-109404286D01*
X132193866Y-109404286D02*
X132384342Y-109404286D01*
X132384342Y-109404286D02*
X132479580Y-109451905D01*
X132479580Y-109451905D02*
X132527200Y-109499524D01*
X132527200Y-109499524D02*
X132574819Y-109594762D01*
X132574819Y-109594762D02*
X132574819Y-109785238D01*
X132574819Y-109785238D02*
X132527200Y-109880476D01*
X132527200Y-109880476D02*
X132479580Y-109928095D01*
X132479580Y-109928095D02*
X132384342Y-109975714D01*
X132384342Y-109975714D02*
X132193866Y-109975714D01*
X132193866Y-109975714D02*
X132098628Y-109928095D01*
X132098628Y-109928095D02*
X132051009Y-109880476D01*
X132051009Y-109880476D02*
X132003390Y-109785238D01*
X132254819Y-112738095D02*
X131254819Y-112738095D01*
X132254819Y-113309523D02*
X131683390Y-112880952D01*
X131254819Y-113309523D02*
X131826247Y-112738095D01*
X112574819Y-90451905D02*
X111574819Y-90451905D01*
X111574819Y-90451905D02*
X111574819Y-90690000D01*
X111574819Y-90690000D02*
X111622438Y-90832857D01*
X111622438Y-90832857D02*
X111717676Y-90928095D01*
X111717676Y-90928095D02*
X111812914Y-90975714D01*
X111812914Y-90975714D02*
X112003390Y-91023333D01*
X112003390Y-91023333D02*
X112146247Y-91023333D01*
X112146247Y-91023333D02*
X112336723Y-90975714D01*
X112336723Y-90975714D02*
X112431961Y-90928095D01*
X112431961Y-90928095D02*
X112527200Y-90832857D01*
X112527200Y-90832857D02*
X112574819Y-90690000D01*
X112574819Y-90690000D02*
X112574819Y-90451905D01*
X111908152Y-91880476D02*
X112574819Y-91880476D01*
X111527200Y-91642381D02*
X112241485Y-91404286D01*
X112241485Y-91404286D02*
X112241485Y-92023333D01*
X112254819Y-94738095D02*
X111254819Y-94738095D01*
X112254819Y-95309523D02*
X111683390Y-94880952D01*
X111254819Y-95309523D02*
X111826247Y-94738095D01*
X149454819Y-90261905D02*
X148454819Y-90261905D01*
X148454819Y-90261905D02*
X148454819Y-90500000D01*
X148454819Y-90500000D02*
X148502438Y-90642857D01*
X148502438Y-90642857D02*
X148597676Y-90738095D01*
X148597676Y-90738095D02*
X148692914Y-90785714D01*
X148692914Y-90785714D02*
X148883390Y-90833333D01*
X148883390Y-90833333D02*
X149026247Y-90833333D01*
X149026247Y-90833333D02*
X149216723Y-90785714D01*
X149216723Y-90785714D02*
X149311961Y-90738095D01*
X149311961Y-90738095D02*
X149407200Y-90642857D01*
X149407200Y-90642857D02*
X149454819Y-90500000D01*
X149454819Y-90500000D02*
X149454819Y-90261905D01*
X148454819Y-91166667D02*
X148454819Y-91785714D01*
X148454819Y-91785714D02*
X148835771Y-91452381D01*
X148835771Y-91452381D02*
X148835771Y-91595238D01*
X148835771Y-91595238D02*
X148883390Y-91690476D01*
X148883390Y-91690476D02*
X148931009Y-91738095D01*
X148931009Y-91738095D02*
X149026247Y-91785714D01*
X149026247Y-91785714D02*
X149264342Y-91785714D01*
X149264342Y-91785714D02*
X149359580Y-91738095D01*
X149359580Y-91738095D02*
X149407200Y-91690476D01*
X149407200Y-91690476D02*
X149454819Y-91595238D01*
X149454819Y-91595238D02*
X149454819Y-91309524D01*
X149454819Y-91309524D02*
X149407200Y-91214286D01*
X149407200Y-91214286D02*
X149359580Y-91166667D01*
X151254819Y-94548095D02*
X150254819Y-94548095D01*
X151254819Y-95119523D02*
X150683390Y-94690952D01*
X150254819Y-95119523D02*
X150826247Y-94548095D01*
D12*
%TO.C,D9*%
X149000000Y-106420000D02*
X149000000Y-107070000D01*
X149000000Y-111960000D02*
X149000000Y-111310000D01*
X150120000Y-110470000D02*
X147880000Y-110470000D01*
X150120000Y-110590000D02*
X147880000Y-110590000D01*
X150120000Y-110710000D02*
X147880000Y-110710000D01*
X150120000Y-111310000D02*
X147880000Y-111310000D01*
X147880000Y-107070000D01*
X150120000Y-107070000D01*
X150120000Y-111310000D01*
%TO.C,D5*%
X110000000Y-106420000D02*
X110000000Y-107070000D01*
X110000000Y-111960000D02*
X110000000Y-111310000D01*
X111120000Y-110470000D02*
X108880000Y-110470000D01*
X111120000Y-110590000D02*
X108880000Y-110590000D01*
X111120000Y-110710000D02*
X108880000Y-110710000D01*
X111120000Y-111310000D02*
X108880000Y-111310000D01*
X108880000Y-107070000D01*
X111120000Y-107070000D01*
X111120000Y-111310000D01*
%TO.C,D7*%
X130000000Y-88420000D02*
X130000000Y-89070000D01*
X130000000Y-93960000D02*
X130000000Y-93310000D01*
X131120000Y-92470000D02*
X128880000Y-92470000D01*
X131120000Y-92590000D02*
X128880000Y-92590000D01*
X131120000Y-92710000D02*
X128880000Y-92710000D01*
X131120000Y-93310000D02*
X128880000Y-93310000D01*
X128880000Y-89070000D01*
X131120000Y-89070000D01*
X131120000Y-93310000D01*
%TO.C,D8*%
X130000000Y-106420000D02*
X130000000Y-107070000D01*
X130000000Y-111960000D02*
X130000000Y-111310000D01*
X131120000Y-110470000D02*
X128880000Y-110470000D01*
X131120000Y-110590000D02*
X128880000Y-110590000D01*
X131120000Y-110710000D02*
X128880000Y-110710000D01*
X131120000Y-111310000D02*
X128880000Y-111310000D01*
X128880000Y-107070000D01*
X131120000Y-107070000D01*
X131120000Y-111310000D01*
%TO.C,D4*%
X110000000Y-88420000D02*
X110000000Y-89070000D01*
X110000000Y-93960000D02*
X110000000Y-93310000D01*
X111120000Y-92470000D02*
X108880000Y-92470000D01*
X111120000Y-92590000D02*
X108880000Y-92590000D01*
X111120000Y-92710000D02*
X108880000Y-92710000D01*
X111120000Y-93310000D02*
X108880000Y-93310000D01*
X108880000Y-89070000D01*
X111120000Y-89070000D01*
X111120000Y-93310000D01*
%TO.C,D3*%
X149000000Y-88230000D02*
X149000000Y-88880000D01*
X149000000Y-93770000D02*
X149000000Y-93120000D01*
X150120000Y-92280000D02*
X147880000Y-92280000D01*
X150120000Y-92400000D02*
X147880000Y-92400000D01*
X150120000Y-92520000D02*
X147880000Y-92520000D01*
X150120000Y-93120000D02*
X147880000Y-93120000D01*
X147880000Y-88880000D01*
X150120000Y-88880000D01*
X150120000Y-93120000D01*
%TD*%
M02*
