%TF.GenerationSoftware,KiCad,Pcbnew,9.0.6*%
%TF.CreationDate,2025-11-19T10:03:51+06:00*%
%TF.ProjectId,MiniMicroG,4d696e69-4d69-4637-926f-472e6b696361,rev?*%
%TF.SameCoordinates,Original*%
%TF.FileFunction,Copper,L1,Top*%
%TF.FilePolarity,Positive*%
%FSLAX46Y46*%
G04 Gerber Fmt 4.6, Leading zero omitted, Abs format (unit mm)*
G04 Created by KiCad (PCBNEW 9.0.6) date 2025-11-19 10:03:51*
%MOMM*%
%LPD*%
G01*
G04 APERTURE LIST*
G04 Aperture macros list*
%AMRoundRect*
0 Rectangle with rounded corners*
0 $1 Rounding radius*
0 $2 $3 $4 $5 $6 $7 $8 $9 X,Y pos of 4 corners*
0 Add a 4 corners polygon primitive as box body*
4,1,4,$2,$3,$4,$5,$6,$7,$8,$9,$2,$3,0*
0 Add four circle primitives for the rounded corners*
1,1,$1+$1,$2,$3*
1,1,$1+$1,$4,$5*
1,1,$1+$1,$6,$7*
1,1,$1+$1,$8,$9*
0 Add four rect primitives between the rounded corners*
20,1,$1+$1,$2,$3,$4,$5,0*
20,1,$1+$1,$4,$5,$6,$7,0*
20,1,$1+$1,$6,$7,$8,$9,0*
20,1,$1+$1,$8,$9,$2,$3,0*%
G04 Aperture macros list end*
%TA.AperFunction,ComponentPad*%
%ADD10R,2.000000X2.000000*%
%TD*%
%TA.AperFunction,ComponentPad*%
%ADD11C,2.000000*%
%TD*%
%TA.AperFunction,ComponentPad*%
%ADD12R,3.200000X2.000000*%
%TD*%
%TA.AperFunction,SMDPad,CuDef*%
%ADD13R,1.600000X0.850000*%
%TD*%
%TA.AperFunction,ComponentPad*%
%ADD14C,2.200000*%
%TD*%
%TA.AperFunction,SMDPad,CuDef*%
%ADD15RoundRect,0.152400X-0.609600X1.063600X-0.609600X-1.063600X0.609600X-1.063600X0.609600X1.063600X0*%
%TD*%
%TA.AperFunction,ComponentPad*%
%ADD16C,1.524000*%
%TD*%
%TA.AperFunction,SMDPad,CuDef*%
%ADD17RoundRect,0.152400X0.609600X-1.063600X0.609600X1.063600X-0.609600X1.063600X-0.609600X-1.063600X0*%
%TD*%
%TA.AperFunction,ComponentPad*%
%ADD18R,1.700000X1.700000*%
%TD*%
%TA.AperFunction,ComponentPad*%
%ADD19O,1.700000X1.700000*%
%TD*%
%TA.AperFunction,ComponentPad*%
%ADD20RoundRect,0.250000X0.550000X-0.550000X0.550000X0.550000X-0.550000X0.550000X-0.550000X-0.550000X0*%
%TD*%
%TA.AperFunction,ComponentPad*%
%ADD21C,1.600000*%
%TD*%
%TA.AperFunction,ViaPad*%
%ADD22C,0.600000*%
%TD*%
%TA.AperFunction,Conductor*%
%ADD23C,0.300000*%
%TD*%
%TA.AperFunction,Conductor*%
%ADD24C,0.200000*%
%TD*%
G04 APERTURE END LIST*
D10*
%TO.P,SW7,A,A*%
%TO.N,Net-(U1-GPIO28{slash}ADC2{slash}A2)*%
X108000000Y-65000000D03*
D11*
%TO.P,SW7,B,B*%
%TO.N,Net-(U1-GPIO27{slash}ADC1{slash}A1)*%
X108000000Y-70000000D03*
%TO.P,SW7,C,C*%
%TO.N,GND*%
X108000000Y-67500000D03*
D12*
%TO.P,SW7,MP*%
%TO.N,N/C*%
X115500000Y-61900000D03*
X115500000Y-73100000D03*
D11*
%TO.P,SW7,S1,S1*%
%TO.N,GND*%
X122500000Y-70000000D03*
%TO.P,SW7,S2,S2*%
%TO.N,Net-(U1-GPIO29{slash}ADC3{slash}A3)*%
X122500000Y-65000000D03*
%TD*%
D13*
%TO.P,D2,1,DOUT*%
%TO.N,unconnected-(D2-DOUT-Pad1)*%
X121000000Y-119875000D03*
%TO.P,D2,2,VSS*%
%TO.N,GND*%
X121000000Y-118125000D03*
%TO.P,D2,3,DIN*%
%TO.N,Net-(D1-DOUT)*%
X117500000Y-118125000D03*
%TO.P,D2,4,VDD*%
%TO.N,+5V*%
X117500000Y-119875000D03*
%TD*%
D14*
%TO.P,SW5,1,1*%
%TO.N,Net-(U1-GPIO1{slash}RX)*%
X141608750Y-104145000D03*
%TO.P,SW5,2,2*%
%TO.N,Net-(D8-A)*%
X135258750Y-106685000D03*
%TD*%
%TO.P,SW1,1,1*%
%TO.N,Net-(U1-GPIO1{slash}RX)*%
X122558750Y-85095000D03*
%TO.P,SW1,2,2*%
%TO.N,Net-(D4-A)*%
X116208750Y-87635000D03*
%TD*%
D13*
%TO.P,D1,1,DOUT*%
%TO.N,Net-(D1-DOUT)*%
X117500000Y-98675000D03*
%TO.P,D1,2,VSS*%
%TO.N,GND*%
X117500000Y-100425000D03*
%TO.P,D1,3,DIN*%
%TO.N,Net-(D1-DIN)*%
X121000000Y-100425000D03*
%TO.P,D1,4,VDD*%
%TO.N,+5V*%
X121000000Y-98675000D03*
%TD*%
%TO.P,D12,1,DOUT*%
%TO.N,Net-(D12-DOUT)*%
X141000000Y-119875000D03*
%TO.P,D12,2,VSS*%
%TO.N,GND*%
X141000000Y-118125000D03*
%TO.P,D12,3,DIN*%
%TO.N,Net-(D11-DOUT)*%
X137500000Y-118125000D03*
%TO.P,D12,4,VDD*%
%TO.N,+5V*%
X137500000Y-119875000D03*
%TD*%
D15*
%TO.P,U1,1,GPIO26/ADC0/A0*%
%TO.N,Net-(D10-DIN)*%
X81880000Y-118455000D03*
D16*
X81880000Y-117620000D03*
D15*
%TO.P,U1,2,GPIO27/ADC1/A1*%
%TO.N,Net-(U1-GPIO27{slash}ADC1{slash}A1)*%
X84420000Y-118455000D03*
D16*
X84420000Y-117620000D03*
D15*
%TO.P,U1,3,GPIO28/ADC2/A2*%
%TO.N,Net-(U1-GPIO28{slash}ADC2{slash}A2)*%
X86960000Y-118455000D03*
D16*
X86960000Y-117620000D03*
D15*
%TO.P,U1,4,GPIO29/ADC3/A3*%
%TO.N,Net-(U1-GPIO29{slash}ADC3{slash}A3)*%
X89500000Y-118455000D03*
D16*
X89500000Y-117620000D03*
D15*
%TO.P,U1,5,GPIO6/SDA*%
%TO.N,Net-(J1-Pin_4)*%
X92040000Y-118455000D03*
D16*
X92040000Y-117620000D03*
D15*
%TO.P,U1,6,GPIO7/SCL*%
%TO.N,Net-(J1-Pin_3)*%
X94580000Y-118455000D03*
D16*
X94580000Y-117620000D03*
D15*
%TO.P,U1,7,GPIO0/TX*%
%TO.N,Net-(U1-GPIO0{slash}TX)*%
X97120000Y-118455000D03*
D16*
X97120000Y-117620000D03*
%TO.P,U1,8,GPIO1/RX*%
%TO.N,Net-(U1-GPIO1{slash}RX)*%
X97120000Y-102380000D03*
D17*
X97120000Y-101545000D03*
D16*
%TO.P,U1,9,GPIO2/SCK*%
%TO.N,Net-(U1-GPIO2{slash}SCK)*%
X94580000Y-102380000D03*
D17*
X94580000Y-101545000D03*
D16*
%TO.P,U1,10,GPIO4/MISO*%
%TO.N,Net-(D7-K)*%
X92040000Y-102380000D03*
D17*
X92040000Y-101545000D03*
D16*
%TO.P,U1,11,GPIO3/MOSI*%
%TO.N,Net-(D3-K)*%
X89500000Y-102380000D03*
D17*
X89500000Y-101545000D03*
D16*
%TO.P,U1,12,3V3*%
%TO.N,unconnected-(U1-3V3-Pad12)*%
X86960000Y-102380000D03*
D17*
X86960000Y-101545000D03*
D16*
%TO.P,U1,13,GND*%
%TO.N,GND*%
X84420000Y-102380000D03*
D17*
X84420000Y-101545000D03*
D16*
%TO.P,U1,14,VBUS*%
%TO.N,+5V*%
X81880000Y-102380000D03*
D17*
X81880000Y-101545000D03*
%TD*%
D14*
%TO.P,SW2,1,1*%
%TO.N,unconnected-(SW2-Pad1)*%
X122558750Y-104145000D03*
%TO.P,SW2,2,2*%
%TO.N,Net-(D5-A)*%
X116208750Y-106685000D03*
%TD*%
D18*
%TO.P,J1,1,Pin_1*%
%TO.N,GND*%
X131385000Y-70695000D03*
D19*
%TO.P,J1,2,Pin_2*%
%TO.N,+5V*%
X131385000Y-68155000D03*
%TO.P,J1,3,Pin_3*%
%TO.N,Net-(J1-Pin_3)*%
X131385000Y-65615000D03*
%TO.P,J1,4,Pin_4*%
%TO.N,Net-(J1-Pin_4)*%
X131385000Y-63075000D03*
%TD*%
D13*
%TO.P,D11,1,DOUT*%
%TO.N,Net-(D11-DOUT)*%
X159750000Y-119875000D03*
%TO.P,D11,2,VSS*%
%TO.N,GND*%
X159750000Y-118125000D03*
%TO.P,D11,3,DIN*%
%TO.N,Net-(D10-DOUT)*%
X156250000Y-118125000D03*
%TO.P,D11,4,VDD*%
%TO.N,+5V*%
X156250000Y-119875000D03*
%TD*%
%TO.P,D10,1,DOUT*%
%TO.N,Net-(D10-DOUT)*%
X156250000Y-98675000D03*
%TO.P,D10,2,VSS*%
%TO.N,GND*%
X156250000Y-100425000D03*
%TO.P,D10,3,DIN*%
%TO.N,Net-(D10-DIN)*%
X159750000Y-100425000D03*
%TO.P,D10,4,VDD*%
%TO.N,+5V*%
X159750000Y-98675000D03*
%TD*%
D14*
%TO.P,SW4,1,1*%
%TO.N,Net-(U1-GPIO0{slash}TX)*%
X141608750Y-85095000D03*
%TO.P,SW4,2,2*%
%TO.N,Net-(D7-A)*%
X135258750Y-87635000D03*
%TD*%
D13*
%TO.P,D6,1,DOUT*%
%TO.N,Net-(D1-DIN)*%
X137250000Y-98675000D03*
%TO.P,D6,2,VSS*%
%TO.N,GND*%
X137250000Y-100425000D03*
%TO.P,D6,3,DIN*%
%TO.N,Net-(D12-DOUT)*%
X140750000Y-100425000D03*
%TO.P,D6,4,VDD*%
%TO.N,+5V*%
X140750000Y-98675000D03*
%TD*%
D14*
%TO.P,SW8,1,1*%
%TO.N,Net-(U1-GPIO2{slash}SCK)*%
X160658750Y-104145000D03*
%TO.P,SW8,2,2*%
%TO.N,Net-(D9-A)*%
X154308750Y-106685000D03*
%TD*%
%TO.P,SW6,1,1*%
%TO.N,Net-(U1-GPIO0{slash}TX)*%
X160658750Y-85095000D03*
%TO.P,SW6,2,2*%
%TO.N,Net-(D3-A)*%
X154308750Y-87635000D03*
%TD*%
D20*
%TO.P,D9,1,K*%
%TO.N,Net-(D7-K)*%
X149000000Y-113000000D03*
D21*
%TO.P,D9,2,A*%
%TO.N,Net-(D9-A)*%
X149000000Y-105380000D03*
%TD*%
D20*
%TO.P,D5,1,K*%
%TO.N,Net-(D3-K)*%
X110000000Y-113000000D03*
D21*
%TO.P,D5,2,A*%
%TO.N,Net-(D5-A)*%
X110000000Y-105380000D03*
%TD*%
D20*
%TO.P,D7,1,K*%
%TO.N,Net-(D7-K)*%
X130000000Y-95000000D03*
D21*
%TO.P,D7,2,A*%
%TO.N,Net-(D7-A)*%
X130000000Y-87380000D03*
%TD*%
D20*
%TO.P,D8,1,K*%
%TO.N,Net-(D7-K)*%
X130000000Y-113000000D03*
D21*
%TO.P,D8,2,A*%
%TO.N,Net-(D8-A)*%
X130000000Y-105380000D03*
%TD*%
D20*
%TO.P,D4,1,K*%
%TO.N,Net-(D3-K)*%
X110000000Y-95000000D03*
D21*
%TO.P,D4,2,A*%
%TO.N,Net-(D4-A)*%
X110000000Y-87380000D03*
%TD*%
D20*
%TO.P,D3,1,K*%
%TO.N,Net-(D3-K)*%
X149000000Y-94810000D03*
D21*
%TO.P,D3,2,A*%
%TO.N,Net-(D3-A)*%
X149000000Y-87190000D03*
%TD*%
D22*
%TO.N,GND*%
X119000000Y-102000000D03*
X86000000Y-99000000D03*
X143000000Y-102000000D03*
X154000000Y-101000000D03*
X124000000Y-118000000D03*
X162000000Y-118000000D03*
X144000000Y-118000000D03*
%TO.N,+5V*%
X111000000Y-98000000D03*
X104000000Y-97651000D03*
%TO.N,Net-(J1-Pin_4)*%
X127000000Y-66000000D03*
%TO.N,Net-(D7-K)*%
X128000000Y-103000000D03*
X98000000Y-95000000D03*
%TO.N,Net-(U1-GPIO1{slash}RX)*%
X128000000Y-91000000D03*
%TO.N,Net-(U1-GPIO29{slash}ADC3{slash}A3)*%
X81000000Y-86000000D03*
X82000000Y-111000000D03*
X101000000Y-64000000D03*
%TO.N,Net-(U1-GPIO28{slash}ADC2{slash}A2)*%
X113000000Y-70000000D03*
X90000000Y-97000000D03*
%TD*%
D23*
%TO.N,GND*%
X84420000Y-102380000D02*
X84420000Y-101545000D01*
X84420000Y-101545000D02*
X86000000Y-99965000D01*
X159750000Y-118125000D02*
X161875000Y-118125000D01*
D24*
X123875000Y-118125000D02*
X124000000Y-118000000D01*
D23*
X119000000Y-101925000D02*
X117500000Y-100425000D01*
X143000000Y-102000000D02*
X138825000Y-102000000D01*
X143875000Y-118125000D02*
X144000000Y-118000000D01*
D24*
X121000000Y-118125000D02*
X123875000Y-118125000D01*
D23*
X138825000Y-102000000D02*
X137250000Y-100425000D01*
X156250000Y-100425000D02*
X154575000Y-100425000D01*
X86000000Y-99965000D02*
X86000000Y-99000000D01*
X154575000Y-100425000D02*
X154000000Y-101000000D01*
X137250000Y-100425000D02*
X136575000Y-100425000D01*
X161875000Y-118125000D02*
X162000000Y-118000000D01*
X141000000Y-118125000D02*
X143875000Y-118125000D01*
X119000000Y-102000000D02*
X119000000Y-101925000D01*
%TO.N,Net-(D1-DOUT)*%
X118000000Y-104920654D02*
X114349000Y-101269654D01*
X118000000Y-106945774D02*
X118000000Y-104920654D01*
X117500000Y-118125000D02*
X117500000Y-107445774D01*
X116325000Y-98675000D02*
X117500000Y-98675000D01*
X117500000Y-107445774D02*
X118000000Y-106945774D01*
X114349000Y-101269654D02*
X114349000Y-100651000D01*
X114349000Y-100651000D02*
X116325000Y-98675000D01*
%TO.N,+5V*%
X137500000Y-119875000D02*
X136724000Y-120651000D01*
X121000000Y-98675000D02*
X120224000Y-97899000D01*
X120224000Y-97899000D02*
X111101000Y-97899000D01*
X136724000Y-120651000D02*
X118276000Y-120651000D01*
X139974000Y-99451000D02*
X140750000Y-98675000D01*
X121000000Y-98675000D02*
X119849000Y-99826000D01*
X158974000Y-97899000D02*
X159750000Y-98675000D01*
X119849000Y-99826000D02*
X119849000Y-101201000D01*
X111101000Y-97899000D02*
X111000000Y-98000000D01*
X122419750Y-114955250D02*
X122419750Y-106058024D01*
X135000000Y-80538274D02*
X135000000Y-71770000D01*
X104000000Y-97651000D02*
X85531370Y-97651000D01*
X152000000Y-97899000D02*
X158974000Y-97899000D01*
X140750000Y-98675000D02*
X141526000Y-97899000D01*
X135549000Y-99451000D02*
X139974000Y-99451000D01*
X119849000Y-101201000D02*
X133799000Y-101201000D01*
X117500000Y-119875000D02*
X122419750Y-114955250D01*
X133799000Y-101201000D02*
X135549000Y-99451000D01*
X85531370Y-97651000D02*
X81880000Y-101302370D01*
X138276000Y-120651000D02*
X137500000Y-119875000D01*
X141526000Y-97899000D02*
X152000000Y-97899000D01*
X118276000Y-120651000D02*
X117500000Y-119875000D01*
X122419750Y-106058024D02*
X119849000Y-103487274D01*
X81880000Y-101302370D02*
X81880000Y-102380000D01*
X152000000Y-97899000D02*
X152000000Y-95000000D01*
X156250000Y-119875000D02*
X155474000Y-120651000D01*
X155474000Y-120651000D02*
X138276000Y-120651000D01*
X135000000Y-71770000D02*
X131385000Y-68155000D01*
X143546000Y-86546000D02*
X141007726Y-86546000D01*
X119849000Y-103487274D02*
X119849000Y-101201000D01*
X152000000Y-95000000D02*
X143546000Y-86546000D01*
X141007726Y-86546000D02*
X135000000Y-80538274D01*
%TO.N,Net-(J1-Pin_4)*%
X126649000Y-66351000D02*
X127000000Y-66000000D01*
X114684662Y-66351000D02*
X126649000Y-66351000D01*
X80767000Y-106347000D02*
X80767000Y-100268662D01*
X80767000Y-100268662D02*
X114684662Y-66351000D01*
X92040000Y-117620000D02*
X80767000Y-106347000D01*
%TO.N,Net-(J1-Pin_3)*%
X91217662Y-120022000D02*
X90927000Y-119731338D01*
X116663570Y-63663570D02*
X116678141Y-63649000D01*
X90927000Y-119731338D02*
X90927000Y-117215520D01*
X94580000Y-118697630D02*
X93255630Y-120022000D01*
X80266000Y-100061141D02*
X116663570Y-63663570D01*
X93255630Y-120022000D02*
X91217662Y-120022000D01*
X116663570Y-63663570D02*
X117076140Y-63251000D01*
X80266000Y-106554520D02*
X80266000Y-100061141D01*
X94580000Y-117620000D02*
X94580000Y-118697630D01*
X90927000Y-117215520D02*
X80266000Y-106554520D01*
X129021000Y-63251000D02*
X131385000Y-65615000D01*
X117076140Y-63251000D02*
X129021000Y-63251000D01*
%TO.N,Net-(D3-A)*%
X153863750Y-87190000D02*
X154308750Y-87635000D01*
X149000000Y-87190000D02*
X153863750Y-87190000D01*
%TO.N,Net-(D4-A)*%
X115953750Y-87380000D02*
X116208750Y-87635000D01*
X110000000Y-87380000D02*
X115953750Y-87380000D01*
%TO.N,Net-(D5-A)*%
X114903750Y-105380000D02*
X116208750Y-106685000D01*
X110000000Y-105380000D02*
X114903750Y-105380000D01*
%TO.N,Net-(D7-A)*%
X135003750Y-87380000D02*
X135258750Y-87635000D01*
X130000000Y-87380000D02*
X135003750Y-87380000D01*
%TO.N,Net-(D8-A)*%
X133953750Y-105380000D02*
X135258750Y-106685000D01*
X130000000Y-105380000D02*
X133953750Y-105380000D01*
%TO.N,Net-(D9-A)*%
X153003750Y-105380000D02*
X154308750Y-106685000D01*
X149000000Y-105380000D02*
X153003750Y-105380000D01*
%TO.N,Net-(D1-DIN)*%
X122750000Y-98675000D02*
X137250000Y-98675000D01*
X121000000Y-100425000D02*
X122750000Y-98675000D01*
%TO.N,Net-(D3-K)*%
X146810000Y-97000000D02*
X149000000Y-94810000D01*
X108849000Y-96151000D02*
X110000000Y-95000000D01*
X110000000Y-95000000D02*
X112000000Y-97000000D01*
X110000000Y-113000000D02*
X108849000Y-111849000D01*
X112000000Y-97000000D02*
X146810000Y-97000000D01*
X108849000Y-111849000D02*
X108849000Y-96151000D01*
%TO.N,Net-(D12-DOUT)*%
X147000000Y-104000000D02*
X143425000Y-100425000D01*
X146000000Y-116000000D02*
X147000000Y-115000000D01*
X136698000Y-116000000D02*
X146000000Y-116000000D01*
X147000000Y-115000000D02*
X147000000Y-104000000D01*
X143425000Y-100425000D02*
X140750000Y-100425000D01*
X141000000Y-119875000D02*
X140026000Y-118901000D01*
X136349000Y-116349000D02*
X136698000Y-116000000D01*
X136349000Y-118901000D02*
X136349000Y-116349000D01*
X140026000Y-118901000D02*
X136349000Y-118901000D01*
%TO.N,Net-(D7-K)*%
X118448223Y-92000000D02*
X101000000Y-92000000D01*
X130000000Y-95000000D02*
X127576000Y-92576000D01*
X119024223Y-92576000D02*
X118448223Y-92000000D01*
X128000000Y-111000000D02*
X130000000Y-113000000D01*
X101000000Y-92000000D02*
X98000000Y-95000000D01*
X127576000Y-92576000D02*
X119024223Y-92576000D01*
X128000000Y-103000000D02*
X128000000Y-111000000D01*
%TO.N,Net-(D10-DOUT)*%
X156250000Y-118125000D02*
X155717750Y-117592750D01*
X157401000Y-99826000D02*
X156250000Y-98675000D01*
X155717750Y-107328024D02*
X157401000Y-105644774D01*
X157401000Y-105644774D02*
X157401000Y-99826000D01*
X155717750Y-117592750D02*
X155717750Y-107328024D01*
%TO.N,Net-(U1-GPIO1{slash}RX)*%
X122558750Y-85095000D02*
X123095000Y-85095000D01*
X123095000Y-85095000D02*
X128000000Y-90000000D01*
X128000000Y-90000000D02*
X128000000Y-91000000D01*
%TO.N,Net-(U1-GPIO0{slash}TX)*%
X141608750Y-85095000D02*
X160658750Y-85095000D01*
%TO.N,Net-(U1-GPIO29{slash}ADC3{slash}A3)*%
X82000000Y-111000000D02*
X82880000Y-111000000D01*
X82880000Y-111000000D02*
X89500000Y-117620000D01*
X81000000Y-84000000D02*
X81000000Y-86000000D01*
X101000000Y-64000000D02*
X81000000Y-84000000D01*
%TO.N,Net-(U1-GPIO28{slash}ADC2{slash}A2)*%
X113000000Y-70000000D02*
X113000000Y-74000000D01*
X113000000Y-74000000D02*
X90000000Y-97000000D01*
%TO.N,Net-(D10-DIN)*%
X160519750Y-115599096D02*
X162651000Y-117730346D01*
X84334370Y-121152000D02*
X81880000Y-118697630D01*
X81880000Y-118697630D02*
X81880000Y-117620000D01*
X162651000Y-118901000D02*
X160400000Y-121152000D01*
X162651000Y-117730346D02*
X162651000Y-118901000D01*
X159750000Y-100425000D02*
X157902000Y-102273000D01*
X160400000Y-121152000D02*
X84334370Y-121152000D01*
X160519750Y-108230473D02*
X160519750Y-115599096D01*
X157902000Y-102273000D02*
X157902000Y-105612723D01*
X157902000Y-105612723D02*
X160519750Y-108230473D01*
%TO.N,Net-(D11-DOUT)*%
X146019654Y-119099000D02*
X143920654Y-117000000D01*
X158974000Y-119099000D02*
X146019654Y-119099000D01*
X159750000Y-119875000D02*
X158974000Y-119099000D01*
X143920654Y-117000000D02*
X140000000Y-117000000D01*
X138875000Y-118125000D02*
X137500000Y-118125000D01*
X140000000Y-117000000D02*
X138875000Y-118125000D01*
%TD*%
M02*
