%TF.GenerationSoftware,KiCad,Pcbnew,9.0.6*%
%TF.CreationDate,2025-11-19T10:03:51+06:00*%
%TF.ProjectId,MiniMicroG,4d696e69-4d69-4637-926f-472e6b696361,rev?*%
%TF.SameCoordinates,Original*%
%TF.FileFunction,Copper,L2,Bot*%
%TF.FilePolarity,Positive*%
%FSLAX46Y46*%
G04 Gerber Fmt 4.6, Leading zero omitted, Abs format (unit mm)*
G04 Created by KiCad (PCBNEW 9.0.6) date 2025-11-19 10:03:51*
%MOMM*%
%LPD*%
G01*
G04 APERTURE LIST*
G04 Aperture macros list*
%AMRoundRect*
0 Rectangle with rounded corners*
0 $1 Rounding radius*
0 $2 $3 $4 $5 $6 $7 $8 $9 X,Y pos of 4 corners*
0 Add a 4 corners polygon primitive as box body*
4,1,4,$2,$3,$4,$5,$6,$7,$8,$9,$2,$3,0*
0 Add four circle primitives for the rounded corners*
1,1,$1+$1,$2,$3*
1,1,$1+$1,$4,$5*
1,1,$1+$1,$6,$7*
1,1,$1+$1,$8,$9*
0 Add four rect primitives between the rounded corners*
20,1,$1+$1,$2,$3,$4,$5,0*
20,1,$1+$1,$4,$5,$6,$7,0*
20,1,$1+$1,$6,$7,$8,$9,0*
20,1,$1+$1,$8,$9,$2,$3,0*%
G04 Aperture macros list end*
%TA.AperFunction,ComponentPad*%
%ADD10R,2.000000X2.000000*%
%TD*%
%TA.AperFunction,ComponentPad*%
%ADD11C,2.000000*%
%TD*%
%TA.AperFunction,ComponentPad*%
%ADD12R,3.200000X2.000000*%
%TD*%
%TA.AperFunction,ComponentPad*%
%ADD13C,2.200000*%
%TD*%
%TA.AperFunction,ComponentPad*%
%ADD14C,1.524000*%
%TD*%
%TA.AperFunction,ComponentPad*%
%ADD15R,1.700000X1.700000*%
%TD*%
%TA.AperFunction,ComponentPad*%
%ADD16O,1.700000X1.700000*%
%TD*%
%TA.AperFunction,ComponentPad*%
%ADD17RoundRect,0.250000X0.550000X-0.550000X0.550000X0.550000X-0.550000X0.550000X-0.550000X-0.550000X0*%
%TD*%
%TA.AperFunction,ComponentPad*%
%ADD18C,1.600000*%
%TD*%
%TA.AperFunction,ViaPad*%
%ADD19C,0.600000*%
%TD*%
%TA.AperFunction,Conductor*%
%ADD20C,0.300000*%
%TD*%
%TA.AperFunction,Conductor*%
%ADD21C,0.200000*%
%TD*%
G04 APERTURE END LIST*
D10*
%TO.P,SW7,A,A*%
%TO.N,Net-(U1-GPIO28{slash}ADC2{slash}A2)*%
X108000000Y-65000000D03*
D11*
%TO.P,SW7,B,B*%
%TO.N,Net-(U1-GPIO27{slash}ADC1{slash}A1)*%
X108000000Y-70000000D03*
%TO.P,SW7,C,C*%
%TO.N,GND*%
X108000000Y-67500000D03*
D12*
%TO.P,SW7,MP*%
%TO.N,N/C*%
X115500000Y-61900000D03*
X115500000Y-73100000D03*
D11*
%TO.P,SW7,S1,S1*%
%TO.N,GND*%
X122500000Y-70000000D03*
%TO.P,SW7,S2,S2*%
%TO.N,Net-(U1-GPIO29{slash}ADC3{slash}A3)*%
X122500000Y-65000000D03*
%TD*%
D13*
%TO.P,SW5,1,1*%
%TO.N,Net-(U1-GPIO1{slash}RX)*%
X141608750Y-104145000D03*
%TO.P,SW5,2,2*%
%TO.N,Net-(D8-A)*%
X135258750Y-106685000D03*
%TD*%
%TO.P,SW1,1,1*%
%TO.N,Net-(U1-GPIO1{slash}RX)*%
X122558750Y-85095000D03*
%TO.P,SW1,2,2*%
%TO.N,Net-(D4-A)*%
X116208750Y-87635000D03*
%TD*%
D14*
%TO.P,U1,1,GPIO26/ADC0/A0*%
%TO.N,Net-(D10-DIN)*%
X81880000Y-117620000D03*
%TO.P,U1,2,GPIO27/ADC1/A1*%
%TO.N,Net-(U1-GPIO27{slash}ADC1{slash}A1)*%
X84420000Y-117620000D03*
%TO.P,U1,3,GPIO28/ADC2/A2*%
%TO.N,Net-(U1-GPIO28{slash}ADC2{slash}A2)*%
X86960000Y-117620000D03*
%TO.P,U1,4,GPIO29/ADC3/A3*%
%TO.N,Net-(U1-GPIO29{slash}ADC3{slash}A3)*%
X89500000Y-117620000D03*
%TO.P,U1,5,GPIO6/SDA*%
%TO.N,Net-(J1-Pin_4)*%
X92040000Y-117620000D03*
%TO.P,U1,6,GPIO7/SCL*%
%TO.N,Net-(J1-Pin_3)*%
X94580000Y-117620000D03*
%TO.P,U1,7,GPIO0/TX*%
%TO.N,Net-(U1-GPIO0{slash}TX)*%
X97120000Y-117620000D03*
%TO.P,U1,8,GPIO1/RX*%
%TO.N,Net-(U1-GPIO1{slash}RX)*%
X97120000Y-102380000D03*
%TO.P,U1,9,GPIO2/SCK*%
%TO.N,Net-(U1-GPIO2{slash}SCK)*%
X94580000Y-102380000D03*
%TO.P,U1,10,GPIO4/MISO*%
%TO.N,Net-(D7-K)*%
X92040000Y-102380000D03*
%TO.P,U1,11,GPIO3/MOSI*%
%TO.N,Net-(D3-K)*%
X89500000Y-102380000D03*
%TO.P,U1,12,3V3*%
%TO.N,unconnected-(U1-3V3-Pad12)*%
X86960000Y-102380000D03*
%TO.P,U1,13,GND*%
%TO.N,GND*%
X84420000Y-102380000D03*
%TO.P,U1,14,VBUS*%
%TO.N,+5V*%
X81880000Y-102380000D03*
%TD*%
D13*
%TO.P,SW2,1,1*%
%TO.N,unconnected-(SW2-Pad1)*%
X122558750Y-104145000D03*
%TO.P,SW2,2,2*%
%TO.N,Net-(D5-A)*%
X116208750Y-106685000D03*
%TD*%
D15*
%TO.P,J1,1,Pin_1*%
%TO.N,GND*%
X131385000Y-70695000D03*
D16*
%TO.P,J1,2,Pin_2*%
%TO.N,+5V*%
X131385000Y-68155000D03*
%TO.P,J1,3,Pin_3*%
%TO.N,Net-(J1-Pin_3)*%
X131385000Y-65615000D03*
%TO.P,J1,4,Pin_4*%
%TO.N,Net-(J1-Pin_4)*%
X131385000Y-63075000D03*
%TD*%
D13*
%TO.P,SW4,1,1*%
%TO.N,Net-(U1-GPIO0{slash}TX)*%
X141608750Y-85095000D03*
%TO.P,SW4,2,2*%
%TO.N,Net-(D7-A)*%
X135258750Y-87635000D03*
%TD*%
%TO.P,SW8,1,1*%
%TO.N,Net-(U1-GPIO2{slash}SCK)*%
X160658750Y-104145000D03*
%TO.P,SW8,2,2*%
%TO.N,Net-(D9-A)*%
X154308750Y-106685000D03*
%TD*%
%TO.P,SW6,1,1*%
%TO.N,Net-(U1-GPIO0{slash}TX)*%
X160658750Y-85095000D03*
%TO.P,SW6,2,2*%
%TO.N,Net-(D3-A)*%
X154308750Y-87635000D03*
%TD*%
D17*
%TO.P,D9,1,K*%
%TO.N,Net-(D7-K)*%
X149000000Y-113000000D03*
D18*
%TO.P,D9,2,A*%
%TO.N,Net-(D9-A)*%
X149000000Y-105380000D03*
%TD*%
D17*
%TO.P,D5,1,K*%
%TO.N,Net-(D3-K)*%
X110000000Y-113000000D03*
D18*
%TO.P,D5,2,A*%
%TO.N,Net-(D5-A)*%
X110000000Y-105380000D03*
%TD*%
D17*
%TO.P,D7,1,K*%
%TO.N,Net-(D7-K)*%
X130000000Y-95000000D03*
D18*
%TO.P,D7,2,A*%
%TO.N,Net-(D7-A)*%
X130000000Y-87380000D03*
%TD*%
D17*
%TO.P,D8,1,K*%
%TO.N,Net-(D7-K)*%
X130000000Y-113000000D03*
D18*
%TO.P,D8,2,A*%
%TO.N,Net-(D8-A)*%
X130000000Y-105380000D03*
%TD*%
D17*
%TO.P,D4,1,K*%
%TO.N,Net-(D3-K)*%
X110000000Y-95000000D03*
D18*
%TO.P,D4,2,A*%
%TO.N,Net-(D4-A)*%
X110000000Y-87380000D03*
%TD*%
D17*
%TO.P,D3,1,K*%
%TO.N,Net-(D3-K)*%
X149000000Y-94810000D03*
D18*
%TO.P,D3,2,A*%
%TO.N,Net-(D3-A)*%
X149000000Y-87190000D03*
%TD*%
D19*
%TO.N,GND*%
X119000000Y-102000000D03*
X86000000Y-99000000D03*
X143000000Y-102000000D03*
X154000000Y-101000000D03*
X124000000Y-118000000D03*
X162000000Y-118000000D03*
X144000000Y-118000000D03*
%TO.N,+5V*%
X111000000Y-98000000D03*
X104000000Y-97651000D03*
%TO.N,Net-(J1-Pin_4)*%
X127000000Y-66000000D03*
%TO.N,Net-(D7-K)*%
X128000000Y-103000000D03*
X98000000Y-95000000D03*
%TO.N,Net-(U1-GPIO1{slash}RX)*%
X128000000Y-91000000D03*
%TO.N,Net-(U1-GPIO29{slash}ADC3{slash}A3)*%
X81000000Y-86000000D03*
X82000000Y-111000000D03*
X101000000Y-64000000D03*
%TO.N,Net-(U1-GPIO28{slash}ADC2{slash}A2)*%
X113000000Y-70000000D03*
X90000000Y-97000000D03*
%TD*%
D20*
%TO.N,+5V*%
X104000000Y-97651000D02*
X109651000Y-97651000D01*
X110000000Y-98000000D02*
X111000000Y-98000000D01*
X109651000Y-97651000D02*
X110000000Y-98000000D01*
%TO.N,Net-(J1-Pin_4)*%
X127000000Y-66000000D02*
X128460000Y-66000000D01*
X128460000Y-66000000D02*
X131385000Y-63075000D01*
%TO.N,Net-(D3-K)*%
X110000000Y-95000000D02*
X109000000Y-94000000D01*
X109000000Y-94000000D02*
X97880000Y-94000000D01*
X97880000Y-94000000D02*
X89500000Y-102380000D01*
%TO.N,Net-(D7-K)*%
X130000000Y-98000000D02*
X130000000Y-95000000D01*
X128000000Y-103000000D02*
X128000000Y-100000000D01*
X149000000Y-113000000D02*
X130000000Y-113000000D01*
X128000000Y-100000000D02*
X130000000Y-98000000D01*
X92040000Y-100960000D02*
X92040000Y-102380000D01*
X98000000Y-95000000D02*
X92040000Y-100960000D01*
%TO.N,Net-(U1-GPIO1{slash}RX)*%
X133000000Y-95536250D02*
X141608750Y-104145000D01*
X131000000Y-91000000D02*
X133000000Y-93000000D01*
X128000000Y-91000000D02*
X131000000Y-91000000D01*
X122558750Y-91441250D02*
X122558750Y-85095000D01*
X133000000Y-93000000D02*
X133000000Y-95536250D01*
X97120000Y-102380000D02*
X111620000Y-102380000D01*
X111620000Y-102380000D02*
X122558750Y-91441250D01*
%TO.N,Net-(U1-GPIO0{slash}TX)*%
X106356000Y-83644000D02*
X88073000Y-101927000D01*
X88073000Y-118927000D02*
X88000000Y-119000000D01*
X88000000Y-119000000D02*
X89000000Y-120000000D01*
X88073000Y-101927000D02*
X88073000Y-118927000D01*
X141608750Y-85095000D02*
X140157750Y-83644000D01*
X89000000Y-120000000D02*
X94740000Y-120000000D01*
X94740000Y-120000000D02*
X97120000Y-117620000D01*
X140157750Y-83644000D02*
X106356000Y-83644000D01*
%TO.N,Net-(U1-GPIO27{slash}ADC1{slash}A1)*%
X108000000Y-70000000D02*
X83307000Y-94693000D01*
X83307000Y-94693000D02*
X83307000Y-116507000D01*
X83307000Y-116507000D02*
X84420000Y-117620000D01*
%TO.N,Net-(U1-GPIO29{slash}ADC3{slash}A3)*%
X80767000Y-86233000D02*
X80767000Y-109767000D01*
X110000000Y-62000000D02*
X103000000Y-62000000D01*
X103000000Y-62000000D02*
X101000000Y-64000000D01*
X81000000Y-86000000D02*
X80767000Y-86233000D01*
X122500000Y-65000000D02*
X113000000Y-65000000D01*
X80767000Y-109767000D02*
X82000000Y-111000000D01*
X113000000Y-65000000D02*
X110000000Y-62000000D01*
%TO.N,Net-(U1-GPIO28{slash}ADC2{slash}A2)*%
X113000000Y-66000000D02*
X113000000Y-70000000D01*
X112000000Y-65000000D02*
X113000000Y-66000000D01*
X108000000Y-65000000D02*
X112000000Y-65000000D01*
X85847000Y-101153000D02*
X85847000Y-116507000D01*
X85847000Y-116507000D02*
X86960000Y-117620000D01*
X90000000Y-97000000D02*
X85847000Y-101153000D01*
D21*
%TO.N,Net-(U1-GPIO2{slash}SCK)*%
X132899000Y-111899000D02*
X132000000Y-111000000D01*
X158769566Y-111899000D02*
X132899000Y-111899000D01*
X160658750Y-104145000D02*
X160658750Y-110009816D01*
X113000000Y-112000000D02*
X108000000Y-107000000D01*
X160658750Y-110009816D02*
X158769566Y-111899000D01*
X123000000Y-111000000D02*
X122000000Y-112000000D01*
X99200000Y-107000000D02*
X94580000Y-102380000D01*
X132000000Y-111000000D02*
X123000000Y-111000000D01*
X108000000Y-107000000D02*
X99200000Y-107000000D01*
X122000000Y-112000000D02*
X113000000Y-112000000D01*
%TD*%
%TA.AperFunction,Conductor*%
%TO.N,GND*%
G36*
X172002702Y-52000617D02*
G01*
X172386771Y-52017386D01*
X172397506Y-52018326D01*
X172775971Y-52068152D01*
X172786597Y-52070025D01*
X173159284Y-52152648D01*
X173169710Y-52155442D01*
X173533765Y-52270227D01*
X173543911Y-52273920D01*
X173896578Y-52420000D01*
X173906369Y-52424566D01*
X174244942Y-52600816D01*
X174254310Y-52606224D01*
X174576244Y-52811318D01*
X174585105Y-52817523D01*
X174887930Y-53049889D01*
X174896217Y-53056843D01*
X175177635Y-53314715D01*
X175185284Y-53322364D01*
X175443156Y-53603782D01*
X175450110Y-53612069D01*
X175682476Y-53914894D01*
X175688681Y-53923755D01*
X175893775Y-54245689D01*
X175899183Y-54255057D01*
X176075430Y-54593623D01*
X176080002Y-54603427D01*
X176226075Y-54956078D01*
X176229775Y-54966244D01*
X176344554Y-55330278D01*
X176347354Y-55340727D01*
X176429971Y-55713389D01*
X176431849Y-55724042D01*
X176481671Y-56102473D01*
X176482614Y-56113249D01*
X176499382Y-56497297D01*
X176499500Y-56502706D01*
X176499500Y-121497293D01*
X176499382Y-121502702D01*
X176482614Y-121886750D01*
X176481671Y-121897526D01*
X176431849Y-122275957D01*
X176429971Y-122286610D01*
X176347354Y-122659272D01*
X176344554Y-122669721D01*
X176229775Y-123033755D01*
X176226075Y-123043921D01*
X176080002Y-123396572D01*
X176075430Y-123406376D01*
X175899183Y-123744942D01*
X175893775Y-123754310D01*
X175688681Y-124076244D01*
X175682476Y-124085105D01*
X175450110Y-124387930D01*
X175443156Y-124396217D01*
X175185284Y-124677635D01*
X175177635Y-124685284D01*
X174896217Y-124943156D01*
X174887930Y-124950110D01*
X174585105Y-125182476D01*
X174576244Y-125188681D01*
X174254310Y-125393775D01*
X174244942Y-125399183D01*
X173906376Y-125575430D01*
X173896572Y-125580002D01*
X173543921Y-125726075D01*
X173533755Y-125729775D01*
X173169721Y-125844554D01*
X173159272Y-125847354D01*
X172786610Y-125929971D01*
X172775957Y-125931849D01*
X172397526Y-125981671D01*
X172386750Y-125982614D01*
X172002703Y-125999382D01*
X171997294Y-125999500D01*
X84002706Y-125999500D01*
X83997297Y-125999382D01*
X83613249Y-125982614D01*
X83602473Y-125981671D01*
X83224042Y-125931849D01*
X83213389Y-125929971D01*
X82840727Y-125847354D01*
X82830278Y-125844554D01*
X82466244Y-125729775D01*
X82456078Y-125726075D01*
X82103427Y-125580002D01*
X82093623Y-125575430D01*
X81755057Y-125399183D01*
X81745689Y-125393775D01*
X81423755Y-125188681D01*
X81414894Y-125182476D01*
X81112069Y-124950110D01*
X81103782Y-124943156D01*
X80822364Y-124685284D01*
X80814715Y-124677635D01*
X80556843Y-124396217D01*
X80549889Y-124387930D01*
X80317523Y-124085105D01*
X80311318Y-124076244D01*
X80106224Y-123754310D01*
X80100816Y-123744942D01*
X79924569Y-123406376D01*
X79919997Y-123396572D01*
X79773924Y-123043921D01*
X79770224Y-123033755D01*
X79655442Y-122669710D01*
X79652648Y-122659284D01*
X79570025Y-122286597D01*
X79568152Y-122275971D01*
X79518326Y-121897506D01*
X79517386Y-121886771D01*
X79500618Y-121502702D01*
X79500500Y-121497293D01*
X79500500Y-86168928D01*
X80116500Y-86168928D01*
X80116500Y-86168931D01*
X80116500Y-109831069D01*
X80136330Y-109930758D01*
X80140148Y-109949951D01*
X80141499Y-109956744D01*
X80186097Y-110064414D01*
X80190535Y-110075127D01*
X80261723Y-110181669D01*
X80261726Y-110181673D01*
X80261727Y-110181674D01*
X81182984Y-111102930D01*
X81216469Y-111164253D01*
X81216920Y-111166420D01*
X81230261Y-111233489D01*
X81230264Y-111233501D01*
X81290602Y-111379172D01*
X81290609Y-111379185D01*
X81378210Y-111510288D01*
X81378213Y-111510292D01*
X81489707Y-111621786D01*
X81489711Y-111621789D01*
X81620814Y-111709390D01*
X81620827Y-111709397D01*
X81755513Y-111765185D01*
X81766503Y-111769737D01*
X81921153Y-111800499D01*
X81921156Y-111800500D01*
X81921158Y-111800500D01*
X82078844Y-111800500D01*
X82078845Y-111800499D01*
X82233497Y-111769737D01*
X82379179Y-111709394D01*
X82393985Y-111699501D01*
X82463609Y-111652980D01*
X82530286Y-111632102D01*
X82597667Y-111650586D01*
X82644357Y-111702565D01*
X82656500Y-111756082D01*
X82656500Y-116396359D01*
X82636815Y-116463398D01*
X82584011Y-116509153D01*
X82514853Y-116519097D01*
X82476205Y-116506844D01*
X82364632Y-116449995D01*
X82364629Y-116449993D01*
X82175637Y-116388587D01*
X82077498Y-116373043D01*
X81979361Y-116357500D01*
X81780639Y-116357500D01*
X81719232Y-116367226D01*
X81584362Y-116388587D01*
X81395370Y-116449993D01*
X81395367Y-116449994D01*
X81218305Y-116540213D01*
X81057533Y-116657021D01*
X80917021Y-116797533D01*
X80800213Y-116958305D01*
X80709994Y-117135367D01*
X80709993Y-117135370D01*
X80648587Y-117324362D01*
X80617500Y-117520639D01*
X80617500Y-117719360D01*
X80648587Y-117915637D01*
X80709993Y-118104629D01*
X80709994Y-118104632D01*
X80800213Y-118281694D01*
X80917019Y-118442464D01*
X81057536Y-118582981D01*
X81218306Y-118699787D01*
X81305149Y-118744035D01*
X81395367Y-118790005D01*
X81395370Y-118790006D01*
X81446593Y-118806649D01*
X81584364Y-118851413D01*
X81780639Y-118882500D01*
X81780640Y-118882500D01*
X81979360Y-118882500D01*
X81979361Y-118882500D01*
X82175636Y-118851413D01*
X82364632Y-118790005D01*
X82541694Y-118699787D01*
X82702464Y-118582981D01*
X82842981Y-118442464D01*
X82959787Y-118281694D01*
X83039515Y-118125218D01*
X83087490Y-118074423D01*
X83155311Y-118057628D01*
X83221446Y-118080165D01*
X83260484Y-118125218D01*
X83340213Y-118281694D01*
X83457019Y-118442464D01*
X83597536Y-118582981D01*
X83758306Y-118699787D01*
X83845149Y-118744035D01*
X83935367Y-118790005D01*
X83935370Y-118790006D01*
X83986593Y-118806649D01*
X84124364Y-118851413D01*
X84320639Y-118882500D01*
X84320640Y-118882500D01*
X84519360Y-118882500D01*
X84519361Y-118882500D01*
X84715636Y-118851413D01*
X84904632Y-118790005D01*
X85081694Y-118699787D01*
X85242464Y-118582981D01*
X85382981Y-118442464D01*
X85499787Y-118281694D01*
X85579515Y-118125218D01*
X85627490Y-118074423D01*
X85695311Y-118057628D01*
X85761446Y-118080165D01*
X85800484Y-118125218D01*
X85880213Y-118281694D01*
X85997019Y-118442464D01*
X86137536Y-118582981D01*
X86298306Y-118699787D01*
X86385149Y-118744035D01*
X86475367Y-118790005D01*
X86475370Y-118790006D01*
X86526593Y-118806649D01*
X86664364Y-118851413D01*
X86860639Y-118882500D01*
X86860640Y-118882500D01*
X87059360Y-118882500D01*
X87059361Y-118882500D01*
X87206103Y-118859258D01*
X87275396Y-118868213D01*
X87328848Y-118913209D01*
X87349488Y-118979960D01*
X87349501Y-118981731D01*
X87349501Y-119064073D01*
X87374497Y-119189736D01*
X87374499Y-119189744D01*
X87423535Y-119308127D01*
X87449286Y-119346666D01*
X87494726Y-119414673D01*
X88585325Y-120505272D01*
X88585331Y-120505277D01*
X88691874Y-120576466D01*
X88761221Y-120605189D01*
X88810256Y-120625501D01*
X88810259Y-120625501D01*
X88810260Y-120625502D01*
X88935928Y-120650500D01*
X88935931Y-120650500D01*
X94804071Y-120650500D01*
X94888615Y-120633682D01*
X94929744Y-120625501D01*
X95048127Y-120576465D01*
X95154669Y-120505277D01*
X96766022Y-118893922D01*
X96827343Y-118860439D01*
X96873099Y-118859132D01*
X96930435Y-118868213D01*
X97020639Y-118882500D01*
X97020640Y-118882500D01*
X97219360Y-118882500D01*
X97219361Y-118882500D01*
X97415636Y-118851413D01*
X97604632Y-118790005D01*
X97781694Y-118699787D01*
X97942464Y-118582981D01*
X98082981Y-118442464D01*
X98199787Y-118281694D01*
X98290005Y-118104632D01*
X98351413Y-117915636D01*
X98382500Y-117719361D01*
X98382500Y-117520639D01*
X98351413Y-117324364D01*
X98290005Y-117135368D01*
X98290005Y-117135367D01*
X98199786Y-116958305D01*
X98082981Y-116797536D01*
X97942464Y-116657019D01*
X97781694Y-116540213D01*
X97720736Y-116509153D01*
X97604632Y-116449994D01*
X97604629Y-116449993D01*
X97415637Y-116388587D01*
X97317498Y-116373043D01*
X97219361Y-116357500D01*
X97020639Y-116357500D01*
X96959232Y-116367226D01*
X96824362Y-116388587D01*
X96635370Y-116449993D01*
X96635367Y-116449994D01*
X96458305Y-116540213D01*
X96297533Y-116657021D01*
X96157021Y-116797533D01*
X96040213Y-116958305D01*
X95960485Y-117114780D01*
X95912510Y-117165576D01*
X95844689Y-117182371D01*
X95778554Y-117159833D01*
X95739515Y-117114780D01*
X95659786Y-116958305D01*
X95542981Y-116797536D01*
X95402464Y-116657019D01*
X95241694Y-116540213D01*
X95180736Y-116509153D01*
X95064632Y-116449994D01*
X95064629Y-116449993D01*
X94875637Y-116388587D01*
X94777498Y-116373043D01*
X94679361Y-116357500D01*
X94480639Y-116357500D01*
X94419232Y-116367226D01*
X94284362Y-116388587D01*
X94095370Y-116449993D01*
X94095367Y-116449994D01*
X93918305Y-116540213D01*
X93757533Y-116657021D01*
X93617021Y-116797533D01*
X93500213Y-116958305D01*
X93420485Y-117114780D01*
X93372510Y-117165576D01*
X93304689Y-117182371D01*
X93238554Y-117159833D01*
X93199515Y-117114780D01*
X93119786Y-116958305D01*
X93002981Y-116797536D01*
X92862464Y-116657019D01*
X92701694Y-116540213D01*
X92640736Y-116509153D01*
X92524632Y-116449994D01*
X92524629Y-116449993D01*
X92335637Y-116388587D01*
X92237498Y-116373043D01*
X92139361Y-116357500D01*
X91940639Y-116357500D01*
X91879232Y-116367226D01*
X91744362Y-116388587D01*
X91555370Y-116449993D01*
X91555367Y-116449994D01*
X91378305Y-116540213D01*
X91217533Y-116657021D01*
X91077021Y-116797533D01*
X90960213Y-116958305D01*
X90880485Y-117114780D01*
X90832510Y-117165576D01*
X90764689Y-117182371D01*
X90698554Y-117159833D01*
X90659515Y-117114780D01*
X90579786Y-116958305D01*
X90462981Y-116797536D01*
X90322464Y-116657019D01*
X90161694Y-116540213D01*
X90100736Y-116509153D01*
X89984632Y-116449994D01*
X89984629Y-116449993D01*
X89795637Y-116388587D01*
X89697498Y-116373043D01*
X89599361Y-116357500D01*
X89400639Y-116357500D01*
X89339232Y-116367226D01*
X89204362Y-116388587D01*
X89015370Y-116449993D01*
X89015367Y-116449995D01*
X88903795Y-116506844D01*
X88835126Y-116519740D01*
X88770385Y-116493464D01*
X88730128Y-116436357D01*
X88723500Y-116396359D01*
X88723500Y-112399983D01*
X108699500Y-112399983D01*
X108699500Y-113600001D01*
X108699501Y-113600018D01*
X108710000Y-113702796D01*
X108710001Y-113702799D01*
X108720836Y-113735495D01*
X108765186Y-113869334D01*
X108857288Y-114018656D01*
X108981344Y-114142712D01*
X109130666Y-114234814D01*
X109297203Y-114289999D01*
X109399991Y-114300500D01*
X110600008Y-114300499D01*
X110702797Y-114289999D01*
X110869334Y-114234814D01*
X111018656Y-114142712D01*
X111142712Y-114018656D01*
X111234814Y-113869334D01*
X111289999Y-113702797D01*
X111300500Y-113600009D01*
X111300499Y-112399992D01*
X111289999Y-112297203D01*
X111234814Y-112130666D01*
X111142712Y-111981344D01*
X111018656Y-111857288D01*
X110925888Y-111800069D01*
X110869336Y-111765187D01*
X110869331Y-111765185D01*
X110841860Y-111756082D01*
X110702797Y-111710001D01*
X110702795Y-111710000D01*
X110600010Y-111699500D01*
X109399998Y-111699500D01*
X109399981Y-111699501D01*
X109297203Y-111710000D01*
X109297200Y-111710001D01*
X109130668Y-111765185D01*
X109130663Y-111765187D01*
X108981342Y-111857289D01*
X108857289Y-111981342D01*
X108765187Y-112130663D01*
X108765185Y-112130668D01*
X108742495Y-112199142D01*
X108710001Y-112297203D01*
X108710001Y-112297204D01*
X108710000Y-112297204D01*
X108699500Y-112399983D01*
X88723500Y-112399983D01*
X88723500Y-103603640D01*
X88743185Y-103536601D01*
X88795989Y-103490846D01*
X88865147Y-103480902D01*
X88903795Y-103493156D01*
X89015357Y-103550000D01*
X89015370Y-103550006D01*
X89097737Y-103576768D01*
X89204364Y-103611413D01*
X89400639Y-103642500D01*
X89400640Y-103642500D01*
X89599360Y-103642500D01*
X89599361Y-103642500D01*
X89795636Y-103611413D01*
X89984632Y-103550005D01*
X90161694Y-103459787D01*
X90322464Y-103342981D01*
X90462981Y-103202464D01*
X90579787Y-103041694D01*
X90659515Y-102885218D01*
X90707490Y-102834423D01*
X90775311Y-102817628D01*
X90841446Y-102840165D01*
X90880484Y-102885218D01*
X90960213Y-103041694D01*
X91077019Y-103202464D01*
X91217536Y-103342981D01*
X91378306Y-103459787D01*
X91442693Y-103492594D01*
X91555367Y-103550005D01*
X91555370Y-103550006D01*
X91637737Y-103576768D01*
X91744364Y-103611413D01*
X91940639Y-103642500D01*
X91940640Y-103642500D01*
X92139360Y-103642500D01*
X92139361Y-103642500D01*
X92335636Y-103611413D01*
X92524632Y-103550005D01*
X92701694Y-103459787D01*
X92862464Y-103342981D01*
X93002981Y-103202464D01*
X93119787Y-103041694D01*
X93199515Y-102885218D01*
X93247490Y-102834423D01*
X93315311Y-102817628D01*
X93381446Y-102840165D01*
X93420484Y-102885218D01*
X93500213Y-103041694D01*
X93617019Y-103202464D01*
X93757536Y-103342981D01*
X93918306Y-103459787D01*
X93982693Y-103492594D01*
X94095367Y-103550005D01*
X94095370Y-103550006D01*
X94177737Y-103576768D01*
X94284364Y-103611413D01*
X94480639Y-103642500D01*
X94480640Y-103642500D01*
X94679360Y-103642500D01*
X94679361Y-103642500D01*
X94875636Y-103611413D01*
X94875646Y-103611409D01*
X94877891Y-103610871D01*
X94878778Y-103610915D01*
X94880448Y-103610651D01*
X94880503Y-103611001D01*
X94947674Y-103614357D01*
X94994526Y-103643761D01*
X98831284Y-107480520D01*
X98831286Y-107480521D01*
X98831290Y-107480524D01*
X98968209Y-107559573D01*
X98968216Y-107559577D01*
X99120943Y-107600501D01*
X99120945Y-107600501D01*
X99286654Y-107600501D01*
X99286670Y-107600500D01*
X107699903Y-107600500D01*
X107766942Y-107620185D01*
X107787584Y-107636819D01*
X112515139Y-112364374D01*
X112515149Y-112364385D01*
X112519479Y-112368715D01*
X112519480Y-112368716D01*
X112631284Y-112480520D01*
X112683569Y-112510706D01*
X112718095Y-112530639D01*
X112718097Y-112530641D01*
X112756151Y-112552611D01*
X112768215Y-112559577D01*
X112920943Y-112600501D01*
X112920946Y-112600501D01*
X113086653Y-112600501D01*
X113086669Y-112600500D01*
X121913331Y-112600500D01*
X121913347Y-112600501D01*
X121920943Y-112600501D01*
X122079054Y-112600501D01*
X122079057Y-112600501D01*
X122231785Y-112559577D01*
X122281904Y-112530639D01*
X122368716Y-112480520D01*
X122480520Y-112368716D01*
X122480520Y-112368714D01*
X122490728Y-112358507D01*
X122490729Y-112358504D01*
X123212417Y-111636819D01*
X123273740Y-111603334D01*
X123300098Y-111600500D01*
X128960426Y-111600500D01*
X129027465Y-111620185D01*
X129073220Y-111672989D01*
X129083164Y-111742147D01*
X129054139Y-111805703D01*
X129025522Y-111830039D01*
X128981344Y-111857287D01*
X128857289Y-111981342D01*
X128765187Y-112130663D01*
X128765185Y-112130668D01*
X128742495Y-112199142D01*
X128710001Y-112297203D01*
X128710001Y-112297204D01*
X128710000Y-112297204D01*
X128699500Y-112399983D01*
X128699500Y-113600001D01*
X128699501Y-113600018D01*
X128710000Y-113702796D01*
X128710001Y-113702799D01*
X128720836Y-113735495D01*
X128765186Y-113869334D01*
X128857288Y-114018656D01*
X128981344Y-114142712D01*
X129130666Y-114234814D01*
X129297203Y-114289999D01*
X129399991Y-114300500D01*
X130600008Y-114300499D01*
X130702797Y-114289999D01*
X130869334Y-114234814D01*
X131018656Y-114142712D01*
X131142712Y-114018656D01*
X131234814Y-113869334D01*
X131279164Y-113735494D01*
X131318936Y-113678051D01*
X131383451Y-113651228D01*
X131396869Y-113650500D01*
X147603130Y-113650500D01*
X147670169Y-113670185D01*
X147715924Y-113722989D01*
X147720836Y-113735495D01*
X147765186Y-113869334D01*
X147857288Y-114018656D01*
X147981344Y-114142712D01*
X148130666Y-114234814D01*
X148297203Y-114289999D01*
X148399991Y-114300500D01*
X149600008Y-114300499D01*
X149702797Y-114289999D01*
X149869334Y-114234814D01*
X150018656Y-114142712D01*
X150142712Y-114018656D01*
X150234814Y-113869334D01*
X150289999Y-113702797D01*
X150300500Y-113600009D01*
X150300499Y-112623499D01*
X150320183Y-112556461D01*
X150372987Y-112510706D01*
X150424499Y-112499500D01*
X158682897Y-112499500D01*
X158682913Y-112499501D01*
X158690509Y-112499501D01*
X158848620Y-112499501D01*
X158848623Y-112499501D01*
X159001351Y-112458577D01*
X159062045Y-112423535D01*
X159138282Y-112379520D01*
X159250086Y-112267716D01*
X159250086Y-112267714D01*
X159260290Y-112257511D01*
X159260293Y-112257506D01*
X161139270Y-110378532D01*
X161218327Y-110241600D01*
X161259251Y-110088873D01*
X161259251Y-109930758D01*
X161259251Y-109923163D01*
X161259250Y-109923145D01*
X161259250Y-109138389D01*
X162098250Y-109138389D01*
X162098250Y-109311610D01*
X162119565Y-109446192D01*
X162125348Y-109482701D01*
X162178877Y-109647445D01*
X162257518Y-109801788D01*
X162359336Y-109941928D01*
X162481822Y-110064414D01*
X162621962Y-110166232D01*
X162776305Y-110244873D01*
X162941049Y-110298402D01*
X163112139Y-110325500D01*
X163112140Y-110325500D01*
X163285360Y-110325500D01*
X163285361Y-110325500D01*
X163456451Y-110298402D01*
X163621195Y-110244873D01*
X163775538Y-110166232D01*
X163915678Y-110064414D01*
X164038164Y-109941928D01*
X164139982Y-109801788D01*
X164218623Y-109647445D01*
X164272152Y-109482701D01*
X164299250Y-109311611D01*
X164299250Y-109138389D01*
X164272152Y-108967299D01*
X164218623Y-108802555D01*
X164139982Y-108648212D01*
X164038164Y-108508072D01*
X163915678Y-108385586D01*
X163775538Y-108283768D01*
X163621195Y-108205127D01*
X163456451Y-108151598D01*
X163456449Y-108151597D01*
X163456448Y-108151597D01*
X163325021Y-108130781D01*
X163285361Y-108124500D01*
X163112139Y-108124500D01*
X163072478Y-108130781D01*
X162941052Y-108151597D01*
X162776302Y-108205128D01*
X162621961Y-108283768D01*
X162565039Y-108325125D01*
X162481822Y-108385586D01*
X162481820Y-108385588D01*
X162481819Y-108385588D01*
X162359338Y-108508069D01*
X162359338Y-108508070D01*
X162359336Y-108508072D01*
X162315609Y-108568256D01*
X162257518Y-108648211D01*
X162178878Y-108802552D01*
X162125347Y-108967302D01*
X162098250Y-109138389D01*
X161259250Y-109138389D01*
X161259250Y-105711300D01*
X161278935Y-105644261D01*
X161326954Y-105600815D01*
X161497595Y-105513870D01*
X161701406Y-105365793D01*
X161879543Y-105187656D01*
X162027620Y-104983845D01*
X162141991Y-104759379D01*
X162219840Y-104519785D01*
X162259250Y-104270962D01*
X162259250Y-104019038D01*
X162219840Y-103770215D01*
X162141991Y-103530621D01*
X162141989Y-103530618D01*
X162141989Y-103530616D01*
X162100497Y-103449184D01*
X162027620Y-103306155D01*
X161952286Y-103202466D01*
X161879548Y-103102350D01*
X161879544Y-103102345D01*
X161701404Y-102924205D01*
X161701399Y-102924201D01*
X161497598Y-102776132D01*
X161497597Y-102776131D01*
X161497595Y-102776130D01*
X161418225Y-102735689D01*
X161273133Y-102661760D01*
X161033535Y-102583910D01*
X160784712Y-102544500D01*
X160532788Y-102544500D01*
X160488144Y-102551571D01*
X160283964Y-102583910D01*
X160044366Y-102661760D01*
X159819901Y-102776132D01*
X159616100Y-102924201D01*
X159616095Y-102924205D01*
X159437955Y-103102345D01*
X159437951Y-103102350D01*
X159289882Y-103306151D01*
X159175510Y-103530616D01*
X159097660Y-103770214D01*
X159058250Y-104019038D01*
X159058250Y-104270961D01*
X159097660Y-104519785D01*
X159175510Y-104759383D01*
X159289882Y-104983848D01*
X159437951Y-105187649D01*
X159437955Y-105187654D01*
X159616095Y-105365794D01*
X159616100Y-105365798D01*
X159776523Y-105482351D01*
X159819905Y-105513870D01*
X159990545Y-105600815D01*
X160041341Y-105648789D01*
X160058250Y-105711300D01*
X160058250Y-107690461D01*
X160038565Y-107757500D01*
X159985761Y-107803255D01*
X159916603Y-107813199D01*
X159853047Y-107784174D01*
X159835875Y-107765949D01*
X159814394Y-107737955D01*
X159605797Y-107529358D01*
X159605790Y-107529352D01*
X159371743Y-107349761D01*
X159116260Y-107202258D01*
X159116250Y-107202254D01*
X158843711Y-107089364D01*
X158843704Y-107089362D01*
X158843702Y-107089361D01*
X158558743Y-107013007D01*
X158509863Y-107006571D01*
X158266263Y-106974500D01*
X158266256Y-106974500D01*
X157971244Y-106974500D01*
X157971236Y-106974500D01*
X157692835Y-107011153D01*
X157678757Y-107013007D01*
X157504178Y-107059785D01*
X157393798Y-107089361D01*
X157393788Y-107089364D01*
X157121249Y-107202254D01*
X157121239Y-107202258D01*
X156865756Y-107349761D01*
X156631709Y-107529352D01*
X156631702Y-107529358D01*
X156423108Y-107737952D01*
X156423102Y-107737959D01*
X156243511Y-107972006D01*
X156096008Y-108227489D01*
X156096004Y-108227499D01*
X155983114Y-108500038D01*
X155983111Y-108500048D01*
X155906758Y-108785004D01*
X155906756Y-108785015D01*
X155868250Y-109077486D01*
X155868250Y-109372513D01*
X155900321Y-109616113D01*
X155906757Y-109664993D01*
X155980962Y-109941930D01*
X155983111Y-109949951D01*
X155983114Y-109949961D01*
X156096004Y-110222500D01*
X156096008Y-110222510D01*
X156243511Y-110477993D01*
X156423102Y-110712040D01*
X156423108Y-110712047D01*
X156631702Y-110920641D01*
X156631709Y-110920647D01*
X156834330Y-111076124D01*
X156875533Y-111132552D01*
X156879688Y-111202298D01*
X156845476Y-111263218D01*
X156783758Y-111295971D01*
X156758844Y-111298500D01*
X140428656Y-111298500D01*
X140361617Y-111278815D01*
X140315862Y-111226011D01*
X140305918Y-111156853D01*
X140334943Y-111093297D01*
X140353170Y-111076124D01*
X140386593Y-111050476D01*
X140555792Y-110920646D01*
X140764396Y-110712042D01*
X140943988Y-110477994D01*
X141091493Y-110222507D01*
X141204389Y-109949952D01*
X141280743Y-109664993D01*
X141319250Y-109372506D01*
X141319250Y-109138389D01*
X143048250Y-109138389D01*
X143048250Y-109311610D01*
X143069565Y-109446192D01*
X143075348Y-109482701D01*
X143128877Y-109647445D01*
X143207518Y-109801788D01*
X143309336Y-109941928D01*
X143431822Y-110064414D01*
X143571962Y-110166232D01*
X143726305Y-110244873D01*
X143891049Y-110298402D01*
X144062139Y-110325500D01*
X144062140Y-110325500D01*
X144235360Y-110325500D01*
X144235361Y-110325500D01*
X144406451Y-110298402D01*
X144571195Y-110244873D01*
X144725538Y-110166232D01*
X144865678Y-110064414D01*
X144988164Y-109941928D01*
X145089982Y-109801788D01*
X145168623Y-109647445D01*
X145222152Y-109482701D01*
X145249250Y-109311611D01*
X145249250Y-109138389D01*
X151938250Y-109138389D01*
X151938250Y-109311610D01*
X151959565Y-109446192D01*
X151965348Y-109482701D01*
X152018877Y-109647445D01*
X152097518Y-109801788D01*
X152199336Y-109941928D01*
X152321822Y-110064414D01*
X152461962Y-110166232D01*
X152616305Y-110244873D01*
X152781049Y-110298402D01*
X152952139Y-110325500D01*
X152952140Y-110325500D01*
X153125360Y-110325500D01*
X153125361Y-110325500D01*
X153296451Y-110298402D01*
X153461195Y-110244873D01*
X153615538Y-110166232D01*
X153755678Y-110064414D01*
X153878164Y-109941928D01*
X153979982Y-109801788D01*
X154058623Y-109647445D01*
X154112152Y-109482701D01*
X154139250Y-109311611D01*
X154139250Y-109138389D01*
X154112152Y-108967299D01*
X154058623Y-108802555D01*
X153979982Y-108648212D01*
X153878164Y-108508072D01*
X153826232Y-108456140D01*
X153792747Y-108394817D01*
X153797731Y-108325125D01*
X153839603Y-108269192D01*
X153905067Y-108244775D01*
X153933311Y-108245986D01*
X153933962Y-108246089D01*
X153933965Y-108246090D01*
X154182788Y-108285500D01*
X154182789Y-108285500D01*
X154434711Y-108285500D01*
X154434712Y-108285500D01*
X154683535Y-108246090D01*
X154923129Y-108168241D01*
X155147595Y-108053870D01*
X155351406Y-107905793D01*
X155529543Y-107727656D01*
X155677620Y-107523845D01*
X155791991Y-107299379D01*
X155869840Y-107059785D01*
X155909250Y-106810962D01*
X155909250Y-106559038D01*
X155869840Y-106310215D01*
X155791991Y-106070621D01*
X155791989Y-106070618D01*
X155791989Y-106070616D01*
X155750497Y-105989184D01*
X155677620Y-105846155D01*
X155604490Y-105745500D01*
X155529548Y-105642350D01*
X155529544Y-105642345D01*
X155351404Y-105464205D01*
X155351399Y-105464201D01*
X155147598Y-105316132D01*
X155147597Y-105316131D01*
X155147595Y-105316130D01*
X155072070Y-105277648D01*
X154923133Y-105201760D01*
X154683535Y-105123910D01*
X154434712Y-105084500D01*
X154182788Y-105084500D01*
X154058376Y-105104205D01*
X153933964Y-105123910D01*
X153694366Y-105201760D01*
X153469901Y-105316132D01*
X153266100Y-105464201D01*
X153266095Y-105464205D01*
X153087955Y-105642345D01*
X153087951Y-105642350D01*
X152939882Y-105846151D01*
X152825510Y-106070616D01*
X152747660Y-106310214D01*
X152708250Y-106559038D01*
X152708250Y-106810961D01*
X152747660Y-107059785D01*
X152825510Y-107299383D01*
X152939882Y-107523848D01*
X153087951Y-107727649D01*
X153087955Y-107727654D01*
X153087957Y-107727656D01*
X153266094Y-107905793D01*
X153266095Y-107905794D01*
X153266094Y-107905794D01*
X153272411Y-107910383D01*
X153315077Y-107965714D01*
X153321055Y-108035327D01*
X153288449Y-108097122D01*
X153227610Y-108131479D01*
X153180128Y-108133174D01*
X153125361Y-108124500D01*
X152952139Y-108124500D01*
X152912478Y-108130781D01*
X152781052Y-108151597D01*
X152616302Y-108205128D01*
X152461961Y-108283768D01*
X152405039Y-108325125D01*
X152321822Y-108385586D01*
X152321820Y-108385588D01*
X152321819Y-108385588D01*
X152199338Y-108508069D01*
X152199338Y-108508070D01*
X152199336Y-108508072D01*
X152155609Y-108568256D01*
X152097518Y-108648211D01*
X152018878Y-108802552D01*
X151965347Y-108967302D01*
X151938250Y-109138389D01*
X145249250Y-109138389D01*
X145222152Y-108967299D01*
X145168623Y-108802555D01*
X145089982Y-108648212D01*
X144988164Y-108508072D01*
X144865678Y-108385586D01*
X144725538Y-108283768D01*
X144571195Y-108205127D01*
X144406451Y-108151598D01*
X144406449Y-108151597D01*
X144406448Y-108151597D01*
X144275021Y-108130781D01*
X144235361Y-108124500D01*
X144062139Y-108124500D01*
X144022478Y-108130781D01*
X143891052Y-108151597D01*
X143726302Y-108205128D01*
X143571961Y-108283768D01*
X143515039Y-108325125D01*
X143431822Y-108385586D01*
X143431820Y-108385588D01*
X143431819Y-108385588D01*
X143309338Y-108508069D01*
X143309338Y-108508070D01*
X143309336Y-108508072D01*
X143265609Y-108568256D01*
X143207518Y-108648211D01*
X143128878Y-108802552D01*
X143075347Y-108967302D01*
X143048250Y-109138389D01*
X141319250Y-109138389D01*
X141319250Y-109077494D01*
X141280743Y-108785007D01*
X141204389Y-108500048D01*
X141091493Y-108227493D01*
X141036059Y-108131479D01*
X140943988Y-107972006D01*
X140764397Y-107737959D01*
X140764391Y-107737952D01*
X140555797Y-107529358D01*
X140555790Y-107529352D01*
X140321743Y-107349761D01*
X140066260Y-107202258D01*
X140066250Y-107202254D01*
X139793711Y-107089364D01*
X139793704Y-107089362D01*
X139793702Y-107089361D01*
X139508743Y-107013007D01*
X139459863Y-107006571D01*
X139216263Y-106974500D01*
X139216256Y-106974500D01*
X138921244Y-106974500D01*
X138921236Y-106974500D01*
X138642835Y-107011153D01*
X138628757Y-107013007D01*
X138454178Y-107059785D01*
X138343798Y-107089361D01*
X138343788Y-107089364D01*
X138071249Y-107202254D01*
X138071239Y-107202258D01*
X137815756Y-107349761D01*
X137581709Y-107529352D01*
X137581702Y-107529358D01*
X137373108Y-107737952D01*
X137373102Y-107737959D01*
X137193511Y-107972006D01*
X137046008Y-108227489D01*
X137046004Y-108227499D01*
X136933114Y-108500038D01*
X136933111Y-108500048D01*
X136856758Y-108785004D01*
X136856756Y-108785015D01*
X136818250Y-109077486D01*
X136818250Y-109372513D01*
X136850321Y-109616113D01*
X136856757Y-109664993D01*
X136930962Y-109941930D01*
X136933111Y-109949951D01*
X136933114Y-109949961D01*
X137046004Y-110222500D01*
X137046008Y-110222510D01*
X137193511Y-110477993D01*
X137373102Y-110712040D01*
X137373108Y-110712047D01*
X137581702Y-110920641D01*
X137581709Y-110920647D01*
X137784330Y-111076124D01*
X137825533Y-111132552D01*
X137829688Y-111202298D01*
X137795476Y-111263218D01*
X137733758Y-111295971D01*
X137708844Y-111298500D01*
X133199097Y-111298500D01*
X133132058Y-111278815D01*
X133111416Y-111262181D01*
X132487590Y-110638355D01*
X132487588Y-110638352D01*
X132368717Y-110519481D01*
X132368716Y-110519480D01*
X132281904Y-110469360D01*
X132281904Y-110469359D01*
X132281900Y-110469358D01*
X132231785Y-110440423D01*
X132079057Y-110399499D01*
X131920943Y-110399499D01*
X131913347Y-110399499D01*
X131913331Y-110399500D01*
X125734221Y-110399500D01*
X125667182Y-110379815D01*
X125621427Y-110327011D01*
X125611483Y-110257853D01*
X125640508Y-110194297D01*
X125671948Y-110169694D01*
X125671386Y-110168777D01*
X125675531Y-110166236D01*
X125675532Y-110166234D01*
X125675538Y-110166232D01*
X125815678Y-110064414D01*
X125938164Y-109941928D01*
X126039982Y-109801788D01*
X126118623Y-109647445D01*
X126172152Y-109482701D01*
X126199250Y-109311611D01*
X126199250Y-109138389D01*
X132888250Y-109138389D01*
X132888250Y-109311610D01*
X132909565Y-109446192D01*
X132915348Y-109482701D01*
X132968877Y-109647445D01*
X133047518Y-109801788D01*
X133149336Y-109941928D01*
X133271822Y-110064414D01*
X133411962Y-110166232D01*
X133566305Y-110244873D01*
X133731049Y-110298402D01*
X133902139Y-110325500D01*
X133902140Y-110325500D01*
X134075360Y-110325500D01*
X134075361Y-110325500D01*
X134246451Y-110298402D01*
X134411195Y-110244873D01*
X134565538Y-110166232D01*
X134705678Y-110064414D01*
X134828164Y-109941928D01*
X134929982Y-109801788D01*
X135008623Y-109647445D01*
X135062152Y-109482701D01*
X135089250Y-109311611D01*
X135089250Y-109138389D01*
X135062152Y-108967299D01*
X135008623Y-108802555D01*
X134929982Y-108648212D01*
X134828164Y-108508072D01*
X134776232Y-108456140D01*
X134742747Y-108394817D01*
X134747731Y-108325125D01*
X134789603Y-108269192D01*
X134855067Y-108244775D01*
X134883311Y-108245986D01*
X134883962Y-108246089D01*
X134883965Y-108246090D01*
X135132788Y-108285500D01*
X135132789Y-108285500D01*
X135384711Y-108285500D01*
X135384712Y-108285500D01*
X135633535Y-108246090D01*
X135873129Y-108168241D01*
X136097595Y-108053870D01*
X136301406Y-107905793D01*
X136479543Y-107727656D01*
X136627620Y-107523845D01*
X136741991Y-107299379D01*
X136819840Y-107059785D01*
X136859250Y-106810962D01*
X136859250Y-106559038D01*
X136819840Y-106310215D01*
X136741991Y-106070621D01*
X136741989Y-106070618D01*
X136741989Y-106070616D01*
X136700497Y-105989184D01*
X136627620Y-105846155D01*
X136554490Y-105745500D01*
X136479548Y-105642350D01*
X136479544Y-105642345D01*
X136301404Y-105464205D01*
X136301399Y-105464201D01*
X136097598Y-105316132D01*
X136097597Y-105316131D01*
X136097595Y-105316130D01*
X136022070Y-105277648D01*
X135873133Y-105201760D01*
X135633535Y-105123910D01*
X135384712Y-105084500D01*
X135132788Y-105084500D01*
X135008376Y-105104205D01*
X134883964Y-105123910D01*
X134644366Y-105201760D01*
X134419901Y-105316132D01*
X134216100Y-105464201D01*
X134216095Y-105464205D01*
X134037955Y-105642345D01*
X134037951Y-105642350D01*
X133889882Y-105846151D01*
X133775510Y-106070616D01*
X133697660Y-106310214D01*
X133658250Y-106559038D01*
X133658250Y-106810961D01*
X133697660Y-107059785D01*
X133775510Y-107299383D01*
X133889882Y-107523848D01*
X134037951Y-107727649D01*
X134037955Y-107727654D01*
X134037957Y-107727656D01*
X134216094Y-107905793D01*
X134216095Y-107905794D01*
X134216094Y-107905794D01*
X134222411Y-107910383D01*
X134265077Y-107965714D01*
X134271055Y-108035327D01*
X134238449Y-108097122D01*
X134177610Y-108131479D01*
X134130128Y-108133174D01*
X134075361Y-108124500D01*
X133902139Y-108124500D01*
X133862478Y-108130781D01*
X133731052Y-108151597D01*
X133566302Y-108205128D01*
X133411961Y-108283768D01*
X133355039Y-108325125D01*
X133271822Y-108385586D01*
X133271820Y-108385588D01*
X133271819Y-108385588D01*
X133149338Y-108508069D01*
X133149338Y-108508070D01*
X133149336Y-108508072D01*
X133105609Y-108568256D01*
X133047518Y-108648211D01*
X132968878Y-108802552D01*
X132915347Y-108967302D01*
X132888250Y-109138389D01*
X126199250Y-109138389D01*
X126172152Y-108967299D01*
X126118623Y-108802555D01*
X126039982Y-108648212D01*
X125938164Y-108508072D01*
X125815678Y-108385586D01*
X125675538Y-108283768D01*
X125521195Y-108205127D01*
X125356451Y-108151598D01*
X125356449Y-108151597D01*
X125356448Y-108151597D01*
X125225021Y-108130781D01*
X125185361Y-108124500D01*
X125012139Y-108124500D01*
X124972478Y-108130781D01*
X124841052Y-108151597D01*
X124676302Y-108205128D01*
X124521961Y-108283768D01*
X124465039Y-108325125D01*
X124381822Y-108385586D01*
X124381820Y-108385588D01*
X124381819Y-108385588D01*
X124259338Y-108508069D01*
X124259338Y-108508070D01*
X124259336Y-108508072D01*
X124215609Y-108568256D01*
X124157518Y-108648211D01*
X124078878Y-108802552D01*
X124025347Y-108967302D01*
X123998250Y-109138389D01*
X123998250Y-109311610D01*
X124019565Y-109446192D01*
X124025348Y-109482701D01*
X124078877Y-109647445D01*
X124157518Y-109801788D01*
X124259336Y-109941928D01*
X124381822Y-110064414D01*
X124521961Y-110166231D01*
X124521968Y-110166236D01*
X124526114Y-110168777D01*
X124525175Y-110170307D01*
X124570367Y-110212985D01*
X124587165Y-110280805D01*
X124564631Y-110346941D01*
X124509917Y-110390395D01*
X124463279Y-110399500D01*
X123086670Y-110399500D01*
X123086654Y-110399499D01*
X123079058Y-110399499D01*
X122920943Y-110399499D01*
X122844579Y-110419961D01*
X122768214Y-110440423D01*
X122768209Y-110440426D01*
X122631290Y-110519475D01*
X122631282Y-110519481D01*
X121787584Y-111363181D01*
X121726261Y-111396666D01*
X121699903Y-111399500D01*
X121216181Y-111399500D01*
X121149142Y-111379815D01*
X121103387Y-111327011D01*
X121093443Y-111257853D01*
X121122468Y-111194297D01*
X121154181Y-111168113D01*
X121221012Y-111129528D01*
X121271744Y-111100238D01*
X121505792Y-110920646D01*
X121714396Y-110712042D01*
X121893988Y-110477994D01*
X122041493Y-110222507D01*
X122154389Y-109949952D01*
X122230743Y-109664993D01*
X122269250Y-109372506D01*
X122269250Y-109077494D01*
X122230743Y-108785007D01*
X122154389Y-108500048D01*
X122041493Y-108227493D01*
X121986059Y-108131479D01*
X121893988Y-107972006D01*
X121714397Y-107737959D01*
X121714391Y-107737952D01*
X121505797Y-107529358D01*
X121505790Y-107529352D01*
X121271743Y-107349761D01*
X121016260Y-107202258D01*
X121016250Y-107202254D01*
X120743711Y-107089364D01*
X120743704Y-107089362D01*
X120743702Y-107089361D01*
X120458743Y-107013007D01*
X120409863Y-107006571D01*
X120166263Y-106974500D01*
X120166256Y-106974500D01*
X119871244Y-106974500D01*
X119871236Y-106974500D01*
X119592835Y-107011153D01*
X119578757Y-107013007D01*
X119404178Y-107059785D01*
X119293798Y-107089361D01*
X119293788Y-107089364D01*
X119021249Y-107202254D01*
X119021239Y-107202258D01*
X118765756Y-107349761D01*
X118531709Y-107529352D01*
X118531702Y-107529358D01*
X118323108Y-107737952D01*
X118323102Y-107737959D01*
X118143511Y-107972006D01*
X117996008Y-108227489D01*
X117996004Y-108227499D01*
X117883114Y-108500038D01*
X117883111Y-108500048D01*
X117806758Y-108785004D01*
X117806756Y-108785015D01*
X117768250Y-109077486D01*
X117768250Y-109372513D01*
X117800321Y-109616113D01*
X117806757Y-109664993D01*
X117880962Y-109941930D01*
X117883111Y-109949951D01*
X117883114Y-109949961D01*
X117996004Y-110222500D01*
X117996008Y-110222510D01*
X118143511Y-110477993D01*
X118323102Y-110712040D01*
X118323108Y-110712047D01*
X118531702Y-110920641D01*
X118531709Y-110920647D01*
X118765756Y-111100238D01*
X118883319Y-111168113D01*
X118931534Y-111218680D01*
X118944758Y-111287287D01*
X118918790Y-111352151D01*
X118861876Y-111392680D01*
X118821319Y-111399500D01*
X113300097Y-111399500D01*
X113233058Y-111379815D01*
X113212416Y-111363181D01*
X110987624Y-109138389D01*
X113838250Y-109138389D01*
X113838250Y-109311610D01*
X113859565Y-109446192D01*
X113865348Y-109482701D01*
X113918877Y-109647445D01*
X113997518Y-109801788D01*
X114099336Y-109941928D01*
X114221822Y-110064414D01*
X114361962Y-110166232D01*
X114516305Y-110244873D01*
X114681049Y-110298402D01*
X114852139Y-110325500D01*
X114852140Y-110325500D01*
X115025360Y-110325500D01*
X115025361Y-110325500D01*
X115196451Y-110298402D01*
X115361195Y-110244873D01*
X115515538Y-110166232D01*
X115655678Y-110064414D01*
X115778164Y-109941928D01*
X115879982Y-109801788D01*
X115958623Y-109647445D01*
X116012152Y-109482701D01*
X116039250Y-109311611D01*
X116039250Y-109138389D01*
X116012152Y-108967299D01*
X115958623Y-108802555D01*
X115879982Y-108648212D01*
X115778164Y-108508072D01*
X115726232Y-108456140D01*
X115692747Y-108394817D01*
X115697731Y-108325125D01*
X115739603Y-108269192D01*
X115805067Y-108244775D01*
X115833311Y-108245986D01*
X115833962Y-108246089D01*
X115833965Y-108246090D01*
X116082788Y-108285500D01*
X116082789Y-108285500D01*
X116334711Y-108285500D01*
X116334712Y-108285500D01*
X116583535Y-108246090D01*
X116823129Y-108168241D01*
X117047595Y-108053870D01*
X117251406Y-107905793D01*
X117429543Y-107727656D01*
X117577620Y-107523845D01*
X117691991Y-107299379D01*
X117769840Y-107059785D01*
X117809250Y-106810962D01*
X117809250Y-106559038D01*
X117769840Y-106310215D01*
X117691991Y-106070621D01*
X117691989Y-106070618D01*
X117691989Y-106070616D01*
X117650497Y-105989184D01*
X117577620Y-105846155D01*
X117504490Y-105745500D01*
X117429548Y-105642350D01*
X117429544Y-105642345D01*
X117251404Y-105464205D01*
X117251399Y-105464201D01*
X117047598Y-105316132D01*
X117047597Y-105316131D01*
X117047595Y-105316130D01*
X116972070Y-105277648D01*
X116823133Y-105201760D01*
X116583535Y-105123910D01*
X116334712Y-105084500D01*
X116082788Y-105084500D01*
X115958376Y-105104205D01*
X115833964Y-105123910D01*
X115594366Y-105201760D01*
X115369901Y-105316132D01*
X115166100Y-105464201D01*
X115166095Y-105464205D01*
X114987955Y-105642345D01*
X114987951Y-105642350D01*
X114839882Y-105846151D01*
X114725510Y-106070616D01*
X114647660Y-106310214D01*
X114608250Y-106559038D01*
X114608250Y-106810961D01*
X114647660Y-107059785D01*
X114725510Y-107299383D01*
X114839882Y-107523848D01*
X114987951Y-107727649D01*
X114987955Y-107727654D01*
X114987957Y-107727656D01*
X115166094Y-107905793D01*
X115166095Y-107905794D01*
X115166094Y-107905794D01*
X115172411Y-107910383D01*
X115215077Y-107965714D01*
X115221055Y-108035327D01*
X115188449Y-108097122D01*
X115127610Y-108131479D01*
X115080128Y-108133174D01*
X115025361Y-108124500D01*
X114852139Y-108124500D01*
X114812478Y-108130781D01*
X114681052Y-108151597D01*
X114516302Y-108205128D01*
X114361961Y-108283768D01*
X114305039Y-108325125D01*
X114221822Y-108385586D01*
X114221820Y-108385588D01*
X114221819Y-108385588D01*
X114099338Y-108508069D01*
X114099338Y-108508070D01*
X114099336Y-108508072D01*
X114055609Y-108568256D01*
X113997518Y-108648211D01*
X113918878Y-108802552D01*
X113865347Y-108967302D01*
X113838250Y-109138389D01*
X110987624Y-109138389D01*
X108487590Y-106638355D01*
X108487588Y-106638352D01*
X108368717Y-106519481D01*
X108368716Y-106519480D01*
X108281904Y-106469360D01*
X108281904Y-106469359D01*
X108281900Y-106469358D01*
X108231785Y-106440423D01*
X108079057Y-106399499D01*
X107920943Y-106399499D01*
X107913347Y-106399499D01*
X107913331Y-106399500D01*
X99500098Y-106399500D01*
X99433059Y-106379815D01*
X99412417Y-106363181D01*
X98326884Y-105277648D01*
X108699500Y-105277648D01*
X108699500Y-105482351D01*
X108731522Y-105684534D01*
X108794781Y-105879223D01*
X108887715Y-106061613D01*
X109008028Y-106227213D01*
X109152786Y-106371971D01*
X109286832Y-106469359D01*
X109318390Y-106492287D01*
X109434607Y-106551503D01*
X109500776Y-106585218D01*
X109500778Y-106585218D01*
X109500781Y-106585220D01*
X109605137Y-106619127D01*
X109695465Y-106648477D01*
X109796557Y-106664488D01*
X109897648Y-106680500D01*
X109897649Y-106680500D01*
X110102351Y-106680500D01*
X110102352Y-106680500D01*
X110304534Y-106648477D01*
X110499219Y-106585220D01*
X110681610Y-106492287D01*
X110774590Y-106424732D01*
X110847213Y-106371971D01*
X110847215Y-106371968D01*
X110847219Y-106371966D01*
X110991966Y-106227219D01*
X110991968Y-106227215D01*
X110991971Y-106227213D01*
X111044732Y-106154590D01*
X111112287Y-106061610D01*
X111205220Y-105879219D01*
X111268477Y-105684534D01*
X111300500Y-105482352D01*
X111300500Y-105277648D01*
X111288480Y-105201759D01*
X111268477Y-105075465D01*
X111239127Y-104985137D01*
X111205220Y-104880781D01*
X111205218Y-104880778D01*
X111205218Y-104880776D01*
X111171503Y-104814607D01*
X111112287Y-104698390D01*
X111104556Y-104687749D01*
X110991971Y-104532786D01*
X110847213Y-104388028D01*
X110681613Y-104267715D01*
X110681612Y-104267714D01*
X110681610Y-104267713D01*
X110624653Y-104238691D01*
X110499223Y-104174781D01*
X110367854Y-104132097D01*
X110304534Y-104111522D01*
X110129995Y-104083878D01*
X110102352Y-104079500D01*
X109897648Y-104079500D01*
X109873329Y-104083351D01*
X109695465Y-104111522D01*
X109500776Y-104174781D01*
X109318386Y-104267715D01*
X109152786Y-104388028D01*
X109008028Y-104532786D01*
X108887715Y-104698386D01*
X108794781Y-104880776D01*
X108731522Y-105075465D01*
X108699500Y-105277648D01*
X98326884Y-105277648D01*
X97068274Y-104019038D01*
X120958250Y-104019038D01*
X120958250Y-104270961D01*
X120997660Y-104519785D01*
X121075510Y-104759383D01*
X121189882Y-104983848D01*
X121337951Y-105187649D01*
X121337955Y-105187654D01*
X121516095Y-105365794D01*
X121516100Y-105365798D01*
X121676523Y-105482351D01*
X121719905Y-105513870D01*
X121862934Y-105586747D01*
X121944366Y-105628239D01*
X121944368Y-105628239D01*
X121944371Y-105628241D01*
X122183965Y-105706090D01*
X122432788Y-105745500D01*
X122432789Y-105745500D01*
X122684711Y-105745500D01*
X122684712Y-105745500D01*
X122933535Y-105706090D01*
X123173129Y-105628241D01*
X123397595Y-105513870D01*
X123601406Y-105365793D01*
X123689551Y-105277648D01*
X128699500Y-105277648D01*
X128699500Y-105482351D01*
X128731522Y-105684534D01*
X128794781Y-105879223D01*
X128887715Y-106061613D01*
X129008028Y-106227213D01*
X129152786Y-106371971D01*
X129286832Y-106469359D01*
X129318390Y-106492287D01*
X129434607Y-106551503D01*
X129500776Y-106585218D01*
X129500778Y-106585218D01*
X129500781Y-106585220D01*
X129605137Y-106619127D01*
X129695465Y-106648477D01*
X129796557Y-106664488D01*
X129897648Y-106680500D01*
X129897649Y-106680500D01*
X130102351Y-106680500D01*
X130102352Y-106680500D01*
X130304534Y-106648477D01*
X130499219Y-106585220D01*
X130681610Y-106492287D01*
X130774590Y-106424732D01*
X130847213Y-106371971D01*
X130847215Y-106371968D01*
X130847219Y-106371966D01*
X130991966Y-106227219D01*
X130991968Y-106227215D01*
X130991971Y-106227213D01*
X131044732Y-106154590D01*
X131112287Y-106061610D01*
X131205220Y-105879219D01*
X131268477Y-105684534D01*
X131300500Y-105482352D01*
X131300500Y-105277648D01*
X131288480Y-105201759D01*
X131268477Y-105075465D01*
X131239127Y-104985137D01*
X131205220Y-104880781D01*
X131205218Y-104880778D01*
X131205218Y-104880776D01*
X131171503Y-104814607D01*
X131112287Y-104698390D01*
X131104556Y-104687749D01*
X130991971Y-104532786D01*
X130847213Y-104388028D01*
X130681613Y-104267715D01*
X130681612Y-104267714D01*
X130681610Y-104267713D01*
X130624653Y-104238691D01*
X130499223Y-104174781D01*
X130304534Y-104111522D01*
X130129995Y-104083878D01*
X130102352Y-104079500D01*
X129897648Y-104079500D01*
X129873329Y-104083351D01*
X129695465Y-104111522D01*
X129500776Y-104174781D01*
X129318386Y-104267715D01*
X129152786Y-104388028D01*
X129008028Y-104532786D01*
X128887715Y-104698386D01*
X128794781Y-104880776D01*
X128731522Y-105075465D01*
X128699500Y-105277648D01*
X123689551Y-105277648D01*
X123779543Y-105187656D01*
X123927620Y-104983845D01*
X124041991Y-104759379D01*
X124119840Y-104519785D01*
X124159250Y-104270962D01*
X124159250Y-104019038D01*
X124119840Y-103770215D01*
X124041991Y-103530621D01*
X124041989Y-103530618D01*
X124041989Y-103530616D01*
X124000497Y-103449184D01*
X123927620Y-103306155D01*
X123852286Y-103202466D01*
X123779548Y-103102350D01*
X123779544Y-103102345D01*
X123601404Y-102924205D01*
X123601399Y-102924201D01*
X123597204Y-102921153D01*
X127199500Y-102921153D01*
X127199500Y-103078846D01*
X127230261Y-103233489D01*
X127230264Y-103233501D01*
X127290602Y-103379172D01*
X127290609Y-103379185D01*
X127378210Y-103510288D01*
X127378213Y-103510292D01*
X127489707Y-103621786D01*
X127489711Y-103621789D01*
X127620814Y-103709390D01*
X127620827Y-103709397D01*
X127766498Y-103769735D01*
X127766503Y-103769737D01*
X127864018Y-103789134D01*
X127921153Y-103800499D01*
X127921156Y-103800500D01*
X127921158Y-103800500D01*
X128078844Y-103800500D01*
X128078845Y-103800499D01*
X128233497Y-103769737D01*
X128379179Y-103709394D01*
X128510289Y-103621789D01*
X128621789Y-103510289D01*
X128709394Y-103379179D01*
X128710556Y-103376375D01*
X128769735Y-103233501D01*
X128769737Y-103233497D01*
X128800500Y-103078842D01*
X128800500Y-102921158D01*
X128800500Y-102921155D01*
X128800499Y-102921153D01*
X128769738Y-102766510D01*
X128769737Y-102766503D01*
X128709394Y-102620821D01*
X128671396Y-102563953D01*
X128650520Y-102497276D01*
X128650500Y-102495064D01*
X128650500Y-100320807D01*
X128670185Y-100253768D01*
X128686819Y-100233126D01*
X130505273Y-98414672D01*
X130505276Y-98414669D01*
X130576465Y-98308127D01*
X130625501Y-98189744D01*
X130647561Y-98078842D01*
X130650500Y-98064069D01*
X130650500Y-96396869D01*
X130670185Y-96329830D01*
X130722989Y-96284075D01*
X130735486Y-96279166D01*
X130869334Y-96234814D01*
X131018656Y-96142712D01*
X131142712Y-96018656D01*
X131234814Y-95869334D01*
X131289999Y-95702797D01*
X131300500Y-95600009D01*
X131300499Y-94399992D01*
X131289999Y-94297203D01*
X131234814Y-94130666D01*
X131142712Y-93981344D01*
X131018656Y-93857288D01*
X130869334Y-93765186D01*
X130702797Y-93710001D01*
X130702795Y-93710000D01*
X130600010Y-93699500D01*
X129399998Y-93699500D01*
X129399981Y-93699501D01*
X129297203Y-93710000D01*
X129297200Y-93710001D01*
X129130668Y-93765185D01*
X129130663Y-93765187D01*
X128981342Y-93857289D01*
X128857289Y-93981342D01*
X128765187Y-94130663D01*
X128765186Y-94130666D01*
X128710001Y-94297203D01*
X128710001Y-94297204D01*
X128710000Y-94297204D01*
X128699500Y-94399983D01*
X128699500Y-95600001D01*
X128699501Y-95600018D01*
X128710000Y-95702796D01*
X128710001Y-95702799D01*
X128751707Y-95828657D01*
X128765186Y-95869334D01*
X128857288Y-96018656D01*
X128981344Y-96142712D01*
X129130666Y-96234814D01*
X129264505Y-96279164D01*
X129321949Y-96318936D01*
X129348772Y-96383451D01*
X129349500Y-96396869D01*
X129349500Y-97679191D01*
X129329815Y-97746230D01*
X129313181Y-97766872D01*
X127494727Y-99585325D01*
X127494726Y-99585326D01*
X127423534Y-99691874D01*
X127374499Y-99810255D01*
X127374497Y-99810261D01*
X127349500Y-99935928D01*
X127349500Y-102495064D01*
X127329815Y-102562103D01*
X127328603Y-102563954D01*
X127290608Y-102620817D01*
X127290602Y-102620828D01*
X127230264Y-102766498D01*
X127230261Y-102766510D01*
X127199500Y-102921153D01*
X123597204Y-102921153D01*
X123397598Y-102776132D01*
X123397597Y-102776131D01*
X123397595Y-102776130D01*
X123318225Y-102735689D01*
X123173133Y-102661760D01*
X122933535Y-102583910D01*
X122684712Y-102544500D01*
X122432788Y-102544500D01*
X122388144Y-102551571D01*
X122183964Y-102583910D01*
X121944366Y-102661760D01*
X121719901Y-102776132D01*
X121516100Y-102924201D01*
X121516095Y-102924205D01*
X121337955Y-103102345D01*
X121337951Y-103102350D01*
X121189882Y-103306151D01*
X121075510Y-103530616D01*
X120997660Y-103770214D01*
X120958250Y-104019038D01*
X97068274Y-104019038D01*
X96899693Y-103850457D01*
X96866208Y-103789134D01*
X96871192Y-103719442D01*
X96913064Y-103663509D01*
X96978528Y-103639092D01*
X97006765Y-103640302D01*
X97020639Y-103642500D01*
X97020644Y-103642500D01*
X97219360Y-103642500D01*
X97219361Y-103642500D01*
X97415636Y-103611413D01*
X97604632Y-103550005D01*
X97781694Y-103459787D01*
X97942464Y-103342981D01*
X98082981Y-103202464D01*
X98170783Y-103081615D01*
X98226113Y-103038949D01*
X98271101Y-103030500D01*
X111684071Y-103030500D01*
X111768615Y-103013682D01*
X111809744Y-103005501D01*
X111928127Y-102956465D01*
X112034669Y-102885277D01*
X123064027Y-91855919D01*
X123135216Y-91749376D01*
X123184251Y-91630993D01*
X123185344Y-91625501D01*
X123209250Y-91505321D01*
X123209250Y-90088389D01*
X123998250Y-90088389D01*
X123998250Y-90261610D01*
X124016717Y-90378211D01*
X124025348Y-90432701D01*
X124078877Y-90597445D01*
X124157518Y-90751788D01*
X124259336Y-90891928D01*
X124381822Y-91014414D01*
X124521962Y-91116232D01*
X124676305Y-91194873D01*
X124841049Y-91248402D01*
X125012139Y-91275500D01*
X125012140Y-91275500D01*
X125185360Y-91275500D01*
X125185361Y-91275500D01*
X125356451Y-91248402D01*
X125521195Y-91194873D01*
X125675538Y-91116232D01*
X125815678Y-91014414D01*
X125908939Y-90921153D01*
X127199500Y-90921153D01*
X127199500Y-91078846D01*
X127230261Y-91233489D01*
X127230264Y-91233501D01*
X127290602Y-91379172D01*
X127290609Y-91379185D01*
X127378210Y-91510288D01*
X127378213Y-91510292D01*
X127489707Y-91621786D01*
X127489711Y-91621789D01*
X127620814Y-91709390D01*
X127620827Y-91709397D01*
X127766498Y-91769735D01*
X127766503Y-91769737D01*
X127921153Y-91800499D01*
X127921156Y-91800500D01*
X127921158Y-91800500D01*
X128078844Y-91800500D01*
X128078845Y-91800499D01*
X128233497Y-91769737D01*
X128379179Y-91709394D01*
X128436044Y-91671397D01*
X128502721Y-91650520D01*
X128504935Y-91650500D01*
X130679192Y-91650500D01*
X130746231Y-91670185D01*
X130766873Y-91686819D01*
X132313181Y-93233126D01*
X132346666Y-93294449D01*
X132349500Y-93320807D01*
X132349500Y-95600319D01*
X132349500Y-95600321D01*
X132349499Y-95600321D01*
X132369221Y-95699462D01*
X132374498Y-95725989D01*
X132374500Y-95725996D01*
X132417023Y-95828657D01*
X132423535Y-95844377D01*
X132440212Y-95869336D01*
X132494726Y-95950923D01*
X132494727Y-95950924D01*
X140059249Y-103515445D01*
X140092734Y-103576768D01*
X140089499Y-103641444D01*
X140047660Y-103770210D01*
X140047660Y-103770213D01*
X140008250Y-104019038D01*
X140008250Y-104270961D01*
X140047660Y-104519785D01*
X140125510Y-104759383D01*
X140239882Y-104983848D01*
X140387951Y-105187649D01*
X140387955Y-105187654D01*
X140566095Y-105365794D01*
X140566100Y-105365798D01*
X140726523Y-105482351D01*
X140769905Y-105513870D01*
X140912934Y-105586747D01*
X140994366Y-105628239D01*
X140994368Y-105628239D01*
X140994371Y-105628241D01*
X141233965Y-105706090D01*
X141482788Y-105745500D01*
X141482789Y-105745500D01*
X141734711Y-105745500D01*
X141734712Y-105745500D01*
X141983535Y-105706090D01*
X142223129Y-105628241D01*
X142447595Y-105513870D01*
X142651406Y-105365793D01*
X142739551Y-105277648D01*
X147699500Y-105277648D01*
X147699500Y-105482351D01*
X147731522Y-105684534D01*
X147794781Y-105879223D01*
X147887715Y-106061613D01*
X148008028Y-106227213D01*
X148152786Y-106371971D01*
X148286832Y-106469359D01*
X148318390Y-106492287D01*
X148434607Y-106551503D01*
X148500776Y-106585218D01*
X148500778Y-106585218D01*
X148500781Y-106585220D01*
X148605137Y-106619127D01*
X148695465Y-106648477D01*
X148796557Y-106664488D01*
X148897648Y-106680500D01*
X148897649Y-106680500D01*
X149102351Y-106680500D01*
X149102352Y-106680500D01*
X149304534Y-106648477D01*
X149499219Y-106585220D01*
X149681610Y-106492287D01*
X149774590Y-106424732D01*
X149847213Y-106371971D01*
X149847215Y-106371968D01*
X149847219Y-106371966D01*
X149991966Y-106227219D01*
X149991968Y-106227215D01*
X149991971Y-106227213D01*
X150044732Y-106154590D01*
X150112287Y-106061610D01*
X150205220Y-105879219D01*
X150268477Y-105684534D01*
X150300500Y-105482352D01*
X150300500Y-105277648D01*
X150288480Y-105201759D01*
X150268477Y-105075465D01*
X150239127Y-104985137D01*
X150205220Y-104880781D01*
X150205218Y-104880778D01*
X150205218Y-104880776D01*
X150171503Y-104814607D01*
X150112287Y-104698390D01*
X150104556Y-104687749D01*
X149991971Y-104532786D01*
X149847213Y-104388028D01*
X149681613Y-104267715D01*
X149681612Y-104267714D01*
X149681610Y-104267713D01*
X149624653Y-104238691D01*
X149499223Y-104174781D01*
X149304534Y-104111522D01*
X149129995Y-104083878D01*
X149102352Y-104079500D01*
X148897648Y-104079500D01*
X148873329Y-104083351D01*
X148695465Y-104111522D01*
X148500776Y-104174781D01*
X148318386Y-104267715D01*
X148152786Y-104388028D01*
X148008028Y-104532786D01*
X147887715Y-104698386D01*
X147794781Y-104880776D01*
X147731522Y-105075465D01*
X147699500Y-105277648D01*
X142739551Y-105277648D01*
X142829543Y-105187656D01*
X142977620Y-104983845D01*
X143091991Y-104759379D01*
X143169840Y-104519785D01*
X143209250Y-104270962D01*
X143209250Y-104019038D01*
X143169840Y-103770215D01*
X143091991Y-103530621D01*
X143091989Y-103530618D01*
X143091989Y-103530616D01*
X143050497Y-103449184D01*
X142977620Y-103306155D01*
X142902286Y-103202466D01*
X142829548Y-103102350D01*
X142829544Y-103102345D01*
X142651404Y-102924205D01*
X142651399Y-102924201D01*
X142447598Y-102776132D01*
X142447597Y-102776131D01*
X142447595Y-102776130D01*
X142368225Y-102735689D01*
X142223133Y-102661760D01*
X141983535Y-102583910D01*
X141734712Y-102544500D01*
X141482788Y-102544500D01*
X141438144Y-102551571D01*
X141233963Y-102583910D01*
X141233960Y-102583910D01*
X141105194Y-102625749D01*
X141035352Y-102627744D01*
X140979195Y-102595499D01*
X133686819Y-95303123D01*
X133653334Y-95241800D01*
X133650500Y-95215442D01*
X133650500Y-94209983D01*
X147699500Y-94209983D01*
X147699500Y-95410001D01*
X147699501Y-95410018D01*
X147710000Y-95512796D01*
X147710001Y-95512799D01*
X147765185Y-95679331D01*
X147765187Y-95679336D01*
X147783727Y-95709394D01*
X147857288Y-95828656D01*
X147981344Y-95952712D01*
X148130666Y-96044814D01*
X148297203Y-96099999D01*
X148399991Y-96110500D01*
X149600008Y-96110499D01*
X149702797Y-96099999D01*
X149869334Y-96044814D01*
X150018656Y-95952712D01*
X150142712Y-95828656D01*
X150234814Y-95679334D01*
X150289999Y-95512797D01*
X150300500Y-95410009D01*
X150300499Y-94209992D01*
X150289999Y-94107203D01*
X150234814Y-93940666D01*
X150142712Y-93791344D01*
X150018656Y-93667288D01*
X149869334Y-93575186D01*
X149702797Y-93520001D01*
X149702795Y-93520000D01*
X149600010Y-93509500D01*
X148399998Y-93509500D01*
X148399981Y-93509501D01*
X148297203Y-93520000D01*
X148297200Y-93520001D01*
X148130668Y-93575185D01*
X148130663Y-93575187D01*
X147981342Y-93667289D01*
X147857289Y-93791342D01*
X147765187Y-93940663D01*
X147765185Y-93940668D01*
X147737349Y-94024670D01*
X147710001Y-94107203D01*
X147710001Y-94107204D01*
X147710000Y-94107204D01*
X147699500Y-94209983D01*
X133650500Y-94209983D01*
X133650500Y-92935928D01*
X133625502Y-92810261D01*
X133625501Y-92810260D01*
X133625501Y-92810256D01*
X133576465Y-92691873D01*
X133576464Y-92691872D01*
X133576461Y-92691866D01*
X133505277Y-92585332D01*
X133505276Y-92585331D01*
X133414669Y-92494724D01*
X132970183Y-92050238D01*
X131414674Y-90494727D01*
X131414673Y-90494726D01*
X131414669Y-90494723D01*
X131308127Y-90423535D01*
X131189744Y-90374499D01*
X131189738Y-90374497D01*
X131064071Y-90349500D01*
X131064069Y-90349500D01*
X128504935Y-90349500D01*
X128437896Y-90329815D01*
X128436090Y-90328633D01*
X128379179Y-90290606D01*
X128379172Y-90290602D01*
X128233501Y-90230264D01*
X128233489Y-90230261D01*
X128107169Y-90205134D01*
X128107168Y-90205134D01*
X128078844Y-90199500D01*
X128078842Y-90199500D01*
X127921158Y-90199500D01*
X127921155Y-90199500D01*
X127766510Y-90230261D01*
X127766498Y-90230264D01*
X127620827Y-90290602D01*
X127620814Y-90290609D01*
X127489711Y-90378210D01*
X127489707Y-90378213D01*
X127378213Y-90489707D01*
X127378210Y-90489711D01*
X127290609Y-90620814D01*
X127290602Y-90620827D01*
X127230264Y-90766498D01*
X127230261Y-90766510D01*
X127199500Y-90921153D01*
X125908939Y-90921153D01*
X125938164Y-90891928D01*
X126039982Y-90751788D01*
X126118623Y-90597445D01*
X126172152Y-90432701D01*
X126199250Y-90261611D01*
X126199250Y-90088389D01*
X132888250Y-90088389D01*
X132888250Y-90261610D01*
X132906717Y-90378211D01*
X132915348Y-90432701D01*
X132968877Y-90597445D01*
X133047518Y-90751788D01*
X133149336Y-90891928D01*
X133271822Y-91014414D01*
X133411962Y-91116232D01*
X133566305Y-91194873D01*
X133731049Y-91248402D01*
X133902139Y-91275500D01*
X133902140Y-91275500D01*
X134075360Y-91275500D01*
X134075361Y-91275500D01*
X134246451Y-91248402D01*
X134411195Y-91194873D01*
X134565538Y-91116232D01*
X134705678Y-91014414D01*
X134828164Y-90891928D01*
X134929982Y-90751788D01*
X135008623Y-90597445D01*
X135062152Y-90432701D01*
X135089250Y-90261611D01*
X135089250Y-90088389D01*
X135079604Y-90027486D01*
X136818250Y-90027486D01*
X136818250Y-90322513D01*
X136850321Y-90566113D01*
X136856757Y-90614993D01*
X136930962Y-90891930D01*
X136933111Y-90899951D01*
X136933114Y-90899961D01*
X137046004Y-91172500D01*
X137046008Y-91172510D01*
X137193511Y-91427993D01*
X137373102Y-91662040D01*
X137373108Y-91662047D01*
X137581702Y-91870641D01*
X137581709Y-91870647D01*
X137815756Y-92050238D01*
X138071239Y-92197741D01*
X138071240Y-92197741D01*
X138071243Y-92197743D01*
X138343798Y-92310639D01*
X138628757Y-92386993D01*
X138921244Y-92425500D01*
X138921251Y-92425500D01*
X139216249Y-92425500D01*
X139216256Y-92425500D01*
X139508743Y-92386993D01*
X139793702Y-92310639D01*
X140066257Y-92197743D01*
X140321744Y-92050238D01*
X140555792Y-91870646D01*
X140764396Y-91662042D01*
X140943988Y-91427994D01*
X141091493Y-91172507D01*
X141204389Y-90899952D01*
X141280743Y-90614993D01*
X141319250Y-90322506D01*
X141319250Y-90088389D01*
X143048250Y-90088389D01*
X143048250Y-90261610D01*
X143066717Y-90378211D01*
X143075348Y-90432701D01*
X143128877Y-90597445D01*
X143207518Y-90751788D01*
X143309336Y-90891928D01*
X143431822Y-91014414D01*
X143571962Y-91116232D01*
X143726305Y-91194873D01*
X143891049Y-91248402D01*
X144062139Y-91275500D01*
X144062140Y-91275500D01*
X144235360Y-91275500D01*
X144235361Y-91275500D01*
X144406451Y-91248402D01*
X144571195Y-91194873D01*
X144725538Y-91116232D01*
X144865678Y-91014414D01*
X144988164Y-90891928D01*
X145089982Y-90751788D01*
X145168623Y-90597445D01*
X145222152Y-90432701D01*
X145249250Y-90261611D01*
X145249250Y-90088389D01*
X151938250Y-90088389D01*
X151938250Y-90261610D01*
X151956717Y-90378211D01*
X151965348Y-90432701D01*
X152018877Y-90597445D01*
X152097518Y-90751788D01*
X152199336Y-90891928D01*
X152321822Y-91014414D01*
X152461962Y-91116232D01*
X152616305Y-91194873D01*
X152781049Y-91248402D01*
X152952139Y-91275500D01*
X152952140Y-91275500D01*
X153125360Y-91275500D01*
X153125361Y-91275500D01*
X153296451Y-91248402D01*
X153461195Y-91194873D01*
X153615538Y-91116232D01*
X153755678Y-91014414D01*
X153878164Y-90891928D01*
X153979982Y-90751788D01*
X154058623Y-90597445D01*
X154112152Y-90432701D01*
X154139250Y-90261611D01*
X154139250Y-90088389D01*
X154129604Y-90027486D01*
X155868250Y-90027486D01*
X155868250Y-90322513D01*
X155900321Y-90566113D01*
X155906757Y-90614993D01*
X155980962Y-90891930D01*
X155983111Y-90899951D01*
X155983114Y-90899961D01*
X156096004Y-91172500D01*
X156096008Y-91172510D01*
X156243511Y-91427993D01*
X156423102Y-91662040D01*
X156423108Y-91662047D01*
X156631702Y-91870641D01*
X156631709Y-91870647D01*
X156865756Y-92050238D01*
X157121239Y-92197741D01*
X157121240Y-92197741D01*
X157121243Y-92197743D01*
X157393798Y-92310639D01*
X157678757Y-92386993D01*
X157971244Y-92425500D01*
X157971251Y-92425500D01*
X158266249Y-92425500D01*
X158266256Y-92425500D01*
X158558743Y-92386993D01*
X158843702Y-92310639D01*
X159116257Y-92197743D01*
X159371744Y-92050238D01*
X159605792Y-91870646D01*
X159814396Y-91662042D01*
X159993988Y-91427994D01*
X160141493Y-91172507D01*
X160254389Y-90899952D01*
X160330743Y-90614993D01*
X160369250Y-90322506D01*
X160369250Y-90088389D01*
X162098250Y-90088389D01*
X162098250Y-90261610D01*
X162116717Y-90378211D01*
X162125348Y-90432701D01*
X162178877Y-90597445D01*
X162257518Y-90751788D01*
X162359336Y-90891928D01*
X162481822Y-91014414D01*
X162621962Y-91116232D01*
X162776305Y-91194873D01*
X162941049Y-91248402D01*
X163112139Y-91275500D01*
X163112140Y-91275500D01*
X163285360Y-91275500D01*
X163285361Y-91275500D01*
X163456451Y-91248402D01*
X163621195Y-91194873D01*
X163775538Y-91116232D01*
X163915678Y-91014414D01*
X164038164Y-90891928D01*
X164139982Y-90751788D01*
X164218623Y-90597445D01*
X164272152Y-90432701D01*
X164299250Y-90261611D01*
X164299250Y-90088389D01*
X164272152Y-89917299D01*
X164218623Y-89752555D01*
X164139982Y-89598212D01*
X164038164Y-89458072D01*
X163915678Y-89335586D01*
X163775538Y-89233768D01*
X163621195Y-89155127D01*
X163456451Y-89101598D01*
X163456449Y-89101597D01*
X163456448Y-89101597D01*
X163325021Y-89080781D01*
X163285361Y-89074500D01*
X163112139Y-89074500D01*
X163072478Y-89080781D01*
X162941052Y-89101597D01*
X162776302Y-89155128D01*
X162621961Y-89233768D01*
X162565039Y-89275125D01*
X162481822Y-89335586D01*
X162481820Y-89335588D01*
X162481819Y-89335588D01*
X162359338Y-89458069D01*
X162359338Y-89458070D01*
X162359336Y-89458072D01*
X162315609Y-89518256D01*
X162257518Y-89598211D01*
X162178878Y-89752552D01*
X162125347Y-89917302D01*
X162098250Y-90088389D01*
X160369250Y-90088389D01*
X160369250Y-90027494D01*
X160330743Y-89735007D01*
X160254389Y-89450048D01*
X160141493Y-89177493D01*
X160086059Y-89081479D01*
X159993988Y-88922006D01*
X159814397Y-88687959D01*
X159814391Y-88687952D01*
X159605797Y-88479358D01*
X159605790Y-88479352D01*
X159371743Y-88299761D01*
X159116260Y-88152258D01*
X159116250Y-88152254D01*
X158843711Y-88039364D01*
X158843704Y-88039362D01*
X158843702Y-88039361D01*
X158558743Y-87963007D01*
X158509863Y-87956571D01*
X158266263Y-87924500D01*
X158266256Y-87924500D01*
X157971244Y-87924500D01*
X157971236Y-87924500D01*
X157692835Y-87961153D01*
X157678757Y-87963007D01*
X157504178Y-88009785D01*
X157393798Y-88039361D01*
X157393788Y-88039364D01*
X157121249Y-88152254D01*
X157121239Y-88152258D01*
X156865756Y-88299761D01*
X156631709Y-88479352D01*
X156631702Y-88479358D01*
X156423108Y-88687952D01*
X156423102Y-88687959D01*
X156243511Y-88922006D01*
X156096008Y-89177489D01*
X156096004Y-89177499D01*
X155983114Y-89450038D01*
X155983111Y-89450048D01*
X155906758Y-89735004D01*
X155906756Y-89735015D01*
X155868250Y-90027486D01*
X154129604Y-90027486D01*
X154112152Y-89917299D01*
X154058623Y-89752555D01*
X153979982Y-89598212D01*
X153878164Y-89458072D01*
X153826232Y-89406140D01*
X153792747Y-89344817D01*
X153797731Y-89275125D01*
X153839603Y-89219192D01*
X153905067Y-89194775D01*
X153933311Y-89195986D01*
X153933962Y-89196089D01*
X153933965Y-89196090D01*
X154182788Y-89235500D01*
X154182789Y-89235500D01*
X154434711Y-89235500D01*
X154434712Y-89235500D01*
X154683535Y-89196090D01*
X154923129Y-89118241D01*
X155147595Y-89003870D01*
X155351406Y-88855793D01*
X155529543Y-88677656D01*
X155677620Y-88473845D01*
X155791991Y-88249379D01*
X155869840Y-88009785D01*
X155909250Y-87760962D01*
X155909250Y-87509038D01*
X155869840Y-87260215D01*
X155791991Y-87020621D01*
X155791989Y-87020618D01*
X155791989Y-87020616D01*
X155723126Y-86885466D01*
X155677620Y-86796155D01*
X155604490Y-86695500D01*
X155529548Y-86592350D01*
X155529544Y-86592345D01*
X155351404Y-86414205D01*
X155351399Y-86414201D01*
X155147598Y-86266132D01*
X155147597Y-86266131D01*
X155147595Y-86266130D01*
X155077497Y-86230413D01*
X154923133Y-86151760D01*
X154683535Y-86073910D01*
X154490026Y-86043261D01*
X154434712Y-86034500D01*
X154182788Y-86034500D01*
X154127474Y-86043261D01*
X153933964Y-86073910D01*
X153694366Y-86151760D01*
X153469901Y-86266132D01*
X153266100Y-86414201D01*
X153266095Y-86414205D01*
X153087955Y-86592345D01*
X153087951Y-86592350D01*
X152939882Y-86796151D01*
X152825510Y-87020616D01*
X152747660Y-87260214D01*
X152708250Y-87509038D01*
X152708250Y-87760961D01*
X152747660Y-88009785D01*
X152825510Y-88249383D01*
X152939882Y-88473848D01*
X153087951Y-88677649D01*
X153087955Y-88677654D01*
X153087957Y-88677656D01*
X153266094Y-88855793D01*
X153266095Y-88855794D01*
X153266094Y-88855794D01*
X153272411Y-88860383D01*
X153315077Y-88915714D01*
X153321055Y-88985327D01*
X153288449Y-89047122D01*
X153227610Y-89081479D01*
X153180128Y-89083174D01*
X153125361Y-89074500D01*
X152952139Y-89074500D01*
X152912478Y-89080781D01*
X152781052Y-89101597D01*
X152616302Y-89155128D01*
X152461961Y-89233768D01*
X152405039Y-89275125D01*
X152321822Y-89335586D01*
X152321820Y-89335588D01*
X152321819Y-89335588D01*
X152199338Y-89458069D01*
X152199338Y-89458070D01*
X152199336Y-89458072D01*
X152155609Y-89518256D01*
X152097518Y-89598211D01*
X152018878Y-89752552D01*
X151965347Y-89917302D01*
X151938250Y-90088389D01*
X145249250Y-90088389D01*
X145222152Y-89917299D01*
X145168623Y-89752555D01*
X145089982Y-89598212D01*
X144988164Y-89458072D01*
X144865678Y-89335586D01*
X144725538Y-89233768D01*
X144571195Y-89155127D01*
X144406451Y-89101598D01*
X144406449Y-89101597D01*
X144406448Y-89101597D01*
X144275021Y-89080781D01*
X144235361Y-89074500D01*
X144062139Y-89074500D01*
X144022478Y-89080781D01*
X143891052Y-89101597D01*
X143726302Y-89155128D01*
X143571961Y-89233768D01*
X143515039Y-89275125D01*
X143431822Y-89335586D01*
X143431820Y-89335588D01*
X143431819Y-89335588D01*
X143309338Y-89458069D01*
X143309338Y-89458070D01*
X143309336Y-89458072D01*
X143265609Y-89518256D01*
X143207518Y-89598211D01*
X143128878Y-89752552D01*
X143075347Y-89917302D01*
X143048250Y-90088389D01*
X141319250Y-90088389D01*
X141319250Y-90027494D01*
X141280743Y-89735007D01*
X141204389Y-89450048D01*
X141091493Y-89177493D01*
X141036059Y-89081479D01*
X140943988Y-88922006D01*
X140764397Y-88687959D01*
X140764391Y-88687952D01*
X140555797Y-88479358D01*
X140555790Y-88479352D01*
X140321743Y-88299761D01*
X140066260Y-88152258D01*
X140066250Y-88152254D01*
X139793711Y-88039364D01*
X139793704Y-88039362D01*
X139793702Y-88039361D01*
X139508743Y-87963007D01*
X139459863Y-87956571D01*
X139216263Y-87924500D01*
X139216256Y-87924500D01*
X138921244Y-87924500D01*
X138921236Y-87924500D01*
X138642835Y-87961153D01*
X138628757Y-87963007D01*
X138454178Y-88009785D01*
X138343798Y-88039361D01*
X138343788Y-88039364D01*
X138071249Y-88152254D01*
X138071239Y-88152258D01*
X137815756Y-88299761D01*
X137581709Y-88479352D01*
X137581702Y-88479358D01*
X137373108Y-88687952D01*
X137373102Y-88687959D01*
X137193511Y-88922006D01*
X137046008Y-89177489D01*
X137046004Y-89177499D01*
X136933114Y-89450038D01*
X136933111Y-89450048D01*
X136856758Y-89735004D01*
X136856756Y-89735015D01*
X136818250Y-90027486D01*
X135079604Y-90027486D01*
X135062152Y-89917299D01*
X135008623Y-89752555D01*
X134929982Y-89598212D01*
X134828164Y-89458072D01*
X134776232Y-89406140D01*
X134742747Y-89344817D01*
X134747731Y-89275125D01*
X134789603Y-89219192D01*
X134855067Y-89194775D01*
X134883311Y-89195986D01*
X134883962Y-89196089D01*
X134883965Y-89196090D01*
X135132788Y-89235500D01*
X135132789Y-89235500D01*
X135384711Y-89235500D01*
X135384712Y-89235500D01*
X135633535Y-89196090D01*
X135873129Y-89118241D01*
X136097595Y-89003870D01*
X136301406Y-88855793D01*
X136479543Y-88677656D01*
X136627620Y-88473845D01*
X136741991Y-88249379D01*
X136819840Y-88009785D01*
X136859250Y-87760962D01*
X136859250Y-87509038D01*
X136819840Y-87260215D01*
X136819839Y-87260211D01*
X136819839Y-87260210D01*
X136774637Y-87121094D01*
X136763769Y-87087648D01*
X147699500Y-87087648D01*
X147699500Y-87292351D01*
X147731522Y-87494534D01*
X147794781Y-87689223D01*
X147887715Y-87871613D01*
X148008028Y-88037213D01*
X148152786Y-88181971D01*
X148245573Y-88249383D01*
X148318390Y-88302287D01*
X148434607Y-88361503D01*
X148500776Y-88395218D01*
X148500778Y-88395218D01*
X148500781Y-88395220D01*
X148605137Y-88429127D01*
X148695465Y-88458477D01*
X148792494Y-88473845D01*
X148897648Y-88490500D01*
X148897649Y-88490500D01*
X149102351Y-88490500D01*
X149102352Y-88490500D01*
X149304534Y-88458477D01*
X149499219Y-88395220D01*
X149681610Y-88302287D01*
X149784941Y-88227213D01*
X149847213Y-88181971D01*
X149847215Y-88181968D01*
X149847219Y-88181966D01*
X149991966Y-88037219D01*
X149991968Y-88037215D01*
X149991971Y-88037213D01*
X150073860Y-87924500D01*
X150112287Y-87871610D01*
X150205220Y-87689219D01*
X150268477Y-87494534D01*
X150300500Y-87292352D01*
X150300500Y-87087648D01*
X150268477Y-86885466D01*
X150205220Y-86690781D01*
X150205218Y-86690778D01*
X150205218Y-86690776D01*
X150155064Y-86592345D01*
X150112287Y-86508390D01*
X150079941Y-86463869D01*
X149991971Y-86342786D01*
X149847213Y-86198028D01*
X149681613Y-86077715D01*
X149681612Y-86077714D01*
X149681610Y-86077713D01*
X149613994Y-86043261D01*
X149499223Y-85984781D01*
X149304534Y-85921522D01*
X149129995Y-85893878D01*
X149102352Y-85889500D01*
X148897648Y-85889500D01*
X148873329Y-85893351D01*
X148695465Y-85921522D01*
X148500776Y-85984781D01*
X148318386Y-86077715D01*
X148152786Y-86198028D01*
X148008028Y-86342786D01*
X147887715Y-86508386D01*
X147794781Y-86690776D01*
X147731522Y-86885465D01*
X147699500Y-87087648D01*
X136763769Y-87087648D01*
X136741989Y-87020616D01*
X136673126Y-86885466D01*
X136627620Y-86796155D01*
X136554490Y-86695500D01*
X136479548Y-86592350D01*
X136479544Y-86592345D01*
X136301404Y-86414205D01*
X136301399Y-86414201D01*
X136097598Y-86266132D01*
X136097597Y-86266131D01*
X136097595Y-86266130D01*
X136027497Y-86230413D01*
X135873133Y-86151760D01*
X135633535Y-86073910D01*
X135440026Y-86043261D01*
X135384712Y-86034500D01*
X135132788Y-86034500D01*
X135077474Y-86043261D01*
X134883964Y-86073910D01*
X134644366Y-86151760D01*
X134419901Y-86266132D01*
X134216100Y-86414201D01*
X134216095Y-86414205D01*
X134037955Y-86592345D01*
X134037951Y-86592350D01*
X133889882Y-86796151D01*
X133775510Y-87020616D01*
X133697660Y-87260214D01*
X133658250Y-87509038D01*
X133658250Y-87760961D01*
X133697660Y-88009785D01*
X133775510Y-88249383D01*
X133889882Y-88473848D01*
X134037951Y-88677649D01*
X134037955Y-88677654D01*
X134037957Y-88677656D01*
X134216094Y-88855793D01*
X134216095Y-88855794D01*
X134216094Y-88855794D01*
X134222411Y-88860383D01*
X134265077Y-88915714D01*
X134271055Y-88985327D01*
X134238449Y-89047122D01*
X134177610Y-89081479D01*
X134130128Y-89083174D01*
X134075361Y-89074500D01*
X133902139Y-89074500D01*
X133862478Y-89080781D01*
X133731052Y-89101597D01*
X133566302Y-89155128D01*
X133411961Y-89233768D01*
X133355039Y-89275125D01*
X133271822Y-89335586D01*
X133271820Y-89335588D01*
X133271819Y-89335588D01*
X133149338Y-89458069D01*
X133149338Y-89458070D01*
X133149336Y-89458072D01*
X133105609Y-89518256D01*
X133047518Y-89598211D01*
X132968878Y-89752552D01*
X132915347Y-89917302D01*
X132888250Y-90088389D01*
X126199250Y-90088389D01*
X126172152Y-89917299D01*
X126118623Y-89752555D01*
X126039982Y-89598212D01*
X125938164Y-89458072D01*
X125815678Y-89335586D01*
X125675538Y-89233768D01*
X125521195Y-89155127D01*
X125356451Y-89101598D01*
X125356449Y-89101597D01*
X125356448Y-89101597D01*
X125225021Y-89080781D01*
X125185361Y-89074500D01*
X125012139Y-89074500D01*
X124972478Y-89080781D01*
X124841052Y-89101597D01*
X124676302Y-89155128D01*
X124521961Y-89233768D01*
X124465039Y-89275125D01*
X124381822Y-89335586D01*
X124381820Y-89335588D01*
X124381819Y-89335588D01*
X124259338Y-89458069D01*
X124259338Y-89458070D01*
X124259336Y-89458072D01*
X124215609Y-89518256D01*
X124157518Y-89598211D01*
X124078878Y-89752552D01*
X124025347Y-89917302D01*
X123998250Y-90088389D01*
X123209250Y-90088389D01*
X123209250Y-87277648D01*
X128699500Y-87277648D01*
X128699500Y-87482352D01*
X128703727Y-87509038D01*
X128731522Y-87684534D01*
X128794781Y-87879223D01*
X128887715Y-88061613D01*
X129008028Y-88227213D01*
X129152786Y-88371971D01*
X129293011Y-88473848D01*
X129318390Y-88492287D01*
X129434607Y-88551503D01*
X129500776Y-88585218D01*
X129500778Y-88585218D01*
X129500781Y-88585220D01*
X129605137Y-88619127D01*
X129695465Y-88648477D01*
X129796557Y-88664488D01*
X129897648Y-88680500D01*
X129897649Y-88680500D01*
X130102351Y-88680500D01*
X130102352Y-88680500D01*
X130304534Y-88648477D01*
X130499219Y-88585220D01*
X130681610Y-88492287D01*
X130774590Y-88424732D01*
X130847213Y-88371971D01*
X130847215Y-88371968D01*
X130847219Y-88371966D01*
X130991966Y-88227219D01*
X130991968Y-88227215D01*
X130991971Y-88227213D01*
X131046431Y-88152254D01*
X131112287Y-88061610D01*
X131205220Y-87879219D01*
X131268477Y-87684534D01*
X131300500Y-87482352D01*
X131300500Y-87277648D01*
X131275704Y-87121094D01*
X131268477Y-87075465D01*
X131205218Y-86880776D01*
X131162099Y-86796151D01*
X131112287Y-86698390D01*
X131056634Y-86621789D01*
X130991971Y-86532786D01*
X130847213Y-86388028D01*
X130681613Y-86267715D01*
X130681612Y-86267714D01*
X130681610Y-86267713D01*
X130614465Y-86233501D01*
X130499223Y-86174781D01*
X130304534Y-86111522D01*
X130129995Y-86083878D01*
X130102352Y-86079500D01*
X129897648Y-86079500D01*
X129873329Y-86083351D01*
X129695465Y-86111522D01*
X129500776Y-86174781D01*
X129318386Y-86267715D01*
X129152786Y-86388028D01*
X129008028Y-86532786D01*
X128887715Y-86698386D01*
X128794781Y-86880776D01*
X128731522Y-87075465D01*
X128702262Y-87260210D01*
X128699500Y-87277648D01*
X123209250Y-87277648D01*
X123209250Y-86635823D01*
X123228935Y-86568784D01*
X123276955Y-86525338D01*
X123397595Y-86463870D01*
X123601406Y-86315793D01*
X123779543Y-86137656D01*
X123927620Y-85933845D01*
X124041991Y-85709379D01*
X124119840Y-85469785D01*
X124159250Y-85220962D01*
X124159250Y-84969038D01*
X124119840Y-84720215D01*
X124041991Y-84480621D01*
X124041987Y-84480613D01*
X124039022Y-84474792D01*
X124026127Y-84406122D01*
X124052405Y-84341383D01*
X124109513Y-84301127D01*
X124149508Y-84294500D01*
X139836942Y-84294500D01*
X139866382Y-84303144D01*
X139896369Y-84309668D01*
X139901384Y-84313422D01*
X139903981Y-84314185D01*
X139924623Y-84330819D01*
X140059249Y-84465445D01*
X140092734Y-84526768D01*
X140089499Y-84591444D01*
X140047660Y-84720210D01*
X140047660Y-84720213D01*
X140008250Y-84969038D01*
X140008250Y-85220961D01*
X140047660Y-85469785D01*
X140125510Y-85709383D01*
X140204163Y-85863747D01*
X140233601Y-85921522D01*
X140239882Y-85933848D01*
X140387951Y-86137649D01*
X140387955Y-86137654D01*
X140566095Y-86315794D01*
X140566100Y-86315798D01*
X140743867Y-86444952D01*
X140769905Y-86463870D01*
X140912934Y-86536747D01*
X140994366Y-86578239D01*
X140994368Y-86578239D01*
X140994371Y-86578241D01*
X141233965Y-86656090D01*
X141482788Y-86695500D01*
X141482789Y-86695500D01*
X141734711Y-86695500D01*
X141734712Y-86695500D01*
X141983535Y-86656090D01*
X142223129Y-86578241D01*
X142447595Y-86463870D01*
X142651406Y-86315793D01*
X142829543Y-86137656D01*
X142977620Y-85933845D01*
X143091991Y-85709379D01*
X143169840Y-85469785D01*
X143209250Y-85220962D01*
X143209250Y-84969038D01*
X159058250Y-84969038D01*
X159058250Y-85220961D01*
X159097660Y-85469785D01*
X159175510Y-85709383D01*
X159254163Y-85863747D01*
X159283601Y-85921522D01*
X159289882Y-85933848D01*
X159437951Y-86137649D01*
X159437955Y-86137654D01*
X159616095Y-86315794D01*
X159616100Y-86315798D01*
X159793867Y-86444952D01*
X159819905Y-86463870D01*
X159962934Y-86536747D01*
X160044366Y-86578239D01*
X160044368Y-86578239D01*
X160044371Y-86578241D01*
X160283965Y-86656090D01*
X160532788Y-86695500D01*
X160532789Y-86695500D01*
X160784711Y-86695500D01*
X160784712Y-86695500D01*
X161033535Y-86656090D01*
X161273129Y-86578241D01*
X161497595Y-86463870D01*
X161701406Y-86315793D01*
X161879543Y-86137656D01*
X162027620Y-85933845D01*
X162141991Y-85709379D01*
X162219840Y-85469785D01*
X162259250Y-85220962D01*
X162259250Y-84969038D01*
X162219840Y-84720215D01*
X162141991Y-84480621D01*
X162141989Y-84480618D01*
X162141989Y-84480616D01*
X162085478Y-84369708D01*
X162027620Y-84256155D01*
X162008702Y-84230117D01*
X161879548Y-84052350D01*
X161879544Y-84052345D01*
X161701404Y-83874205D01*
X161701399Y-83874201D01*
X161497598Y-83726132D01*
X161497597Y-83726131D01*
X161497595Y-83726130D01*
X161427497Y-83690413D01*
X161273133Y-83611760D01*
X161033535Y-83533910D01*
X160784712Y-83494500D01*
X160532788Y-83494500D01*
X160408376Y-83514205D01*
X160283964Y-83533910D01*
X160044366Y-83611760D01*
X159819901Y-83726132D01*
X159616100Y-83874201D01*
X159616095Y-83874205D01*
X159437955Y-84052345D01*
X159437951Y-84052350D01*
X159289882Y-84256151D01*
X159175510Y-84480616D01*
X159097660Y-84720214D01*
X159058250Y-84969038D01*
X143209250Y-84969038D01*
X143169840Y-84720215D01*
X143091991Y-84480621D01*
X143091989Y-84480618D01*
X143091989Y-84480616D01*
X143035478Y-84369708D01*
X142977620Y-84256155D01*
X142958702Y-84230117D01*
X142829548Y-84052350D01*
X142829544Y-84052345D01*
X142651404Y-83874205D01*
X142651399Y-83874201D01*
X142447598Y-83726132D01*
X142447597Y-83726131D01*
X142447595Y-83726130D01*
X142377497Y-83690413D01*
X142223133Y-83611760D01*
X141983535Y-83533910D01*
X141734712Y-83494500D01*
X141482788Y-83494500D01*
X141399847Y-83507636D01*
X141233963Y-83533910D01*
X141233960Y-83533910D01*
X141105194Y-83575749D01*
X141035352Y-83577744D01*
X140979195Y-83545499D01*
X140572424Y-83138727D01*
X140572423Y-83138726D01*
X140465884Y-83067540D01*
X140465877Y-83067535D01*
X140347494Y-83018499D01*
X140347488Y-83018497D01*
X140221821Y-82993500D01*
X140221819Y-82993500D01*
X106291931Y-82993500D01*
X106291929Y-82993500D01*
X106166261Y-83018497D01*
X106166251Y-83018500D01*
X106117220Y-83038810D01*
X106047881Y-83067530D01*
X106047863Y-83067540D01*
X105941332Y-83138721D01*
X105941325Y-83138727D01*
X87788177Y-101291875D01*
X87726854Y-101325360D01*
X87657162Y-101320376D01*
X87627609Y-101304510D01*
X87621694Y-101300213D01*
X87621695Y-101300213D01*
X87621693Y-101300212D01*
X87444632Y-101209994D01*
X87444629Y-101209993D01*
X87255637Y-101148587D01*
X87077939Y-101120442D01*
X87014804Y-101090513D01*
X86977873Y-101031201D01*
X86978871Y-100961339D01*
X87009654Y-100910290D01*
X90102931Y-97817013D01*
X90164252Y-97783530D01*
X90166317Y-97783099D01*
X90233497Y-97769737D01*
X90379179Y-97709394D01*
X90510289Y-97621789D01*
X90621789Y-97510289D01*
X90709394Y-97379179D01*
X90769737Y-97233497D01*
X90800500Y-97078842D01*
X90800500Y-96921158D01*
X90800500Y-96921155D01*
X90800499Y-96921153D01*
X90795394Y-96895490D01*
X90769737Y-96766503D01*
X90769735Y-96766498D01*
X90709397Y-96620827D01*
X90709390Y-96620814D01*
X90621789Y-96489711D01*
X90621786Y-96489707D01*
X90510292Y-96378213D01*
X90510288Y-96378210D01*
X90379185Y-96290609D01*
X90379172Y-96290602D01*
X90233501Y-96230264D01*
X90233489Y-96230261D01*
X90078845Y-96199500D01*
X90078842Y-96199500D01*
X89921158Y-96199500D01*
X89921155Y-96199500D01*
X89766510Y-96230261D01*
X89766498Y-96230264D01*
X89620827Y-96290602D01*
X89620814Y-96290609D01*
X89489711Y-96378210D01*
X89489707Y-96378213D01*
X89378213Y-96489707D01*
X89378210Y-96489711D01*
X89290609Y-96620814D01*
X89290602Y-96620827D01*
X89230264Y-96766498D01*
X89230261Y-96766508D01*
X89216920Y-96833579D01*
X89184535Y-96895490D01*
X89182984Y-96897068D01*
X85341722Y-100738331D01*
X85341718Y-100738336D01*
X85320392Y-100770255D01*
X85320392Y-100770256D01*
X85270534Y-100844874D01*
X85221499Y-100963255D01*
X85221497Y-100963261D01*
X85196500Y-101088928D01*
X85196500Y-101156921D01*
X85176815Y-101223960D01*
X85124011Y-101269715D01*
X85054853Y-101279659D01*
X85016205Y-101267406D01*
X84904437Y-101210457D01*
X84715522Y-101149075D01*
X84519321Y-101118000D01*
X84320679Y-101118000D01*
X84124478Y-101149075D01*
X84119809Y-101150592D01*
X84049968Y-101152582D01*
X83990138Y-101116497D01*
X83959315Y-101053793D01*
X83957500Y-101032658D01*
X83957500Y-95013807D01*
X83977185Y-94946768D01*
X83993814Y-94926131D01*
X106867809Y-72052135D01*
X113399500Y-72052135D01*
X113399500Y-74147870D01*
X113399501Y-74147876D01*
X113405908Y-74207483D01*
X113456202Y-74342328D01*
X113456206Y-74342335D01*
X113542452Y-74457544D01*
X113542455Y-74457547D01*
X113657664Y-74543793D01*
X113657671Y-74543797D01*
X113792517Y-74594091D01*
X113792516Y-74594091D01*
X113799444Y-74594835D01*
X113852127Y-74600500D01*
X117147872Y-74600499D01*
X117207483Y-74594091D01*
X117342331Y-74543796D01*
X117457546Y-74457546D01*
X117543796Y-74342331D01*
X117594091Y-74207483D01*
X117600500Y-74147873D01*
X117600499Y-72052128D01*
X117594091Y-71992517D01*
X117592538Y-71988354D01*
X117543797Y-71857671D01*
X117543793Y-71857664D01*
X117457547Y-71742455D01*
X117457544Y-71742452D01*
X117342335Y-71656206D01*
X117342328Y-71656202D01*
X117207482Y-71605908D01*
X117207483Y-71605908D01*
X117147883Y-71599501D01*
X117147881Y-71599500D01*
X117147873Y-71599500D01*
X117147864Y-71599500D01*
X113852129Y-71599500D01*
X113852123Y-71599501D01*
X113792516Y-71605908D01*
X113657671Y-71656202D01*
X113657664Y-71656206D01*
X113542455Y-71742452D01*
X113542452Y-71742455D01*
X113456206Y-71857664D01*
X113456202Y-71857671D01*
X113405908Y-71992517D01*
X113400266Y-72044999D01*
X113399501Y-72052123D01*
X113399500Y-72052135D01*
X106867809Y-72052135D01*
X107449807Y-71470137D01*
X107511128Y-71436654D01*
X107575802Y-71439888D01*
X107648632Y-71463553D01*
X107765270Y-71482026D01*
X107881903Y-71500500D01*
X107881908Y-71500500D01*
X108118097Y-71500500D01*
X108351368Y-71463553D01*
X108352870Y-71463065D01*
X108575992Y-71390568D01*
X108786433Y-71283343D01*
X108977510Y-71144517D01*
X109144517Y-70977510D01*
X109283343Y-70786433D01*
X109390568Y-70575992D01*
X109463553Y-70351368D01*
X109470579Y-70307007D01*
X109500500Y-70118097D01*
X109500500Y-69881902D01*
X109463553Y-69648631D01*
X109414374Y-69497276D01*
X109390568Y-69424008D01*
X109390566Y-69424005D01*
X109390566Y-69424003D01*
X109317054Y-69279729D01*
X109283343Y-69213567D01*
X109144517Y-69022490D01*
X108977510Y-68855483D01*
X108921259Y-68814614D01*
X108878595Y-68759284D01*
X108873902Y-68727455D01*
X108129408Y-67982962D01*
X108192993Y-67965925D01*
X108307007Y-67900099D01*
X108400099Y-67807007D01*
X108465925Y-67692993D01*
X108482962Y-67629409D01*
X109222658Y-68369105D01*
X109222658Y-68369104D01*
X109282914Y-68286169D01*
X109282918Y-68286163D01*
X109390102Y-68075802D01*
X109463065Y-67851247D01*
X109500000Y-67618052D01*
X109500000Y-67381947D01*
X109463065Y-67148752D01*
X109390102Y-66924197D01*
X109282914Y-66713828D01*
X109213394Y-66618142D01*
X109189914Y-66552335D01*
X109205739Y-66484281D01*
X109239401Y-66445989D01*
X109242329Y-66443796D01*
X109242331Y-66443796D01*
X109357546Y-66357546D01*
X109443796Y-66242331D01*
X109494091Y-66107483D01*
X109500500Y-66047873D01*
X109500500Y-65774500D01*
X109520185Y-65707461D01*
X109572989Y-65661706D01*
X109624500Y-65650500D01*
X111679192Y-65650500D01*
X111746231Y-65670185D01*
X111766873Y-65686819D01*
X112313181Y-66233127D01*
X112346666Y-66294450D01*
X112349500Y-66320808D01*
X112349500Y-69495064D01*
X112329815Y-69562103D01*
X112328603Y-69563954D01*
X112290608Y-69620817D01*
X112290602Y-69620828D01*
X112230264Y-69766498D01*
X112230261Y-69766510D01*
X112199500Y-69921153D01*
X112199500Y-70078846D01*
X112230261Y-70233489D01*
X112230264Y-70233501D01*
X112290602Y-70379172D01*
X112290609Y-70379185D01*
X112378210Y-70510288D01*
X112378213Y-70510292D01*
X112489707Y-70621786D01*
X112489711Y-70621789D01*
X112620814Y-70709390D01*
X112620827Y-70709397D01*
X112766498Y-70769735D01*
X112766503Y-70769737D01*
X112921153Y-70800499D01*
X112921156Y-70800500D01*
X112921158Y-70800500D01*
X113078844Y-70800500D01*
X113078845Y-70800499D01*
X113233497Y-70769737D01*
X113379179Y-70709394D01*
X113510289Y-70621789D01*
X113621789Y-70510289D01*
X113709394Y-70379179D01*
X113769737Y-70233497D01*
X113800500Y-70078842D01*
X113800500Y-69921158D01*
X113800500Y-69921155D01*
X113800499Y-69921153D01*
X113796544Y-69901266D01*
X113792701Y-69881947D01*
X121000000Y-69881947D01*
X121000000Y-70118052D01*
X121036934Y-70351247D01*
X121109897Y-70575802D01*
X121217087Y-70786174D01*
X121277338Y-70869104D01*
X121277340Y-70869105D01*
X122017037Y-70129408D01*
X122034075Y-70192993D01*
X122099901Y-70307007D01*
X122192993Y-70400099D01*
X122307007Y-70465925D01*
X122370590Y-70482962D01*
X121630893Y-71222658D01*
X121713828Y-71282914D01*
X121924197Y-71390102D01*
X122148752Y-71463065D01*
X122148751Y-71463065D01*
X122381948Y-71500000D01*
X122618052Y-71500000D01*
X122851247Y-71463065D01*
X123075802Y-71390102D01*
X123286163Y-71282918D01*
X123286169Y-71282914D01*
X123369104Y-71222658D01*
X123369105Y-71222658D01*
X122629408Y-70482962D01*
X122692993Y-70465925D01*
X122807007Y-70400099D01*
X122900099Y-70307007D01*
X122965925Y-70192993D01*
X122982962Y-70129409D01*
X123722658Y-70869105D01*
X123722659Y-70869104D01*
X123757789Y-70820753D01*
X123757789Y-70820752D01*
X123782915Y-70786169D01*
X123782918Y-70786163D01*
X123890102Y-70575802D01*
X123963065Y-70351247D01*
X124000000Y-70118052D01*
X124000000Y-69881947D01*
X123963065Y-69648752D01*
X123890102Y-69424197D01*
X123782914Y-69213828D01*
X123722658Y-69130894D01*
X123722658Y-69130893D01*
X122982962Y-69870590D01*
X122965925Y-69807007D01*
X122900099Y-69692993D01*
X122807007Y-69599901D01*
X122692993Y-69534075D01*
X122629409Y-69517037D01*
X123369105Y-68777340D01*
X123369104Y-68777338D01*
X123286174Y-68717087D01*
X123075802Y-68609897D01*
X122851247Y-68536934D01*
X122851248Y-68536934D01*
X122618052Y-68500000D01*
X122381948Y-68500000D01*
X122148752Y-68536934D01*
X121924197Y-68609897D01*
X121713830Y-68717084D01*
X121630894Y-68777340D01*
X122370591Y-69517037D01*
X122307007Y-69534075D01*
X122192993Y-69599901D01*
X122099901Y-69692993D01*
X122034075Y-69807007D01*
X122017037Y-69870591D01*
X121277340Y-69130894D01*
X121217084Y-69213830D01*
X121109897Y-69424197D01*
X121036934Y-69648752D01*
X121000000Y-69881947D01*
X113792701Y-69881947D01*
X113769738Y-69766508D01*
X113769737Y-69766507D01*
X113769737Y-69766503D01*
X113709394Y-69620821D01*
X113671396Y-69563953D01*
X113650520Y-69497276D01*
X113650500Y-69495064D01*
X113650500Y-65935928D01*
X113624313Y-65804282D01*
X113625517Y-65804042D01*
X113624948Y-65740634D01*
X113662194Y-65681519D01*
X113725486Y-65651925D01*
X113744234Y-65650500D01*
X121071408Y-65650500D01*
X121138447Y-65670185D01*
X121181893Y-65718205D01*
X121193321Y-65740634D01*
X121216657Y-65786433D01*
X121355483Y-65977510D01*
X121522490Y-66144517D01*
X121713567Y-66283343D01*
X121735366Y-66294450D01*
X121924003Y-66390566D01*
X121924005Y-66390566D01*
X121924008Y-66390568D01*
X122044412Y-66429689D01*
X122148631Y-66463553D01*
X122381903Y-66500500D01*
X122381908Y-66500500D01*
X122618097Y-66500500D01*
X122851368Y-66463553D01*
X122905424Y-66445989D01*
X123075992Y-66390568D01*
X123286433Y-66283343D01*
X123477510Y-66144517D01*
X123644517Y-65977510D01*
X123685463Y-65921153D01*
X126199500Y-65921153D01*
X126199500Y-66078846D01*
X126230261Y-66233489D01*
X126230264Y-66233501D01*
X126290602Y-66379172D01*
X126290609Y-66379185D01*
X126378210Y-66510288D01*
X126378213Y-66510292D01*
X126489707Y-66621786D01*
X126489711Y-66621789D01*
X126620814Y-66709390D01*
X126620827Y-66709397D01*
X126766498Y-66769735D01*
X126766503Y-66769737D01*
X126921153Y-66800499D01*
X126921156Y-66800500D01*
X126921158Y-66800500D01*
X127078844Y-66800500D01*
X127078845Y-66800499D01*
X127233497Y-66769737D01*
X127379179Y-66709394D01*
X127436044Y-66671397D01*
X127502721Y-66650520D01*
X127504935Y-66650500D01*
X128524071Y-66650500D01*
X128608615Y-66633682D01*
X128649744Y-66625501D01*
X128768127Y-66576465D01*
X128874669Y-66505277D01*
X129822819Y-65557125D01*
X129884142Y-65523641D01*
X129953833Y-65528625D01*
X130009767Y-65570496D01*
X130034184Y-65635961D01*
X130034500Y-65644807D01*
X130034500Y-65721286D01*
X130066156Y-65921158D01*
X130067754Y-65931243D01*
X130115713Y-66078846D01*
X130133444Y-66133414D01*
X130229951Y-66322820D01*
X130354890Y-66494786D01*
X130505213Y-66645109D01*
X130677182Y-66770050D01*
X130685946Y-66774516D01*
X130736742Y-66822491D01*
X130753536Y-66890312D01*
X130730998Y-66956447D01*
X130685946Y-66995484D01*
X130677182Y-66999949D01*
X130505213Y-67124890D01*
X130354890Y-67275213D01*
X130229951Y-67447179D01*
X130133444Y-67636585D01*
X130067753Y-67838760D01*
X130065410Y-67853554D01*
X130034500Y-68048713D01*
X130034500Y-68261287D01*
X130067754Y-68471243D01*
X130089098Y-68536934D01*
X130133444Y-68673414D01*
X130229951Y-68862820D01*
X130354890Y-69034786D01*
X130468818Y-69148714D01*
X130502303Y-69210037D01*
X130497319Y-69279729D01*
X130455447Y-69335662D01*
X130424471Y-69352577D01*
X130292912Y-69401646D01*
X130292906Y-69401649D01*
X130177812Y-69487809D01*
X130177809Y-69487812D01*
X130091649Y-69602906D01*
X130091645Y-69602913D01*
X130041403Y-69737620D01*
X130041401Y-69737627D01*
X130035000Y-69797155D01*
X130035000Y-70445000D01*
X130951988Y-70445000D01*
X130919075Y-70502007D01*
X130885000Y-70629174D01*
X130885000Y-70760826D01*
X130919075Y-70887993D01*
X130951988Y-70945000D01*
X130035000Y-70945000D01*
X130035000Y-71592844D01*
X130041401Y-71652372D01*
X130041403Y-71652379D01*
X130091645Y-71787086D01*
X130091649Y-71787093D01*
X130177809Y-71902187D01*
X130177812Y-71902190D01*
X130292906Y-71988350D01*
X130292913Y-71988354D01*
X130427620Y-72038596D01*
X130427627Y-72038598D01*
X130487155Y-72044999D01*
X130487172Y-72045000D01*
X131135000Y-72045000D01*
X131135000Y-71128012D01*
X131192007Y-71160925D01*
X131319174Y-71195000D01*
X131450826Y-71195000D01*
X131577993Y-71160925D01*
X131635000Y-71128012D01*
X131635000Y-72045000D01*
X132282828Y-72045000D01*
X132282844Y-72044999D01*
X132342372Y-72038598D01*
X132342379Y-72038596D01*
X132477086Y-71988354D01*
X132477093Y-71988350D01*
X132592187Y-71902190D01*
X132592190Y-71902187D01*
X132678350Y-71787093D01*
X132678354Y-71787086D01*
X132728596Y-71652379D01*
X132728598Y-71652372D01*
X132734999Y-71592844D01*
X132735000Y-71592827D01*
X132735000Y-70945000D01*
X131818012Y-70945000D01*
X131850925Y-70887993D01*
X131885000Y-70760826D01*
X131885000Y-70629174D01*
X131850925Y-70502007D01*
X131818012Y-70445000D01*
X132735000Y-70445000D01*
X132735000Y-69797172D01*
X132734999Y-69797155D01*
X132728598Y-69737627D01*
X132728596Y-69737620D01*
X132678354Y-69602913D01*
X132678350Y-69602906D01*
X132592190Y-69487812D01*
X132592187Y-69487809D01*
X132477093Y-69401649D01*
X132477088Y-69401646D01*
X132345528Y-69352577D01*
X132289595Y-69310705D01*
X132265178Y-69245241D01*
X132280030Y-69176968D01*
X132301175Y-69148720D01*
X132415104Y-69034792D01*
X132540051Y-68862816D01*
X132636557Y-68673412D01*
X132702246Y-68471243D01*
X132735500Y-68261287D01*
X132735500Y-68048713D01*
X132702246Y-67838757D01*
X132636557Y-67636588D01*
X132540051Y-67447184D01*
X132540049Y-67447181D01*
X132540048Y-67447179D01*
X132415109Y-67275213D01*
X132264786Y-67124890D01*
X132092820Y-66999951D01*
X132092115Y-66999591D01*
X132084054Y-66995485D01*
X132033259Y-66947512D01*
X132016463Y-66879692D01*
X132038999Y-66813556D01*
X132084054Y-66774515D01*
X132092816Y-66770051D01*
X132170201Y-66713828D01*
X132264786Y-66645109D01*
X132264788Y-66645106D01*
X132264792Y-66645104D01*
X132415104Y-66494792D01*
X132415106Y-66494788D01*
X132415109Y-66494786D01*
X132540048Y-66322820D01*
X132540047Y-66322820D01*
X132540051Y-66322816D01*
X132636557Y-66133412D01*
X132702246Y-65931243D01*
X132735500Y-65721287D01*
X132735500Y-65508713D01*
X132702246Y-65298757D01*
X132636557Y-65096588D01*
X132540051Y-64907184D01*
X132540049Y-64907181D01*
X132540048Y-64907179D01*
X132415109Y-64735213D01*
X132264786Y-64584890D01*
X132092820Y-64459951D01*
X132092115Y-64459591D01*
X132084054Y-64455485D01*
X132033259Y-64407512D01*
X132016463Y-64339692D01*
X132038999Y-64273556D01*
X132084054Y-64234515D01*
X132092816Y-64230051D01*
X132135359Y-64199142D01*
X132264786Y-64105109D01*
X132264788Y-64105106D01*
X132264792Y-64105104D01*
X132415104Y-63954792D01*
X132415106Y-63954788D01*
X132415109Y-63954786D01*
X132540048Y-63782820D01*
X132540047Y-63782820D01*
X132540051Y-63782816D01*
X132636557Y-63593412D01*
X132702246Y-63391243D01*
X132735500Y-63181287D01*
X132735500Y-62968713D01*
X132702246Y-62758757D01*
X132636557Y-62556588D01*
X132540051Y-62367184D01*
X132540049Y-62367181D01*
X132540048Y-62367179D01*
X132415109Y-62195213D01*
X132264786Y-62044890D01*
X132092820Y-61919951D01*
X131903414Y-61823444D01*
X131903413Y-61823443D01*
X131903412Y-61823443D01*
X131701243Y-61757754D01*
X131701241Y-61757753D01*
X131701240Y-61757753D01*
X131539957Y-61732208D01*
X131491287Y-61724500D01*
X131278713Y-61724500D01*
X131230042Y-61732208D01*
X131068760Y-61757753D01*
X130866585Y-61823444D01*
X130677179Y-61919951D01*
X130505213Y-62044890D01*
X130354890Y-62195213D01*
X130229951Y-62367179D01*
X130133444Y-62556585D01*
X130067753Y-62758760D01*
X130037802Y-62947864D01*
X130034500Y-62968713D01*
X130034500Y-63181287D01*
X130051814Y-63290602D01*
X130068516Y-63396055D01*
X130066877Y-63396314D01*
X130063738Y-63458883D01*
X130034342Y-63505710D01*
X128226873Y-65313181D01*
X128165550Y-65346666D01*
X128139192Y-65349500D01*
X127504935Y-65349500D01*
X127437896Y-65329815D01*
X127436090Y-65328633D01*
X127379179Y-65290606D01*
X127379172Y-65290602D01*
X127233501Y-65230264D01*
X127233489Y-65230261D01*
X127078845Y-65199500D01*
X127078842Y-65199500D01*
X126921158Y-65199500D01*
X126921155Y-65199500D01*
X126766510Y-65230261D01*
X126766498Y-65230264D01*
X126620827Y-65290602D01*
X126620814Y-65290609D01*
X126489711Y-65378210D01*
X126489707Y-65378213D01*
X126378213Y-65489707D01*
X126378210Y-65489711D01*
X126290609Y-65620814D01*
X126290602Y-65620827D01*
X126230264Y-65766498D01*
X126230261Y-65766510D01*
X126199500Y-65921153D01*
X123685463Y-65921153D01*
X123783343Y-65786433D01*
X123890568Y-65575992D01*
X123963553Y-65351368D01*
X123967159Y-65328602D01*
X124000500Y-65118097D01*
X124000500Y-64881902D01*
X123963553Y-64648631D01*
X123918602Y-64510288D01*
X123890568Y-64424008D01*
X123890566Y-64424005D01*
X123890566Y-64424003D01*
X123794016Y-64234514D01*
X123783343Y-64213567D01*
X123644517Y-64022490D01*
X123477510Y-63855483D01*
X123286433Y-63716657D01*
X123075996Y-63609433D01*
X122851368Y-63536446D01*
X122618097Y-63499500D01*
X122618092Y-63499500D01*
X122381908Y-63499500D01*
X122381903Y-63499500D01*
X122148631Y-63536446D01*
X121924003Y-63609433D01*
X121713566Y-63716657D01*
X121657119Y-63757669D01*
X121522490Y-63855483D01*
X121522488Y-63855485D01*
X121522487Y-63855485D01*
X121355485Y-64022487D01*
X121355485Y-64022488D01*
X121355483Y-64022490D01*
X121314541Y-64078842D01*
X121216657Y-64213566D01*
X121181893Y-64281795D01*
X121133918Y-64332591D01*
X121071408Y-64349500D01*
X113320808Y-64349500D01*
X113253769Y-64329815D01*
X113233127Y-64313181D01*
X110414674Y-61494727D01*
X110414673Y-61494726D01*
X110308131Y-61423538D01*
X110308127Y-61423535D01*
X110308122Y-61423533D01*
X110189744Y-61374499D01*
X110189738Y-61374497D01*
X110064071Y-61349500D01*
X110064069Y-61349500D01*
X102935931Y-61349500D01*
X102935929Y-61349500D01*
X102810261Y-61374497D01*
X102810255Y-61374499D01*
X102691875Y-61423533D01*
X102691866Y-61423538D01*
X102585331Y-61494723D01*
X102585327Y-61494726D01*
X100897069Y-63182984D01*
X100835746Y-63216469D01*
X100833580Y-63216920D01*
X100766508Y-63230261D01*
X100766498Y-63230264D01*
X100620827Y-63290602D01*
X100620814Y-63290609D01*
X100489711Y-63378210D01*
X100489707Y-63378213D01*
X100378213Y-63489707D01*
X100378210Y-63489711D01*
X100290609Y-63620814D01*
X100290602Y-63620827D01*
X100230264Y-63766498D01*
X100230261Y-63766510D01*
X100199500Y-63921153D01*
X100199500Y-64078846D01*
X100230261Y-64233489D01*
X100230264Y-64233501D01*
X100290602Y-64379172D01*
X100290609Y-64379185D01*
X100378210Y-64510288D01*
X100378213Y-64510292D01*
X100489707Y-64621786D01*
X100489711Y-64621789D01*
X100620814Y-64709390D01*
X100620827Y-64709397D01*
X100766498Y-64769735D01*
X100766503Y-64769737D01*
X100921153Y-64800499D01*
X100921156Y-64800500D01*
X100921158Y-64800500D01*
X101078844Y-64800500D01*
X101078845Y-64800499D01*
X101233497Y-64769737D01*
X101379179Y-64709394D01*
X101510289Y-64621789D01*
X101621789Y-64510289D01*
X101709394Y-64379179D01*
X101769737Y-64233497D01*
X101783079Y-64166417D01*
X101815462Y-64104508D01*
X101816956Y-64102987D01*
X103233126Y-62686819D01*
X103294449Y-62653334D01*
X103320807Y-62650500D01*
X109679192Y-62650500D01*
X109746231Y-62670185D01*
X109766873Y-62686819D01*
X111217873Y-64137819D01*
X111251358Y-64199142D01*
X111246374Y-64268834D01*
X111204502Y-64324767D01*
X111139038Y-64349184D01*
X111130192Y-64349500D01*
X109624499Y-64349500D01*
X109557460Y-64329815D01*
X109511705Y-64277011D01*
X109500499Y-64225500D01*
X109500499Y-63952129D01*
X109500498Y-63952123D01*
X109500497Y-63952116D01*
X109494091Y-63892517D01*
X109480278Y-63855483D01*
X109443797Y-63757671D01*
X109443793Y-63757664D01*
X109357547Y-63642455D01*
X109357544Y-63642452D01*
X109242335Y-63556206D01*
X109242328Y-63556202D01*
X109107482Y-63505908D01*
X109107483Y-63505908D01*
X109047883Y-63499501D01*
X109047881Y-63499500D01*
X109047873Y-63499500D01*
X109047864Y-63499500D01*
X106952129Y-63499500D01*
X106952123Y-63499501D01*
X106892516Y-63505908D01*
X106757671Y-63556202D01*
X106757664Y-63556206D01*
X106642455Y-63642452D01*
X106642452Y-63642455D01*
X106556206Y-63757664D01*
X106556202Y-63757671D01*
X106505908Y-63892517D01*
X106499501Y-63952116D01*
X106499501Y-63952123D01*
X106499500Y-63952135D01*
X106499500Y-66047870D01*
X106499501Y-66047876D01*
X106505908Y-66107483D01*
X106556202Y-66242328D01*
X106556206Y-66242335D01*
X106642452Y-66357544D01*
X106642453Y-66357544D01*
X106642454Y-66357546D01*
X106671343Y-66379172D01*
X106760599Y-66445990D01*
X106802469Y-66501924D01*
X106807453Y-66571615D01*
X106786605Y-66618141D01*
X106717087Y-66713824D01*
X106609897Y-66924197D01*
X106536934Y-67148752D01*
X106500000Y-67381947D01*
X106500000Y-67618052D01*
X106536934Y-67851247D01*
X106609897Y-68075802D01*
X106717087Y-68286174D01*
X106777338Y-68369104D01*
X106777340Y-68369105D01*
X107517037Y-67629408D01*
X107534075Y-67692993D01*
X107599901Y-67807007D01*
X107692993Y-67900099D01*
X107807007Y-67965925D01*
X107870590Y-67982962D01*
X107124280Y-68729271D01*
X107115105Y-68772947D01*
X107078739Y-68814615D01*
X107022490Y-68855482D01*
X106855485Y-69022487D01*
X106855485Y-69022488D01*
X106855483Y-69022490D01*
X106795862Y-69104550D01*
X106716657Y-69213566D01*
X106609433Y-69424003D01*
X106536446Y-69648631D01*
X106499500Y-69881902D01*
X106499500Y-70118097D01*
X106536447Y-70351369D01*
X106536447Y-70351372D01*
X106560109Y-70424194D01*
X106562104Y-70494035D01*
X106529859Y-70550193D01*
X82801726Y-94278326D01*
X82737469Y-94374496D01*
X82737467Y-94374498D01*
X82730537Y-94384868D01*
X82730534Y-94384874D01*
X82681499Y-94503255D01*
X82681497Y-94503261D01*
X82656500Y-94628928D01*
X82656500Y-101156359D01*
X82636815Y-101223398D01*
X82584011Y-101269153D01*
X82514853Y-101279097D01*
X82476205Y-101266844D01*
X82364632Y-101209995D01*
X82364629Y-101209993D01*
X82175637Y-101148587D01*
X82077498Y-101133043D01*
X81979361Y-101117500D01*
X81780639Y-101117500D01*
X81731570Y-101125271D01*
X81584361Y-101148587D01*
X81579809Y-101150066D01*
X81509968Y-101152056D01*
X81450138Y-101115971D01*
X81419315Y-101053268D01*
X81417500Y-101032132D01*
X81417500Y-86750067D01*
X81437185Y-86683028D01*
X81472607Y-86646967D01*
X81510289Y-86621789D01*
X81621789Y-86510289D01*
X81709394Y-86379179D01*
X81769737Y-86233497D01*
X81800500Y-86078842D01*
X81800500Y-85921158D01*
X81800500Y-85921155D01*
X81800499Y-85921153D01*
X81769738Y-85766510D01*
X81769738Y-85766508D01*
X81769737Y-85766503D01*
X81769735Y-85766498D01*
X81709397Y-85620827D01*
X81709390Y-85620814D01*
X81621789Y-85489711D01*
X81621786Y-85489707D01*
X81510292Y-85378213D01*
X81510288Y-85378210D01*
X81379185Y-85290609D01*
X81379172Y-85290602D01*
X81233501Y-85230264D01*
X81233489Y-85230261D01*
X81078845Y-85199500D01*
X81078842Y-85199500D01*
X80921158Y-85199500D01*
X80921155Y-85199500D01*
X80766510Y-85230261D01*
X80766498Y-85230264D01*
X80620827Y-85290602D01*
X80620814Y-85290609D01*
X80489711Y-85378210D01*
X80489707Y-85378213D01*
X80378213Y-85489707D01*
X80378210Y-85489711D01*
X80290609Y-85620814D01*
X80290602Y-85620827D01*
X80230263Y-85766500D01*
X80230261Y-85766508D01*
X80207058Y-85883154D01*
X80192262Y-85918887D01*
X80193407Y-85919499D01*
X80190536Y-85924870D01*
X80141499Y-86043255D01*
X80141497Y-86043261D01*
X80116500Y-86168928D01*
X79500500Y-86168928D01*
X79500500Y-60852135D01*
X113399500Y-60852135D01*
X113399500Y-62947870D01*
X113399501Y-62947876D01*
X113405908Y-63007483D01*
X113456202Y-63142328D01*
X113456206Y-63142335D01*
X113542452Y-63257544D01*
X113542455Y-63257547D01*
X113657664Y-63343793D01*
X113657671Y-63343797D01*
X113792517Y-63394091D01*
X113792516Y-63394091D01*
X113799444Y-63394835D01*
X113852127Y-63400500D01*
X117147872Y-63400499D01*
X117207483Y-63394091D01*
X117342331Y-63343796D01*
X117457546Y-63257546D01*
X117543796Y-63142331D01*
X117594091Y-63007483D01*
X117600500Y-62947873D01*
X117600499Y-60852128D01*
X117594091Y-60792517D01*
X117543796Y-60657669D01*
X117543795Y-60657668D01*
X117543793Y-60657664D01*
X117457547Y-60542455D01*
X117457544Y-60542452D01*
X117342335Y-60456206D01*
X117342328Y-60456202D01*
X117207482Y-60405908D01*
X117207483Y-60405908D01*
X117147883Y-60399501D01*
X117147881Y-60399500D01*
X117147873Y-60399500D01*
X117147864Y-60399500D01*
X113852129Y-60399500D01*
X113852123Y-60399501D01*
X113792516Y-60405908D01*
X113657671Y-60456202D01*
X113657664Y-60456206D01*
X113542455Y-60542452D01*
X113542452Y-60542455D01*
X113456206Y-60657664D01*
X113456202Y-60657671D01*
X113405908Y-60792517D01*
X113399501Y-60852116D01*
X113399501Y-60852123D01*
X113399500Y-60852135D01*
X79500500Y-60852135D01*
X79500500Y-56502706D01*
X79500618Y-56497297D01*
X79503377Y-56434108D01*
X79517386Y-56113226D01*
X79518326Y-56102495D01*
X79568152Y-55724025D01*
X79570025Y-55713405D01*
X79652649Y-55340709D01*
X79655440Y-55330295D01*
X79770230Y-54966227D01*
X79773917Y-54956095D01*
X79920003Y-54603412D01*
X79924561Y-54593638D01*
X80100822Y-54255045D01*
X80106217Y-54245700D01*
X80311325Y-53923744D01*
X80317515Y-53914905D01*
X80549896Y-53612060D01*
X80556834Y-53603791D01*
X80814726Y-53322352D01*
X80822352Y-53314726D01*
X81103791Y-53056834D01*
X81112060Y-53049896D01*
X81414905Y-52817515D01*
X81423744Y-52811325D01*
X81745700Y-52606217D01*
X81755045Y-52600822D01*
X82093638Y-52424561D01*
X82103412Y-52420003D01*
X82456095Y-52273917D01*
X82466227Y-52270230D01*
X82830295Y-52155440D01*
X82840709Y-52152649D01*
X83213405Y-52070025D01*
X83224025Y-52068152D01*
X83602495Y-52018326D01*
X83613226Y-52017386D01*
X83997297Y-52000617D01*
X84002706Y-52000500D01*
X84065892Y-52000500D01*
X171934108Y-52000500D01*
X171997294Y-52000500D01*
X172002702Y-52000617D01*
G37*
%TD.AperFunction*%
%TD*%
M02*
