%TF.GenerationSoftware,KiCad,Pcbnew,9.0.6*%
%TF.CreationDate,2025-11-19T10:03:52+06:00*%
%TF.ProjectId,MiniMicroG,4d696e69-4d69-4637-926f-472e6b696361,rev?*%
%TF.SameCoordinates,Original*%
%TF.FileFunction,Legend,Top*%
%TF.FilePolarity,Positive*%
%FSLAX46Y46*%
G04 Gerber Fmt 4.6, Leading zero omitted, Abs format (unit mm)*
G04 Created by KiCad (PCBNEW 9.0.6) date 2025-11-19 10:03:52*
%MOMM*%
%LPD*%
G01*
G04 APERTURE LIST*
%ADD10C,0.100000*%
%ADD11C,0.800000*%
%ADD12C,0.150000*%
%ADD13C,0.101600*%
%ADD14C,0.120000*%
%ADD15C,0.127000*%
%ADD16C,0.504000*%
%ADD17C,0.040000*%
G04 APERTURE END LIST*
D10*
X88875312Y-54777180D02*
X88827693Y-54824800D01*
X88827693Y-54824800D02*
X88684836Y-54872419D01*
X88684836Y-54872419D02*
X88589598Y-54872419D01*
X88589598Y-54872419D02*
X88446741Y-54824800D01*
X88446741Y-54824800D02*
X88351503Y-54729561D01*
X88351503Y-54729561D02*
X88303884Y-54634323D01*
X88303884Y-54634323D02*
X88256265Y-54443847D01*
X88256265Y-54443847D02*
X88256265Y-54300990D01*
X88256265Y-54300990D02*
X88303884Y-54110514D01*
X88303884Y-54110514D02*
X88351503Y-54015276D01*
X88351503Y-54015276D02*
X88446741Y-53920038D01*
X88446741Y-53920038D02*
X88589598Y-53872419D01*
X88589598Y-53872419D02*
X88684836Y-53872419D01*
X88684836Y-53872419D02*
X88827693Y-53920038D01*
X88827693Y-53920038D02*
X88875312Y-53967657D01*
X89303884Y-54872419D02*
X89303884Y-54205752D01*
X89303884Y-54396228D02*
X89351503Y-54300990D01*
X89351503Y-54300990D02*
X89399122Y-54253371D01*
X89399122Y-54253371D02*
X89494360Y-54205752D01*
X89494360Y-54205752D02*
X89589598Y-54205752D01*
X90303884Y-54824800D02*
X90208646Y-54872419D01*
X90208646Y-54872419D02*
X90018170Y-54872419D01*
X90018170Y-54872419D02*
X89922932Y-54824800D01*
X89922932Y-54824800D02*
X89875313Y-54729561D01*
X89875313Y-54729561D02*
X89875313Y-54348609D01*
X89875313Y-54348609D02*
X89922932Y-54253371D01*
X89922932Y-54253371D02*
X90018170Y-54205752D01*
X90018170Y-54205752D02*
X90208646Y-54205752D01*
X90208646Y-54205752D02*
X90303884Y-54253371D01*
X90303884Y-54253371D02*
X90351503Y-54348609D01*
X90351503Y-54348609D02*
X90351503Y-54443847D01*
X90351503Y-54443847D02*
X89875313Y-54539085D01*
X91208646Y-54872419D02*
X91208646Y-54348609D01*
X91208646Y-54348609D02*
X91161027Y-54253371D01*
X91161027Y-54253371D02*
X91065789Y-54205752D01*
X91065789Y-54205752D02*
X90875313Y-54205752D01*
X90875313Y-54205752D02*
X90780075Y-54253371D01*
X91208646Y-54824800D02*
X91113408Y-54872419D01*
X91113408Y-54872419D02*
X90875313Y-54872419D01*
X90875313Y-54872419D02*
X90780075Y-54824800D01*
X90780075Y-54824800D02*
X90732456Y-54729561D01*
X90732456Y-54729561D02*
X90732456Y-54634323D01*
X90732456Y-54634323D02*
X90780075Y-54539085D01*
X90780075Y-54539085D02*
X90875313Y-54491466D01*
X90875313Y-54491466D02*
X91113408Y-54491466D01*
X91113408Y-54491466D02*
X91208646Y-54443847D01*
X91541980Y-54205752D02*
X91922932Y-54205752D01*
X91684837Y-53872419D02*
X91684837Y-54729561D01*
X91684837Y-54729561D02*
X91732456Y-54824800D01*
X91732456Y-54824800D02*
X91827694Y-54872419D01*
X91827694Y-54872419D02*
X91922932Y-54872419D01*
X92637218Y-54824800D02*
X92541980Y-54872419D01*
X92541980Y-54872419D02*
X92351504Y-54872419D01*
X92351504Y-54872419D02*
X92256266Y-54824800D01*
X92256266Y-54824800D02*
X92208647Y-54729561D01*
X92208647Y-54729561D02*
X92208647Y-54348609D01*
X92208647Y-54348609D02*
X92256266Y-54253371D01*
X92256266Y-54253371D02*
X92351504Y-54205752D01*
X92351504Y-54205752D02*
X92541980Y-54205752D01*
X92541980Y-54205752D02*
X92637218Y-54253371D01*
X92637218Y-54253371D02*
X92684837Y-54348609D01*
X92684837Y-54348609D02*
X92684837Y-54443847D01*
X92684837Y-54443847D02*
X92208647Y-54539085D01*
X93541980Y-54872419D02*
X93541980Y-53872419D01*
X93541980Y-54824800D02*
X93446742Y-54872419D01*
X93446742Y-54872419D02*
X93256266Y-54872419D01*
X93256266Y-54872419D02*
X93161028Y-54824800D01*
X93161028Y-54824800D02*
X93113409Y-54777180D01*
X93113409Y-54777180D02*
X93065790Y-54681942D01*
X93065790Y-54681942D02*
X93065790Y-54396228D01*
X93065790Y-54396228D02*
X93113409Y-54300990D01*
X93113409Y-54300990D02*
X93161028Y-54253371D01*
X93161028Y-54253371D02*
X93256266Y-54205752D01*
X93256266Y-54205752D02*
X93446742Y-54205752D01*
X93446742Y-54205752D02*
X93541980Y-54253371D01*
X94780076Y-54872419D02*
X94780076Y-53872419D01*
X94780076Y-54253371D02*
X94875314Y-54205752D01*
X94875314Y-54205752D02*
X95065790Y-54205752D01*
X95065790Y-54205752D02*
X95161028Y-54253371D01*
X95161028Y-54253371D02*
X95208647Y-54300990D01*
X95208647Y-54300990D02*
X95256266Y-54396228D01*
X95256266Y-54396228D02*
X95256266Y-54681942D01*
X95256266Y-54681942D02*
X95208647Y-54777180D01*
X95208647Y-54777180D02*
X95161028Y-54824800D01*
X95161028Y-54824800D02*
X95065790Y-54872419D01*
X95065790Y-54872419D02*
X94875314Y-54872419D01*
X94875314Y-54872419D02*
X94780076Y-54824800D01*
X95589600Y-54205752D02*
X95827695Y-54872419D01*
X96065790Y-54205752D02*
X95827695Y-54872419D01*
X95827695Y-54872419D02*
X95732457Y-55110514D01*
X95732457Y-55110514D02*
X95684838Y-55158133D01*
X95684838Y-55158133D02*
X95589600Y-55205752D01*
X97827695Y-54396228D02*
X97780076Y-54348609D01*
X97780076Y-54348609D02*
X97684838Y-54300990D01*
X97684838Y-54300990D02*
X97589600Y-54300990D01*
X97589600Y-54300990D02*
X97494362Y-54348609D01*
X97494362Y-54348609D02*
X97446743Y-54396228D01*
X97446743Y-54396228D02*
X97399124Y-54491466D01*
X97399124Y-54491466D02*
X97399124Y-54586704D01*
X97399124Y-54586704D02*
X97446743Y-54681942D01*
X97446743Y-54681942D02*
X97494362Y-54729561D01*
X97494362Y-54729561D02*
X97589600Y-54777180D01*
X97589600Y-54777180D02*
X97684838Y-54777180D01*
X97684838Y-54777180D02*
X97780076Y-54729561D01*
X97780076Y-54729561D02*
X97827695Y-54681942D01*
X97827695Y-54300990D02*
X97827695Y-54681942D01*
X97827695Y-54681942D02*
X97875314Y-54729561D01*
X97875314Y-54729561D02*
X97922933Y-54729561D01*
X97922933Y-54729561D02*
X98018172Y-54681942D01*
X98018172Y-54681942D02*
X98065791Y-54586704D01*
X98065791Y-54586704D02*
X98065791Y-54348609D01*
X98065791Y-54348609D02*
X97970553Y-54205752D01*
X97970553Y-54205752D02*
X97827695Y-54110514D01*
X97827695Y-54110514D02*
X97637219Y-54062895D01*
X97637219Y-54062895D02*
X97446743Y-54110514D01*
X97446743Y-54110514D02*
X97303886Y-54205752D01*
X97303886Y-54205752D02*
X97208648Y-54348609D01*
X97208648Y-54348609D02*
X97161029Y-54539085D01*
X97161029Y-54539085D02*
X97208648Y-54729561D01*
X97208648Y-54729561D02*
X97303886Y-54872419D01*
X97303886Y-54872419D02*
X97446743Y-54967657D01*
X97446743Y-54967657D02*
X97637219Y-55015276D01*
X97637219Y-55015276D02*
X97827695Y-54967657D01*
X97827695Y-54967657D02*
X97970553Y-54872419D01*
X98922933Y-54824800D02*
X98827695Y-54872419D01*
X98827695Y-54872419D02*
X98637219Y-54872419D01*
X98637219Y-54872419D02*
X98541981Y-54824800D01*
X98541981Y-54824800D02*
X98494362Y-54777180D01*
X98494362Y-54777180D02*
X98446743Y-54681942D01*
X98446743Y-54681942D02*
X98446743Y-54396228D01*
X98446743Y-54396228D02*
X98494362Y-54300990D01*
X98494362Y-54300990D02*
X98541981Y-54253371D01*
X98541981Y-54253371D02*
X98637219Y-54205752D01*
X98637219Y-54205752D02*
X98827695Y-54205752D01*
X98827695Y-54205752D02*
X98922933Y-54253371D01*
X99494362Y-54872419D02*
X99399124Y-54824800D01*
X99399124Y-54824800D02*
X99351505Y-54777180D01*
X99351505Y-54777180D02*
X99303886Y-54681942D01*
X99303886Y-54681942D02*
X99303886Y-54396228D01*
X99303886Y-54396228D02*
X99351505Y-54300990D01*
X99351505Y-54300990D02*
X99399124Y-54253371D01*
X99399124Y-54253371D02*
X99494362Y-54205752D01*
X99494362Y-54205752D02*
X99637219Y-54205752D01*
X99637219Y-54205752D02*
X99732457Y-54253371D01*
X99732457Y-54253371D02*
X99780076Y-54300990D01*
X99780076Y-54300990D02*
X99827695Y-54396228D01*
X99827695Y-54396228D02*
X99827695Y-54681942D01*
X99827695Y-54681942D02*
X99780076Y-54777180D01*
X99780076Y-54777180D02*
X99732457Y-54824800D01*
X99732457Y-54824800D02*
X99637219Y-54872419D01*
X99637219Y-54872419D02*
X99494362Y-54872419D01*
X100684838Y-54872419D02*
X100684838Y-53872419D01*
X100684838Y-54824800D02*
X100589600Y-54872419D01*
X100589600Y-54872419D02*
X100399124Y-54872419D01*
X100399124Y-54872419D02*
X100303886Y-54824800D01*
X100303886Y-54824800D02*
X100256267Y-54777180D01*
X100256267Y-54777180D02*
X100208648Y-54681942D01*
X100208648Y-54681942D02*
X100208648Y-54396228D01*
X100208648Y-54396228D02*
X100256267Y-54300990D01*
X100256267Y-54300990D02*
X100303886Y-54253371D01*
X100303886Y-54253371D02*
X100399124Y-54205752D01*
X100399124Y-54205752D02*
X100589600Y-54205752D01*
X100589600Y-54205752D02*
X100684838Y-54253371D01*
X101541981Y-54824800D02*
X101446743Y-54872419D01*
X101446743Y-54872419D02*
X101256267Y-54872419D01*
X101256267Y-54872419D02*
X101161029Y-54824800D01*
X101161029Y-54824800D02*
X101113410Y-54729561D01*
X101113410Y-54729561D02*
X101113410Y-54348609D01*
X101113410Y-54348609D02*
X101161029Y-54253371D01*
X101161029Y-54253371D02*
X101256267Y-54205752D01*
X101256267Y-54205752D02*
X101446743Y-54205752D01*
X101446743Y-54205752D02*
X101541981Y-54253371D01*
X101541981Y-54253371D02*
X101589600Y-54348609D01*
X101589600Y-54348609D02*
X101589600Y-54443847D01*
X101589600Y-54443847D02*
X101113410Y-54539085D01*
X102446743Y-54824800D02*
X102351505Y-54872419D01*
X102351505Y-54872419D02*
X102161029Y-54872419D01*
X102161029Y-54872419D02*
X102065791Y-54824800D01*
X102065791Y-54824800D02*
X102018172Y-54777180D01*
X102018172Y-54777180D02*
X101970553Y-54681942D01*
X101970553Y-54681942D02*
X101970553Y-54396228D01*
X101970553Y-54396228D02*
X102018172Y-54300990D01*
X102018172Y-54300990D02*
X102065791Y-54253371D01*
X102065791Y-54253371D02*
X102161029Y-54205752D01*
X102161029Y-54205752D02*
X102351505Y-54205752D01*
X102351505Y-54205752D02*
X102446743Y-54253371D01*
X103018172Y-54872419D02*
X102922934Y-54824800D01*
X102922934Y-54824800D02*
X102875315Y-54777180D01*
X102875315Y-54777180D02*
X102827696Y-54681942D01*
X102827696Y-54681942D02*
X102827696Y-54396228D01*
X102827696Y-54396228D02*
X102875315Y-54300990D01*
X102875315Y-54300990D02*
X102922934Y-54253371D01*
X102922934Y-54253371D02*
X103018172Y-54205752D01*
X103018172Y-54205752D02*
X103161029Y-54205752D01*
X103161029Y-54205752D02*
X103256267Y-54253371D01*
X103256267Y-54253371D02*
X103303886Y-54300990D01*
X103303886Y-54300990D02*
X103351505Y-54396228D01*
X103351505Y-54396228D02*
X103351505Y-54681942D01*
X103351505Y-54681942D02*
X103303886Y-54777180D01*
X103303886Y-54777180D02*
X103256267Y-54824800D01*
X103256267Y-54824800D02*
X103161029Y-54872419D01*
X103161029Y-54872419D02*
X103018172Y-54872419D01*
X103922934Y-54872419D02*
X103827696Y-54824800D01*
X103827696Y-54824800D02*
X103780077Y-54777180D01*
X103780077Y-54777180D02*
X103732458Y-54681942D01*
X103732458Y-54681942D02*
X103732458Y-54396228D01*
X103732458Y-54396228D02*
X103780077Y-54300990D01*
X103780077Y-54300990D02*
X103827696Y-54253371D01*
X103827696Y-54253371D02*
X103922934Y-54205752D01*
X103922934Y-54205752D02*
X104065791Y-54205752D01*
X104065791Y-54205752D02*
X104161029Y-54253371D01*
X104161029Y-54253371D02*
X104208648Y-54300990D01*
X104208648Y-54300990D02*
X104256267Y-54396228D01*
X104256267Y-54396228D02*
X104256267Y-54681942D01*
X104256267Y-54681942D02*
X104208648Y-54777180D01*
X104208648Y-54777180D02*
X104161029Y-54824800D01*
X104161029Y-54824800D02*
X104065791Y-54872419D01*
X104065791Y-54872419D02*
X103922934Y-54872419D01*
X104684839Y-54872419D02*
X104684839Y-53872419D01*
X104780077Y-54491466D02*
X105065791Y-54872419D01*
X105065791Y-54205752D02*
X104684839Y-54586704D01*
X105875315Y-54824800D02*
X105780077Y-54872419D01*
X105780077Y-54872419D02*
X105589601Y-54872419D01*
X105589601Y-54872419D02*
X105494363Y-54824800D01*
X105494363Y-54824800D02*
X105446744Y-54729561D01*
X105446744Y-54729561D02*
X105446744Y-54348609D01*
X105446744Y-54348609D02*
X105494363Y-54253371D01*
X105494363Y-54253371D02*
X105589601Y-54205752D01*
X105589601Y-54205752D02*
X105780077Y-54205752D01*
X105780077Y-54205752D02*
X105875315Y-54253371D01*
X105875315Y-54253371D02*
X105922934Y-54348609D01*
X105922934Y-54348609D02*
X105922934Y-54443847D01*
X105922934Y-54443847D02*
X105446744Y-54539085D01*
X106351506Y-54872419D02*
X106351506Y-54205752D01*
X106351506Y-54396228D02*
X106399125Y-54300990D01*
X106399125Y-54300990D02*
X106446744Y-54253371D01*
X106446744Y-54253371D02*
X106541982Y-54205752D01*
X106541982Y-54205752D02*
X106637220Y-54205752D01*
X107494363Y-54872419D02*
X106922935Y-54872419D01*
X107208649Y-54872419D02*
X107208649Y-53872419D01*
X107208649Y-53872419D02*
X107113411Y-54015276D01*
X107113411Y-54015276D02*
X107018173Y-54110514D01*
X107018173Y-54110514D02*
X106922935Y-54158133D01*
D11*
X91468876Y-93521304D02*
X87468876Y-93521304D01*
X87468876Y-93521304D02*
X90326019Y-92187970D01*
X90326019Y-92187970D02*
X87468876Y-90854637D01*
X87468876Y-90854637D02*
X91468876Y-90854637D01*
X91468876Y-88949875D02*
X88802209Y-88949875D01*
X87468876Y-88949875D02*
X87659352Y-89140351D01*
X87659352Y-89140351D02*
X87849828Y-88949875D01*
X87849828Y-88949875D02*
X87659352Y-88759398D01*
X87659352Y-88759398D02*
X87468876Y-88949875D01*
X87468876Y-88949875D02*
X87849828Y-88949875D01*
X88802209Y-87045113D02*
X91468876Y-87045113D01*
X89183161Y-87045113D02*
X88992685Y-86854636D01*
X88992685Y-86854636D02*
X88802209Y-86473684D01*
X88802209Y-86473684D02*
X88802209Y-85902255D01*
X88802209Y-85902255D02*
X88992685Y-85521303D01*
X88992685Y-85521303D02*
X89373638Y-85330827D01*
X89373638Y-85330827D02*
X91468876Y-85330827D01*
X91468876Y-83426065D02*
X88802209Y-83426065D01*
X87468876Y-83426065D02*
X87659352Y-83616541D01*
X87659352Y-83616541D02*
X87849828Y-83426065D01*
X87849828Y-83426065D02*
X87659352Y-83235588D01*
X87659352Y-83235588D02*
X87468876Y-83426065D01*
X87468876Y-83426065D02*
X87849828Y-83426065D01*
X91468876Y-81521303D02*
X87468876Y-81521303D01*
X87468876Y-81521303D02*
X90326019Y-80187969D01*
X90326019Y-80187969D02*
X87468876Y-78854636D01*
X87468876Y-78854636D02*
X91468876Y-78854636D01*
X91468876Y-76949874D02*
X88802209Y-76949874D01*
X87468876Y-76949874D02*
X87659352Y-77140350D01*
X87659352Y-77140350D02*
X87849828Y-76949874D01*
X87849828Y-76949874D02*
X87659352Y-76759397D01*
X87659352Y-76759397D02*
X87468876Y-76949874D01*
X87468876Y-76949874D02*
X87849828Y-76949874D01*
X91278400Y-73330826D02*
X91468876Y-73711778D01*
X91468876Y-73711778D02*
X91468876Y-74473683D01*
X91468876Y-74473683D02*
X91278400Y-74854635D01*
X91278400Y-74854635D02*
X91087923Y-75045112D01*
X91087923Y-75045112D02*
X90706971Y-75235588D01*
X90706971Y-75235588D02*
X89564114Y-75235588D01*
X89564114Y-75235588D02*
X89183161Y-75045112D01*
X89183161Y-75045112D02*
X88992685Y-74854635D01*
X88992685Y-74854635D02*
X88802209Y-74473683D01*
X88802209Y-74473683D02*
X88802209Y-73711778D01*
X88802209Y-73711778D02*
X88992685Y-73330826D01*
X91468876Y-71616541D02*
X88802209Y-71616541D01*
X89564114Y-71616541D02*
X89183161Y-71426064D01*
X89183161Y-71426064D02*
X88992685Y-71235588D01*
X88992685Y-71235588D02*
X88802209Y-70854636D01*
X88802209Y-70854636D02*
X88802209Y-70473683D01*
X91468876Y-68568922D02*
X91278400Y-68949874D01*
X91278400Y-68949874D02*
X91087923Y-69140351D01*
X91087923Y-69140351D02*
X90706971Y-69330827D01*
X90706971Y-69330827D02*
X89564114Y-69330827D01*
X89564114Y-69330827D02*
X89183161Y-69140351D01*
X89183161Y-69140351D02*
X88992685Y-68949874D01*
X88992685Y-68949874D02*
X88802209Y-68568922D01*
X88802209Y-68568922D02*
X88802209Y-67997493D01*
X88802209Y-67997493D02*
X88992685Y-67616541D01*
X88992685Y-67616541D02*
X89183161Y-67426065D01*
X89183161Y-67426065D02*
X89564114Y-67235589D01*
X89564114Y-67235589D02*
X90706971Y-67235589D01*
X90706971Y-67235589D02*
X91087923Y-67426065D01*
X91087923Y-67426065D02*
X91278400Y-67616541D01*
X91278400Y-67616541D02*
X91468876Y-67997493D01*
X91468876Y-67997493D02*
X91468876Y-68568922D01*
X87659352Y-63426064D02*
X87468876Y-63807017D01*
X87468876Y-63807017D02*
X87468876Y-64378445D01*
X87468876Y-64378445D02*
X87659352Y-64949874D01*
X87659352Y-64949874D02*
X88040304Y-65330826D01*
X88040304Y-65330826D02*
X88421257Y-65521303D01*
X88421257Y-65521303D02*
X89183161Y-65711779D01*
X89183161Y-65711779D02*
X89754590Y-65711779D01*
X89754590Y-65711779D02*
X90516495Y-65521303D01*
X90516495Y-65521303D02*
X90897447Y-65330826D01*
X90897447Y-65330826D02*
X91278400Y-64949874D01*
X91278400Y-64949874D02*
X91468876Y-64378445D01*
X91468876Y-64378445D02*
X91468876Y-63997493D01*
X91468876Y-63997493D02*
X91278400Y-63426064D01*
X91278400Y-63426064D02*
X91087923Y-63235588D01*
X91087923Y-63235588D02*
X89754590Y-63235588D01*
X89754590Y-63235588D02*
X89754590Y-63997493D01*
X91087923Y-58473684D02*
X91278400Y-58283207D01*
X91278400Y-58283207D02*
X91468876Y-58473684D01*
X91468876Y-58473684D02*
X91278400Y-58664160D01*
X91278400Y-58664160D02*
X91087923Y-58473684D01*
X91087923Y-58473684D02*
X91468876Y-58473684D01*
X89945066Y-58473684D02*
X87659352Y-58664160D01*
X87659352Y-58664160D02*
X87468876Y-58473684D01*
X87468876Y-58473684D02*
X87659352Y-58283207D01*
X87659352Y-58283207D02*
X89945066Y-58473684D01*
X89945066Y-58473684D02*
X87468876Y-58473684D01*
D12*
X133688450Y-66507856D02*
X133724164Y-66400714D01*
X133724164Y-66400714D02*
X133724164Y-66222142D01*
X133724164Y-66222142D02*
X133688450Y-66150714D01*
X133688450Y-66150714D02*
X133652735Y-66114999D01*
X133652735Y-66114999D02*
X133581307Y-66079285D01*
X133581307Y-66079285D02*
X133509878Y-66079285D01*
X133509878Y-66079285D02*
X133438450Y-66114999D01*
X133438450Y-66114999D02*
X133402735Y-66150714D01*
X133402735Y-66150714D02*
X133367021Y-66222142D01*
X133367021Y-66222142D02*
X133331307Y-66364999D01*
X133331307Y-66364999D02*
X133295592Y-66436428D01*
X133295592Y-66436428D02*
X133259878Y-66472142D01*
X133259878Y-66472142D02*
X133188450Y-66507856D01*
X133188450Y-66507856D02*
X133117021Y-66507856D01*
X133117021Y-66507856D02*
X133045592Y-66472142D01*
X133045592Y-66472142D02*
X133009878Y-66436428D01*
X133009878Y-66436428D02*
X132974164Y-66364999D01*
X132974164Y-66364999D02*
X132974164Y-66186428D01*
X132974164Y-66186428D02*
X133009878Y-66079285D01*
X133652735Y-65329285D02*
X133688450Y-65364999D01*
X133688450Y-65364999D02*
X133724164Y-65472142D01*
X133724164Y-65472142D02*
X133724164Y-65543570D01*
X133724164Y-65543570D02*
X133688450Y-65650713D01*
X133688450Y-65650713D02*
X133617021Y-65722142D01*
X133617021Y-65722142D02*
X133545592Y-65757856D01*
X133545592Y-65757856D02*
X133402735Y-65793570D01*
X133402735Y-65793570D02*
X133295592Y-65793570D01*
X133295592Y-65793570D02*
X133152735Y-65757856D01*
X133152735Y-65757856D02*
X133081307Y-65722142D01*
X133081307Y-65722142D02*
X133009878Y-65650713D01*
X133009878Y-65650713D02*
X132974164Y-65543570D01*
X132974164Y-65543570D02*
X132974164Y-65472142D01*
X132974164Y-65472142D02*
X133009878Y-65364999D01*
X133009878Y-65364999D02*
X133045592Y-65329285D01*
X133724164Y-64650713D02*
X133724164Y-65007856D01*
X133724164Y-65007856D02*
X132974164Y-65007856D01*
X109466667Y-60707200D02*
X109609524Y-60754819D01*
X109609524Y-60754819D02*
X109847619Y-60754819D01*
X109847619Y-60754819D02*
X109942857Y-60707200D01*
X109942857Y-60707200D02*
X109990476Y-60659580D01*
X109990476Y-60659580D02*
X110038095Y-60564342D01*
X110038095Y-60564342D02*
X110038095Y-60469104D01*
X110038095Y-60469104D02*
X109990476Y-60373866D01*
X109990476Y-60373866D02*
X109942857Y-60326247D01*
X109942857Y-60326247D02*
X109847619Y-60278628D01*
X109847619Y-60278628D02*
X109657143Y-60231009D01*
X109657143Y-60231009D02*
X109561905Y-60183390D01*
X109561905Y-60183390D02*
X109514286Y-60135771D01*
X109514286Y-60135771D02*
X109466667Y-60040533D01*
X109466667Y-60040533D02*
X109466667Y-59945295D01*
X109466667Y-59945295D02*
X109514286Y-59850057D01*
X109514286Y-59850057D02*
X109561905Y-59802438D01*
X109561905Y-59802438D02*
X109657143Y-59754819D01*
X109657143Y-59754819D02*
X109895238Y-59754819D01*
X109895238Y-59754819D02*
X110038095Y-59802438D01*
X110371429Y-59754819D02*
X110609524Y-60754819D01*
X110609524Y-60754819D02*
X110800000Y-60040533D01*
X110800000Y-60040533D02*
X110990476Y-60754819D01*
X110990476Y-60754819D02*
X111228572Y-59754819D01*
X111514286Y-59754819D02*
X112180952Y-59754819D01*
X112180952Y-59754819D02*
X111752381Y-60754819D01*
X118511905Y-122204819D02*
X118511905Y-121204819D01*
X118511905Y-121204819D02*
X118750000Y-121204819D01*
X118750000Y-121204819D02*
X118892857Y-121252438D01*
X118892857Y-121252438D02*
X118988095Y-121347676D01*
X118988095Y-121347676D02*
X119035714Y-121442914D01*
X119035714Y-121442914D02*
X119083333Y-121633390D01*
X119083333Y-121633390D02*
X119083333Y-121776247D01*
X119083333Y-121776247D02*
X119035714Y-121966723D01*
X119035714Y-121966723D02*
X118988095Y-122061961D01*
X118988095Y-122061961D02*
X118892857Y-122157200D01*
X118892857Y-122157200D02*
X118750000Y-122204819D01*
X118750000Y-122204819D02*
X118511905Y-122204819D01*
X119464286Y-121300057D02*
X119511905Y-121252438D01*
X119511905Y-121252438D02*
X119607143Y-121204819D01*
X119607143Y-121204819D02*
X119845238Y-121204819D01*
X119845238Y-121204819D02*
X119940476Y-121252438D01*
X119940476Y-121252438D02*
X119988095Y-121300057D01*
X119988095Y-121300057D02*
X120035714Y-121395295D01*
X120035714Y-121395295D02*
X120035714Y-121490533D01*
X120035714Y-121490533D02*
X119988095Y-121633390D01*
X119988095Y-121633390D02*
X119416667Y-122204819D01*
X119416667Y-122204819D02*
X120035714Y-122204819D01*
X122221428Y-119512704D02*
X122678571Y-119512704D01*
X122449999Y-119512704D02*
X122449999Y-120312704D01*
X122449999Y-120312704D02*
X122526190Y-120198419D01*
X122526190Y-120198419D02*
X122602380Y-120122228D01*
X122602380Y-120122228D02*
X122678571Y-120084133D01*
X137666667Y-106407200D02*
X137809524Y-106454819D01*
X137809524Y-106454819D02*
X138047619Y-106454819D01*
X138047619Y-106454819D02*
X138142857Y-106407200D01*
X138142857Y-106407200D02*
X138190476Y-106359580D01*
X138190476Y-106359580D02*
X138238095Y-106264342D01*
X138238095Y-106264342D02*
X138238095Y-106169104D01*
X138238095Y-106169104D02*
X138190476Y-106073866D01*
X138190476Y-106073866D02*
X138142857Y-106026247D01*
X138142857Y-106026247D02*
X138047619Y-105978628D01*
X138047619Y-105978628D02*
X137857143Y-105931009D01*
X137857143Y-105931009D02*
X137761905Y-105883390D01*
X137761905Y-105883390D02*
X137714286Y-105835771D01*
X137714286Y-105835771D02*
X137666667Y-105740533D01*
X137666667Y-105740533D02*
X137666667Y-105645295D01*
X137666667Y-105645295D02*
X137714286Y-105550057D01*
X137714286Y-105550057D02*
X137761905Y-105502438D01*
X137761905Y-105502438D02*
X137857143Y-105454819D01*
X137857143Y-105454819D02*
X138095238Y-105454819D01*
X138095238Y-105454819D02*
X138238095Y-105502438D01*
X138571429Y-105454819D02*
X138809524Y-106454819D01*
X138809524Y-106454819D02*
X139000000Y-105740533D01*
X139000000Y-105740533D02*
X139190476Y-106454819D01*
X139190476Y-106454819D02*
X139428572Y-105454819D01*
X140285714Y-105454819D02*
X139809524Y-105454819D01*
X139809524Y-105454819D02*
X139761905Y-105931009D01*
X139761905Y-105931009D02*
X139809524Y-105883390D01*
X139809524Y-105883390D02*
X139904762Y-105835771D01*
X139904762Y-105835771D02*
X140142857Y-105835771D01*
X140142857Y-105835771D02*
X140238095Y-105883390D01*
X140238095Y-105883390D02*
X140285714Y-105931009D01*
X140285714Y-105931009D02*
X140333333Y-106026247D01*
X140333333Y-106026247D02*
X140333333Y-106264342D01*
X140333333Y-106264342D02*
X140285714Y-106359580D01*
X140285714Y-106359580D02*
X140238095Y-106407200D01*
X140238095Y-106407200D02*
X140142857Y-106454819D01*
X140142857Y-106454819D02*
X139904762Y-106454819D01*
X139904762Y-106454819D02*
X139809524Y-106407200D01*
X139809524Y-106407200D02*
X139761905Y-106359580D01*
X118685417Y-82708200D02*
X118828274Y-82755819D01*
X118828274Y-82755819D02*
X119066369Y-82755819D01*
X119066369Y-82755819D02*
X119161607Y-82708200D01*
X119161607Y-82708200D02*
X119209226Y-82660580D01*
X119209226Y-82660580D02*
X119256845Y-82565342D01*
X119256845Y-82565342D02*
X119256845Y-82470104D01*
X119256845Y-82470104D02*
X119209226Y-82374866D01*
X119209226Y-82374866D02*
X119161607Y-82327247D01*
X119161607Y-82327247D02*
X119066369Y-82279628D01*
X119066369Y-82279628D02*
X118875893Y-82232009D01*
X118875893Y-82232009D02*
X118780655Y-82184390D01*
X118780655Y-82184390D02*
X118733036Y-82136771D01*
X118733036Y-82136771D02*
X118685417Y-82041533D01*
X118685417Y-82041533D02*
X118685417Y-81946295D01*
X118685417Y-81946295D02*
X118733036Y-81851057D01*
X118733036Y-81851057D02*
X118780655Y-81803438D01*
X118780655Y-81803438D02*
X118875893Y-81755819D01*
X118875893Y-81755819D02*
X119113988Y-81755819D01*
X119113988Y-81755819D02*
X119256845Y-81803438D01*
X119590179Y-81755819D02*
X119828274Y-82755819D01*
X119828274Y-82755819D02*
X120018750Y-82041533D01*
X120018750Y-82041533D02*
X120209226Y-82755819D01*
X120209226Y-82755819D02*
X120447322Y-81755819D01*
X121352083Y-82755819D02*
X120780655Y-82755819D01*
X121066369Y-82755819D02*
X121066369Y-81755819D01*
X121066369Y-81755819D02*
X120971131Y-81898676D01*
X120971131Y-81898676D02*
X120875893Y-81993914D01*
X120875893Y-81993914D02*
X120780655Y-82041533D01*
X114261905Y-101454819D02*
X114261905Y-100454819D01*
X114261905Y-100454819D02*
X114500000Y-100454819D01*
X114500000Y-100454819D02*
X114642857Y-100502438D01*
X114642857Y-100502438D02*
X114738095Y-100597676D01*
X114738095Y-100597676D02*
X114785714Y-100692914D01*
X114785714Y-100692914D02*
X114833333Y-100883390D01*
X114833333Y-100883390D02*
X114833333Y-101026247D01*
X114833333Y-101026247D02*
X114785714Y-101216723D01*
X114785714Y-101216723D02*
X114738095Y-101311961D01*
X114738095Y-101311961D02*
X114642857Y-101407200D01*
X114642857Y-101407200D02*
X114500000Y-101454819D01*
X114500000Y-101454819D02*
X114261905Y-101454819D01*
X115785714Y-101454819D02*
X115214286Y-101454819D01*
X115500000Y-101454819D02*
X115500000Y-100454819D01*
X115500000Y-100454819D02*
X115404762Y-100597676D01*
X115404762Y-100597676D02*
X115309524Y-100692914D01*
X115309524Y-100692914D02*
X115214286Y-100740533D01*
X115228571Y-99362295D02*
X114771428Y-99362295D01*
X115000000Y-99362295D02*
X115000000Y-98562295D01*
X115000000Y-98562295D02*
X114923809Y-98676580D01*
X114923809Y-98676580D02*
X114847619Y-98752771D01*
X114847619Y-98752771D02*
X114771428Y-98790866D01*
X138035714Y-122204819D02*
X138035714Y-121204819D01*
X138035714Y-121204819D02*
X138273809Y-121204819D01*
X138273809Y-121204819D02*
X138416666Y-121252438D01*
X138416666Y-121252438D02*
X138511904Y-121347676D01*
X138511904Y-121347676D02*
X138559523Y-121442914D01*
X138559523Y-121442914D02*
X138607142Y-121633390D01*
X138607142Y-121633390D02*
X138607142Y-121776247D01*
X138607142Y-121776247D02*
X138559523Y-121966723D01*
X138559523Y-121966723D02*
X138511904Y-122061961D01*
X138511904Y-122061961D02*
X138416666Y-122157200D01*
X138416666Y-122157200D02*
X138273809Y-122204819D01*
X138273809Y-122204819D02*
X138035714Y-122204819D01*
X139559523Y-122204819D02*
X138988095Y-122204819D01*
X139273809Y-122204819D02*
X139273809Y-121204819D01*
X139273809Y-121204819D02*
X139178571Y-121347676D01*
X139178571Y-121347676D02*
X139083333Y-121442914D01*
X139083333Y-121442914D02*
X138988095Y-121490533D01*
X139940476Y-121300057D02*
X139988095Y-121252438D01*
X139988095Y-121252438D02*
X140083333Y-121204819D01*
X140083333Y-121204819D02*
X140321428Y-121204819D01*
X140321428Y-121204819D02*
X140416666Y-121252438D01*
X140416666Y-121252438D02*
X140464285Y-121300057D01*
X140464285Y-121300057D02*
X140511904Y-121395295D01*
X140511904Y-121395295D02*
X140511904Y-121490533D01*
X140511904Y-121490533D02*
X140464285Y-121633390D01*
X140464285Y-121633390D02*
X139892857Y-122204819D01*
X139892857Y-122204819D02*
X140511904Y-122204819D01*
X142221428Y-119512704D02*
X142678571Y-119512704D01*
X142449999Y-119512704D02*
X142449999Y-120312704D01*
X142449999Y-120312704D02*
X142526190Y-120198419D01*
X142526190Y-120198419D02*
X142602380Y-120122228D01*
X142602380Y-120122228D02*
X142678571Y-120084133D01*
D13*
X93653479Y-110483809D02*
X94167526Y-110483809D01*
X94167526Y-110483809D02*
X94228002Y-110453571D01*
X94228002Y-110453571D02*
X94258241Y-110423333D01*
X94258241Y-110423333D02*
X94288479Y-110362857D01*
X94288479Y-110362857D02*
X94288479Y-110241904D01*
X94288479Y-110241904D02*
X94258241Y-110181428D01*
X94258241Y-110181428D02*
X94228002Y-110151190D01*
X94228002Y-110151190D02*
X94167526Y-110120952D01*
X94167526Y-110120952D02*
X93653479Y-110120952D01*
X94288479Y-109485952D02*
X94288479Y-109848809D01*
X94288479Y-109667381D02*
X93653479Y-109667381D01*
X93653479Y-109667381D02*
X93744193Y-109727857D01*
X93744193Y-109727857D02*
X93804669Y-109788333D01*
X93804669Y-109788333D02*
X93834907Y-109848809D01*
D12*
X118666667Y-105407200D02*
X118809524Y-105454819D01*
X118809524Y-105454819D02*
X119047619Y-105454819D01*
X119047619Y-105454819D02*
X119142857Y-105407200D01*
X119142857Y-105407200D02*
X119190476Y-105359580D01*
X119190476Y-105359580D02*
X119238095Y-105264342D01*
X119238095Y-105264342D02*
X119238095Y-105169104D01*
X119238095Y-105169104D02*
X119190476Y-105073866D01*
X119190476Y-105073866D02*
X119142857Y-105026247D01*
X119142857Y-105026247D02*
X119047619Y-104978628D01*
X119047619Y-104978628D02*
X118857143Y-104931009D01*
X118857143Y-104931009D02*
X118761905Y-104883390D01*
X118761905Y-104883390D02*
X118714286Y-104835771D01*
X118714286Y-104835771D02*
X118666667Y-104740533D01*
X118666667Y-104740533D02*
X118666667Y-104645295D01*
X118666667Y-104645295D02*
X118714286Y-104550057D01*
X118714286Y-104550057D02*
X118761905Y-104502438D01*
X118761905Y-104502438D02*
X118857143Y-104454819D01*
X118857143Y-104454819D02*
X119095238Y-104454819D01*
X119095238Y-104454819D02*
X119238095Y-104502438D01*
X119571429Y-104454819D02*
X119809524Y-105454819D01*
X119809524Y-105454819D02*
X120000000Y-104740533D01*
X120000000Y-104740533D02*
X120190476Y-105454819D01*
X120190476Y-105454819D02*
X120428572Y-104454819D01*
X120761905Y-104550057D02*
X120809524Y-104502438D01*
X120809524Y-104502438D02*
X120904762Y-104454819D01*
X120904762Y-104454819D02*
X121142857Y-104454819D01*
X121142857Y-104454819D02*
X121238095Y-104502438D01*
X121238095Y-104502438D02*
X121285714Y-104550057D01*
X121285714Y-104550057D02*
X121333333Y-104645295D01*
X121333333Y-104645295D02*
X121333333Y-104740533D01*
X121333333Y-104740533D02*
X121285714Y-104883390D01*
X121285714Y-104883390D02*
X120714286Y-105454819D01*
X120714286Y-105454819D02*
X121333333Y-105454819D01*
X165439819Y-67308333D02*
X166154104Y-67308333D01*
X166154104Y-67308333D02*
X166296961Y-67355952D01*
X166296961Y-67355952D02*
X166392200Y-67451190D01*
X166392200Y-67451190D02*
X166439819Y-67594047D01*
X166439819Y-67594047D02*
X166439819Y-67689285D01*
X166439819Y-66308333D02*
X166439819Y-66879761D01*
X166439819Y-66594047D02*
X165439819Y-66594047D01*
X165439819Y-66594047D02*
X165582676Y-66689285D01*
X165582676Y-66689285D02*
X165677914Y-66784523D01*
X165677914Y-66784523D02*
X165725533Y-66879761D01*
X144956428Y-66339819D02*
X145146904Y-66339819D01*
X145146904Y-66339819D02*
X145242142Y-66387438D01*
X145242142Y-66387438D02*
X145337380Y-66482676D01*
X145337380Y-66482676D02*
X145384999Y-66673152D01*
X145384999Y-66673152D02*
X145384999Y-67006485D01*
X145384999Y-67006485D02*
X145337380Y-67196961D01*
X145337380Y-67196961D02*
X145242142Y-67292200D01*
X145242142Y-67292200D02*
X145146904Y-67339819D01*
X145146904Y-67339819D02*
X144956428Y-67339819D01*
X144956428Y-67339819D02*
X144861190Y-67292200D01*
X144861190Y-67292200D02*
X144765952Y-67196961D01*
X144765952Y-67196961D02*
X144718333Y-67006485D01*
X144718333Y-67006485D02*
X144718333Y-66673152D01*
X144718333Y-66673152D02*
X144765952Y-66482676D01*
X144765952Y-66482676D02*
X144861190Y-66387438D01*
X144861190Y-66387438D02*
X144956428Y-66339819D01*
X146289761Y-67339819D02*
X145813571Y-67339819D01*
X145813571Y-67339819D02*
X145813571Y-66339819D01*
X146623095Y-66816009D02*
X146956428Y-66816009D01*
X147099285Y-67339819D02*
X146623095Y-67339819D01*
X146623095Y-67339819D02*
X146623095Y-66339819D01*
X146623095Y-66339819D02*
X147099285Y-66339819D01*
X147527857Y-67339819D02*
X147527857Y-66339819D01*
X147527857Y-66339819D02*
X147765952Y-66339819D01*
X147765952Y-66339819D02*
X147908809Y-66387438D01*
X147908809Y-66387438D02*
X148004047Y-66482676D01*
X148004047Y-66482676D02*
X148051666Y-66577914D01*
X148051666Y-66577914D02*
X148099285Y-66768390D01*
X148099285Y-66768390D02*
X148099285Y-66911247D01*
X148099285Y-66911247D02*
X148051666Y-67101723D01*
X148051666Y-67101723D02*
X148004047Y-67196961D01*
X148004047Y-67196961D02*
X147908809Y-67292200D01*
X147908809Y-67292200D02*
X147765952Y-67339819D01*
X147765952Y-67339819D02*
X147527857Y-67339819D01*
X149289762Y-67339819D02*
X149289762Y-66339819D01*
X149289762Y-66339819D02*
X149670714Y-66339819D01*
X149670714Y-66339819D02*
X149765952Y-66387438D01*
X149765952Y-66387438D02*
X149813571Y-66435057D01*
X149813571Y-66435057D02*
X149861190Y-66530295D01*
X149861190Y-66530295D02*
X149861190Y-66673152D01*
X149861190Y-66673152D02*
X149813571Y-66768390D01*
X149813571Y-66768390D02*
X149765952Y-66816009D01*
X149765952Y-66816009D02*
X149670714Y-66863628D01*
X149670714Y-66863628D02*
X149289762Y-66863628D01*
X150718333Y-67339819D02*
X150718333Y-66816009D01*
X150718333Y-66816009D02*
X150670714Y-66720771D01*
X150670714Y-66720771D02*
X150575476Y-66673152D01*
X150575476Y-66673152D02*
X150385000Y-66673152D01*
X150385000Y-66673152D02*
X150289762Y-66720771D01*
X150718333Y-67292200D02*
X150623095Y-67339819D01*
X150623095Y-67339819D02*
X150385000Y-67339819D01*
X150385000Y-67339819D02*
X150289762Y-67292200D01*
X150289762Y-67292200D02*
X150242143Y-67196961D01*
X150242143Y-67196961D02*
X150242143Y-67101723D01*
X150242143Y-67101723D02*
X150289762Y-67006485D01*
X150289762Y-67006485D02*
X150385000Y-66958866D01*
X150385000Y-66958866D02*
X150623095Y-66958866D01*
X150623095Y-66958866D02*
X150718333Y-66911247D01*
X151194524Y-66673152D02*
X151194524Y-67339819D01*
X151194524Y-66768390D02*
X151242143Y-66720771D01*
X151242143Y-66720771D02*
X151337381Y-66673152D01*
X151337381Y-66673152D02*
X151480238Y-66673152D01*
X151480238Y-66673152D02*
X151575476Y-66720771D01*
X151575476Y-66720771D02*
X151623095Y-66816009D01*
X151623095Y-66816009D02*
X151623095Y-67339819D01*
X152480238Y-67292200D02*
X152385000Y-67339819D01*
X152385000Y-67339819D02*
X152194524Y-67339819D01*
X152194524Y-67339819D02*
X152099286Y-67292200D01*
X152099286Y-67292200D02*
X152051667Y-67196961D01*
X152051667Y-67196961D02*
X152051667Y-66816009D01*
X152051667Y-66816009D02*
X152099286Y-66720771D01*
X152099286Y-66720771D02*
X152194524Y-66673152D01*
X152194524Y-66673152D02*
X152385000Y-66673152D01*
X152385000Y-66673152D02*
X152480238Y-66720771D01*
X152480238Y-66720771D02*
X152527857Y-66816009D01*
X152527857Y-66816009D02*
X152527857Y-66911247D01*
X152527857Y-66911247D02*
X152051667Y-67006485D01*
X153099286Y-67339819D02*
X153004048Y-67292200D01*
X153004048Y-67292200D02*
X152956429Y-67196961D01*
X152956429Y-67196961D02*
X152956429Y-66339819D01*
X133688450Y-63985713D02*
X133724164Y-63878571D01*
X133724164Y-63878571D02*
X133724164Y-63699999D01*
X133724164Y-63699999D02*
X133688450Y-63628571D01*
X133688450Y-63628571D02*
X133652735Y-63592856D01*
X133652735Y-63592856D02*
X133581307Y-63557142D01*
X133581307Y-63557142D02*
X133509878Y-63557142D01*
X133509878Y-63557142D02*
X133438450Y-63592856D01*
X133438450Y-63592856D02*
X133402735Y-63628571D01*
X133402735Y-63628571D02*
X133367021Y-63699999D01*
X133367021Y-63699999D02*
X133331307Y-63842856D01*
X133331307Y-63842856D02*
X133295592Y-63914285D01*
X133295592Y-63914285D02*
X133259878Y-63949999D01*
X133259878Y-63949999D02*
X133188450Y-63985713D01*
X133188450Y-63985713D02*
X133117021Y-63985713D01*
X133117021Y-63985713D02*
X133045592Y-63949999D01*
X133045592Y-63949999D02*
X133009878Y-63914285D01*
X133009878Y-63914285D02*
X132974164Y-63842856D01*
X132974164Y-63842856D02*
X132974164Y-63664285D01*
X132974164Y-63664285D02*
X133009878Y-63557142D01*
X133724164Y-63235713D02*
X132974164Y-63235713D01*
X132974164Y-63235713D02*
X132974164Y-63057142D01*
X132974164Y-63057142D02*
X133009878Y-62949999D01*
X133009878Y-62949999D02*
X133081307Y-62878570D01*
X133081307Y-62878570D02*
X133152735Y-62842856D01*
X133152735Y-62842856D02*
X133295592Y-62807142D01*
X133295592Y-62807142D02*
X133402735Y-62807142D01*
X133402735Y-62807142D02*
X133545592Y-62842856D01*
X133545592Y-62842856D02*
X133617021Y-62878570D01*
X133617021Y-62878570D02*
X133688450Y-62949999D01*
X133688450Y-62949999D02*
X133724164Y-63057142D01*
X133724164Y-63057142D02*
X133724164Y-63235713D01*
X133509878Y-62521427D02*
X133509878Y-62164285D01*
X133724164Y-62592856D02*
X132974164Y-62342856D01*
X132974164Y-62342856D02*
X133724164Y-62092856D01*
X133009878Y-71266428D02*
X132974164Y-71337857D01*
X132974164Y-71337857D02*
X132974164Y-71444999D01*
X132974164Y-71444999D02*
X133009878Y-71552142D01*
X133009878Y-71552142D02*
X133081307Y-71623571D01*
X133081307Y-71623571D02*
X133152735Y-71659285D01*
X133152735Y-71659285D02*
X133295592Y-71694999D01*
X133295592Y-71694999D02*
X133402735Y-71694999D01*
X133402735Y-71694999D02*
X133545592Y-71659285D01*
X133545592Y-71659285D02*
X133617021Y-71623571D01*
X133617021Y-71623571D02*
X133688450Y-71552142D01*
X133688450Y-71552142D02*
X133724164Y-71444999D01*
X133724164Y-71444999D02*
X133724164Y-71373571D01*
X133724164Y-71373571D02*
X133688450Y-71266428D01*
X133688450Y-71266428D02*
X133652735Y-71230714D01*
X133652735Y-71230714D02*
X133402735Y-71230714D01*
X133402735Y-71230714D02*
X133402735Y-71373571D01*
X133724164Y-70909285D02*
X132974164Y-70909285D01*
X132974164Y-70909285D02*
X133724164Y-70480714D01*
X133724164Y-70480714D02*
X132974164Y-70480714D01*
X133724164Y-70123571D02*
X132974164Y-70123571D01*
X132974164Y-70123571D02*
X132974164Y-69945000D01*
X132974164Y-69945000D02*
X133009878Y-69837857D01*
X133009878Y-69837857D02*
X133081307Y-69766428D01*
X133081307Y-69766428D02*
X133152735Y-69730714D01*
X133152735Y-69730714D02*
X133295592Y-69695000D01*
X133295592Y-69695000D02*
X133402735Y-69695000D01*
X133402735Y-69695000D02*
X133545592Y-69730714D01*
X133545592Y-69730714D02*
X133617021Y-69766428D01*
X133617021Y-69766428D02*
X133688450Y-69837857D01*
X133688450Y-69837857D02*
X133724164Y-69945000D01*
X133724164Y-69945000D02*
X133724164Y-70123571D01*
X132974164Y-69154999D02*
X133724164Y-68904999D01*
X133724164Y-68904999D02*
X132974164Y-68654999D01*
X133652735Y-67976428D02*
X133688450Y-68012142D01*
X133688450Y-68012142D02*
X133724164Y-68119285D01*
X133724164Y-68119285D02*
X133724164Y-68190713D01*
X133724164Y-68190713D02*
X133688450Y-68297856D01*
X133688450Y-68297856D02*
X133617021Y-68369285D01*
X133617021Y-68369285D02*
X133545592Y-68404999D01*
X133545592Y-68404999D02*
X133402735Y-68440713D01*
X133402735Y-68440713D02*
X133295592Y-68440713D01*
X133295592Y-68440713D02*
X133152735Y-68404999D01*
X133152735Y-68404999D02*
X133081307Y-68369285D01*
X133081307Y-68369285D02*
X133009878Y-68297856D01*
X133009878Y-68297856D02*
X132974164Y-68190713D01*
X132974164Y-68190713D02*
X132974164Y-68119285D01*
X132974164Y-68119285D02*
X133009878Y-68012142D01*
X133009878Y-68012142D02*
X133045592Y-67976428D01*
X133652735Y-67226428D02*
X133688450Y-67262142D01*
X133688450Y-67262142D02*
X133724164Y-67369285D01*
X133724164Y-67369285D02*
X133724164Y-67440713D01*
X133724164Y-67440713D02*
X133688450Y-67547856D01*
X133688450Y-67547856D02*
X133617021Y-67619285D01*
X133617021Y-67619285D02*
X133545592Y-67654999D01*
X133545592Y-67654999D02*
X133402735Y-67690713D01*
X133402735Y-67690713D02*
X133295592Y-67690713D01*
X133295592Y-67690713D02*
X133152735Y-67654999D01*
X133152735Y-67654999D02*
X133081307Y-67619285D01*
X133081307Y-67619285D02*
X133009878Y-67547856D01*
X133009878Y-67547856D02*
X132974164Y-67440713D01*
X132974164Y-67440713D02*
X132974164Y-67369285D01*
X132974164Y-67369285D02*
X133009878Y-67262142D01*
X133009878Y-67262142D02*
X133045592Y-67226428D01*
X156785714Y-122204819D02*
X156785714Y-121204819D01*
X156785714Y-121204819D02*
X157023809Y-121204819D01*
X157023809Y-121204819D02*
X157166666Y-121252438D01*
X157166666Y-121252438D02*
X157261904Y-121347676D01*
X157261904Y-121347676D02*
X157309523Y-121442914D01*
X157309523Y-121442914D02*
X157357142Y-121633390D01*
X157357142Y-121633390D02*
X157357142Y-121776247D01*
X157357142Y-121776247D02*
X157309523Y-121966723D01*
X157309523Y-121966723D02*
X157261904Y-122061961D01*
X157261904Y-122061961D02*
X157166666Y-122157200D01*
X157166666Y-122157200D02*
X157023809Y-122204819D01*
X157023809Y-122204819D02*
X156785714Y-122204819D01*
X158309523Y-122204819D02*
X157738095Y-122204819D01*
X158023809Y-122204819D02*
X158023809Y-121204819D01*
X158023809Y-121204819D02*
X157928571Y-121347676D01*
X157928571Y-121347676D02*
X157833333Y-121442914D01*
X157833333Y-121442914D02*
X157738095Y-121490533D01*
X159261904Y-122204819D02*
X158690476Y-122204819D01*
X158976190Y-122204819D02*
X158976190Y-121204819D01*
X158976190Y-121204819D02*
X158880952Y-121347676D01*
X158880952Y-121347676D02*
X158785714Y-121442914D01*
X158785714Y-121442914D02*
X158690476Y-121490533D01*
X160971428Y-119512704D02*
X161428571Y-119512704D01*
X161199999Y-119512704D02*
X161199999Y-120312704D01*
X161199999Y-120312704D02*
X161276190Y-120198419D01*
X161276190Y-120198419D02*
X161352380Y-120122228D01*
X161352380Y-120122228D02*
X161428571Y-120084133D01*
X151785714Y-101454819D02*
X151785714Y-100454819D01*
X151785714Y-100454819D02*
X152023809Y-100454819D01*
X152023809Y-100454819D02*
X152166666Y-100502438D01*
X152166666Y-100502438D02*
X152261904Y-100597676D01*
X152261904Y-100597676D02*
X152309523Y-100692914D01*
X152309523Y-100692914D02*
X152357142Y-100883390D01*
X152357142Y-100883390D02*
X152357142Y-101026247D01*
X152357142Y-101026247D02*
X152309523Y-101216723D01*
X152309523Y-101216723D02*
X152261904Y-101311961D01*
X152261904Y-101311961D02*
X152166666Y-101407200D01*
X152166666Y-101407200D02*
X152023809Y-101454819D01*
X152023809Y-101454819D02*
X151785714Y-101454819D01*
X153309523Y-101454819D02*
X152738095Y-101454819D01*
X153023809Y-101454819D02*
X153023809Y-100454819D01*
X153023809Y-100454819D02*
X152928571Y-100597676D01*
X152928571Y-100597676D02*
X152833333Y-100692914D01*
X152833333Y-100692914D02*
X152738095Y-100740533D01*
X153928571Y-100454819D02*
X154023809Y-100454819D01*
X154023809Y-100454819D02*
X154119047Y-100502438D01*
X154119047Y-100502438D02*
X154166666Y-100550057D01*
X154166666Y-100550057D02*
X154214285Y-100645295D01*
X154214285Y-100645295D02*
X154261904Y-100835771D01*
X154261904Y-100835771D02*
X154261904Y-101073866D01*
X154261904Y-101073866D02*
X154214285Y-101264342D01*
X154214285Y-101264342D02*
X154166666Y-101359580D01*
X154166666Y-101359580D02*
X154119047Y-101407200D01*
X154119047Y-101407200D02*
X154023809Y-101454819D01*
X154023809Y-101454819D02*
X153928571Y-101454819D01*
X153928571Y-101454819D02*
X153833333Y-101407200D01*
X153833333Y-101407200D02*
X153785714Y-101359580D01*
X153785714Y-101359580D02*
X153738095Y-101264342D01*
X153738095Y-101264342D02*
X153690476Y-101073866D01*
X153690476Y-101073866D02*
X153690476Y-100835771D01*
X153690476Y-100835771D02*
X153738095Y-100645295D01*
X153738095Y-100645295D02*
X153785714Y-100550057D01*
X153785714Y-100550057D02*
X153833333Y-100502438D01*
X153833333Y-100502438D02*
X153928571Y-100454819D01*
X154228571Y-99362295D02*
X153771428Y-99362295D01*
X154000000Y-99362295D02*
X154000000Y-98562295D01*
X154000000Y-98562295D02*
X153923809Y-98676580D01*
X153923809Y-98676580D02*
X153847619Y-98752771D01*
X153847619Y-98752771D02*
X153771428Y-98790866D01*
X137735417Y-82708200D02*
X137878274Y-82755819D01*
X137878274Y-82755819D02*
X138116369Y-82755819D01*
X138116369Y-82755819D02*
X138211607Y-82708200D01*
X138211607Y-82708200D02*
X138259226Y-82660580D01*
X138259226Y-82660580D02*
X138306845Y-82565342D01*
X138306845Y-82565342D02*
X138306845Y-82470104D01*
X138306845Y-82470104D02*
X138259226Y-82374866D01*
X138259226Y-82374866D02*
X138211607Y-82327247D01*
X138211607Y-82327247D02*
X138116369Y-82279628D01*
X138116369Y-82279628D02*
X137925893Y-82232009D01*
X137925893Y-82232009D02*
X137830655Y-82184390D01*
X137830655Y-82184390D02*
X137783036Y-82136771D01*
X137783036Y-82136771D02*
X137735417Y-82041533D01*
X137735417Y-82041533D02*
X137735417Y-81946295D01*
X137735417Y-81946295D02*
X137783036Y-81851057D01*
X137783036Y-81851057D02*
X137830655Y-81803438D01*
X137830655Y-81803438D02*
X137925893Y-81755819D01*
X137925893Y-81755819D02*
X138163988Y-81755819D01*
X138163988Y-81755819D02*
X138306845Y-81803438D01*
X138640179Y-81755819D02*
X138878274Y-82755819D01*
X138878274Y-82755819D02*
X139068750Y-82041533D01*
X139068750Y-82041533D02*
X139259226Y-82755819D01*
X139259226Y-82755819D02*
X139497322Y-81755819D01*
X140306845Y-82089152D02*
X140306845Y-82755819D01*
X140068750Y-81708200D02*
X139830655Y-82422485D01*
X139830655Y-82422485D02*
X140449702Y-82422485D01*
X134261905Y-101454819D02*
X134261905Y-100454819D01*
X134261905Y-100454819D02*
X134500000Y-100454819D01*
X134500000Y-100454819D02*
X134642857Y-100502438D01*
X134642857Y-100502438D02*
X134738095Y-100597676D01*
X134738095Y-100597676D02*
X134785714Y-100692914D01*
X134785714Y-100692914D02*
X134833333Y-100883390D01*
X134833333Y-100883390D02*
X134833333Y-101026247D01*
X134833333Y-101026247D02*
X134785714Y-101216723D01*
X134785714Y-101216723D02*
X134738095Y-101311961D01*
X134738095Y-101311961D02*
X134642857Y-101407200D01*
X134642857Y-101407200D02*
X134500000Y-101454819D01*
X134500000Y-101454819D02*
X134261905Y-101454819D01*
X135690476Y-100454819D02*
X135500000Y-100454819D01*
X135500000Y-100454819D02*
X135404762Y-100502438D01*
X135404762Y-100502438D02*
X135357143Y-100550057D01*
X135357143Y-100550057D02*
X135261905Y-100692914D01*
X135261905Y-100692914D02*
X135214286Y-100883390D01*
X135214286Y-100883390D02*
X135214286Y-101264342D01*
X135214286Y-101264342D02*
X135261905Y-101359580D01*
X135261905Y-101359580D02*
X135309524Y-101407200D01*
X135309524Y-101407200D02*
X135404762Y-101454819D01*
X135404762Y-101454819D02*
X135595238Y-101454819D01*
X135595238Y-101454819D02*
X135690476Y-101407200D01*
X135690476Y-101407200D02*
X135738095Y-101359580D01*
X135738095Y-101359580D02*
X135785714Y-101264342D01*
X135785714Y-101264342D02*
X135785714Y-101026247D01*
X135785714Y-101026247D02*
X135738095Y-100931009D01*
X135738095Y-100931009D02*
X135690476Y-100883390D01*
X135690476Y-100883390D02*
X135595238Y-100835771D01*
X135595238Y-100835771D02*
X135404762Y-100835771D01*
X135404762Y-100835771D02*
X135309524Y-100883390D01*
X135309524Y-100883390D02*
X135261905Y-100931009D01*
X135261905Y-100931009D02*
X135214286Y-101026247D01*
X135228571Y-99362295D02*
X134771428Y-99362295D01*
X135000000Y-99362295D02*
X135000000Y-98562295D01*
X135000000Y-98562295D02*
X134923809Y-98676580D01*
X134923809Y-98676580D02*
X134847619Y-98752771D01*
X134847619Y-98752771D02*
X134771428Y-98790866D01*
X156785417Y-106407200D02*
X156928274Y-106454819D01*
X156928274Y-106454819D02*
X157166369Y-106454819D01*
X157166369Y-106454819D02*
X157261607Y-106407200D01*
X157261607Y-106407200D02*
X157309226Y-106359580D01*
X157309226Y-106359580D02*
X157356845Y-106264342D01*
X157356845Y-106264342D02*
X157356845Y-106169104D01*
X157356845Y-106169104D02*
X157309226Y-106073866D01*
X157309226Y-106073866D02*
X157261607Y-106026247D01*
X157261607Y-106026247D02*
X157166369Y-105978628D01*
X157166369Y-105978628D02*
X156975893Y-105931009D01*
X156975893Y-105931009D02*
X156880655Y-105883390D01*
X156880655Y-105883390D02*
X156833036Y-105835771D01*
X156833036Y-105835771D02*
X156785417Y-105740533D01*
X156785417Y-105740533D02*
X156785417Y-105645295D01*
X156785417Y-105645295D02*
X156833036Y-105550057D01*
X156833036Y-105550057D02*
X156880655Y-105502438D01*
X156880655Y-105502438D02*
X156975893Y-105454819D01*
X156975893Y-105454819D02*
X157213988Y-105454819D01*
X157213988Y-105454819D02*
X157356845Y-105502438D01*
X157690179Y-105454819D02*
X157928274Y-106454819D01*
X157928274Y-106454819D02*
X158118750Y-105740533D01*
X158118750Y-105740533D02*
X158309226Y-106454819D01*
X158309226Y-106454819D02*
X158547322Y-105454819D01*
X159071131Y-105883390D02*
X158975893Y-105835771D01*
X158975893Y-105835771D02*
X158928274Y-105788152D01*
X158928274Y-105788152D02*
X158880655Y-105692914D01*
X158880655Y-105692914D02*
X158880655Y-105645295D01*
X158880655Y-105645295D02*
X158928274Y-105550057D01*
X158928274Y-105550057D02*
X158975893Y-105502438D01*
X158975893Y-105502438D02*
X159071131Y-105454819D01*
X159071131Y-105454819D02*
X159261607Y-105454819D01*
X159261607Y-105454819D02*
X159356845Y-105502438D01*
X159356845Y-105502438D02*
X159404464Y-105550057D01*
X159404464Y-105550057D02*
X159452083Y-105645295D01*
X159452083Y-105645295D02*
X159452083Y-105692914D01*
X159452083Y-105692914D02*
X159404464Y-105788152D01*
X159404464Y-105788152D02*
X159356845Y-105835771D01*
X159356845Y-105835771D02*
X159261607Y-105883390D01*
X159261607Y-105883390D02*
X159071131Y-105883390D01*
X159071131Y-105883390D02*
X158975893Y-105931009D01*
X158975893Y-105931009D02*
X158928274Y-105978628D01*
X158928274Y-105978628D02*
X158880655Y-106073866D01*
X158880655Y-106073866D02*
X158880655Y-106264342D01*
X158880655Y-106264342D02*
X158928274Y-106359580D01*
X158928274Y-106359580D02*
X158975893Y-106407200D01*
X158975893Y-106407200D02*
X159071131Y-106454819D01*
X159071131Y-106454819D02*
X159261607Y-106454819D01*
X159261607Y-106454819D02*
X159356845Y-106407200D01*
X159356845Y-106407200D02*
X159404464Y-106359580D01*
X159404464Y-106359580D02*
X159452083Y-106264342D01*
X159452083Y-106264342D02*
X159452083Y-106073866D01*
X159452083Y-106073866D02*
X159404464Y-105978628D01*
X159404464Y-105978628D02*
X159356845Y-105931009D01*
X159356845Y-105931009D02*
X159261607Y-105883390D01*
X156785417Y-82708200D02*
X156928274Y-82755819D01*
X156928274Y-82755819D02*
X157166369Y-82755819D01*
X157166369Y-82755819D02*
X157261607Y-82708200D01*
X157261607Y-82708200D02*
X157309226Y-82660580D01*
X157309226Y-82660580D02*
X157356845Y-82565342D01*
X157356845Y-82565342D02*
X157356845Y-82470104D01*
X157356845Y-82470104D02*
X157309226Y-82374866D01*
X157309226Y-82374866D02*
X157261607Y-82327247D01*
X157261607Y-82327247D02*
X157166369Y-82279628D01*
X157166369Y-82279628D02*
X156975893Y-82232009D01*
X156975893Y-82232009D02*
X156880655Y-82184390D01*
X156880655Y-82184390D02*
X156833036Y-82136771D01*
X156833036Y-82136771D02*
X156785417Y-82041533D01*
X156785417Y-82041533D02*
X156785417Y-81946295D01*
X156785417Y-81946295D02*
X156833036Y-81851057D01*
X156833036Y-81851057D02*
X156880655Y-81803438D01*
X156880655Y-81803438D02*
X156975893Y-81755819D01*
X156975893Y-81755819D02*
X157213988Y-81755819D01*
X157213988Y-81755819D02*
X157356845Y-81803438D01*
X157690179Y-81755819D02*
X157928274Y-82755819D01*
X157928274Y-82755819D02*
X158118750Y-82041533D01*
X158118750Y-82041533D02*
X158309226Y-82755819D01*
X158309226Y-82755819D02*
X158547322Y-81755819D01*
X159356845Y-81755819D02*
X159166369Y-81755819D01*
X159166369Y-81755819D02*
X159071131Y-81803438D01*
X159071131Y-81803438D02*
X159023512Y-81851057D01*
X159023512Y-81851057D02*
X158928274Y-81993914D01*
X158928274Y-81993914D02*
X158880655Y-82184390D01*
X158880655Y-82184390D02*
X158880655Y-82565342D01*
X158880655Y-82565342D02*
X158928274Y-82660580D01*
X158928274Y-82660580D02*
X158975893Y-82708200D01*
X158975893Y-82708200D02*
X159071131Y-82755819D01*
X159071131Y-82755819D02*
X159261607Y-82755819D01*
X159261607Y-82755819D02*
X159356845Y-82708200D01*
X159356845Y-82708200D02*
X159404464Y-82660580D01*
X159404464Y-82660580D02*
X159452083Y-82565342D01*
X159452083Y-82565342D02*
X159452083Y-82327247D01*
X159452083Y-82327247D02*
X159404464Y-82232009D01*
X159404464Y-82232009D02*
X159356845Y-82184390D01*
X159356845Y-82184390D02*
X159261607Y-82136771D01*
X159261607Y-82136771D02*
X159071131Y-82136771D01*
X159071131Y-82136771D02*
X158975893Y-82184390D01*
X158975893Y-82184390D02*
X158928274Y-82232009D01*
X158928274Y-82232009D02*
X158880655Y-82327247D01*
D14*
%TO.C,SW7*%
X107700000Y-63400000D02*
X108300000Y-63400000D01*
X108000000Y-63700000D02*
X107700000Y-63400000D01*
X108300000Y-63400000D02*
X108000000Y-63700000D01*
X109400000Y-61600000D02*
X109400000Y-73400000D01*
X113500000Y-61600000D02*
X109400000Y-61600000D01*
X113500000Y-73400000D02*
X109400000Y-73400000D01*
X115000000Y-67500000D02*
X116000000Y-67500000D01*
X115500000Y-67000000D02*
X115500000Y-68000000D01*
X117500000Y-61600000D02*
X121600000Y-61600000D01*
X121600000Y-61600000D02*
X121600000Y-64000000D01*
X121600000Y-66200000D02*
X121600000Y-68800000D01*
X121600000Y-71000000D02*
X121600000Y-73400000D01*
X121600000Y-73400000D02*
X117500000Y-73400000D01*
X118500000Y-67500000D02*
G75*
G02*
X112500000Y-67500000I-3000000J0D01*
G01*
X112500000Y-67500000D02*
G75*
G02*
X118500000Y-67500000I3000000J0D01*
G01*
%TO.C,D2*%
X116450000Y-117600000D02*
X116450000Y-121000000D01*
X116450000Y-117600000D02*
X117050000Y-117000000D01*
X122050000Y-117000000D02*
X117050000Y-117000000D01*
X122050000Y-121000000D02*
X116450000Y-121000000D01*
X122050000Y-121000000D02*
X122050000Y-117000000D01*
%TO.C,SW5*%
X132083750Y-102240000D02*
X146053750Y-102240000D01*
X132083750Y-116210000D02*
X132083750Y-102240000D01*
X146053750Y-102240000D02*
X146053750Y-116210000D01*
X146053750Y-116210000D02*
X132083750Y-116210000D01*
%TO.C,SW1*%
X113033750Y-83190000D02*
X127003750Y-83190000D01*
X113033750Y-97160000D02*
X113033750Y-83190000D01*
X127003750Y-83190000D02*
X127003750Y-97160000D01*
X127003750Y-97160000D02*
X113033750Y-97160000D01*
%TO.C,D1*%
X116450000Y-97550000D02*
X116450000Y-101550000D01*
X116450000Y-97550000D02*
X122050000Y-97550000D01*
X116450000Y-101550000D02*
X121450000Y-101550000D01*
X122050000Y-100950000D02*
X121450000Y-101550000D01*
X122050000Y-100950000D02*
X122050000Y-97550000D01*
%TO.C,D12*%
X136450000Y-117600000D02*
X136450000Y-121000000D01*
X136450000Y-117600000D02*
X137050000Y-117000000D01*
X142050000Y-117000000D02*
X137050000Y-117000000D01*
X142050000Y-121000000D02*
X136450000Y-121000000D01*
X142050000Y-121000000D02*
X142050000Y-117000000D01*
D15*
%TO.C,U1*%
X77549000Y-113991272D02*
X77549000Y-105996000D01*
X78049000Y-105496000D02*
X78959000Y-105496000D01*
D10*
X78959000Y-103015000D02*
X78959000Y-116985000D01*
D15*
X78959000Y-103015000D02*
X78959000Y-116985000D01*
X78959000Y-114495000D02*
X78048728Y-114491272D01*
X98009000Y-101110000D02*
X80864000Y-101110000D01*
X98009000Y-118890000D02*
X80864000Y-118890000D01*
X99914000Y-116985000D02*
X99914000Y-103015000D01*
X77549000Y-105996000D02*
G75*
G02*
X78049000Y-105496000I500000J0D01*
G01*
X78048728Y-114491272D02*
G75*
G02*
X77549001Y-113991272I291J500018D01*
G01*
X78959000Y-103015000D02*
G75*
G02*
X80864000Y-101110000I1905000J0D01*
G01*
X80864000Y-118890000D02*
G75*
G02*
X78959000Y-116985000I1J1905001D01*
G01*
X98009000Y-101110000D02*
G75*
G02*
X99914000Y-103015000I0J-1905000D01*
G01*
X99914000Y-116985000D02*
G75*
G02*
X98009000Y-118890000I-1905001J1D01*
G01*
D16*
X79452000Y-118950000D02*
G75*
G02*
X78948000Y-118950000I-252000J0D01*
G01*
X78948000Y-118950000D02*
G75*
G02*
X79452000Y-118950000I252000J0D01*
G01*
X80332000Y-117807000D02*
G75*
G02*
X79828000Y-117807000I-252000J0D01*
G01*
X79828000Y-117807000D02*
G75*
G02*
X80332000Y-117807000I252000J0D01*
G01*
D14*
%TO.C,SW2*%
X113033750Y-102240000D02*
X127003750Y-102240000D01*
X113033750Y-116210000D02*
X113033750Y-102240000D01*
X127003750Y-102240000D02*
X127003750Y-116210000D01*
X127003750Y-116210000D02*
X113033750Y-116210000D01*
D17*
%TO.C,J1*%
X129885000Y-60885000D02*
X129885000Y-72885000D01*
X129885000Y-72885000D02*
X167885000Y-72885000D01*
X134885000Y-72885000D02*
X134885000Y-60885000D01*
X164385000Y-72885000D02*
X164385000Y-60885000D01*
X167885000Y-60885000D02*
X129885000Y-60885000D01*
X167885000Y-72885000D02*
X167885000Y-60885000D01*
D14*
%TO.C,D11*%
X155200000Y-117600000D02*
X155200000Y-121000000D01*
X155200000Y-117600000D02*
X155800000Y-117000000D01*
X160800000Y-117000000D02*
X155800000Y-117000000D01*
X160800000Y-121000000D02*
X155200000Y-121000000D01*
X160800000Y-121000000D02*
X160800000Y-117000000D01*
%TO.C,D10*%
X155200000Y-97550000D02*
X155200000Y-101550000D01*
X155200000Y-97550000D02*
X160800000Y-97550000D01*
X155200000Y-101550000D02*
X160200000Y-101550000D01*
X160800000Y-100950000D02*
X160200000Y-101550000D01*
X160800000Y-100950000D02*
X160800000Y-97550000D01*
%TO.C,SW4*%
X132083750Y-83190000D02*
X146053750Y-83190000D01*
X132083750Y-97160000D02*
X132083750Y-83190000D01*
X146053750Y-83190000D02*
X146053750Y-97160000D01*
X146053750Y-97160000D02*
X132083750Y-97160000D01*
%TO.C,D6*%
X136200000Y-97550000D02*
X136200000Y-101550000D01*
X136200000Y-97550000D02*
X141800000Y-97550000D01*
X136200000Y-101550000D02*
X141200000Y-101550000D01*
X141800000Y-100950000D02*
X141200000Y-101550000D01*
X141800000Y-100950000D02*
X141800000Y-97550000D01*
%TO.C,SW8*%
X151133750Y-102240000D02*
X165103750Y-102240000D01*
X151133750Y-116210000D02*
X151133750Y-102240000D01*
X165103750Y-102240000D02*
X165103750Y-116210000D01*
X165103750Y-116210000D02*
X151133750Y-116210000D01*
%TO.C,SW6*%
X151133750Y-83190000D02*
X165103750Y-83190000D01*
X151133750Y-97160000D02*
X151133750Y-83190000D01*
X165103750Y-83190000D02*
X165103750Y-97160000D01*
X165103750Y-97160000D02*
X151133750Y-97160000D01*
%TD*%
M02*
