%TF.GenerationSoftware,KiCad,Pcbnew,9.0.6*%
%TF.CreationDate,2025-11-19T10:04:25+06:00*%
%TF.ProjectId,MiniMicroG,4d696e69-4d69-4637-926f-472e6b696361,rev?*%
%TF.SameCoordinates,Original*%
%TF.FileFunction,Component,L2,Bot*%
%TF.FilePolarity,Positive*%
%FSLAX46Y46*%
G04 Gerber Fmt 4.6, Leading zero omitted, Abs format (unit mm)*
G04 Created by KiCad (PCBNEW 9.0.6) date 2025-11-19 10:04:25*
%MOMM*%
%LPD*%
G01*
G04 APERTURE LIST*
%TA.AperFunction,ComponentMain*%
%ADD10C,0.300000*%
%TD*%
%TA.AperFunction,ComponentOutline,Courtyard*%
%ADD11C,0.100000*%
%TD*%
%TA.AperFunction,ComponentPin*%
%ADD12P,0.360000X4X0.000000*%
%TD*%
%TA.AperFunction,ComponentPin*%
%ADD13C,0.100000*%
%TD*%
G04 APERTURE END LIST*
D10*
%TO.C,D9*%
%TO.CFtp,D_DO-35_SOD27_P7.62mm_Horizontal*%
%TO.CVal,1N4148*%
%TO.CLbN,Diode_THT*%
%TO.CMnt,TH*%
%TO.CRot,-90*%
X149000000Y-113000000D03*
D11*
X150245000Y-104335000D02*
X150245000Y-114045000D01*
X147755000Y-114045000D01*
X147755000Y-104335000D01*
X150245000Y-104335000D01*
D12*
%TO.P,D9,1,K*%
X149000000Y-113000000D03*
D13*
%TO.P,D9,2,A*%
X149000000Y-105380000D03*
%TD*%
D10*
%TO.C,D5*%
%TO.CFtp,D_DO-35_SOD27_P7.62mm_Horizontal*%
%TO.CVal,1N4148*%
%TO.CLbN,Diode_THT*%
%TO.CMnt,TH*%
%TO.CRot,-90*%
X110000000Y-113000000D03*
D11*
X111245000Y-104335000D02*
X111245000Y-114045000D01*
X108755000Y-114045000D01*
X108755000Y-104335000D01*
X111245000Y-104335000D01*
D12*
%TO.P,D5,1,K*%
X110000000Y-113000000D03*
D13*
%TO.P,D5,2,A*%
X110000000Y-105380000D03*
%TD*%
D10*
%TO.C,D7*%
%TO.CFtp,D_DO-35_SOD27_P7.62mm_Horizontal*%
%TO.CVal,1N4148*%
%TO.CLbN,Diode_THT*%
%TO.CMnt,TH*%
%TO.CRot,-90*%
X130000000Y-95000000D03*
D11*
X131245000Y-86335000D02*
X131245000Y-96045000D01*
X128755000Y-96045000D01*
X128755000Y-86335000D01*
X131245000Y-86335000D01*
D12*
%TO.P,D7,1,K*%
X130000000Y-95000000D03*
D13*
%TO.P,D7,2,A*%
X130000000Y-87380000D03*
%TD*%
D10*
%TO.C,D8*%
%TO.CFtp,D_DO-35_SOD27_P7.62mm_Horizontal*%
%TO.CVal,1N4148*%
%TO.CLbN,Diode_THT*%
%TO.CMnt,TH*%
%TO.CRot,-90*%
X130000000Y-113000000D03*
D11*
X131245000Y-104335000D02*
X131245000Y-114045000D01*
X128755000Y-114045000D01*
X128755000Y-104335000D01*
X131245000Y-104335000D01*
D12*
%TO.P,D8,1,K*%
X130000000Y-113000000D03*
D13*
%TO.P,D8,2,A*%
X130000000Y-105380000D03*
%TD*%
D10*
%TO.C,D4*%
%TO.CFtp,D_DO-35_SOD27_P7.62mm_Horizontal*%
%TO.CVal,1N4148*%
%TO.CLbN,Diode_THT*%
%TO.CMnt,TH*%
%TO.CRot,-90*%
X110000000Y-95000000D03*
D11*
X111245000Y-86335000D02*
X111245000Y-96045000D01*
X108755000Y-96045000D01*
X108755000Y-86335000D01*
X111245000Y-86335000D01*
D12*
%TO.P,D4,1,K*%
X110000000Y-95000000D03*
D13*
%TO.P,D4,2,A*%
X110000000Y-87380000D03*
%TD*%
D10*
%TO.C,D3*%
%TO.CFtp,D_DO-35_SOD27_P7.62mm_Horizontal*%
%TO.CVal,1N4148*%
%TO.CLbN,Diode_THT*%
%TO.CMnt,TH*%
%TO.CRot,-90*%
X149000000Y-94810000D03*
D11*
X150245000Y-86145000D02*
X150245000Y-95855000D01*
X147755000Y-95855000D01*
X147755000Y-86145000D01*
X150245000Y-86145000D01*
D12*
%TO.P,D3,1,K*%
X149000000Y-94810000D03*
D13*
%TO.P,D3,2,A*%
X149000000Y-87190000D03*
%TD*%
M02*
