%TF.GenerationSoftware,KiCad,Pcbnew,9.0.6*%
%TF.CreationDate,2025-11-16T20:26:59+06:00*%
%TF.ProjectId,MiniMicroG,4d696e69-4d69-4637-926f-472e6b696361,rev?*%
%TF.SameCoordinates,Original*%
%TF.FileFunction,Soldermask,Top*%
%TF.FilePolarity,Negative*%
%FSLAX46Y46*%
G04 Gerber Fmt 4.6, Leading zero omitted, Abs format (unit mm)*
G04 Created by KiCad (PCBNEW 9.0.6) date 2025-11-16 20:26:59*
%MOMM*%
%LPD*%
G01*
G04 APERTURE LIST*
G04 Aperture macros list*
%AMRoundRect*
0 Rectangle with rounded corners*
0 $1 Rounding radius*
0 $2 $3 $4 $5 $6 $7 $8 $9 X,Y pos of 4 corners*
0 Add a 4 corners polygon primitive as box body*
4,1,4,$2,$3,$4,$5,$6,$7,$8,$9,$2,$3,0*
0 Add four circle primitives for the rounded corners*
1,1,$1+$1,$2,$3*
1,1,$1+$1,$4,$5*
1,1,$1+$1,$6,$7*
1,1,$1+$1,$8,$9*
0 Add four rect primitives between the rounded corners*
20,1,$1+$1,$2,$3,$4,$5,0*
20,1,$1+$1,$4,$5,$6,$7,0*
20,1,$1+$1,$6,$7,$8,$9,0*
20,1,$1+$1,$8,$9,$2,$3,0*%
G04 Aperture macros list end*
%ADD10R,2.000000X2.000000*%
%ADD11C,2.000000*%
%ADD12R,3.200000X2.000000*%
%ADD13R,1.600000X0.850000*%
%ADD14C,1.700000*%
%ADD15C,4.000000*%
%ADD16C,2.200000*%
%ADD17RoundRect,0.152400X-0.609600X1.063600X-0.609600X-1.063600X0.609600X-1.063600X0.609600X1.063600X0*%
%ADD18C,1.524000*%
%ADD19RoundRect,0.152400X0.609600X-1.063600X0.609600X1.063600X-0.609600X1.063600X-0.609600X-1.063600X0*%
%ADD20R,1.700000X1.700000*%
%ADD21O,1.700000X1.700000*%
%ADD22RoundRect,0.250000X0.550000X-0.550000X0.550000X0.550000X-0.550000X0.550000X-0.550000X-0.550000X0*%
%ADD23C,1.600000*%
G04 APERTURE END LIST*
D10*
%TO.C,SW7*%
X108000000Y-65000000D03*
D11*
X108000000Y-70000000D03*
X108000000Y-67500000D03*
D12*
X115500000Y-61900000D03*
X115500000Y-73100000D03*
D11*
X122500000Y-70000000D03*
X122500000Y-65000000D03*
%TD*%
D13*
%TO.C,D2*%
X121000000Y-119875000D03*
X121000000Y-118125000D03*
X117500000Y-118125000D03*
X117500000Y-119875000D03*
%TD*%
D14*
%TO.C,SW5*%
X133988750Y-109225000D03*
D15*
X139068750Y-109225000D03*
D14*
X144148750Y-109225000D03*
D16*
X141608750Y-104145000D03*
X135258750Y-106685000D03*
%TD*%
D14*
%TO.C,SW1*%
X114938750Y-90175000D03*
D15*
X120018750Y-90175000D03*
D14*
X125098750Y-90175000D03*
D16*
X122558750Y-85095000D03*
X116208750Y-87635000D03*
%TD*%
D13*
%TO.C,D12*%
X141000000Y-119875000D03*
X141000000Y-118125000D03*
X137500000Y-118125000D03*
X137500000Y-119875000D03*
%TD*%
D17*
%TO.C,U1*%
X81880000Y-118455000D03*
D18*
X81880000Y-117620000D03*
D17*
X84420000Y-118455000D03*
D18*
X84420000Y-117620000D03*
D17*
X86960000Y-118455000D03*
D18*
X86960000Y-117620000D03*
D17*
X89500000Y-118455000D03*
D18*
X89500000Y-117620000D03*
D17*
X92040000Y-118455000D03*
D18*
X92040000Y-117620000D03*
D17*
X94580000Y-118455000D03*
D18*
X94580000Y-117620000D03*
D17*
X97120000Y-118455000D03*
D18*
X97120000Y-117620000D03*
X97120000Y-102380000D03*
D19*
X97120000Y-101545000D03*
D18*
X94580000Y-102380000D03*
D19*
X94580000Y-101545000D03*
D18*
X92040000Y-102380000D03*
D19*
X92040000Y-101545000D03*
D18*
X89500000Y-102380000D03*
D19*
X89500000Y-101545000D03*
D18*
X86960000Y-102380000D03*
D19*
X86960000Y-101545000D03*
D18*
X84420000Y-102380000D03*
D19*
X84420000Y-101545000D03*
D18*
X81880000Y-102380000D03*
D19*
X81880000Y-101545000D03*
%TD*%
D14*
%TO.C,SW2*%
X114938750Y-109225000D03*
D15*
X120018750Y-109225000D03*
D14*
X125098750Y-109225000D03*
D16*
X122558750Y-104145000D03*
X116208750Y-106685000D03*
%TD*%
D20*
%TO.C,J1*%
X132385000Y-73695000D03*
D21*
X132385000Y-71155000D03*
X132385000Y-68615000D03*
X132385000Y-66075000D03*
%TD*%
D13*
%TO.C,D11*%
X159750000Y-119875000D03*
X159750000Y-118125000D03*
X156250000Y-118125000D03*
X156250000Y-119875000D03*
%TD*%
%TO.C,D10*%
X156250000Y-98675000D03*
X156250000Y-100425000D03*
X159750000Y-100425000D03*
X159750000Y-98675000D03*
%TD*%
D14*
%TO.C,SW4*%
X133988750Y-90175000D03*
D15*
X139068750Y-90175000D03*
D14*
X144148750Y-90175000D03*
D16*
X141608750Y-85095000D03*
X135258750Y-87635000D03*
%TD*%
D13*
%TO.C,D6*%
X137250000Y-98675000D03*
X137250000Y-100425000D03*
X140750000Y-100425000D03*
X140750000Y-98675000D03*
%TD*%
D14*
%TO.C,SW8*%
X153038750Y-109225000D03*
D15*
X158118750Y-109225000D03*
D14*
X163198750Y-109225000D03*
D16*
X160658750Y-104145000D03*
X154308750Y-106685000D03*
%TD*%
D14*
%TO.C,SW6*%
X153038750Y-90175000D03*
D15*
X158118750Y-90175000D03*
D14*
X163198750Y-90175000D03*
D16*
X160658750Y-85095000D03*
X154308750Y-87635000D03*
%TD*%
D22*
%TO.C,D9*%
X149000000Y-113000000D03*
D23*
X149000000Y-105380000D03*
%TD*%
D22*
%TO.C,D5*%
X110000000Y-113000000D03*
D23*
X110000000Y-105380000D03*
%TD*%
D22*
%TO.C,D7*%
X130000000Y-95000000D03*
D23*
X130000000Y-87380000D03*
%TD*%
D22*
%TO.C,D8*%
X130000000Y-113000000D03*
D23*
X130000000Y-105380000D03*
%TD*%
D22*
%TO.C,D4*%
X110000000Y-95000000D03*
D23*
X110000000Y-87380000D03*
%TD*%
D22*
%TO.C,D3*%
X149000000Y-94810000D03*
D23*
X149000000Y-87190000D03*
%TD*%
D13*
%TO.C,D1*%
X117500000Y-98675000D03*
X117500000Y-100425000D03*
X121000000Y-100425000D03*
X121000000Y-98675000D03*
%TD*%
M02*
