%TF.GenerationSoftware,KiCad,Pcbnew,9.0.6*%
%TF.CreationDate,2025-11-19T10:04:25+06:00*%
%TF.ProjectId,MiniMicroG,4d696e69-4d69-4637-926f-472e6b696361,rev?*%
%TF.SameCoordinates,Original*%
%TF.FileFunction,Component,L1,Top*%
%TF.FilePolarity,Positive*%
%FSLAX46Y46*%
G04 Gerber Fmt 4.6, Leading zero omitted, Abs format (unit mm)*
G04 Created by KiCad (PCBNEW 9.0.6) date 2025-11-19 10:04:25*
%MOMM*%
%LPD*%
G01*
G04 APERTURE LIST*
%TA.AperFunction,ComponentMain*%
%ADD10C,0.300000*%
%TD*%
%TA.AperFunction,ComponentOutline,Courtyard*%
%ADD11C,0.100000*%
%TD*%
%TA.AperFunction,ComponentPin*%
%ADD12C,0.100000*%
%TD*%
%TA.AperFunction,ComponentPin*%
%ADD13P,0.360000X4X0.000000*%
%TD*%
G04 APERTURE END LIST*
D10*
%TO.C,SW7*%
%TO.CFtp,RotaryEncoder_Alps_EC11E-Switch_Vertical_H20mm*%
%TO.CVal,RotaryEncoder_Switch*%
%TO.CLbN,Rotary_Encoder*%
%TO.CMnt,TH*%
%TO.CRot,0*%
X108000000Y-65000000D03*
D11*
X123995000Y-60405000D02*
X123995000Y-74595000D01*
X106505000Y-74595000D01*
X106505000Y-60405000D01*
X123995000Y-60405000D01*
D12*
%TO.P,SW7,A,A*%
X108000000Y-65000000D03*
%TO.P,SW7,B,B*%
X108000000Y-70000000D03*
%TO.P,SW7,C,C*%
X108000000Y-67500000D03*
%TO.P,SW7,MP*%
X115500000Y-61900000D03*
X115500000Y-73100000D03*
%TO.P,SW7,S1,S1*%
X122500000Y-70000000D03*
%TO.P,SW7,S2,S2*%
X122500000Y-65000000D03*
%TD*%
D10*
%TO.C,D2*%
%TO.CFtp,LED_SK6812MINI_PLCC4_3.5x3.5mm_P1.75mm*%
%TO.CVal,SK6812MINI*%
%TO.CLbN,LED_SMD*%
%TO.CMnt,SMD*%
%TO.CRot,180*%
X119250000Y-119000000D03*
D11*
X122045000Y-117005000D02*
X122045000Y-120995000D01*
X116455000Y-120995000D01*
X116455000Y-117005000D01*
X122045000Y-117005000D01*
D13*
%TO.P,D2,1,DOUT*%
X121000000Y-119875000D03*
D12*
%TO.P,D2,2,VSS*%
X121000000Y-118125000D03*
%TO.P,D2,3,DIN*%
X117500000Y-118125000D03*
%TO.P,D2,4,VDD*%
X117500000Y-119875000D03*
%TD*%
D10*
%TO.C,SW5*%
%TO.CFtp,SW_Cherry_MX_1.00u_PCB*%
%TO.CVal,CHERRY_MX*%
%TO.CLbN,Button_Switch_Keyboard*%
%TO.CMnt,TH*%
%TO.CRot,0*%
X141608750Y-104145000D03*
D11*
X145663750Y-102630000D02*
X145663750Y-115820000D01*
X132473750Y-115820000D01*
X132473750Y-102630000D01*
X145663750Y-102630000D01*
D13*
%TO.P,SW5,1,1*%
X141608750Y-104145000D03*
D12*
%TO.P,SW5,*%
X133988750Y-109225000D03*
X139068750Y-109225000D03*
X144148750Y-109225000D03*
%TO.P,SW5,2,2*%
X135258750Y-106685000D03*
%TD*%
D10*
%TO.C,SW1*%
%TO.CFtp,SW_Cherry_MX_1.00u_PCB*%
%TO.CVal,CHERRY_MX*%
%TO.CLbN,Button_Switch_Keyboard*%
%TO.CMnt,TH*%
%TO.CRot,0*%
X122558750Y-85095000D03*
D11*
X126613750Y-83580000D02*
X126613750Y-96770000D01*
X113423750Y-96770000D01*
X113423750Y-83580000D01*
X126613750Y-83580000D01*
D13*
%TO.P,SW1,1,1*%
X122558750Y-85095000D03*
D12*
%TO.P,SW1,*%
X114938750Y-90175000D03*
X120018750Y-90175000D03*
X125098750Y-90175000D03*
%TO.P,SW1,2,2*%
X116208750Y-87635000D03*
%TD*%
D10*
%TO.C,D1*%
%TO.CFtp,LED_SK6812MINI_PLCC4_3.5x3.5mm_P1.75mm*%
%TO.CVal,SK6812MINI*%
%TO.CLbN,LED_SMD*%
%TO.CMnt,SMD*%
%TO.CRot,0*%
X119250000Y-99550000D03*
D11*
X122045000Y-97555000D02*
X122045000Y-101545000D01*
X116455000Y-101545000D01*
X116455000Y-97555000D01*
X122045000Y-97555000D01*
D13*
%TO.P,D1,1,DOUT*%
X117500000Y-98675000D03*
D12*
%TO.P,D1,2,VSS*%
X117500000Y-100425000D03*
%TO.P,D1,3,DIN*%
X121000000Y-100425000D03*
%TO.P,D1,4,VDD*%
X121000000Y-98675000D03*
%TD*%
D10*
%TO.C,D12*%
%TO.CFtp,LED_SK6812MINI_PLCC4_3.5x3.5mm_P1.75mm*%
%TO.CVal,SK6812MINI*%
%TO.CLbN,LED_SMD*%
%TO.CMnt,SMD*%
%TO.CRot,180*%
X139250000Y-119000000D03*
D11*
X142045000Y-117005000D02*
X142045000Y-120995000D01*
X136455000Y-120995000D01*
X136455000Y-117005000D01*
X142045000Y-117005000D01*
D13*
%TO.P,D12,1,DOUT*%
X141000000Y-119875000D03*
D12*
%TO.P,D12,2,VSS*%
X141000000Y-118125000D03*
%TO.P,D12,3,DIN*%
X137500000Y-118125000D03*
%TO.P,D12,4,VDD*%
X137500000Y-119875000D03*
%TD*%
D10*
%TO.C,U1*%
%TO.CFtp,XIAO-RP2040-DIP*%
%TO.CVal,XIAO-RP2040-DIP*%
%TO.CLbN,Seeed Studio XIAO Series Library*%
%TO.CMnt,SMD*%
%TO.CRot,90*%
X89500000Y-110000000D03*
D11*
X99920000Y-101105000D02*
X99920000Y-118895000D01*
X78955000Y-118895000D01*
X78955000Y-101105000D01*
X99920000Y-101105000D01*
D13*
%TO.P,U1,1,GPIO26/ADC0/A0*%
X81880000Y-118455000D03*
X81880000Y-117620000D03*
D12*
%TO.P,U1,2,GPIO27/ADC1/A1*%
X84420000Y-118455000D03*
X84420000Y-117620000D03*
%TO.P,U1,3,GPIO28/ADC2/A2*%
X86960000Y-118455000D03*
X86960000Y-117620000D03*
%TO.P,U1,4,GPIO29/ADC3/A3*%
X89500000Y-118455000D03*
X89500000Y-117620000D03*
%TO.P,U1,5,GPIO6/SDA*%
X92040000Y-118455000D03*
X92040000Y-117620000D03*
%TO.P,U1,6,GPIO7/SCL*%
X94580000Y-118455000D03*
X94580000Y-117620000D03*
%TO.P,U1,7,GPIO0/TX*%
X97120000Y-118455000D03*
X97120000Y-117620000D03*
%TO.P,U1,8,GPIO1/RX*%
X97120000Y-102380000D03*
X97120000Y-101545000D03*
%TO.P,U1,9,GPIO2/SCK*%
X94580000Y-102380000D03*
X94580000Y-101545000D03*
%TO.P,U1,10,GPIO4/MISO*%
X92040000Y-102380000D03*
X92040000Y-101545000D03*
%TO.P,U1,11,GPIO3/MOSI*%
X89500000Y-102380000D03*
X89500000Y-101545000D03*
%TO.P,U1,12,3V3*%
X86960000Y-102380000D03*
X86960000Y-101545000D03*
%TO.P,U1,13,GND*%
X84420000Y-102380000D03*
X84420000Y-101545000D03*
%TO.P,U1,14,VBUS*%
X81880000Y-102380000D03*
X81880000Y-101545000D03*
%TD*%
D10*
%TO.C,SW2*%
%TO.CFtp,SW_Cherry_MX_1.00u_PCB*%
%TO.CVal,CHERRY_MX*%
%TO.CLbN,Button_Switch_Keyboard*%
%TO.CMnt,TH*%
%TO.CRot,0*%
X122558750Y-104145000D03*
D11*
X126613750Y-102630000D02*
X126613750Y-115820000D01*
X113423750Y-115820000D01*
X113423750Y-102630000D01*
X126613750Y-102630000D01*
D13*
%TO.P,SW2,1,1*%
X122558750Y-104145000D03*
D12*
%TO.P,SW2,*%
X114938750Y-109225000D03*
X120018750Y-109225000D03*
X125098750Y-109225000D03*
%TO.P,SW2,2,2*%
X116208750Y-106685000D03*
%TD*%
D10*
%TO.C,J1*%
%TO.CFtp,SSD1306-0.91-OLED-4pin-128x32*%
%TO.CVal,.91"OLED*%
%TO.CLbN,KiCad-4_pin-SSD1306_OLED-.91-128x32*%
%TO.CMnt,TH*%
%TO.CRot,180*%
X167885000Y-72885000D03*
D11*
X167880000Y-60890000D02*
X167880000Y-72880000D01*
X129890000Y-72880000D01*
X129890000Y-60890000D01*
X167880000Y-60890000D01*
D13*
%TO.P,J1,1,Pin_1*%
X131385000Y-70695000D03*
D12*
%TO.P,J1,2,Pin_2*%
X131385000Y-68155000D03*
%TO.P,J1,3,Pin_3*%
X131385000Y-65615000D03*
%TO.P,J1,4,Pin_4*%
X131385000Y-63075000D03*
%TD*%
D10*
%TO.C,D11*%
%TO.CFtp,LED_SK6812MINI_PLCC4_3.5x3.5mm_P1.75mm*%
%TO.CVal,SK6812MINI*%
%TO.CLbN,LED_SMD*%
%TO.CMnt,SMD*%
%TO.CRot,180*%
X158000000Y-119000000D03*
D11*
X160795000Y-117005000D02*
X160795000Y-120995000D01*
X155205000Y-120995000D01*
X155205000Y-117005000D01*
X160795000Y-117005000D01*
D13*
%TO.P,D11,1,DOUT*%
X159750000Y-119875000D03*
D12*
%TO.P,D11,2,VSS*%
X159750000Y-118125000D03*
%TO.P,D11,3,DIN*%
X156250000Y-118125000D03*
%TO.P,D11,4,VDD*%
X156250000Y-119875000D03*
%TD*%
D10*
%TO.C,D10*%
%TO.CFtp,LED_SK6812MINI_PLCC4_3.5x3.5mm_P1.75mm*%
%TO.CVal,SK6812MINI*%
%TO.CLbN,LED_SMD*%
%TO.CMnt,SMD*%
%TO.CRot,0*%
X158000000Y-99550000D03*
D11*
X160795000Y-97555000D02*
X160795000Y-101545000D01*
X155205000Y-101545000D01*
X155205000Y-97555000D01*
X160795000Y-97555000D01*
D13*
%TO.P,D10,1,DOUT*%
X156250000Y-98675000D03*
D12*
%TO.P,D10,2,VSS*%
X156250000Y-100425000D03*
%TO.P,D10,3,DIN*%
X159750000Y-100425000D03*
%TO.P,D10,4,VDD*%
X159750000Y-98675000D03*
%TD*%
D10*
%TO.C,SW4*%
%TO.CFtp,SW_Cherry_MX_1.00u_PCB*%
%TO.CVal,CHERRY_MX*%
%TO.CLbN,Button_Switch_Keyboard*%
%TO.CMnt,TH*%
%TO.CRot,0*%
X141608750Y-85095000D03*
D11*
X145663750Y-83580000D02*
X145663750Y-96770000D01*
X132473750Y-96770000D01*
X132473750Y-83580000D01*
X145663750Y-83580000D01*
D13*
%TO.P,SW4,1,1*%
X141608750Y-85095000D03*
D12*
%TO.P,SW4,*%
X133988750Y-90175000D03*
X139068750Y-90175000D03*
X144148750Y-90175000D03*
%TO.P,SW4,2,2*%
X135258750Y-87635000D03*
%TD*%
D10*
%TO.C,D6*%
%TO.CFtp,LED_SK6812MINI_PLCC4_3.5x3.5mm_P1.75mm*%
%TO.CVal,SK6812MINI*%
%TO.CLbN,LED_SMD*%
%TO.CMnt,SMD*%
%TO.CRot,0*%
X139000000Y-99550000D03*
D11*
X141795000Y-97555000D02*
X141795000Y-101545000D01*
X136205000Y-101545000D01*
X136205000Y-97555000D01*
X141795000Y-97555000D01*
D13*
%TO.P,D6,1,DOUT*%
X137250000Y-98675000D03*
D12*
%TO.P,D6,2,VSS*%
X137250000Y-100425000D03*
%TO.P,D6,3,DIN*%
X140750000Y-100425000D03*
%TO.P,D6,4,VDD*%
X140750000Y-98675000D03*
%TD*%
D10*
%TO.C,SW8*%
%TO.CFtp,SW_Cherry_MX_1.00u_PCB*%
%TO.CVal,CHERRY_MX*%
%TO.CLbN,Button_Switch_Keyboard*%
%TO.CMnt,TH*%
%TO.CRot,0*%
X160658750Y-104145000D03*
D11*
X164713750Y-102630000D02*
X164713750Y-115820000D01*
X151523750Y-115820000D01*
X151523750Y-102630000D01*
X164713750Y-102630000D01*
D13*
%TO.P,SW8,1,1*%
X160658750Y-104145000D03*
D12*
%TO.P,SW8,*%
X153038750Y-109225000D03*
X158118750Y-109225000D03*
X163198750Y-109225000D03*
%TO.P,SW8,2,2*%
X154308750Y-106685000D03*
%TD*%
D10*
%TO.C,SW6*%
%TO.CFtp,SW_Cherry_MX_1.00u_PCB*%
%TO.CVal,CHERRY_MX*%
%TO.CLbN,Button_Switch_Keyboard*%
%TO.CMnt,TH*%
%TO.CRot,0*%
X160658750Y-85095000D03*
D11*
X164713750Y-83580000D02*
X164713750Y-96770000D01*
X151523750Y-96770000D01*
X151523750Y-83580000D01*
X164713750Y-83580000D01*
D13*
%TO.P,SW6,1,1*%
X160658750Y-85095000D03*
D12*
%TO.P,SW6,*%
X153038750Y-90175000D03*
X158118750Y-90175000D03*
X163198750Y-90175000D03*
%TO.P,SW6,2,2*%
X154308750Y-87635000D03*
%TD*%
M02*
