M48
; DRILL file {KiCad 9.0.6} date 2025-11-19T10:03:48+0600
; FORMAT={-:-/ absolute / metric / decimal}
; #@! TF.CreationDate,2025-11-19T10:03:48+06:00
; #@! TF.GenerationSoftware,Kicad,Pcbnew,9.0.6
; #@! TF.FileFunction,Plated,1,2,PTH
FMAT,2
METRIC
; #@! TA.AperFunction,Plated,PTH,ViaDrill
T1C0.300
; #@! TA.AperFunction,Plated,PTH,ComponentDrill
T2C0.800
; #@! TA.AperFunction,Plated,PTH,ComponentDrill
T3C0.889
; #@! TA.AperFunction,Plated,PTH,ComponentDrill
T4C1.000
; #@! TA.AperFunction,Plated,PTH,ComponentDrill
T5C1.500
%
G90
G05
T1
X81.0Y-86.0
X82.0Y-111.0
X86.0Y-99.0
X90.0Y-97.0
X98.0Y-95.0
X101.0Y-64.0
X104.0Y-97.651
X111.0Y-98.0
X113.0Y-70.0
X119.0Y-102.0
X124.0Y-118.0
X127.0Y-66.0
X128.0Y-91.0
X128.0Y-103.0
X143.0Y-102.0
X144.0Y-118.0
X154.0Y-101.0
X162.0Y-118.0
T2
X110.0Y-87.38
X110.0Y-95.0
X110.0Y-105.38
X110.0Y-113.0
X130.0Y-87.38
X130.0Y-95.0
X130.0Y-105.38
X130.0Y-113.0
X149.0Y-87.19
X149.0Y-94.81
X149.0Y-105.38
X149.0Y-113.0
T3
X81.88Y-102.38
X81.88Y-117.62
X84.42Y-102.38
X84.42Y-117.62
X86.96Y-102.38
X86.96Y-117.62
X89.5Y-102.38
X89.5Y-117.62
X92.04Y-102.38
X92.04Y-117.62
X94.58Y-102.38
X94.58Y-117.62
X97.12Y-102.38
X97.12Y-117.62
T4
X108.0Y-65.0
X108.0Y-67.5
X108.0Y-70.0
X122.5Y-65.0
X122.5Y-70.0
X131.385Y-63.075
X131.385Y-65.615
X131.385Y-68.155
X131.385Y-70.695
T5
X116.209Y-87.635
X116.209Y-106.685
X122.559Y-85.095
X122.559Y-104.145
X135.259Y-87.635
X135.259Y-106.685
X141.609Y-85.095
X141.609Y-104.145
X154.309Y-87.635
X154.309Y-106.685
X160.659Y-85.095
X160.659Y-104.145
T5
G00X114.85Y-61.9
M15
G01X116.15Y-61.9
M16
G05
G00X114.85Y-73.1
M15
G01X116.15Y-73.1
M16
G05
M30
