%TF.GenerationSoftware,KiCad,Pcbnew,9.0.6*%
%TF.CreationDate,2025-11-14T16:16:25+06:00*%
%TF.ProjectId,t,742e6b69-6361-4645-9f70-636258585858,rev?*%
%TF.SameCoordinates,Original*%
%TF.FileFunction,Soldermask,Bot*%
%TF.FilePolarity,Negative*%
%FSLAX46Y46*%
G04 Gerber Fmt 4.6, Leading zero omitted, Abs format (unit mm)*
G04 Created by KiCad (PCBNEW 9.0.6) date 2025-11-14 16:16:25*
%MOMM*%
%LPD*%
G01*
G04 APERTURE LIST*
G04 Aperture macros list*
%AMRoundRect*
0 Rectangle with rounded corners*
0 $1 Rounding radius*
0 $2 $3 $4 $5 $6 $7 $8 $9 X,Y pos of 4 corners*
0 Add a 4 corners polygon primitive as box body*
4,1,4,$2,$3,$4,$5,$6,$7,$8,$9,$2,$3,0*
0 Add four circle primitives for the rounded corners*
1,1,$1+$1,$2,$3*
1,1,$1+$1,$4,$5*
1,1,$1+$1,$6,$7*
1,1,$1+$1,$8,$9*
0 Add four rect primitives between the rounded corners*
20,1,$1+$1,$2,$3,$4,$5,0*
20,1,$1+$1,$4,$5,$6,$7,0*
20,1,$1+$1,$6,$7,$8,$9,0*
20,1,$1+$1,$8,$9,$2,$3,0*%
G04 Aperture macros list end*
%ADD10RoundRect,0.250000X-0.550000X-0.550000X0.550000X-0.550000X0.550000X0.550000X-0.550000X0.550000X0*%
%ADD11C,1.600000*%
%ADD12R,2.000000X2.000000*%
%ADD13C,2.000000*%
%ADD14R,3.200000X2.000000*%
%ADD15C,1.700000*%
%ADD16C,4.000000*%
%ADD17C,2.200000*%
%ADD18C,1.524000*%
%ADD19R,1.700000X1.700000*%
%ADD20O,1.700000X1.700000*%
%ADD21R,1.600000X0.850000*%
G04 APERTURE END LIST*
D10*
%TO.C,D9*%
X166211250Y-121443750D03*
D11*
X173831250Y-121443750D03*
%TD*%
D12*
%TO.C,SW7*%
X113943750Y-56193750D03*
D13*
X113943750Y-61193750D03*
X113943750Y-58693750D03*
D14*
X121443750Y-53093750D03*
X121443750Y-64293750D03*
D13*
X128443750Y-61193750D03*
X128443750Y-56193750D03*
%TD*%
D15*
%TO.C,SW5*%
X142240000Y-109537500D03*
D16*
X147320000Y-109537500D03*
D15*
X152400000Y-109537500D03*
D17*
X149860000Y-104457500D03*
X143510000Y-106997500D03*
%TD*%
D15*
%TO.C,SW1*%
X116363750Y-83343750D03*
D16*
X121443750Y-83343750D03*
D15*
X126523750Y-83343750D03*
D17*
X123983750Y-78263750D03*
X117633750Y-80803750D03*
%TD*%
D18*
%TO.C,U1*%
X83880000Y-117620000D03*
X86420000Y-117620000D03*
X88960000Y-117620000D03*
X91500000Y-117620000D03*
X94040000Y-117620000D03*
X96580000Y-117620000D03*
X99120000Y-117620000D03*
X99120000Y-102380000D03*
X96580000Y-102380000D03*
X94040000Y-102380000D03*
X91500000Y-102380000D03*
X88960000Y-102380000D03*
X86420000Y-102380000D03*
X83880000Y-102380000D03*
%TD*%
D10*
%TO.C,D5*%
X112871250Y-121443750D03*
D11*
X120491250Y-121443750D03*
%TD*%
D15*
%TO.C,SW2*%
X116046250Y-109537500D03*
D16*
X121126250Y-109537500D03*
D15*
X126206250Y-109537500D03*
D17*
X123666250Y-104457500D03*
X117316250Y-106997500D03*
%TD*%
D19*
%TO.C,J1*%
X146856250Y-62103750D03*
D20*
X146856250Y-59563750D03*
X146856250Y-57023750D03*
X146856250Y-54483750D03*
%TD*%
D10*
%TO.C,D7*%
X139065000Y-95250000D03*
D11*
X146685000Y-95250000D03*
%TD*%
D10*
%TO.C,D8*%
X139065000Y-121443750D03*
D11*
X146685000Y-121443750D03*
%TD*%
D10*
%TO.C,D4*%
X112871250Y-95250000D03*
D11*
X120491250Y-95250000D03*
%TD*%
D15*
%TO.C,SW4*%
X142240000Y-83343750D03*
D16*
X147320000Y-83343750D03*
D15*
X152400000Y-83343750D03*
D17*
X149860000Y-78263750D03*
X143510000Y-80803750D03*
%TD*%
D15*
%TO.C,SW8*%
X168751250Y-109537500D03*
D16*
X173831250Y-109537500D03*
D15*
X178911250Y-109537500D03*
D17*
X176371250Y-104457500D03*
X170021250Y-106997500D03*
%TD*%
D10*
%TO.C,D3*%
X165258750Y-95250000D03*
D11*
X172878750Y-95250000D03*
%TD*%
D15*
%TO.C,SW6*%
X168751250Y-83343750D03*
D16*
X173831250Y-83343750D03*
D15*
X178911250Y-83343750D03*
D17*
X176371250Y-78263750D03*
X170021250Y-80803750D03*
%TD*%
D21*
%TO.C,D2*%
X161925000Y-114931250D03*
X161925000Y-116681250D03*
X158425000Y-116681250D03*
X158425000Y-114931250D03*
%TD*%
%TO.C,D1*%
X90487500Y-88737500D03*
X90487500Y-90487500D03*
X86987500Y-90487500D03*
X86987500Y-88737500D03*
%TD*%
%TO.C,D12*%
X89856250Y-57781250D03*
X89856250Y-59531250D03*
X86356250Y-59531250D03*
X86356250Y-57781250D03*
%TD*%
%TO.C,D6*%
X163043750Y-67306250D03*
X163043750Y-69056250D03*
X159543750Y-69056250D03*
X159543750Y-67306250D03*
%TD*%
M02*
