%TF.GenerationSoftware,KiCad,Pcbnew,9.0.6*%
%TF.CreationDate,2025-11-14T16:16:25+06:00*%
%TF.ProjectId,t,742e6b69-6361-4645-9f70-636258585858,rev?*%
%TF.SameCoordinates,Original*%
%TF.FileFunction,Legend,Bot*%
%TF.FilePolarity,Positive*%
%FSLAX46Y46*%
G04 Gerber Fmt 4.6, Leading zero omitted, Abs format (unit mm)*
G04 Created by KiCad (PCBNEW 9.0.6) date 2025-11-14 16:16:25*
%MOMM*%
%LPD*%
G01*
G04 APERTURE LIST*
%ADD10C,0.100000*%
%ADD11C,0.150000*%
%ADD12C,0.120000*%
G04 APERTURE END LIST*
D10*
X163430937Y-47402180D02*
X163478556Y-47449800D01*
X163478556Y-47449800D02*
X163621413Y-47497419D01*
X163621413Y-47497419D02*
X163716651Y-47497419D01*
X163716651Y-47497419D02*
X163859508Y-47449800D01*
X163859508Y-47449800D02*
X163954746Y-47354561D01*
X163954746Y-47354561D02*
X164002365Y-47259323D01*
X164002365Y-47259323D02*
X164049984Y-47068847D01*
X164049984Y-47068847D02*
X164049984Y-46925990D01*
X164049984Y-46925990D02*
X164002365Y-46735514D01*
X164002365Y-46735514D02*
X163954746Y-46640276D01*
X163954746Y-46640276D02*
X163859508Y-46545038D01*
X163859508Y-46545038D02*
X163716651Y-46497419D01*
X163716651Y-46497419D02*
X163621413Y-46497419D01*
X163621413Y-46497419D02*
X163478556Y-46545038D01*
X163478556Y-46545038D02*
X163430937Y-46592657D01*
X163002365Y-47497419D02*
X163002365Y-46497419D01*
X162573794Y-47497419D02*
X162573794Y-46973609D01*
X162573794Y-46973609D02*
X162621413Y-46878371D01*
X162621413Y-46878371D02*
X162716651Y-46830752D01*
X162716651Y-46830752D02*
X162859508Y-46830752D01*
X162859508Y-46830752D02*
X162954746Y-46878371D01*
X162954746Y-46878371D02*
X163002365Y-46925990D01*
X161716651Y-47449800D02*
X161811889Y-47497419D01*
X161811889Y-47497419D02*
X162002365Y-47497419D01*
X162002365Y-47497419D02*
X162097603Y-47449800D01*
X162097603Y-47449800D02*
X162145222Y-47354561D01*
X162145222Y-47354561D02*
X162145222Y-46973609D01*
X162145222Y-46973609D02*
X162097603Y-46878371D01*
X162097603Y-46878371D02*
X162002365Y-46830752D01*
X162002365Y-46830752D02*
X161811889Y-46830752D01*
X161811889Y-46830752D02*
X161716651Y-46878371D01*
X161716651Y-46878371D02*
X161669032Y-46973609D01*
X161669032Y-46973609D02*
X161669032Y-47068847D01*
X161669032Y-47068847D02*
X162145222Y-47164085D01*
X160811889Y-47449800D02*
X160907127Y-47497419D01*
X160907127Y-47497419D02*
X161097603Y-47497419D01*
X161097603Y-47497419D02*
X161192841Y-47449800D01*
X161192841Y-47449800D02*
X161240460Y-47402180D01*
X161240460Y-47402180D02*
X161288079Y-47306942D01*
X161288079Y-47306942D02*
X161288079Y-47021228D01*
X161288079Y-47021228D02*
X161240460Y-46925990D01*
X161240460Y-46925990D02*
X161192841Y-46878371D01*
X161192841Y-46878371D02*
X161097603Y-46830752D01*
X161097603Y-46830752D02*
X160907127Y-46830752D01*
X160907127Y-46830752D02*
X160811889Y-46878371D01*
X160383317Y-47497419D02*
X160383317Y-46497419D01*
X160288079Y-47116466D02*
X160002365Y-47497419D01*
X160002365Y-46830752D02*
X160383317Y-47211704D01*
X158669031Y-47497419D02*
X158764269Y-47449800D01*
X158764269Y-47449800D02*
X158811888Y-47402180D01*
X158811888Y-47402180D02*
X158859507Y-47306942D01*
X158859507Y-47306942D02*
X158859507Y-47021228D01*
X158859507Y-47021228D02*
X158811888Y-46925990D01*
X158811888Y-46925990D02*
X158764269Y-46878371D01*
X158764269Y-46878371D02*
X158669031Y-46830752D01*
X158669031Y-46830752D02*
X158526174Y-46830752D01*
X158526174Y-46830752D02*
X158430936Y-46878371D01*
X158430936Y-46878371D02*
X158383317Y-46925990D01*
X158383317Y-46925990D02*
X158335698Y-47021228D01*
X158335698Y-47021228D02*
X158335698Y-47306942D01*
X158335698Y-47306942D02*
X158383317Y-47402180D01*
X158383317Y-47402180D02*
X158430936Y-47449800D01*
X158430936Y-47449800D02*
X158526174Y-47497419D01*
X158526174Y-47497419D02*
X158669031Y-47497419D01*
X157478555Y-46830752D02*
X157478555Y-47497419D01*
X157907126Y-46830752D02*
X157907126Y-47354561D01*
X157907126Y-47354561D02*
X157859507Y-47449800D01*
X157859507Y-47449800D02*
X157764269Y-47497419D01*
X157764269Y-47497419D02*
X157621412Y-47497419D01*
X157621412Y-47497419D02*
X157526174Y-47449800D01*
X157526174Y-47449800D02*
X157478555Y-47402180D01*
X157145221Y-46830752D02*
X156764269Y-46830752D01*
X157002364Y-46497419D02*
X157002364Y-47354561D01*
X157002364Y-47354561D02*
X156954745Y-47449800D01*
X156954745Y-47449800D02*
X156859507Y-47497419D01*
X156859507Y-47497419D02*
X156764269Y-47497419D01*
X155811887Y-46830752D02*
X155430935Y-46830752D01*
X155669030Y-46497419D02*
X155669030Y-47354561D01*
X155669030Y-47354561D02*
X155621411Y-47449800D01*
X155621411Y-47449800D02*
X155526173Y-47497419D01*
X155526173Y-47497419D02*
X155430935Y-47497419D01*
X155097601Y-47497419D02*
X155097601Y-46497419D01*
X154669030Y-47497419D02*
X154669030Y-46973609D01*
X154669030Y-46973609D02*
X154716649Y-46878371D01*
X154716649Y-46878371D02*
X154811887Y-46830752D01*
X154811887Y-46830752D02*
X154954744Y-46830752D01*
X154954744Y-46830752D02*
X155049982Y-46878371D01*
X155049982Y-46878371D02*
X155097601Y-46925990D01*
X153811887Y-47449800D02*
X153907125Y-47497419D01*
X153907125Y-47497419D02*
X154097601Y-47497419D01*
X154097601Y-47497419D02*
X154192839Y-47449800D01*
X154192839Y-47449800D02*
X154240458Y-47354561D01*
X154240458Y-47354561D02*
X154240458Y-46973609D01*
X154240458Y-46973609D02*
X154192839Y-46878371D01*
X154192839Y-46878371D02*
X154097601Y-46830752D01*
X154097601Y-46830752D02*
X153907125Y-46830752D01*
X153907125Y-46830752D02*
X153811887Y-46878371D01*
X153811887Y-46878371D02*
X153764268Y-46973609D01*
X153764268Y-46973609D02*
X153764268Y-47068847D01*
X153764268Y-47068847D02*
X154240458Y-47164085D01*
X152621410Y-47449800D02*
X152526172Y-47497419D01*
X152526172Y-47497419D02*
X152335696Y-47497419D01*
X152335696Y-47497419D02*
X152240458Y-47449800D01*
X152240458Y-47449800D02*
X152192839Y-47354561D01*
X152192839Y-47354561D02*
X152192839Y-47306942D01*
X152192839Y-47306942D02*
X152240458Y-47211704D01*
X152240458Y-47211704D02*
X152335696Y-47164085D01*
X152335696Y-47164085D02*
X152478553Y-47164085D01*
X152478553Y-47164085D02*
X152573791Y-47116466D01*
X152573791Y-47116466D02*
X152621410Y-47021228D01*
X152621410Y-47021228D02*
X152621410Y-46973609D01*
X152621410Y-46973609D02*
X152573791Y-46878371D01*
X152573791Y-46878371D02*
X152478553Y-46830752D01*
X152478553Y-46830752D02*
X152335696Y-46830752D01*
X152335696Y-46830752D02*
X152240458Y-46878371D01*
X151621410Y-47497419D02*
X151716648Y-47449800D01*
X151716648Y-47449800D02*
X151764267Y-47402180D01*
X151764267Y-47402180D02*
X151811886Y-47306942D01*
X151811886Y-47306942D02*
X151811886Y-47021228D01*
X151811886Y-47021228D02*
X151764267Y-46925990D01*
X151764267Y-46925990D02*
X151716648Y-46878371D01*
X151716648Y-46878371D02*
X151621410Y-46830752D01*
X151621410Y-46830752D02*
X151478553Y-46830752D01*
X151478553Y-46830752D02*
X151383315Y-46878371D01*
X151383315Y-46878371D02*
X151335696Y-46925990D01*
X151335696Y-46925990D02*
X151288077Y-47021228D01*
X151288077Y-47021228D02*
X151288077Y-47306942D01*
X151288077Y-47306942D02*
X151335696Y-47402180D01*
X151335696Y-47402180D02*
X151383315Y-47449800D01*
X151383315Y-47449800D02*
X151478553Y-47497419D01*
X151478553Y-47497419D02*
X151621410Y-47497419D01*
X150430934Y-46830752D02*
X150430934Y-47497419D01*
X150859505Y-46830752D02*
X150859505Y-47354561D01*
X150859505Y-47354561D02*
X150811886Y-47449800D01*
X150811886Y-47449800D02*
X150716648Y-47497419D01*
X150716648Y-47497419D02*
X150573791Y-47497419D01*
X150573791Y-47497419D02*
X150478553Y-47449800D01*
X150478553Y-47449800D02*
X150430934Y-47402180D01*
X149954743Y-47497419D02*
X149954743Y-46830752D01*
X149954743Y-47021228D02*
X149907124Y-46925990D01*
X149907124Y-46925990D02*
X149859505Y-46878371D01*
X149859505Y-46878371D02*
X149764267Y-46830752D01*
X149764267Y-46830752D02*
X149669029Y-46830752D01*
X148907124Y-47449800D02*
X149002362Y-47497419D01*
X149002362Y-47497419D02*
X149192838Y-47497419D01*
X149192838Y-47497419D02*
X149288076Y-47449800D01*
X149288076Y-47449800D02*
X149335695Y-47402180D01*
X149335695Y-47402180D02*
X149383314Y-47306942D01*
X149383314Y-47306942D02*
X149383314Y-47021228D01*
X149383314Y-47021228D02*
X149335695Y-46925990D01*
X149335695Y-46925990D02*
X149288076Y-46878371D01*
X149288076Y-46878371D02*
X149192838Y-46830752D01*
X149192838Y-46830752D02*
X149002362Y-46830752D01*
X149002362Y-46830752D02*
X148907124Y-46878371D01*
X148097600Y-47449800D02*
X148192838Y-47497419D01*
X148192838Y-47497419D02*
X148383314Y-47497419D01*
X148383314Y-47497419D02*
X148478552Y-47449800D01*
X148478552Y-47449800D02*
X148526171Y-47354561D01*
X148526171Y-47354561D02*
X148526171Y-46973609D01*
X148526171Y-46973609D02*
X148478552Y-46878371D01*
X148478552Y-46878371D02*
X148383314Y-46830752D01*
X148383314Y-46830752D02*
X148192838Y-46830752D01*
X148192838Y-46830752D02*
X148097600Y-46878371D01*
X148097600Y-46878371D02*
X148049981Y-46973609D01*
X148049981Y-46973609D02*
X148049981Y-47068847D01*
X148049981Y-47068847D02*
X148526171Y-47164085D01*
X146430933Y-47497419D02*
X146430933Y-46973609D01*
X146430933Y-46973609D02*
X146478552Y-46878371D01*
X146478552Y-46878371D02*
X146573790Y-46830752D01*
X146573790Y-46830752D02*
X146764266Y-46830752D01*
X146764266Y-46830752D02*
X146859504Y-46878371D01*
X146430933Y-47449800D02*
X146526171Y-47497419D01*
X146526171Y-47497419D02*
X146764266Y-47497419D01*
X146764266Y-47497419D02*
X146859504Y-47449800D01*
X146859504Y-47449800D02*
X146907123Y-47354561D01*
X146907123Y-47354561D02*
X146907123Y-47259323D01*
X146907123Y-47259323D02*
X146859504Y-47164085D01*
X146859504Y-47164085D02*
X146764266Y-47116466D01*
X146764266Y-47116466D02*
X146526171Y-47116466D01*
X146526171Y-47116466D02*
X146430933Y-47068847D01*
X146097599Y-46830752D02*
X145716647Y-46830752D01*
X145954742Y-46497419D02*
X145954742Y-47354561D01*
X145954742Y-47354561D02*
X145907123Y-47449800D01*
X145907123Y-47449800D02*
X145811885Y-47497419D01*
X145811885Y-47497419D02*
X145716647Y-47497419D01*
X144621408Y-47497419D02*
X144621408Y-46497419D01*
X144192837Y-47497419D02*
X144192837Y-46973609D01*
X144192837Y-46973609D02*
X144240456Y-46878371D01*
X144240456Y-46878371D02*
X144335694Y-46830752D01*
X144335694Y-46830752D02*
X144478551Y-46830752D01*
X144478551Y-46830752D02*
X144573789Y-46878371D01*
X144573789Y-46878371D02*
X144621408Y-46925990D01*
X143859503Y-46830752D02*
X143478551Y-46830752D01*
X143716646Y-46497419D02*
X143716646Y-47354561D01*
X143716646Y-47354561D02*
X143669027Y-47449800D01*
X143669027Y-47449800D02*
X143573789Y-47497419D01*
X143573789Y-47497419D02*
X143478551Y-47497419D01*
X143288074Y-46830752D02*
X142907122Y-46830752D01*
X143145217Y-46497419D02*
X143145217Y-47354561D01*
X143145217Y-47354561D02*
X143097598Y-47449800D01*
X143097598Y-47449800D02*
X143002360Y-47497419D01*
X143002360Y-47497419D02*
X142907122Y-47497419D01*
X142573788Y-46830752D02*
X142573788Y-47830752D01*
X142573788Y-46878371D02*
X142478550Y-46830752D01*
X142478550Y-46830752D02*
X142288074Y-46830752D01*
X142288074Y-46830752D02*
X142192836Y-46878371D01*
X142192836Y-46878371D02*
X142145217Y-46925990D01*
X142145217Y-46925990D02*
X142097598Y-47021228D01*
X142097598Y-47021228D02*
X142097598Y-47306942D01*
X142097598Y-47306942D02*
X142145217Y-47402180D01*
X142145217Y-47402180D02*
X142192836Y-47449800D01*
X142192836Y-47449800D02*
X142288074Y-47497419D01*
X142288074Y-47497419D02*
X142478550Y-47497419D01*
X142478550Y-47497419D02*
X142573788Y-47449800D01*
X141716645Y-47449800D02*
X141621407Y-47497419D01*
X141621407Y-47497419D02*
X141430931Y-47497419D01*
X141430931Y-47497419D02*
X141335693Y-47449800D01*
X141335693Y-47449800D02*
X141288074Y-47354561D01*
X141288074Y-47354561D02*
X141288074Y-47306942D01*
X141288074Y-47306942D02*
X141335693Y-47211704D01*
X141335693Y-47211704D02*
X141430931Y-47164085D01*
X141430931Y-47164085D02*
X141573788Y-47164085D01*
X141573788Y-47164085D02*
X141669026Y-47116466D01*
X141669026Y-47116466D02*
X141716645Y-47021228D01*
X141716645Y-47021228D02*
X141716645Y-46973609D01*
X141716645Y-46973609D02*
X141669026Y-46878371D01*
X141669026Y-46878371D02*
X141573788Y-46830752D01*
X141573788Y-46830752D02*
X141430931Y-46830752D01*
X141430931Y-46830752D02*
X141335693Y-46878371D01*
X140859502Y-47402180D02*
X140811883Y-47449800D01*
X140811883Y-47449800D02*
X140859502Y-47497419D01*
X140859502Y-47497419D02*
X140907121Y-47449800D01*
X140907121Y-47449800D02*
X140859502Y-47402180D01*
X140859502Y-47402180D02*
X140859502Y-47497419D01*
X140859502Y-46878371D02*
X140811883Y-46925990D01*
X140811883Y-46925990D02*
X140859502Y-46973609D01*
X140859502Y-46973609D02*
X140907121Y-46925990D01*
X140907121Y-46925990D02*
X140859502Y-46878371D01*
X140859502Y-46878371D02*
X140859502Y-46973609D01*
X139669027Y-46449800D02*
X140526169Y-47735514D01*
X138621408Y-46449800D02*
X139478550Y-47735514D01*
X137859503Y-46830752D02*
X137859503Y-47640276D01*
X137859503Y-47640276D02*
X137907122Y-47735514D01*
X137907122Y-47735514D02*
X137954741Y-47783133D01*
X137954741Y-47783133D02*
X138049979Y-47830752D01*
X138049979Y-47830752D02*
X138192836Y-47830752D01*
X138192836Y-47830752D02*
X138288074Y-47783133D01*
X137859503Y-47449800D02*
X137954741Y-47497419D01*
X137954741Y-47497419D02*
X138145217Y-47497419D01*
X138145217Y-47497419D02*
X138240455Y-47449800D01*
X138240455Y-47449800D02*
X138288074Y-47402180D01*
X138288074Y-47402180D02*
X138335693Y-47306942D01*
X138335693Y-47306942D02*
X138335693Y-47021228D01*
X138335693Y-47021228D02*
X138288074Y-46925990D01*
X138288074Y-46925990D02*
X138240455Y-46878371D01*
X138240455Y-46878371D02*
X138145217Y-46830752D01*
X138145217Y-46830752D02*
X137954741Y-46830752D01*
X137954741Y-46830752D02*
X137859503Y-46878371D01*
X137383312Y-47497419D02*
X137383312Y-46830752D01*
X137383312Y-46497419D02*
X137430931Y-46545038D01*
X137430931Y-46545038D02*
X137383312Y-46592657D01*
X137383312Y-46592657D02*
X137335693Y-46545038D01*
X137335693Y-46545038D02*
X137383312Y-46497419D01*
X137383312Y-46497419D02*
X137383312Y-46592657D01*
X137049979Y-46830752D02*
X136669027Y-46830752D01*
X136907122Y-46497419D02*
X136907122Y-47354561D01*
X136907122Y-47354561D02*
X136859503Y-47449800D01*
X136859503Y-47449800D02*
X136764265Y-47497419D01*
X136764265Y-47497419D02*
X136669027Y-47497419D01*
X136335693Y-47497419D02*
X136335693Y-46497419D01*
X135907122Y-47497419D02*
X135907122Y-46973609D01*
X135907122Y-46973609D02*
X135954741Y-46878371D01*
X135954741Y-46878371D02*
X136049979Y-46830752D01*
X136049979Y-46830752D02*
X136192836Y-46830752D01*
X136192836Y-46830752D02*
X136288074Y-46878371D01*
X136288074Y-46878371D02*
X136335693Y-46925990D01*
X135002360Y-46830752D02*
X135002360Y-47497419D01*
X135430931Y-46830752D02*
X135430931Y-47354561D01*
X135430931Y-47354561D02*
X135383312Y-47449800D01*
X135383312Y-47449800D02*
X135288074Y-47497419D01*
X135288074Y-47497419D02*
X135145217Y-47497419D01*
X135145217Y-47497419D02*
X135049979Y-47449800D01*
X135049979Y-47449800D02*
X135002360Y-47402180D01*
X134526169Y-47497419D02*
X134526169Y-46497419D01*
X134526169Y-46878371D02*
X134430931Y-46830752D01*
X134430931Y-46830752D02*
X134240455Y-46830752D01*
X134240455Y-46830752D02*
X134145217Y-46878371D01*
X134145217Y-46878371D02*
X134097598Y-46925990D01*
X134097598Y-46925990D02*
X134049979Y-47021228D01*
X134049979Y-47021228D02*
X134049979Y-47306942D01*
X134049979Y-47306942D02*
X134097598Y-47402180D01*
X134097598Y-47402180D02*
X134145217Y-47449800D01*
X134145217Y-47449800D02*
X134240455Y-47497419D01*
X134240455Y-47497419D02*
X134430931Y-47497419D01*
X134430931Y-47497419D02*
X134526169Y-47449800D01*
X133621407Y-47402180D02*
X133573788Y-47449800D01*
X133573788Y-47449800D02*
X133621407Y-47497419D01*
X133621407Y-47497419D02*
X133669026Y-47449800D01*
X133669026Y-47449800D02*
X133621407Y-47402180D01*
X133621407Y-47402180D02*
X133621407Y-47497419D01*
X132716646Y-47449800D02*
X132811884Y-47497419D01*
X132811884Y-47497419D02*
X133002360Y-47497419D01*
X133002360Y-47497419D02*
X133097598Y-47449800D01*
X133097598Y-47449800D02*
X133145217Y-47402180D01*
X133145217Y-47402180D02*
X133192836Y-47306942D01*
X133192836Y-47306942D02*
X133192836Y-47021228D01*
X133192836Y-47021228D02*
X133145217Y-46925990D01*
X133145217Y-46925990D02*
X133097598Y-46878371D01*
X133097598Y-46878371D02*
X133002360Y-46830752D01*
X133002360Y-46830752D02*
X132811884Y-46830752D01*
X132811884Y-46830752D02*
X132716646Y-46878371D01*
X132145217Y-47497419D02*
X132240455Y-47449800D01*
X132240455Y-47449800D02*
X132288074Y-47402180D01*
X132288074Y-47402180D02*
X132335693Y-47306942D01*
X132335693Y-47306942D02*
X132335693Y-47021228D01*
X132335693Y-47021228D02*
X132288074Y-46925990D01*
X132288074Y-46925990D02*
X132240455Y-46878371D01*
X132240455Y-46878371D02*
X132145217Y-46830752D01*
X132145217Y-46830752D02*
X132002360Y-46830752D01*
X132002360Y-46830752D02*
X131907122Y-46878371D01*
X131907122Y-46878371D02*
X131859503Y-46925990D01*
X131859503Y-46925990D02*
X131811884Y-47021228D01*
X131811884Y-47021228D02*
X131811884Y-47306942D01*
X131811884Y-47306942D02*
X131859503Y-47402180D01*
X131859503Y-47402180D02*
X131907122Y-47449800D01*
X131907122Y-47449800D02*
X132002360Y-47497419D01*
X132002360Y-47497419D02*
X132145217Y-47497419D01*
X131383312Y-47497419D02*
X131383312Y-46830752D01*
X131383312Y-46925990D02*
X131335693Y-46878371D01*
X131335693Y-46878371D02*
X131240455Y-46830752D01*
X131240455Y-46830752D02*
X131097598Y-46830752D01*
X131097598Y-46830752D02*
X131002360Y-46878371D01*
X131002360Y-46878371D02*
X130954741Y-46973609D01*
X130954741Y-46973609D02*
X130954741Y-47497419D01*
X130954741Y-46973609D02*
X130907122Y-46878371D01*
X130907122Y-46878371D02*
X130811884Y-46830752D01*
X130811884Y-46830752D02*
X130669027Y-46830752D01*
X130669027Y-46830752D02*
X130573788Y-46878371D01*
X130573788Y-46878371D02*
X130526169Y-46973609D01*
X130526169Y-46973609D02*
X130526169Y-47497419D01*
X129335694Y-46449800D02*
X130192836Y-47735514D01*
X128573789Y-47449800D02*
X128669027Y-47497419D01*
X128669027Y-47497419D02*
X128859503Y-47497419D01*
X128859503Y-47497419D02*
X128954741Y-47449800D01*
X128954741Y-47449800D02*
X129002360Y-47402180D01*
X129002360Y-47402180D02*
X129049979Y-47306942D01*
X129049979Y-47306942D02*
X129049979Y-47021228D01*
X129049979Y-47021228D02*
X129002360Y-46925990D01*
X129002360Y-46925990D02*
X128954741Y-46878371D01*
X128954741Y-46878371D02*
X128859503Y-46830752D01*
X128859503Y-46830752D02*
X128669027Y-46830752D01*
X128669027Y-46830752D02*
X128573789Y-46878371D01*
X128002360Y-47497419D02*
X128097598Y-47449800D01*
X128097598Y-47449800D02*
X128145217Y-47402180D01*
X128145217Y-47402180D02*
X128192836Y-47306942D01*
X128192836Y-47306942D02*
X128192836Y-47021228D01*
X128192836Y-47021228D02*
X128145217Y-46925990D01*
X128145217Y-46925990D02*
X128097598Y-46878371D01*
X128097598Y-46878371D02*
X128002360Y-46830752D01*
X128002360Y-46830752D02*
X127859503Y-46830752D01*
X127859503Y-46830752D02*
X127764265Y-46878371D01*
X127764265Y-46878371D02*
X127716646Y-46925990D01*
X127716646Y-46925990D02*
X127669027Y-47021228D01*
X127669027Y-47021228D02*
X127669027Y-47306942D01*
X127669027Y-47306942D02*
X127716646Y-47402180D01*
X127716646Y-47402180D02*
X127764265Y-47449800D01*
X127764265Y-47449800D02*
X127859503Y-47497419D01*
X127859503Y-47497419D02*
X128002360Y-47497419D01*
X126811884Y-47497419D02*
X126811884Y-46497419D01*
X126811884Y-47449800D02*
X126907122Y-47497419D01*
X126907122Y-47497419D02*
X127097598Y-47497419D01*
X127097598Y-47497419D02*
X127192836Y-47449800D01*
X127192836Y-47449800D02*
X127240455Y-47402180D01*
X127240455Y-47402180D02*
X127288074Y-47306942D01*
X127288074Y-47306942D02*
X127288074Y-47021228D01*
X127288074Y-47021228D02*
X127240455Y-46925990D01*
X127240455Y-46925990D02*
X127192836Y-46878371D01*
X127192836Y-46878371D02*
X127097598Y-46830752D01*
X127097598Y-46830752D02*
X126907122Y-46830752D01*
X126907122Y-46830752D02*
X126811884Y-46878371D01*
X125954741Y-47449800D02*
X126049979Y-47497419D01*
X126049979Y-47497419D02*
X126240455Y-47497419D01*
X126240455Y-47497419D02*
X126335693Y-47449800D01*
X126335693Y-47449800D02*
X126383312Y-47354561D01*
X126383312Y-47354561D02*
X126383312Y-46973609D01*
X126383312Y-46973609D02*
X126335693Y-46878371D01*
X126335693Y-46878371D02*
X126240455Y-46830752D01*
X126240455Y-46830752D02*
X126049979Y-46830752D01*
X126049979Y-46830752D02*
X125954741Y-46878371D01*
X125954741Y-46878371D02*
X125907122Y-46973609D01*
X125907122Y-46973609D02*
X125907122Y-47068847D01*
X125907122Y-47068847D02*
X126383312Y-47164085D01*
X125049979Y-47449800D02*
X125145217Y-47497419D01*
X125145217Y-47497419D02*
X125335693Y-47497419D01*
X125335693Y-47497419D02*
X125430931Y-47449800D01*
X125430931Y-47449800D02*
X125478550Y-47402180D01*
X125478550Y-47402180D02*
X125526169Y-47306942D01*
X125526169Y-47306942D02*
X125526169Y-47021228D01*
X125526169Y-47021228D02*
X125478550Y-46925990D01*
X125478550Y-46925990D02*
X125430931Y-46878371D01*
X125430931Y-46878371D02*
X125335693Y-46830752D01*
X125335693Y-46830752D02*
X125145217Y-46830752D01*
X125145217Y-46830752D02*
X125049979Y-46878371D01*
X124478550Y-47497419D02*
X124573788Y-47449800D01*
X124573788Y-47449800D02*
X124621407Y-47402180D01*
X124621407Y-47402180D02*
X124669026Y-47306942D01*
X124669026Y-47306942D02*
X124669026Y-47021228D01*
X124669026Y-47021228D02*
X124621407Y-46925990D01*
X124621407Y-46925990D02*
X124573788Y-46878371D01*
X124573788Y-46878371D02*
X124478550Y-46830752D01*
X124478550Y-46830752D02*
X124335693Y-46830752D01*
X124335693Y-46830752D02*
X124240455Y-46878371D01*
X124240455Y-46878371D02*
X124192836Y-46925990D01*
X124192836Y-46925990D02*
X124145217Y-47021228D01*
X124145217Y-47021228D02*
X124145217Y-47306942D01*
X124145217Y-47306942D02*
X124192836Y-47402180D01*
X124192836Y-47402180D02*
X124240455Y-47449800D01*
X124240455Y-47449800D02*
X124335693Y-47497419D01*
X124335693Y-47497419D02*
X124478550Y-47497419D01*
X123573788Y-47497419D02*
X123669026Y-47449800D01*
X123669026Y-47449800D02*
X123716645Y-47402180D01*
X123716645Y-47402180D02*
X123764264Y-47306942D01*
X123764264Y-47306942D02*
X123764264Y-47021228D01*
X123764264Y-47021228D02*
X123716645Y-46925990D01*
X123716645Y-46925990D02*
X123669026Y-46878371D01*
X123669026Y-46878371D02*
X123573788Y-46830752D01*
X123573788Y-46830752D02*
X123430931Y-46830752D01*
X123430931Y-46830752D02*
X123335693Y-46878371D01*
X123335693Y-46878371D02*
X123288074Y-46925990D01*
X123288074Y-46925990D02*
X123240455Y-47021228D01*
X123240455Y-47021228D02*
X123240455Y-47306942D01*
X123240455Y-47306942D02*
X123288074Y-47402180D01*
X123288074Y-47402180D02*
X123335693Y-47449800D01*
X123335693Y-47449800D02*
X123430931Y-47497419D01*
X123430931Y-47497419D02*
X123573788Y-47497419D01*
X122811883Y-47497419D02*
X122811883Y-46497419D01*
X122716645Y-47116466D02*
X122430931Y-47497419D01*
X122430931Y-46830752D02*
X122811883Y-47211704D01*
X121621407Y-47449800D02*
X121716645Y-47497419D01*
X121716645Y-47497419D02*
X121907121Y-47497419D01*
X121907121Y-47497419D02*
X122002359Y-47449800D01*
X122002359Y-47449800D02*
X122049978Y-47354561D01*
X122049978Y-47354561D02*
X122049978Y-46973609D01*
X122049978Y-46973609D02*
X122002359Y-46878371D01*
X122002359Y-46878371D02*
X121907121Y-46830752D01*
X121907121Y-46830752D02*
X121716645Y-46830752D01*
X121716645Y-46830752D02*
X121621407Y-46878371D01*
X121621407Y-46878371D02*
X121573788Y-46973609D01*
X121573788Y-46973609D02*
X121573788Y-47068847D01*
X121573788Y-47068847D02*
X122049978Y-47164085D01*
X121145216Y-47497419D02*
X121145216Y-46830752D01*
X121145216Y-47021228D02*
X121097597Y-46925990D01*
X121097597Y-46925990D02*
X121049978Y-46878371D01*
X121049978Y-46878371D02*
X120954740Y-46830752D01*
X120954740Y-46830752D02*
X120859502Y-46830752D01*
X120002359Y-47497419D02*
X120573787Y-47497419D01*
X120288073Y-47497419D02*
X120288073Y-46497419D01*
X120288073Y-46497419D02*
X120383311Y-46640276D01*
X120383311Y-46640276D02*
X120478549Y-46735514D01*
X120478549Y-46735514D02*
X120573787Y-46783133D01*
X118859502Y-46449800D02*
X119716644Y-47735514D01*
X118526168Y-47497419D02*
X118526168Y-46497419D01*
X118526168Y-46497419D02*
X118192835Y-47211704D01*
X118192835Y-47211704D02*
X117859502Y-46497419D01*
X117859502Y-46497419D02*
X117859502Y-47497419D01*
X117383311Y-47497419D02*
X117383311Y-46830752D01*
X117383311Y-46497419D02*
X117430930Y-46545038D01*
X117430930Y-46545038D02*
X117383311Y-46592657D01*
X117383311Y-46592657D02*
X117335692Y-46545038D01*
X117335692Y-46545038D02*
X117383311Y-46497419D01*
X117383311Y-46497419D02*
X117383311Y-46592657D01*
X116907121Y-46830752D02*
X116907121Y-47497419D01*
X116907121Y-46925990D02*
X116859502Y-46878371D01*
X116859502Y-46878371D02*
X116764264Y-46830752D01*
X116764264Y-46830752D02*
X116621407Y-46830752D01*
X116621407Y-46830752D02*
X116526169Y-46878371D01*
X116526169Y-46878371D02*
X116478550Y-46973609D01*
X116478550Y-46973609D02*
X116478550Y-47497419D01*
X116002359Y-47497419D02*
X116002359Y-46830752D01*
X116002359Y-46497419D02*
X116049978Y-46545038D01*
X116049978Y-46545038D02*
X116002359Y-46592657D01*
X116002359Y-46592657D02*
X115954740Y-46545038D01*
X115954740Y-46545038D02*
X116002359Y-46497419D01*
X116002359Y-46497419D02*
X116002359Y-46592657D01*
X115526169Y-47497419D02*
X115526169Y-46497419D01*
X115526169Y-46497419D02*
X115192836Y-47211704D01*
X115192836Y-47211704D02*
X114859503Y-46497419D01*
X114859503Y-46497419D02*
X114859503Y-47497419D01*
X113954741Y-47497419D02*
X113954741Y-46973609D01*
X113954741Y-46973609D02*
X114002360Y-46878371D01*
X114002360Y-46878371D02*
X114097598Y-46830752D01*
X114097598Y-46830752D02*
X114288074Y-46830752D01*
X114288074Y-46830752D02*
X114383312Y-46878371D01*
X113954741Y-47449800D02*
X114049979Y-47497419D01*
X114049979Y-47497419D02*
X114288074Y-47497419D01*
X114288074Y-47497419D02*
X114383312Y-47449800D01*
X114383312Y-47449800D02*
X114430931Y-47354561D01*
X114430931Y-47354561D02*
X114430931Y-47259323D01*
X114430931Y-47259323D02*
X114383312Y-47164085D01*
X114383312Y-47164085D02*
X114288074Y-47116466D01*
X114288074Y-47116466D02*
X114049979Y-47116466D01*
X114049979Y-47116466D02*
X113954741Y-47068847D01*
X113049979Y-47449800D02*
X113145217Y-47497419D01*
X113145217Y-47497419D02*
X113335693Y-47497419D01*
X113335693Y-47497419D02*
X113430931Y-47449800D01*
X113430931Y-47449800D02*
X113478550Y-47402180D01*
X113478550Y-47402180D02*
X113526169Y-47306942D01*
X113526169Y-47306942D02*
X113526169Y-47021228D01*
X113526169Y-47021228D02*
X113478550Y-46925990D01*
X113478550Y-46925990D02*
X113430931Y-46878371D01*
X113430931Y-46878371D02*
X113335693Y-46830752D01*
X113335693Y-46830752D02*
X113145217Y-46830752D01*
X113145217Y-46830752D02*
X113049979Y-46878371D01*
X112621407Y-47497419D02*
X112621407Y-46830752D01*
X112621407Y-47021228D02*
X112573788Y-46925990D01*
X112573788Y-46925990D02*
X112526169Y-46878371D01*
X112526169Y-46878371D02*
X112430931Y-46830752D01*
X112430931Y-46830752D02*
X112335693Y-46830752D01*
X111859502Y-47497419D02*
X111954740Y-47449800D01*
X111954740Y-47449800D02*
X112002359Y-47402180D01*
X112002359Y-47402180D02*
X112049978Y-47306942D01*
X112049978Y-47306942D02*
X112049978Y-47021228D01*
X112049978Y-47021228D02*
X112002359Y-46925990D01*
X112002359Y-46925990D02*
X111954740Y-46878371D01*
X111954740Y-46878371D02*
X111859502Y-46830752D01*
X111859502Y-46830752D02*
X111716645Y-46830752D01*
X111716645Y-46830752D02*
X111621407Y-46878371D01*
X111621407Y-46878371D02*
X111573788Y-46925990D01*
X111573788Y-46925990D02*
X111526169Y-47021228D01*
X111526169Y-47021228D02*
X111526169Y-47306942D01*
X111526169Y-47306942D02*
X111573788Y-47402180D01*
X111573788Y-47402180D02*
X111621407Y-47449800D01*
X111621407Y-47449800D02*
X111716645Y-47497419D01*
X111716645Y-47497419D02*
X111859502Y-47497419D01*
X110573788Y-46545038D02*
X110669026Y-46497419D01*
X110669026Y-46497419D02*
X110811883Y-46497419D01*
X110811883Y-46497419D02*
X110954740Y-46545038D01*
X110954740Y-46545038D02*
X111049978Y-46640276D01*
X111049978Y-46640276D02*
X111097597Y-46735514D01*
X111097597Y-46735514D02*
X111145216Y-46925990D01*
X111145216Y-46925990D02*
X111145216Y-47068847D01*
X111145216Y-47068847D02*
X111097597Y-47259323D01*
X111097597Y-47259323D02*
X111049978Y-47354561D01*
X111049978Y-47354561D02*
X110954740Y-47449800D01*
X110954740Y-47449800D02*
X110811883Y-47497419D01*
X110811883Y-47497419D02*
X110716645Y-47497419D01*
X110716645Y-47497419D02*
X110573788Y-47449800D01*
X110573788Y-47449800D02*
X110526169Y-47402180D01*
X110526169Y-47402180D02*
X110526169Y-47068847D01*
X110526169Y-47068847D02*
X110716645Y-47068847D01*
X106280937Y-47402180D02*
X106328556Y-47449800D01*
X106328556Y-47449800D02*
X106471413Y-47497419D01*
X106471413Y-47497419D02*
X106566651Y-47497419D01*
X106566651Y-47497419D02*
X106709508Y-47449800D01*
X106709508Y-47449800D02*
X106804746Y-47354561D01*
X106804746Y-47354561D02*
X106852365Y-47259323D01*
X106852365Y-47259323D02*
X106899984Y-47068847D01*
X106899984Y-47068847D02*
X106899984Y-46925990D01*
X106899984Y-46925990D02*
X106852365Y-46735514D01*
X106852365Y-46735514D02*
X106804746Y-46640276D01*
X106804746Y-46640276D02*
X106709508Y-46545038D01*
X106709508Y-46545038D02*
X106566651Y-46497419D01*
X106566651Y-46497419D02*
X106471413Y-46497419D01*
X106471413Y-46497419D02*
X106328556Y-46545038D01*
X106328556Y-46545038D02*
X106280937Y-46592657D01*
X105852365Y-47497419D02*
X105852365Y-46830752D01*
X105852365Y-47021228D02*
X105804746Y-46925990D01*
X105804746Y-46925990D02*
X105757127Y-46878371D01*
X105757127Y-46878371D02*
X105661889Y-46830752D01*
X105661889Y-46830752D02*
X105566651Y-46830752D01*
X104852365Y-47449800D02*
X104947603Y-47497419D01*
X104947603Y-47497419D02*
X105138079Y-47497419D01*
X105138079Y-47497419D02*
X105233317Y-47449800D01*
X105233317Y-47449800D02*
X105280936Y-47354561D01*
X105280936Y-47354561D02*
X105280936Y-46973609D01*
X105280936Y-46973609D02*
X105233317Y-46878371D01*
X105233317Y-46878371D02*
X105138079Y-46830752D01*
X105138079Y-46830752D02*
X104947603Y-46830752D01*
X104947603Y-46830752D02*
X104852365Y-46878371D01*
X104852365Y-46878371D02*
X104804746Y-46973609D01*
X104804746Y-46973609D02*
X104804746Y-47068847D01*
X104804746Y-47068847D02*
X105280936Y-47164085D01*
X103947603Y-47497419D02*
X103947603Y-46973609D01*
X103947603Y-46973609D02*
X103995222Y-46878371D01*
X103995222Y-46878371D02*
X104090460Y-46830752D01*
X104090460Y-46830752D02*
X104280936Y-46830752D01*
X104280936Y-46830752D02*
X104376174Y-46878371D01*
X103947603Y-47449800D02*
X104042841Y-47497419D01*
X104042841Y-47497419D02*
X104280936Y-47497419D01*
X104280936Y-47497419D02*
X104376174Y-47449800D01*
X104376174Y-47449800D02*
X104423793Y-47354561D01*
X104423793Y-47354561D02*
X104423793Y-47259323D01*
X104423793Y-47259323D02*
X104376174Y-47164085D01*
X104376174Y-47164085D02*
X104280936Y-47116466D01*
X104280936Y-47116466D02*
X104042841Y-47116466D01*
X104042841Y-47116466D02*
X103947603Y-47068847D01*
X103614269Y-46830752D02*
X103233317Y-46830752D01*
X103471412Y-46497419D02*
X103471412Y-47354561D01*
X103471412Y-47354561D02*
X103423793Y-47449800D01*
X103423793Y-47449800D02*
X103328555Y-47497419D01*
X103328555Y-47497419D02*
X103233317Y-47497419D01*
X102519031Y-47449800D02*
X102614269Y-47497419D01*
X102614269Y-47497419D02*
X102804745Y-47497419D01*
X102804745Y-47497419D02*
X102899983Y-47449800D01*
X102899983Y-47449800D02*
X102947602Y-47354561D01*
X102947602Y-47354561D02*
X102947602Y-46973609D01*
X102947602Y-46973609D02*
X102899983Y-46878371D01*
X102899983Y-46878371D02*
X102804745Y-46830752D01*
X102804745Y-46830752D02*
X102614269Y-46830752D01*
X102614269Y-46830752D02*
X102519031Y-46878371D01*
X102519031Y-46878371D02*
X102471412Y-46973609D01*
X102471412Y-46973609D02*
X102471412Y-47068847D01*
X102471412Y-47068847D02*
X102947602Y-47164085D01*
X101614269Y-47497419D02*
X101614269Y-46497419D01*
X101614269Y-47449800D02*
X101709507Y-47497419D01*
X101709507Y-47497419D02*
X101899983Y-47497419D01*
X101899983Y-47497419D02*
X101995221Y-47449800D01*
X101995221Y-47449800D02*
X102042840Y-47402180D01*
X102042840Y-47402180D02*
X102090459Y-47306942D01*
X102090459Y-47306942D02*
X102090459Y-47021228D01*
X102090459Y-47021228D02*
X102042840Y-46925990D01*
X102042840Y-46925990D02*
X101995221Y-46878371D01*
X101995221Y-46878371D02*
X101899983Y-46830752D01*
X101899983Y-46830752D02*
X101709507Y-46830752D01*
X101709507Y-46830752D02*
X101614269Y-46878371D01*
X100376173Y-47497419D02*
X100376173Y-46497419D01*
X100376173Y-46878371D02*
X100280935Y-46830752D01*
X100280935Y-46830752D02*
X100090459Y-46830752D01*
X100090459Y-46830752D02*
X99995221Y-46878371D01*
X99995221Y-46878371D02*
X99947602Y-46925990D01*
X99947602Y-46925990D02*
X99899983Y-47021228D01*
X99899983Y-47021228D02*
X99899983Y-47306942D01*
X99899983Y-47306942D02*
X99947602Y-47402180D01*
X99947602Y-47402180D02*
X99995221Y-47449800D01*
X99995221Y-47449800D02*
X100090459Y-47497419D01*
X100090459Y-47497419D02*
X100280935Y-47497419D01*
X100280935Y-47497419D02*
X100376173Y-47449800D01*
X99566649Y-46830752D02*
X99328554Y-47497419D01*
X99090459Y-46830752D02*
X99328554Y-47497419D01*
X99328554Y-47497419D02*
X99423792Y-47735514D01*
X99423792Y-47735514D02*
X99471411Y-47783133D01*
X99471411Y-47783133D02*
X99566649Y-47830752D01*
X97328554Y-47021228D02*
X97376173Y-46973609D01*
X97376173Y-46973609D02*
X97471411Y-46925990D01*
X97471411Y-46925990D02*
X97566649Y-46925990D01*
X97566649Y-46925990D02*
X97661887Y-46973609D01*
X97661887Y-46973609D02*
X97709506Y-47021228D01*
X97709506Y-47021228D02*
X97757125Y-47116466D01*
X97757125Y-47116466D02*
X97757125Y-47211704D01*
X97757125Y-47211704D02*
X97709506Y-47306942D01*
X97709506Y-47306942D02*
X97661887Y-47354561D01*
X97661887Y-47354561D02*
X97566649Y-47402180D01*
X97566649Y-47402180D02*
X97471411Y-47402180D01*
X97471411Y-47402180D02*
X97376173Y-47354561D01*
X97376173Y-47354561D02*
X97328554Y-47306942D01*
X97328554Y-46925990D02*
X97328554Y-47306942D01*
X97328554Y-47306942D02*
X97280935Y-47354561D01*
X97280935Y-47354561D02*
X97233316Y-47354561D01*
X97233316Y-47354561D02*
X97138077Y-47306942D01*
X97138077Y-47306942D02*
X97090458Y-47211704D01*
X97090458Y-47211704D02*
X97090458Y-46973609D01*
X97090458Y-46973609D02*
X97185697Y-46830752D01*
X97185697Y-46830752D02*
X97328554Y-46735514D01*
X97328554Y-46735514D02*
X97519030Y-46687895D01*
X97519030Y-46687895D02*
X97709506Y-46735514D01*
X97709506Y-46735514D02*
X97852363Y-46830752D01*
X97852363Y-46830752D02*
X97947601Y-46973609D01*
X97947601Y-46973609D02*
X97995220Y-47164085D01*
X97995220Y-47164085D02*
X97947601Y-47354561D01*
X97947601Y-47354561D02*
X97852363Y-47497419D01*
X97852363Y-47497419D02*
X97709506Y-47592657D01*
X97709506Y-47592657D02*
X97519030Y-47640276D01*
X97519030Y-47640276D02*
X97328554Y-47592657D01*
X97328554Y-47592657D02*
X97185697Y-47497419D01*
X96233316Y-47449800D02*
X96328554Y-47497419D01*
X96328554Y-47497419D02*
X96519030Y-47497419D01*
X96519030Y-47497419D02*
X96614268Y-47449800D01*
X96614268Y-47449800D02*
X96661887Y-47402180D01*
X96661887Y-47402180D02*
X96709506Y-47306942D01*
X96709506Y-47306942D02*
X96709506Y-47021228D01*
X96709506Y-47021228D02*
X96661887Y-46925990D01*
X96661887Y-46925990D02*
X96614268Y-46878371D01*
X96614268Y-46878371D02*
X96519030Y-46830752D01*
X96519030Y-46830752D02*
X96328554Y-46830752D01*
X96328554Y-46830752D02*
X96233316Y-46878371D01*
X95661887Y-47497419D02*
X95757125Y-47449800D01*
X95757125Y-47449800D02*
X95804744Y-47402180D01*
X95804744Y-47402180D02*
X95852363Y-47306942D01*
X95852363Y-47306942D02*
X95852363Y-47021228D01*
X95852363Y-47021228D02*
X95804744Y-46925990D01*
X95804744Y-46925990D02*
X95757125Y-46878371D01*
X95757125Y-46878371D02*
X95661887Y-46830752D01*
X95661887Y-46830752D02*
X95519030Y-46830752D01*
X95519030Y-46830752D02*
X95423792Y-46878371D01*
X95423792Y-46878371D02*
X95376173Y-46925990D01*
X95376173Y-46925990D02*
X95328554Y-47021228D01*
X95328554Y-47021228D02*
X95328554Y-47306942D01*
X95328554Y-47306942D02*
X95376173Y-47402180D01*
X95376173Y-47402180D02*
X95423792Y-47449800D01*
X95423792Y-47449800D02*
X95519030Y-47497419D01*
X95519030Y-47497419D02*
X95661887Y-47497419D01*
X94471411Y-47497419D02*
X94471411Y-46497419D01*
X94471411Y-47449800D02*
X94566649Y-47497419D01*
X94566649Y-47497419D02*
X94757125Y-47497419D01*
X94757125Y-47497419D02*
X94852363Y-47449800D01*
X94852363Y-47449800D02*
X94899982Y-47402180D01*
X94899982Y-47402180D02*
X94947601Y-47306942D01*
X94947601Y-47306942D02*
X94947601Y-47021228D01*
X94947601Y-47021228D02*
X94899982Y-46925990D01*
X94899982Y-46925990D02*
X94852363Y-46878371D01*
X94852363Y-46878371D02*
X94757125Y-46830752D01*
X94757125Y-46830752D02*
X94566649Y-46830752D01*
X94566649Y-46830752D02*
X94471411Y-46878371D01*
X93614268Y-47449800D02*
X93709506Y-47497419D01*
X93709506Y-47497419D02*
X93899982Y-47497419D01*
X93899982Y-47497419D02*
X93995220Y-47449800D01*
X93995220Y-47449800D02*
X94042839Y-47354561D01*
X94042839Y-47354561D02*
X94042839Y-46973609D01*
X94042839Y-46973609D02*
X93995220Y-46878371D01*
X93995220Y-46878371D02*
X93899982Y-46830752D01*
X93899982Y-46830752D02*
X93709506Y-46830752D01*
X93709506Y-46830752D02*
X93614268Y-46878371D01*
X93614268Y-46878371D02*
X93566649Y-46973609D01*
X93566649Y-46973609D02*
X93566649Y-47068847D01*
X93566649Y-47068847D02*
X94042839Y-47164085D01*
X92709506Y-47449800D02*
X92804744Y-47497419D01*
X92804744Y-47497419D02*
X92995220Y-47497419D01*
X92995220Y-47497419D02*
X93090458Y-47449800D01*
X93090458Y-47449800D02*
X93138077Y-47402180D01*
X93138077Y-47402180D02*
X93185696Y-47306942D01*
X93185696Y-47306942D02*
X93185696Y-47021228D01*
X93185696Y-47021228D02*
X93138077Y-46925990D01*
X93138077Y-46925990D02*
X93090458Y-46878371D01*
X93090458Y-46878371D02*
X92995220Y-46830752D01*
X92995220Y-46830752D02*
X92804744Y-46830752D01*
X92804744Y-46830752D02*
X92709506Y-46878371D01*
X92138077Y-47497419D02*
X92233315Y-47449800D01*
X92233315Y-47449800D02*
X92280934Y-47402180D01*
X92280934Y-47402180D02*
X92328553Y-47306942D01*
X92328553Y-47306942D02*
X92328553Y-47021228D01*
X92328553Y-47021228D02*
X92280934Y-46925990D01*
X92280934Y-46925990D02*
X92233315Y-46878371D01*
X92233315Y-46878371D02*
X92138077Y-46830752D01*
X92138077Y-46830752D02*
X91995220Y-46830752D01*
X91995220Y-46830752D02*
X91899982Y-46878371D01*
X91899982Y-46878371D02*
X91852363Y-46925990D01*
X91852363Y-46925990D02*
X91804744Y-47021228D01*
X91804744Y-47021228D02*
X91804744Y-47306942D01*
X91804744Y-47306942D02*
X91852363Y-47402180D01*
X91852363Y-47402180D02*
X91899982Y-47449800D01*
X91899982Y-47449800D02*
X91995220Y-47497419D01*
X91995220Y-47497419D02*
X92138077Y-47497419D01*
X91233315Y-47497419D02*
X91328553Y-47449800D01*
X91328553Y-47449800D02*
X91376172Y-47402180D01*
X91376172Y-47402180D02*
X91423791Y-47306942D01*
X91423791Y-47306942D02*
X91423791Y-47021228D01*
X91423791Y-47021228D02*
X91376172Y-46925990D01*
X91376172Y-46925990D02*
X91328553Y-46878371D01*
X91328553Y-46878371D02*
X91233315Y-46830752D01*
X91233315Y-46830752D02*
X91090458Y-46830752D01*
X91090458Y-46830752D02*
X90995220Y-46878371D01*
X90995220Y-46878371D02*
X90947601Y-46925990D01*
X90947601Y-46925990D02*
X90899982Y-47021228D01*
X90899982Y-47021228D02*
X90899982Y-47306942D01*
X90899982Y-47306942D02*
X90947601Y-47402180D01*
X90947601Y-47402180D02*
X90995220Y-47449800D01*
X90995220Y-47449800D02*
X91090458Y-47497419D01*
X91090458Y-47497419D02*
X91233315Y-47497419D01*
X90471410Y-47497419D02*
X90471410Y-46497419D01*
X90376172Y-47116466D02*
X90090458Y-47497419D01*
X90090458Y-46830752D02*
X90471410Y-47211704D01*
X89280934Y-47449800D02*
X89376172Y-47497419D01*
X89376172Y-47497419D02*
X89566648Y-47497419D01*
X89566648Y-47497419D02*
X89661886Y-47449800D01*
X89661886Y-47449800D02*
X89709505Y-47354561D01*
X89709505Y-47354561D02*
X89709505Y-46973609D01*
X89709505Y-46973609D02*
X89661886Y-46878371D01*
X89661886Y-46878371D02*
X89566648Y-46830752D01*
X89566648Y-46830752D02*
X89376172Y-46830752D01*
X89376172Y-46830752D02*
X89280934Y-46878371D01*
X89280934Y-46878371D02*
X89233315Y-46973609D01*
X89233315Y-46973609D02*
X89233315Y-47068847D01*
X89233315Y-47068847D02*
X89709505Y-47164085D01*
X88804743Y-47497419D02*
X88804743Y-46830752D01*
X88804743Y-47021228D02*
X88757124Y-46925990D01*
X88757124Y-46925990D02*
X88709505Y-46878371D01*
X88709505Y-46878371D02*
X88614267Y-46830752D01*
X88614267Y-46830752D02*
X88519029Y-46830752D01*
X87661886Y-47497419D02*
X88233314Y-47497419D01*
X87947600Y-47497419D02*
X87947600Y-46497419D01*
X87947600Y-46497419D02*
X88042838Y-46640276D01*
X88042838Y-46640276D02*
X88138076Y-46735514D01*
X88138076Y-46735514D02*
X88233314Y-46783133D01*
D11*
X160913094Y-113511069D02*
X160913094Y-112511069D01*
X160913094Y-112511069D02*
X160674999Y-112511069D01*
X160674999Y-112511069D02*
X160532142Y-112558688D01*
X160532142Y-112558688D02*
X160436904Y-112653926D01*
X160436904Y-112653926D02*
X160389285Y-112749164D01*
X160389285Y-112749164D02*
X160341666Y-112939640D01*
X160341666Y-112939640D02*
X160341666Y-113082497D01*
X160341666Y-113082497D02*
X160389285Y-113272973D01*
X160389285Y-113272973D02*
X160436904Y-113368211D01*
X160436904Y-113368211D02*
X160532142Y-113463450D01*
X160532142Y-113463450D02*
X160674999Y-113511069D01*
X160674999Y-113511069D02*
X160913094Y-113511069D01*
X159960713Y-112606307D02*
X159913094Y-112558688D01*
X159913094Y-112558688D02*
X159817856Y-112511069D01*
X159817856Y-112511069D02*
X159579761Y-112511069D01*
X159579761Y-112511069D02*
X159484523Y-112558688D01*
X159484523Y-112558688D02*
X159436904Y-112606307D01*
X159436904Y-112606307D02*
X159389285Y-112701545D01*
X159389285Y-112701545D02*
X159389285Y-112796783D01*
X159389285Y-112796783D02*
X159436904Y-112939640D01*
X159436904Y-112939640D02*
X160008332Y-113511069D01*
X160008332Y-113511069D02*
X159389285Y-113511069D01*
X163146428Y-115293545D02*
X163603571Y-115293545D01*
X163374999Y-115293545D02*
X163374999Y-114493545D01*
X163374999Y-114493545D02*
X163451190Y-114607830D01*
X163451190Y-114607830D02*
X163527380Y-114684021D01*
X163527380Y-114684021D02*
X163603571Y-114722116D01*
X89475594Y-87317319D02*
X89475594Y-86317319D01*
X89475594Y-86317319D02*
X89237499Y-86317319D01*
X89237499Y-86317319D02*
X89094642Y-86364938D01*
X89094642Y-86364938D02*
X88999404Y-86460176D01*
X88999404Y-86460176D02*
X88951785Y-86555414D01*
X88951785Y-86555414D02*
X88904166Y-86745890D01*
X88904166Y-86745890D02*
X88904166Y-86888747D01*
X88904166Y-86888747D02*
X88951785Y-87079223D01*
X88951785Y-87079223D02*
X88999404Y-87174461D01*
X88999404Y-87174461D02*
X89094642Y-87269700D01*
X89094642Y-87269700D02*
X89237499Y-87317319D01*
X89237499Y-87317319D02*
X89475594Y-87317319D01*
X87951785Y-87317319D02*
X88523213Y-87317319D01*
X88237499Y-87317319D02*
X88237499Y-86317319D01*
X88237499Y-86317319D02*
X88332737Y-86460176D01*
X88332737Y-86460176D02*
X88427975Y-86555414D01*
X88427975Y-86555414D02*
X88523213Y-86603033D01*
X91708928Y-89099795D02*
X92166071Y-89099795D01*
X91937499Y-89099795D02*
X91937499Y-88299795D01*
X91937499Y-88299795D02*
X92013690Y-88414080D01*
X92013690Y-88414080D02*
X92089880Y-88490271D01*
X92089880Y-88490271D02*
X92166071Y-88528366D01*
X89320535Y-56361069D02*
X89320535Y-55361069D01*
X89320535Y-55361069D02*
X89082440Y-55361069D01*
X89082440Y-55361069D02*
X88939583Y-55408688D01*
X88939583Y-55408688D02*
X88844345Y-55503926D01*
X88844345Y-55503926D02*
X88796726Y-55599164D01*
X88796726Y-55599164D02*
X88749107Y-55789640D01*
X88749107Y-55789640D02*
X88749107Y-55932497D01*
X88749107Y-55932497D02*
X88796726Y-56122973D01*
X88796726Y-56122973D02*
X88844345Y-56218211D01*
X88844345Y-56218211D02*
X88939583Y-56313450D01*
X88939583Y-56313450D02*
X89082440Y-56361069D01*
X89082440Y-56361069D02*
X89320535Y-56361069D01*
X87796726Y-56361069D02*
X88368154Y-56361069D01*
X88082440Y-56361069D02*
X88082440Y-55361069D01*
X88082440Y-55361069D02*
X88177678Y-55503926D01*
X88177678Y-55503926D02*
X88272916Y-55599164D01*
X88272916Y-55599164D02*
X88368154Y-55646783D01*
X87415773Y-55456307D02*
X87368154Y-55408688D01*
X87368154Y-55408688D02*
X87272916Y-55361069D01*
X87272916Y-55361069D02*
X87034821Y-55361069D01*
X87034821Y-55361069D02*
X86939583Y-55408688D01*
X86939583Y-55408688D02*
X86891964Y-55456307D01*
X86891964Y-55456307D02*
X86844345Y-55551545D01*
X86844345Y-55551545D02*
X86844345Y-55646783D01*
X86844345Y-55646783D02*
X86891964Y-55789640D01*
X86891964Y-55789640D02*
X87463392Y-56361069D01*
X87463392Y-56361069D02*
X86844345Y-56361069D01*
X91077678Y-58143545D02*
X91534821Y-58143545D01*
X91306249Y-58143545D02*
X91306249Y-57343545D01*
X91306249Y-57343545D02*
X91382440Y-57457830D01*
X91382440Y-57457830D02*
X91458630Y-57534021D01*
X91458630Y-57534021D02*
X91534821Y-57572116D01*
X162031844Y-65886069D02*
X162031844Y-64886069D01*
X162031844Y-64886069D02*
X161793749Y-64886069D01*
X161793749Y-64886069D02*
X161650892Y-64933688D01*
X161650892Y-64933688D02*
X161555654Y-65028926D01*
X161555654Y-65028926D02*
X161508035Y-65124164D01*
X161508035Y-65124164D02*
X161460416Y-65314640D01*
X161460416Y-65314640D02*
X161460416Y-65457497D01*
X161460416Y-65457497D02*
X161508035Y-65647973D01*
X161508035Y-65647973D02*
X161555654Y-65743211D01*
X161555654Y-65743211D02*
X161650892Y-65838450D01*
X161650892Y-65838450D02*
X161793749Y-65886069D01*
X161793749Y-65886069D02*
X162031844Y-65886069D01*
X160603273Y-64886069D02*
X160793749Y-64886069D01*
X160793749Y-64886069D02*
X160888987Y-64933688D01*
X160888987Y-64933688D02*
X160936606Y-64981307D01*
X160936606Y-64981307D02*
X161031844Y-65124164D01*
X161031844Y-65124164D02*
X161079463Y-65314640D01*
X161079463Y-65314640D02*
X161079463Y-65695592D01*
X161079463Y-65695592D02*
X161031844Y-65790830D01*
X161031844Y-65790830D02*
X160984225Y-65838450D01*
X160984225Y-65838450D02*
X160888987Y-65886069D01*
X160888987Y-65886069D02*
X160698511Y-65886069D01*
X160698511Y-65886069D02*
X160603273Y-65838450D01*
X160603273Y-65838450D02*
X160555654Y-65790830D01*
X160555654Y-65790830D02*
X160508035Y-65695592D01*
X160508035Y-65695592D02*
X160508035Y-65457497D01*
X160508035Y-65457497D02*
X160555654Y-65362259D01*
X160555654Y-65362259D02*
X160603273Y-65314640D01*
X160603273Y-65314640D02*
X160698511Y-65267021D01*
X160698511Y-65267021D02*
X160888987Y-65267021D01*
X160888987Y-65267021D02*
X160984225Y-65314640D01*
X160984225Y-65314640D02*
X161031844Y-65362259D01*
X161031844Y-65362259D02*
X161079463Y-65457497D01*
X164265178Y-67668545D02*
X164722321Y-67668545D01*
X164493749Y-67668545D02*
X164493749Y-66868545D01*
X164493749Y-66868545D02*
X164569940Y-66982830D01*
X164569940Y-66982830D02*
X164646130Y-67059021D01*
X164646130Y-67059021D02*
X164722321Y-67097116D01*
D12*
%TO.C,D2*%
X157375000Y-117206250D02*
X157375000Y-113806250D01*
X157375000Y-117206250D02*
X157975000Y-117806250D01*
X162975000Y-113806250D02*
X157375000Y-113806250D01*
X162975000Y-113806250D02*
X162975000Y-117806250D01*
X162975000Y-117806250D02*
X157975000Y-117806250D01*
%TO.C,D1*%
X85937500Y-91012500D02*
X85937500Y-87612500D01*
X85937500Y-91012500D02*
X86537500Y-91612500D01*
X91537500Y-87612500D02*
X85937500Y-87612500D01*
X91537500Y-87612500D02*
X91537500Y-91612500D01*
X91537500Y-91612500D02*
X86537500Y-91612500D01*
%TO.C,D12*%
X85306250Y-60056250D02*
X85306250Y-56656250D01*
X85306250Y-60056250D02*
X85906250Y-60656250D01*
X90906250Y-56656250D02*
X85306250Y-56656250D01*
X90906250Y-56656250D02*
X90906250Y-60656250D01*
X90906250Y-60656250D02*
X85906250Y-60656250D01*
%TO.C,D6*%
X158493750Y-69581250D02*
X158493750Y-66181250D01*
X158493750Y-69581250D02*
X159093750Y-70181250D01*
X164093750Y-66181250D02*
X158493750Y-66181250D01*
X164093750Y-66181250D02*
X164093750Y-70181250D01*
X164093750Y-70181250D02*
X159093750Y-70181250D01*
%TD*%
M02*
