%TF.GenerationSoftware,KiCad,Pcbnew,9.0.6*%
%TF.CreationDate,2025-11-14T16:16:25+06:00*%
%TF.ProjectId,t,742e6b69-6361-4645-9f70-636258585858,rev?*%
%TF.SameCoordinates,Original*%
%TF.FileFunction,Legend,Top*%
%TF.FilePolarity,Positive*%
%FSLAX46Y46*%
G04 Gerber Fmt 4.6, Leading zero omitted, Abs format (unit mm)*
G04 Created by KiCad (PCBNEW 9.0.6) date 2025-11-14 16:16:25*
%MOMM*%
%LPD*%
G01*
G04 APERTURE LIST*
%ADD10C,0.800000*%
%ADD11C,0.100000*%
%ADD12C,0.150000*%
%ADD13C,0.101600*%
%ADD14C,0.120000*%
%ADD15C,0.127000*%
%ADD16C,0.504000*%
%ADD17C,0.040000*%
G04 APERTURE END LIST*
D10*
X99481376Y-89008804D02*
X95481376Y-89008804D01*
X95481376Y-89008804D02*
X98338519Y-87675470D01*
X98338519Y-87675470D02*
X95481376Y-86342137D01*
X95481376Y-86342137D02*
X99481376Y-86342137D01*
X99481376Y-84437375D02*
X96814709Y-84437375D01*
X95481376Y-84437375D02*
X95671852Y-84627851D01*
X95671852Y-84627851D02*
X95862328Y-84437375D01*
X95862328Y-84437375D02*
X95671852Y-84246898D01*
X95671852Y-84246898D02*
X95481376Y-84437375D01*
X95481376Y-84437375D02*
X95862328Y-84437375D01*
X96814709Y-82532613D02*
X99481376Y-82532613D01*
X97195661Y-82532613D02*
X97005185Y-82342136D01*
X97005185Y-82342136D02*
X96814709Y-81961184D01*
X96814709Y-81961184D02*
X96814709Y-81389755D01*
X96814709Y-81389755D02*
X97005185Y-81008803D01*
X97005185Y-81008803D02*
X97386138Y-80818327D01*
X97386138Y-80818327D02*
X99481376Y-80818327D01*
X99481376Y-78913565D02*
X96814709Y-78913565D01*
X95481376Y-78913565D02*
X95671852Y-79104041D01*
X95671852Y-79104041D02*
X95862328Y-78913565D01*
X95862328Y-78913565D02*
X95671852Y-78723088D01*
X95671852Y-78723088D02*
X95481376Y-78913565D01*
X95481376Y-78913565D02*
X95862328Y-78913565D01*
X99481376Y-77008803D02*
X95481376Y-77008803D01*
X95481376Y-77008803D02*
X98338519Y-75675469D01*
X98338519Y-75675469D02*
X95481376Y-74342136D01*
X95481376Y-74342136D02*
X99481376Y-74342136D01*
X99481376Y-72437374D02*
X96814709Y-72437374D01*
X95481376Y-72437374D02*
X95671852Y-72627850D01*
X95671852Y-72627850D02*
X95862328Y-72437374D01*
X95862328Y-72437374D02*
X95671852Y-72246897D01*
X95671852Y-72246897D02*
X95481376Y-72437374D01*
X95481376Y-72437374D02*
X95862328Y-72437374D01*
X99290900Y-68818326D02*
X99481376Y-69199278D01*
X99481376Y-69199278D02*
X99481376Y-69961183D01*
X99481376Y-69961183D02*
X99290900Y-70342135D01*
X99290900Y-70342135D02*
X99100423Y-70532612D01*
X99100423Y-70532612D02*
X98719471Y-70723088D01*
X98719471Y-70723088D02*
X97576614Y-70723088D01*
X97576614Y-70723088D02*
X97195661Y-70532612D01*
X97195661Y-70532612D02*
X97005185Y-70342135D01*
X97005185Y-70342135D02*
X96814709Y-69961183D01*
X96814709Y-69961183D02*
X96814709Y-69199278D01*
X96814709Y-69199278D02*
X97005185Y-68818326D01*
X99481376Y-67104041D02*
X96814709Y-67104041D01*
X97576614Y-67104041D02*
X97195661Y-66913564D01*
X97195661Y-66913564D02*
X97005185Y-66723088D01*
X97005185Y-66723088D02*
X96814709Y-66342136D01*
X96814709Y-66342136D02*
X96814709Y-65961183D01*
X99481376Y-64056422D02*
X99290900Y-64437374D01*
X99290900Y-64437374D02*
X99100423Y-64627851D01*
X99100423Y-64627851D02*
X98719471Y-64818327D01*
X98719471Y-64818327D02*
X97576614Y-64818327D01*
X97576614Y-64818327D02*
X97195661Y-64627851D01*
X97195661Y-64627851D02*
X97005185Y-64437374D01*
X97005185Y-64437374D02*
X96814709Y-64056422D01*
X96814709Y-64056422D02*
X96814709Y-63484993D01*
X96814709Y-63484993D02*
X97005185Y-63104041D01*
X97005185Y-63104041D02*
X97195661Y-62913565D01*
X97195661Y-62913565D02*
X97576614Y-62723089D01*
X97576614Y-62723089D02*
X98719471Y-62723089D01*
X98719471Y-62723089D02*
X99100423Y-62913565D01*
X99100423Y-62913565D02*
X99290900Y-63104041D01*
X99290900Y-63104041D02*
X99481376Y-63484993D01*
X99481376Y-63484993D02*
X99481376Y-64056422D01*
X95671852Y-58913564D02*
X95481376Y-59294517D01*
X95481376Y-59294517D02*
X95481376Y-59865945D01*
X95481376Y-59865945D02*
X95671852Y-60437374D01*
X95671852Y-60437374D02*
X96052804Y-60818326D01*
X96052804Y-60818326D02*
X96433757Y-61008803D01*
X96433757Y-61008803D02*
X97195661Y-61199279D01*
X97195661Y-61199279D02*
X97767090Y-61199279D01*
X97767090Y-61199279D02*
X98528995Y-61008803D01*
X98528995Y-61008803D02*
X98909947Y-60818326D01*
X98909947Y-60818326D02*
X99290900Y-60437374D01*
X99290900Y-60437374D02*
X99481376Y-59865945D01*
X99481376Y-59865945D02*
X99481376Y-59484993D01*
X99481376Y-59484993D02*
X99290900Y-58913564D01*
X99290900Y-58913564D02*
X99100423Y-58723088D01*
X99100423Y-58723088D02*
X97767090Y-58723088D01*
X97767090Y-58723088D02*
X97767090Y-59484993D01*
X99100423Y-53961184D02*
X99290900Y-53770707D01*
X99290900Y-53770707D02*
X99481376Y-53961184D01*
X99481376Y-53961184D02*
X99290900Y-54151660D01*
X99290900Y-54151660D02*
X99100423Y-53961184D01*
X99100423Y-53961184D02*
X99481376Y-53961184D01*
X97957566Y-53961184D02*
X95671852Y-54151660D01*
X95671852Y-54151660D02*
X95481376Y-53961184D01*
X95481376Y-53961184D02*
X95671852Y-53770707D01*
X95671852Y-53770707D02*
X97957566Y-53961184D01*
X97957566Y-53961184D02*
X95481376Y-53961184D01*
D11*
X88981562Y-47402180D02*
X88933943Y-47449800D01*
X88933943Y-47449800D02*
X88791086Y-47497419D01*
X88791086Y-47497419D02*
X88695848Y-47497419D01*
X88695848Y-47497419D02*
X88552991Y-47449800D01*
X88552991Y-47449800D02*
X88457753Y-47354561D01*
X88457753Y-47354561D02*
X88410134Y-47259323D01*
X88410134Y-47259323D02*
X88362515Y-47068847D01*
X88362515Y-47068847D02*
X88362515Y-46925990D01*
X88362515Y-46925990D02*
X88410134Y-46735514D01*
X88410134Y-46735514D02*
X88457753Y-46640276D01*
X88457753Y-46640276D02*
X88552991Y-46545038D01*
X88552991Y-46545038D02*
X88695848Y-46497419D01*
X88695848Y-46497419D02*
X88791086Y-46497419D01*
X88791086Y-46497419D02*
X88933943Y-46545038D01*
X88933943Y-46545038D02*
X88981562Y-46592657D01*
X89410134Y-47497419D02*
X89410134Y-46830752D01*
X89410134Y-47021228D02*
X89457753Y-46925990D01*
X89457753Y-46925990D02*
X89505372Y-46878371D01*
X89505372Y-46878371D02*
X89600610Y-46830752D01*
X89600610Y-46830752D02*
X89695848Y-46830752D01*
X90410134Y-47449800D02*
X90314896Y-47497419D01*
X90314896Y-47497419D02*
X90124420Y-47497419D01*
X90124420Y-47497419D02*
X90029182Y-47449800D01*
X90029182Y-47449800D02*
X89981563Y-47354561D01*
X89981563Y-47354561D02*
X89981563Y-46973609D01*
X89981563Y-46973609D02*
X90029182Y-46878371D01*
X90029182Y-46878371D02*
X90124420Y-46830752D01*
X90124420Y-46830752D02*
X90314896Y-46830752D01*
X90314896Y-46830752D02*
X90410134Y-46878371D01*
X90410134Y-46878371D02*
X90457753Y-46973609D01*
X90457753Y-46973609D02*
X90457753Y-47068847D01*
X90457753Y-47068847D02*
X89981563Y-47164085D01*
X91314896Y-47497419D02*
X91314896Y-46973609D01*
X91314896Y-46973609D02*
X91267277Y-46878371D01*
X91267277Y-46878371D02*
X91172039Y-46830752D01*
X91172039Y-46830752D02*
X90981563Y-46830752D01*
X90981563Y-46830752D02*
X90886325Y-46878371D01*
X91314896Y-47449800D02*
X91219658Y-47497419D01*
X91219658Y-47497419D02*
X90981563Y-47497419D01*
X90981563Y-47497419D02*
X90886325Y-47449800D01*
X90886325Y-47449800D02*
X90838706Y-47354561D01*
X90838706Y-47354561D02*
X90838706Y-47259323D01*
X90838706Y-47259323D02*
X90886325Y-47164085D01*
X90886325Y-47164085D02*
X90981563Y-47116466D01*
X90981563Y-47116466D02*
X91219658Y-47116466D01*
X91219658Y-47116466D02*
X91314896Y-47068847D01*
X91648230Y-46830752D02*
X92029182Y-46830752D01*
X91791087Y-46497419D02*
X91791087Y-47354561D01*
X91791087Y-47354561D02*
X91838706Y-47449800D01*
X91838706Y-47449800D02*
X91933944Y-47497419D01*
X91933944Y-47497419D02*
X92029182Y-47497419D01*
X92743468Y-47449800D02*
X92648230Y-47497419D01*
X92648230Y-47497419D02*
X92457754Y-47497419D01*
X92457754Y-47497419D02*
X92362516Y-47449800D01*
X92362516Y-47449800D02*
X92314897Y-47354561D01*
X92314897Y-47354561D02*
X92314897Y-46973609D01*
X92314897Y-46973609D02*
X92362516Y-46878371D01*
X92362516Y-46878371D02*
X92457754Y-46830752D01*
X92457754Y-46830752D02*
X92648230Y-46830752D01*
X92648230Y-46830752D02*
X92743468Y-46878371D01*
X92743468Y-46878371D02*
X92791087Y-46973609D01*
X92791087Y-46973609D02*
X92791087Y-47068847D01*
X92791087Y-47068847D02*
X92314897Y-47164085D01*
X93648230Y-47497419D02*
X93648230Y-46497419D01*
X93648230Y-47449800D02*
X93552992Y-47497419D01*
X93552992Y-47497419D02*
X93362516Y-47497419D01*
X93362516Y-47497419D02*
X93267278Y-47449800D01*
X93267278Y-47449800D02*
X93219659Y-47402180D01*
X93219659Y-47402180D02*
X93172040Y-47306942D01*
X93172040Y-47306942D02*
X93172040Y-47021228D01*
X93172040Y-47021228D02*
X93219659Y-46925990D01*
X93219659Y-46925990D02*
X93267278Y-46878371D01*
X93267278Y-46878371D02*
X93362516Y-46830752D01*
X93362516Y-46830752D02*
X93552992Y-46830752D01*
X93552992Y-46830752D02*
X93648230Y-46878371D01*
X94886326Y-47497419D02*
X94886326Y-46497419D01*
X94886326Y-46878371D02*
X94981564Y-46830752D01*
X94981564Y-46830752D02*
X95172040Y-46830752D01*
X95172040Y-46830752D02*
X95267278Y-46878371D01*
X95267278Y-46878371D02*
X95314897Y-46925990D01*
X95314897Y-46925990D02*
X95362516Y-47021228D01*
X95362516Y-47021228D02*
X95362516Y-47306942D01*
X95362516Y-47306942D02*
X95314897Y-47402180D01*
X95314897Y-47402180D02*
X95267278Y-47449800D01*
X95267278Y-47449800D02*
X95172040Y-47497419D01*
X95172040Y-47497419D02*
X94981564Y-47497419D01*
X94981564Y-47497419D02*
X94886326Y-47449800D01*
X95695850Y-46830752D02*
X95933945Y-47497419D01*
X96172040Y-46830752D02*
X95933945Y-47497419D01*
X95933945Y-47497419D02*
X95838707Y-47735514D01*
X95838707Y-47735514D02*
X95791088Y-47783133D01*
X95791088Y-47783133D02*
X95695850Y-47830752D01*
X97933945Y-47021228D02*
X97886326Y-46973609D01*
X97886326Y-46973609D02*
X97791088Y-46925990D01*
X97791088Y-46925990D02*
X97695850Y-46925990D01*
X97695850Y-46925990D02*
X97600612Y-46973609D01*
X97600612Y-46973609D02*
X97552993Y-47021228D01*
X97552993Y-47021228D02*
X97505374Y-47116466D01*
X97505374Y-47116466D02*
X97505374Y-47211704D01*
X97505374Y-47211704D02*
X97552993Y-47306942D01*
X97552993Y-47306942D02*
X97600612Y-47354561D01*
X97600612Y-47354561D02*
X97695850Y-47402180D01*
X97695850Y-47402180D02*
X97791088Y-47402180D01*
X97791088Y-47402180D02*
X97886326Y-47354561D01*
X97886326Y-47354561D02*
X97933945Y-47306942D01*
X97933945Y-46925990D02*
X97933945Y-47306942D01*
X97933945Y-47306942D02*
X97981564Y-47354561D01*
X97981564Y-47354561D02*
X98029183Y-47354561D01*
X98029183Y-47354561D02*
X98124422Y-47306942D01*
X98124422Y-47306942D02*
X98172041Y-47211704D01*
X98172041Y-47211704D02*
X98172041Y-46973609D01*
X98172041Y-46973609D02*
X98076803Y-46830752D01*
X98076803Y-46830752D02*
X97933945Y-46735514D01*
X97933945Y-46735514D02*
X97743469Y-46687895D01*
X97743469Y-46687895D02*
X97552993Y-46735514D01*
X97552993Y-46735514D02*
X97410136Y-46830752D01*
X97410136Y-46830752D02*
X97314898Y-46973609D01*
X97314898Y-46973609D02*
X97267279Y-47164085D01*
X97267279Y-47164085D02*
X97314898Y-47354561D01*
X97314898Y-47354561D02*
X97410136Y-47497419D01*
X97410136Y-47497419D02*
X97552993Y-47592657D01*
X97552993Y-47592657D02*
X97743469Y-47640276D01*
X97743469Y-47640276D02*
X97933945Y-47592657D01*
X97933945Y-47592657D02*
X98076803Y-47497419D01*
X99029183Y-47449800D02*
X98933945Y-47497419D01*
X98933945Y-47497419D02*
X98743469Y-47497419D01*
X98743469Y-47497419D02*
X98648231Y-47449800D01*
X98648231Y-47449800D02*
X98600612Y-47402180D01*
X98600612Y-47402180D02*
X98552993Y-47306942D01*
X98552993Y-47306942D02*
X98552993Y-47021228D01*
X98552993Y-47021228D02*
X98600612Y-46925990D01*
X98600612Y-46925990D02*
X98648231Y-46878371D01*
X98648231Y-46878371D02*
X98743469Y-46830752D01*
X98743469Y-46830752D02*
X98933945Y-46830752D01*
X98933945Y-46830752D02*
X99029183Y-46878371D01*
X99600612Y-47497419D02*
X99505374Y-47449800D01*
X99505374Y-47449800D02*
X99457755Y-47402180D01*
X99457755Y-47402180D02*
X99410136Y-47306942D01*
X99410136Y-47306942D02*
X99410136Y-47021228D01*
X99410136Y-47021228D02*
X99457755Y-46925990D01*
X99457755Y-46925990D02*
X99505374Y-46878371D01*
X99505374Y-46878371D02*
X99600612Y-46830752D01*
X99600612Y-46830752D02*
X99743469Y-46830752D01*
X99743469Y-46830752D02*
X99838707Y-46878371D01*
X99838707Y-46878371D02*
X99886326Y-46925990D01*
X99886326Y-46925990D02*
X99933945Y-47021228D01*
X99933945Y-47021228D02*
X99933945Y-47306942D01*
X99933945Y-47306942D02*
X99886326Y-47402180D01*
X99886326Y-47402180D02*
X99838707Y-47449800D01*
X99838707Y-47449800D02*
X99743469Y-47497419D01*
X99743469Y-47497419D02*
X99600612Y-47497419D01*
X100791088Y-47497419D02*
X100791088Y-46497419D01*
X100791088Y-47449800D02*
X100695850Y-47497419D01*
X100695850Y-47497419D02*
X100505374Y-47497419D01*
X100505374Y-47497419D02*
X100410136Y-47449800D01*
X100410136Y-47449800D02*
X100362517Y-47402180D01*
X100362517Y-47402180D02*
X100314898Y-47306942D01*
X100314898Y-47306942D02*
X100314898Y-47021228D01*
X100314898Y-47021228D02*
X100362517Y-46925990D01*
X100362517Y-46925990D02*
X100410136Y-46878371D01*
X100410136Y-46878371D02*
X100505374Y-46830752D01*
X100505374Y-46830752D02*
X100695850Y-46830752D01*
X100695850Y-46830752D02*
X100791088Y-46878371D01*
X101648231Y-47449800D02*
X101552993Y-47497419D01*
X101552993Y-47497419D02*
X101362517Y-47497419D01*
X101362517Y-47497419D02*
X101267279Y-47449800D01*
X101267279Y-47449800D02*
X101219660Y-47354561D01*
X101219660Y-47354561D02*
X101219660Y-46973609D01*
X101219660Y-46973609D02*
X101267279Y-46878371D01*
X101267279Y-46878371D02*
X101362517Y-46830752D01*
X101362517Y-46830752D02*
X101552993Y-46830752D01*
X101552993Y-46830752D02*
X101648231Y-46878371D01*
X101648231Y-46878371D02*
X101695850Y-46973609D01*
X101695850Y-46973609D02*
X101695850Y-47068847D01*
X101695850Y-47068847D02*
X101219660Y-47164085D01*
X102552993Y-47449800D02*
X102457755Y-47497419D01*
X102457755Y-47497419D02*
X102267279Y-47497419D01*
X102267279Y-47497419D02*
X102172041Y-47449800D01*
X102172041Y-47449800D02*
X102124422Y-47402180D01*
X102124422Y-47402180D02*
X102076803Y-47306942D01*
X102076803Y-47306942D02*
X102076803Y-47021228D01*
X102076803Y-47021228D02*
X102124422Y-46925990D01*
X102124422Y-46925990D02*
X102172041Y-46878371D01*
X102172041Y-46878371D02*
X102267279Y-46830752D01*
X102267279Y-46830752D02*
X102457755Y-46830752D01*
X102457755Y-46830752D02*
X102552993Y-46878371D01*
X103124422Y-47497419D02*
X103029184Y-47449800D01*
X103029184Y-47449800D02*
X102981565Y-47402180D01*
X102981565Y-47402180D02*
X102933946Y-47306942D01*
X102933946Y-47306942D02*
X102933946Y-47021228D01*
X102933946Y-47021228D02*
X102981565Y-46925990D01*
X102981565Y-46925990D02*
X103029184Y-46878371D01*
X103029184Y-46878371D02*
X103124422Y-46830752D01*
X103124422Y-46830752D02*
X103267279Y-46830752D01*
X103267279Y-46830752D02*
X103362517Y-46878371D01*
X103362517Y-46878371D02*
X103410136Y-46925990D01*
X103410136Y-46925990D02*
X103457755Y-47021228D01*
X103457755Y-47021228D02*
X103457755Y-47306942D01*
X103457755Y-47306942D02*
X103410136Y-47402180D01*
X103410136Y-47402180D02*
X103362517Y-47449800D01*
X103362517Y-47449800D02*
X103267279Y-47497419D01*
X103267279Y-47497419D02*
X103124422Y-47497419D01*
X104029184Y-47497419D02*
X103933946Y-47449800D01*
X103933946Y-47449800D02*
X103886327Y-47402180D01*
X103886327Y-47402180D02*
X103838708Y-47306942D01*
X103838708Y-47306942D02*
X103838708Y-47021228D01*
X103838708Y-47021228D02*
X103886327Y-46925990D01*
X103886327Y-46925990D02*
X103933946Y-46878371D01*
X103933946Y-46878371D02*
X104029184Y-46830752D01*
X104029184Y-46830752D02*
X104172041Y-46830752D01*
X104172041Y-46830752D02*
X104267279Y-46878371D01*
X104267279Y-46878371D02*
X104314898Y-46925990D01*
X104314898Y-46925990D02*
X104362517Y-47021228D01*
X104362517Y-47021228D02*
X104362517Y-47306942D01*
X104362517Y-47306942D02*
X104314898Y-47402180D01*
X104314898Y-47402180D02*
X104267279Y-47449800D01*
X104267279Y-47449800D02*
X104172041Y-47497419D01*
X104172041Y-47497419D02*
X104029184Y-47497419D01*
X104791089Y-47497419D02*
X104791089Y-46497419D01*
X104886327Y-47116466D02*
X105172041Y-47497419D01*
X105172041Y-46830752D02*
X104791089Y-47211704D01*
X105981565Y-47449800D02*
X105886327Y-47497419D01*
X105886327Y-47497419D02*
X105695851Y-47497419D01*
X105695851Y-47497419D02*
X105600613Y-47449800D01*
X105600613Y-47449800D02*
X105552994Y-47354561D01*
X105552994Y-47354561D02*
X105552994Y-46973609D01*
X105552994Y-46973609D02*
X105600613Y-46878371D01*
X105600613Y-46878371D02*
X105695851Y-46830752D01*
X105695851Y-46830752D02*
X105886327Y-46830752D01*
X105886327Y-46830752D02*
X105981565Y-46878371D01*
X105981565Y-46878371D02*
X106029184Y-46973609D01*
X106029184Y-46973609D02*
X106029184Y-47068847D01*
X106029184Y-47068847D02*
X105552994Y-47164085D01*
X106457756Y-47497419D02*
X106457756Y-46830752D01*
X106457756Y-47021228D02*
X106505375Y-46925990D01*
X106505375Y-46925990D02*
X106552994Y-46878371D01*
X106552994Y-46878371D02*
X106648232Y-46830752D01*
X106648232Y-46830752D02*
X106743470Y-46830752D01*
X107600613Y-47497419D02*
X107029185Y-47497419D01*
X107314899Y-47497419D02*
X107314899Y-46497419D01*
X107314899Y-46497419D02*
X107219661Y-46640276D01*
X107219661Y-46640276D02*
X107124423Y-46735514D01*
X107124423Y-46735514D02*
X107029185Y-46783133D01*
D12*
X169283155Y-119778569D02*
X169283155Y-118778569D01*
X169283155Y-118778569D02*
X169521250Y-118778569D01*
X169521250Y-118778569D02*
X169664107Y-118826188D01*
X169664107Y-118826188D02*
X169759345Y-118921426D01*
X169759345Y-118921426D02*
X169806964Y-119016664D01*
X169806964Y-119016664D02*
X169854583Y-119207140D01*
X169854583Y-119207140D02*
X169854583Y-119349997D01*
X169854583Y-119349997D02*
X169806964Y-119540473D01*
X169806964Y-119540473D02*
X169759345Y-119635711D01*
X169759345Y-119635711D02*
X169664107Y-119730950D01*
X169664107Y-119730950D02*
X169521250Y-119778569D01*
X169521250Y-119778569D02*
X169283155Y-119778569D01*
X170330774Y-119778569D02*
X170521250Y-119778569D01*
X170521250Y-119778569D02*
X170616488Y-119730950D01*
X170616488Y-119730950D02*
X170664107Y-119683330D01*
X170664107Y-119683330D02*
X170759345Y-119540473D01*
X170759345Y-119540473D02*
X170806964Y-119349997D01*
X170806964Y-119349997D02*
X170806964Y-118969045D01*
X170806964Y-118969045D02*
X170759345Y-118873807D01*
X170759345Y-118873807D02*
X170711726Y-118826188D01*
X170711726Y-118826188D02*
X170616488Y-118778569D01*
X170616488Y-118778569D02*
X170426012Y-118778569D01*
X170426012Y-118778569D02*
X170330774Y-118826188D01*
X170330774Y-118826188D02*
X170283155Y-118873807D01*
X170283155Y-118873807D02*
X170235536Y-118969045D01*
X170235536Y-118969045D02*
X170235536Y-119207140D01*
X170235536Y-119207140D02*
X170283155Y-119302378D01*
X170283155Y-119302378D02*
X170330774Y-119349997D01*
X170330774Y-119349997D02*
X170426012Y-119397616D01*
X170426012Y-119397616D02*
X170616488Y-119397616D01*
X170616488Y-119397616D02*
X170711726Y-119349997D01*
X170711726Y-119349997D02*
X170759345Y-119302378D01*
X170759345Y-119302378D02*
X170806964Y-119207140D01*
X165949345Y-120098569D02*
X165949345Y-119098569D01*
X166520773Y-120098569D02*
X166092202Y-119527140D01*
X166520773Y-119098569D02*
X165949345Y-119669997D01*
X115410417Y-51900950D02*
X115553274Y-51948569D01*
X115553274Y-51948569D02*
X115791369Y-51948569D01*
X115791369Y-51948569D02*
X115886607Y-51900950D01*
X115886607Y-51900950D02*
X115934226Y-51853330D01*
X115934226Y-51853330D02*
X115981845Y-51758092D01*
X115981845Y-51758092D02*
X115981845Y-51662854D01*
X115981845Y-51662854D02*
X115934226Y-51567616D01*
X115934226Y-51567616D02*
X115886607Y-51519997D01*
X115886607Y-51519997D02*
X115791369Y-51472378D01*
X115791369Y-51472378D02*
X115600893Y-51424759D01*
X115600893Y-51424759D02*
X115505655Y-51377140D01*
X115505655Y-51377140D02*
X115458036Y-51329521D01*
X115458036Y-51329521D02*
X115410417Y-51234283D01*
X115410417Y-51234283D02*
X115410417Y-51139045D01*
X115410417Y-51139045D02*
X115458036Y-51043807D01*
X115458036Y-51043807D02*
X115505655Y-50996188D01*
X115505655Y-50996188D02*
X115600893Y-50948569D01*
X115600893Y-50948569D02*
X115838988Y-50948569D01*
X115838988Y-50948569D02*
X115981845Y-50996188D01*
X116315179Y-50948569D02*
X116553274Y-51948569D01*
X116553274Y-51948569D02*
X116743750Y-51234283D01*
X116743750Y-51234283D02*
X116934226Y-51948569D01*
X116934226Y-51948569D02*
X117172322Y-50948569D01*
X117458036Y-50948569D02*
X118124702Y-50948569D01*
X118124702Y-50948569D02*
X117696131Y-51948569D01*
X145986667Y-102070700D02*
X146129524Y-102118319D01*
X146129524Y-102118319D02*
X146367619Y-102118319D01*
X146367619Y-102118319D02*
X146462857Y-102070700D01*
X146462857Y-102070700D02*
X146510476Y-102023080D01*
X146510476Y-102023080D02*
X146558095Y-101927842D01*
X146558095Y-101927842D02*
X146558095Y-101832604D01*
X146558095Y-101832604D02*
X146510476Y-101737366D01*
X146510476Y-101737366D02*
X146462857Y-101689747D01*
X146462857Y-101689747D02*
X146367619Y-101642128D01*
X146367619Y-101642128D02*
X146177143Y-101594509D01*
X146177143Y-101594509D02*
X146081905Y-101546890D01*
X146081905Y-101546890D02*
X146034286Y-101499271D01*
X146034286Y-101499271D02*
X145986667Y-101404033D01*
X145986667Y-101404033D02*
X145986667Y-101308795D01*
X145986667Y-101308795D02*
X146034286Y-101213557D01*
X146034286Y-101213557D02*
X146081905Y-101165938D01*
X146081905Y-101165938D02*
X146177143Y-101118319D01*
X146177143Y-101118319D02*
X146415238Y-101118319D01*
X146415238Y-101118319D02*
X146558095Y-101165938D01*
X146891429Y-101118319D02*
X147129524Y-102118319D01*
X147129524Y-102118319D02*
X147320000Y-101404033D01*
X147320000Y-101404033D02*
X147510476Y-102118319D01*
X147510476Y-102118319D02*
X147748572Y-101118319D01*
X148605714Y-101118319D02*
X148129524Y-101118319D01*
X148129524Y-101118319D02*
X148081905Y-101594509D01*
X148081905Y-101594509D02*
X148129524Y-101546890D01*
X148129524Y-101546890D02*
X148224762Y-101499271D01*
X148224762Y-101499271D02*
X148462857Y-101499271D01*
X148462857Y-101499271D02*
X148558095Y-101546890D01*
X148558095Y-101546890D02*
X148605714Y-101594509D01*
X148605714Y-101594509D02*
X148653333Y-101689747D01*
X148653333Y-101689747D02*
X148653333Y-101927842D01*
X148653333Y-101927842D02*
X148605714Y-102023080D01*
X148605714Y-102023080D02*
X148558095Y-102070700D01*
X148558095Y-102070700D02*
X148462857Y-102118319D01*
X148462857Y-102118319D02*
X148224762Y-102118319D01*
X148224762Y-102118319D02*
X148129524Y-102070700D01*
X148129524Y-102070700D02*
X148081905Y-102023080D01*
X120110417Y-75876950D02*
X120253274Y-75924569D01*
X120253274Y-75924569D02*
X120491369Y-75924569D01*
X120491369Y-75924569D02*
X120586607Y-75876950D01*
X120586607Y-75876950D02*
X120634226Y-75829330D01*
X120634226Y-75829330D02*
X120681845Y-75734092D01*
X120681845Y-75734092D02*
X120681845Y-75638854D01*
X120681845Y-75638854D02*
X120634226Y-75543616D01*
X120634226Y-75543616D02*
X120586607Y-75495997D01*
X120586607Y-75495997D02*
X120491369Y-75448378D01*
X120491369Y-75448378D02*
X120300893Y-75400759D01*
X120300893Y-75400759D02*
X120205655Y-75353140D01*
X120205655Y-75353140D02*
X120158036Y-75305521D01*
X120158036Y-75305521D02*
X120110417Y-75210283D01*
X120110417Y-75210283D02*
X120110417Y-75115045D01*
X120110417Y-75115045D02*
X120158036Y-75019807D01*
X120158036Y-75019807D02*
X120205655Y-74972188D01*
X120205655Y-74972188D02*
X120300893Y-74924569D01*
X120300893Y-74924569D02*
X120538988Y-74924569D01*
X120538988Y-74924569D02*
X120681845Y-74972188D01*
X121015179Y-74924569D02*
X121253274Y-75924569D01*
X121253274Y-75924569D02*
X121443750Y-75210283D01*
X121443750Y-75210283D02*
X121634226Y-75924569D01*
X121634226Y-75924569D02*
X121872322Y-74924569D01*
X122777083Y-75924569D02*
X122205655Y-75924569D01*
X122491369Y-75924569D02*
X122491369Y-74924569D01*
X122491369Y-74924569D02*
X122396131Y-75067426D01*
X122396131Y-75067426D02*
X122300893Y-75162664D01*
X122300893Y-75162664D02*
X122205655Y-75210283D01*
D13*
X79153479Y-118983809D02*
X79667526Y-118983809D01*
X79667526Y-118983809D02*
X79728002Y-118953571D01*
X79728002Y-118953571D02*
X79758241Y-118923333D01*
X79758241Y-118923333D02*
X79788479Y-118862857D01*
X79788479Y-118862857D02*
X79788479Y-118741904D01*
X79788479Y-118741904D02*
X79758241Y-118681428D01*
X79758241Y-118681428D02*
X79728002Y-118651190D01*
X79728002Y-118651190D02*
X79667526Y-118620952D01*
X79667526Y-118620952D02*
X79153479Y-118620952D01*
X79788479Y-117985952D02*
X79788479Y-118348809D01*
X79788479Y-118167381D02*
X79153479Y-118167381D01*
X79153479Y-118167381D02*
X79244193Y-118227857D01*
X79244193Y-118227857D02*
X79304669Y-118288333D01*
X79304669Y-118288333D02*
X79334907Y-118348809D01*
D12*
X115943155Y-119778569D02*
X115943155Y-118778569D01*
X115943155Y-118778569D02*
X116181250Y-118778569D01*
X116181250Y-118778569D02*
X116324107Y-118826188D01*
X116324107Y-118826188D02*
X116419345Y-118921426D01*
X116419345Y-118921426D02*
X116466964Y-119016664D01*
X116466964Y-119016664D02*
X116514583Y-119207140D01*
X116514583Y-119207140D02*
X116514583Y-119349997D01*
X116514583Y-119349997D02*
X116466964Y-119540473D01*
X116466964Y-119540473D02*
X116419345Y-119635711D01*
X116419345Y-119635711D02*
X116324107Y-119730950D01*
X116324107Y-119730950D02*
X116181250Y-119778569D01*
X116181250Y-119778569D02*
X115943155Y-119778569D01*
X117419345Y-118778569D02*
X116943155Y-118778569D01*
X116943155Y-118778569D02*
X116895536Y-119254759D01*
X116895536Y-119254759D02*
X116943155Y-119207140D01*
X116943155Y-119207140D02*
X117038393Y-119159521D01*
X117038393Y-119159521D02*
X117276488Y-119159521D01*
X117276488Y-119159521D02*
X117371726Y-119207140D01*
X117371726Y-119207140D02*
X117419345Y-119254759D01*
X117419345Y-119254759D02*
X117466964Y-119349997D01*
X117466964Y-119349997D02*
X117466964Y-119588092D01*
X117466964Y-119588092D02*
X117419345Y-119683330D01*
X117419345Y-119683330D02*
X117371726Y-119730950D01*
X117371726Y-119730950D02*
X117276488Y-119778569D01*
X117276488Y-119778569D02*
X117038393Y-119778569D01*
X117038393Y-119778569D02*
X116943155Y-119730950D01*
X116943155Y-119730950D02*
X116895536Y-119683330D01*
X112609345Y-120098569D02*
X112609345Y-119098569D01*
X113180773Y-120098569D02*
X112752202Y-119527140D01*
X113180773Y-119098569D02*
X112609345Y-119669997D01*
X119792917Y-102070700D02*
X119935774Y-102118319D01*
X119935774Y-102118319D02*
X120173869Y-102118319D01*
X120173869Y-102118319D02*
X120269107Y-102070700D01*
X120269107Y-102070700D02*
X120316726Y-102023080D01*
X120316726Y-102023080D02*
X120364345Y-101927842D01*
X120364345Y-101927842D02*
X120364345Y-101832604D01*
X120364345Y-101832604D02*
X120316726Y-101737366D01*
X120316726Y-101737366D02*
X120269107Y-101689747D01*
X120269107Y-101689747D02*
X120173869Y-101642128D01*
X120173869Y-101642128D02*
X119983393Y-101594509D01*
X119983393Y-101594509D02*
X119888155Y-101546890D01*
X119888155Y-101546890D02*
X119840536Y-101499271D01*
X119840536Y-101499271D02*
X119792917Y-101404033D01*
X119792917Y-101404033D02*
X119792917Y-101308795D01*
X119792917Y-101308795D02*
X119840536Y-101213557D01*
X119840536Y-101213557D02*
X119888155Y-101165938D01*
X119888155Y-101165938D02*
X119983393Y-101118319D01*
X119983393Y-101118319D02*
X120221488Y-101118319D01*
X120221488Y-101118319D02*
X120364345Y-101165938D01*
X120697679Y-101118319D02*
X120935774Y-102118319D01*
X120935774Y-102118319D02*
X121126250Y-101404033D01*
X121126250Y-101404033D02*
X121316726Y-102118319D01*
X121316726Y-102118319D02*
X121554822Y-101118319D01*
X121888155Y-101213557D02*
X121935774Y-101165938D01*
X121935774Y-101165938D02*
X122031012Y-101118319D01*
X122031012Y-101118319D02*
X122269107Y-101118319D01*
X122269107Y-101118319D02*
X122364345Y-101165938D01*
X122364345Y-101165938D02*
X122411964Y-101213557D01*
X122411964Y-101213557D02*
X122459583Y-101308795D01*
X122459583Y-101308795D02*
X122459583Y-101404033D01*
X122459583Y-101404033D02*
X122411964Y-101546890D01*
X122411964Y-101546890D02*
X121840536Y-102118319D01*
X121840536Y-102118319D02*
X122459583Y-102118319D01*
X180911069Y-58717083D02*
X181625354Y-58717083D01*
X181625354Y-58717083D02*
X181768211Y-58764702D01*
X181768211Y-58764702D02*
X181863450Y-58859940D01*
X181863450Y-58859940D02*
X181911069Y-59002797D01*
X181911069Y-59002797D02*
X181911069Y-59098035D01*
X181911069Y-57717083D02*
X181911069Y-58288511D01*
X181911069Y-58002797D02*
X180911069Y-58002797D01*
X180911069Y-58002797D02*
X181053926Y-58098035D01*
X181053926Y-58098035D02*
X181149164Y-58193273D01*
X181149164Y-58193273D02*
X181196783Y-58288511D01*
X160427678Y-57748569D02*
X160618154Y-57748569D01*
X160618154Y-57748569D02*
X160713392Y-57796188D01*
X160713392Y-57796188D02*
X160808630Y-57891426D01*
X160808630Y-57891426D02*
X160856249Y-58081902D01*
X160856249Y-58081902D02*
X160856249Y-58415235D01*
X160856249Y-58415235D02*
X160808630Y-58605711D01*
X160808630Y-58605711D02*
X160713392Y-58700950D01*
X160713392Y-58700950D02*
X160618154Y-58748569D01*
X160618154Y-58748569D02*
X160427678Y-58748569D01*
X160427678Y-58748569D02*
X160332440Y-58700950D01*
X160332440Y-58700950D02*
X160237202Y-58605711D01*
X160237202Y-58605711D02*
X160189583Y-58415235D01*
X160189583Y-58415235D02*
X160189583Y-58081902D01*
X160189583Y-58081902D02*
X160237202Y-57891426D01*
X160237202Y-57891426D02*
X160332440Y-57796188D01*
X160332440Y-57796188D02*
X160427678Y-57748569D01*
X161761011Y-58748569D02*
X161284821Y-58748569D01*
X161284821Y-58748569D02*
X161284821Y-57748569D01*
X162094345Y-58224759D02*
X162427678Y-58224759D01*
X162570535Y-58748569D02*
X162094345Y-58748569D01*
X162094345Y-58748569D02*
X162094345Y-57748569D01*
X162094345Y-57748569D02*
X162570535Y-57748569D01*
X162999107Y-58748569D02*
X162999107Y-57748569D01*
X162999107Y-57748569D02*
X163237202Y-57748569D01*
X163237202Y-57748569D02*
X163380059Y-57796188D01*
X163380059Y-57796188D02*
X163475297Y-57891426D01*
X163475297Y-57891426D02*
X163522916Y-57986664D01*
X163522916Y-57986664D02*
X163570535Y-58177140D01*
X163570535Y-58177140D02*
X163570535Y-58319997D01*
X163570535Y-58319997D02*
X163522916Y-58510473D01*
X163522916Y-58510473D02*
X163475297Y-58605711D01*
X163475297Y-58605711D02*
X163380059Y-58700950D01*
X163380059Y-58700950D02*
X163237202Y-58748569D01*
X163237202Y-58748569D02*
X162999107Y-58748569D01*
X164761012Y-58748569D02*
X164761012Y-57748569D01*
X164761012Y-57748569D02*
X165141964Y-57748569D01*
X165141964Y-57748569D02*
X165237202Y-57796188D01*
X165237202Y-57796188D02*
X165284821Y-57843807D01*
X165284821Y-57843807D02*
X165332440Y-57939045D01*
X165332440Y-57939045D02*
X165332440Y-58081902D01*
X165332440Y-58081902D02*
X165284821Y-58177140D01*
X165284821Y-58177140D02*
X165237202Y-58224759D01*
X165237202Y-58224759D02*
X165141964Y-58272378D01*
X165141964Y-58272378D02*
X164761012Y-58272378D01*
X166189583Y-58748569D02*
X166189583Y-58224759D01*
X166189583Y-58224759D02*
X166141964Y-58129521D01*
X166141964Y-58129521D02*
X166046726Y-58081902D01*
X166046726Y-58081902D02*
X165856250Y-58081902D01*
X165856250Y-58081902D02*
X165761012Y-58129521D01*
X166189583Y-58700950D02*
X166094345Y-58748569D01*
X166094345Y-58748569D02*
X165856250Y-58748569D01*
X165856250Y-58748569D02*
X165761012Y-58700950D01*
X165761012Y-58700950D02*
X165713393Y-58605711D01*
X165713393Y-58605711D02*
X165713393Y-58510473D01*
X165713393Y-58510473D02*
X165761012Y-58415235D01*
X165761012Y-58415235D02*
X165856250Y-58367616D01*
X165856250Y-58367616D02*
X166094345Y-58367616D01*
X166094345Y-58367616D02*
X166189583Y-58319997D01*
X166665774Y-58081902D02*
X166665774Y-58748569D01*
X166665774Y-58177140D02*
X166713393Y-58129521D01*
X166713393Y-58129521D02*
X166808631Y-58081902D01*
X166808631Y-58081902D02*
X166951488Y-58081902D01*
X166951488Y-58081902D02*
X167046726Y-58129521D01*
X167046726Y-58129521D02*
X167094345Y-58224759D01*
X167094345Y-58224759D02*
X167094345Y-58748569D01*
X167951488Y-58700950D02*
X167856250Y-58748569D01*
X167856250Y-58748569D02*
X167665774Y-58748569D01*
X167665774Y-58748569D02*
X167570536Y-58700950D01*
X167570536Y-58700950D02*
X167522917Y-58605711D01*
X167522917Y-58605711D02*
X167522917Y-58224759D01*
X167522917Y-58224759D02*
X167570536Y-58129521D01*
X167570536Y-58129521D02*
X167665774Y-58081902D01*
X167665774Y-58081902D02*
X167856250Y-58081902D01*
X167856250Y-58081902D02*
X167951488Y-58129521D01*
X167951488Y-58129521D02*
X167999107Y-58224759D01*
X167999107Y-58224759D02*
X167999107Y-58319997D01*
X167999107Y-58319997D02*
X167522917Y-58415235D01*
X168570536Y-58748569D02*
X168475298Y-58700950D01*
X168475298Y-58700950D02*
X168427679Y-58605711D01*
X168427679Y-58605711D02*
X168427679Y-57748569D01*
X149159700Y-55394463D02*
X149195414Y-55287321D01*
X149195414Y-55287321D02*
X149195414Y-55108749D01*
X149195414Y-55108749D02*
X149159700Y-55037321D01*
X149159700Y-55037321D02*
X149123985Y-55001606D01*
X149123985Y-55001606D02*
X149052557Y-54965892D01*
X149052557Y-54965892D02*
X148981128Y-54965892D01*
X148981128Y-54965892D02*
X148909700Y-55001606D01*
X148909700Y-55001606D02*
X148873985Y-55037321D01*
X148873985Y-55037321D02*
X148838271Y-55108749D01*
X148838271Y-55108749D02*
X148802557Y-55251606D01*
X148802557Y-55251606D02*
X148766842Y-55323035D01*
X148766842Y-55323035D02*
X148731128Y-55358749D01*
X148731128Y-55358749D02*
X148659700Y-55394463D01*
X148659700Y-55394463D02*
X148588271Y-55394463D01*
X148588271Y-55394463D02*
X148516842Y-55358749D01*
X148516842Y-55358749D02*
X148481128Y-55323035D01*
X148481128Y-55323035D02*
X148445414Y-55251606D01*
X148445414Y-55251606D02*
X148445414Y-55073035D01*
X148445414Y-55073035D02*
X148481128Y-54965892D01*
X149195414Y-54644463D02*
X148445414Y-54644463D01*
X148445414Y-54644463D02*
X148445414Y-54465892D01*
X148445414Y-54465892D02*
X148481128Y-54358749D01*
X148481128Y-54358749D02*
X148552557Y-54287320D01*
X148552557Y-54287320D02*
X148623985Y-54251606D01*
X148623985Y-54251606D02*
X148766842Y-54215892D01*
X148766842Y-54215892D02*
X148873985Y-54215892D01*
X148873985Y-54215892D02*
X149016842Y-54251606D01*
X149016842Y-54251606D02*
X149088271Y-54287320D01*
X149088271Y-54287320D02*
X149159700Y-54358749D01*
X149159700Y-54358749D02*
X149195414Y-54465892D01*
X149195414Y-54465892D02*
X149195414Y-54644463D01*
X148981128Y-53930177D02*
X148981128Y-53573035D01*
X149195414Y-54001606D02*
X148445414Y-53751606D01*
X148445414Y-53751606D02*
X149195414Y-53501606D01*
X148481128Y-62675178D02*
X148445414Y-62746607D01*
X148445414Y-62746607D02*
X148445414Y-62853749D01*
X148445414Y-62853749D02*
X148481128Y-62960892D01*
X148481128Y-62960892D02*
X148552557Y-63032321D01*
X148552557Y-63032321D02*
X148623985Y-63068035D01*
X148623985Y-63068035D02*
X148766842Y-63103749D01*
X148766842Y-63103749D02*
X148873985Y-63103749D01*
X148873985Y-63103749D02*
X149016842Y-63068035D01*
X149016842Y-63068035D02*
X149088271Y-63032321D01*
X149088271Y-63032321D02*
X149159700Y-62960892D01*
X149159700Y-62960892D02*
X149195414Y-62853749D01*
X149195414Y-62853749D02*
X149195414Y-62782321D01*
X149195414Y-62782321D02*
X149159700Y-62675178D01*
X149159700Y-62675178D02*
X149123985Y-62639464D01*
X149123985Y-62639464D02*
X148873985Y-62639464D01*
X148873985Y-62639464D02*
X148873985Y-62782321D01*
X149195414Y-62318035D02*
X148445414Y-62318035D01*
X148445414Y-62318035D02*
X149195414Y-61889464D01*
X149195414Y-61889464D02*
X148445414Y-61889464D01*
X149195414Y-61532321D02*
X148445414Y-61532321D01*
X148445414Y-61532321D02*
X148445414Y-61353750D01*
X148445414Y-61353750D02*
X148481128Y-61246607D01*
X148481128Y-61246607D02*
X148552557Y-61175178D01*
X148552557Y-61175178D02*
X148623985Y-61139464D01*
X148623985Y-61139464D02*
X148766842Y-61103750D01*
X148766842Y-61103750D02*
X148873985Y-61103750D01*
X148873985Y-61103750D02*
X149016842Y-61139464D01*
X149016842Y-61139464D02*
X149088271Y-61175178D01*
X149088271Y-61175178D02*
X149159700Y-61246607D01*
X149159700Y-61246607D02*
X149195414Y-61353750D01*
X149195414Y-61353750D02*
X149195414Y-61532321D01*
X148445414Y-60563749D02*
X149195414Y-60313749D01*
X149195414Y-60313749D02*
X148445414Y-60063749D01*
X149123985Y-59385178D02*
X149159700Y-59420892D01*
X149159700Y-59420892D02*
X149195414Y-59528035D01*
X149195414Y-59528035D02*
X149195414Y-59599463D01*
X149195414Y-59599463D02*
X149159700Y-59706606D01*
X149159700Y-59706606D02*
X149088271Y-59778035D01*
X149088271Y-59778035D02*
X149016842Y-59813749D01*
X149016842Y-59813749D02*
X148873985Y-59849463D01*
X148873985Y-59849463D02*
X148766842Y-59849463D01*
X148766842Y-59849463D02*
X148623985Y-59813749D01*
X148623985Y-59813749D02*
X148552557Y-59778035D01*
X148552557Y-59778035D02*
X148481128Y-59706606D01*
X148481128Y-59706606D02*
X148445414Y-59599463D01*
X148445414Y-59599463D02*
X148445414Y-59528035D01*
X148445414Y-59528035D02*
X148481128Y-59420892D01*
X148481128Y-59420892D02*
X148516842Y-59385178D01*
X149123985Y-58635178D02*
X149159700Y-58670892D01*
X149159700Y-58670892D02*
X149195414Y-58778035D01*
X149195414Y-58778035D02*
X149195414Y-58849463D01*
X149195414Y-58849463D02*
X149159700Y-58956606D01*
X149159700Y-58956606D02*
X149088271Y-59028035D01*
X149088271Y-59028035D02*
X149016842Y-59063749D01*
X149016842Y-59063749D02*
X148873985Y-59099463D01*
X148873985Y-59099463D02*
X148766842Y-59099463D01*
X148766842Y-59099463D02*
X148623985Y-59063749D01*
X148623985Y-59063749D02*
X148552557Y-59028035D01*
X148552557Y-59028035D02*
X148481128Y-58956606D01*
X148481128Y-58956606D02*
X148445414Y-58849463D01*
X148445414Y-58849463D02*
X148445414Y-58778035D01*
X148445414Y-58778035D02*
X148481128Y-58670892D01*
X148481128Y-58670892D02*
X148516842Y-58635178D01*
X149159700Y-57916606D02*
X149195414Y-57809464D01*
X149195414Y-57809464D02*
X149195414Y-57630892D01*
X149195414Y-57630892D02*
X149159700Y-57559464D01*
X149159700Y-57559464D02*
X149123985Y-57523749D01*
X149123985Y-57523749D02*
X149052557Y-57488035D01*
X149052557Y-57488035D02*
X148981128Y-57488035D01*
X148981128Y-57488035D02*
X148909700Y-57523749D01*
X148909700Y-57523749D02*
X148873985Y-57559464D01*
X148873985Y-57559464D02*
X148838271Y-57630892D01*
X148838271Y-57630892D02*
X148802557Y-57773749D01*
X148802557Y-57773749D02*
X148766842Y-57845178D01*
X148766842Y-57845178D02*
X148731128Y-57880892D01*
X148731128Y-57880892D02*
X148659700Y-57916606D01*
X148659700Y-57916606D02*
X148588271Y-57916606D01*
X148588271Y-57916606D02*
X148516842Y-57880892D01*
X148516842Y-57880892D02*
X148481128Y-57845178D01*
X148481128Y-57845178D02*
X148445414Y-57773749D01*
X148445414Y-57773749D02*
X148445414Y-57595178D01*
X148445414Y-57595178D02*
X148481128Y-57488035D01*
X149123985Y-56738035D02*
X149159700Y-56773749D01*
X149159700Y-56773749D02*
X149195414Y-56880892D01*
X149195414Y-56880892D02*
X149195414Y-56952320D01*
X149195414Y-56952320D02*
X149159700Y-57059463D01*
X149159700Y-57059463D02*
X149088271Y-57130892D01*
X149088271Y-57130892D02*
X149016842Y-57166606D01*
X149016842Y-57166606D02*
X148873985Y-57202320D01*
X148873985Y-57202320D02*
X148766842Y-57202320D01*
X148766842Y-57202320D02*
X148623985Y-57166606D01*
X148623985Y-57166606D02*
X148552557Y-57130892D01*
X148552557Y-57130892D02*
X148481128Y-57059463D01*
X148481128Y-57059463D02*
X148445414Y-56952320D01*
X148445414Y-56952320D02*
X148445414Y-56880892D01*
X148445414Y-56880892D02*
X148481128Y-56773749D01*
X148481128Y-56773749D02*
X148516842Y-56738035D01*
X149195414Y-56059463D02*
X149195414Y-56416606D01*
X149195414Y-56416606D02*
X148445414Y-56416606D01*
X142136905Y-93584819D02*
X142136905Y-92584819D01*
X142136905Y-92584819D02*
X142375000Y-92584819D01*
X142375000Y-92584819D02*
X142517857Y-92632438D01*
X142517857Y-92632438D02*
X142613095Y-92727676D01*
X142613095Y-92727676D02*
X142660714Y-92822914D01*
X142660714Y-92822914D02*
X142708333Y-93013390D01*
X142708333Y-93013390D02*
X142708333Y-93156247D01*
X142708333Y-93156247D02*
X142660714Y-93346723D01*
X142660714Y-93346723D02*
X142613095Y-93441961D01*
X142613095Y-93441961D02*
X142517857Y-93537200D01*
X142517857Y-93537200D02*
X142375000Y-93584819D01*
X142375000Y-93584819D02*
X142136905Y-93584819D01*
X143041667Y-92584819D02*
X143708333Y-92584819D01*
X143708333Y-92584819D02*
X143279762Y-93584819D01*
X138803095Y-93904819D02*
X138803095Y-92904819D01*
X139374523Y-93904819D02*
X138945952Y-93333390D01*
X139374523Y-92904819D02*
X138803095Y-93476247D01*
X142136905Y-119778569D02*
X142136905Y-118778569D01*
X142136905Y-118778569D02*
X142375000Y-118778569D01*
X142375000Y-118778569D02*
X142517857Y-118826188D01*
X142517857Y-118826188D02*
X142613095Y-118921426D01*
X142613095Y-118921426D02*
X142660714Y-119016664D01*
X142660714Y-119016664D02*
X142708333Y-119207140D01*
X142708333Y-119207140D02*
X142708333Y-119349997D01*
X142708333Y-119349997D02*
X142660714Y-119540473D01*
X142660714Y-119540473D02*
X142613095Y-119635711D01*
X142613095Y-119635711D02*
X142517857Y-119730950D01*
X142517857Y-119730950D02*
X142375000Y-119778569D01*
X142375000Y-119778569D02*
X142136905Y-119778569D01*
X143279762Y-119207140D02*
X143184524Y-119159521D01*
X143184524Y-119159521D02*
X143136905Y-119111902D01*
X143136905Y-119111902D02*
X143089286Y-119016664D01*
X143089286Y-119016664D02*
X143089286Y-118969045D01*
X143089286Y-118969045D02*
X143136905Y-118873807D01*
X143136905Y-118873807D02*
X143184524Y-118826188D01*
X143184524Y-118826188D02*
X143279762Y-118778569D01*
X143279762Y-118778569D02*
X143470238Y-118778569D01*
X143470238Y-118778569D02*
X143565476Y-118826188D01*
X143565476Y-118826188D02*
X143613095Y-118873807D01*
X143613095Y-118873807D02*
X143660714Y-118969045D01*
X143660714Y-118969045D02*
X143660714Y-119016664D01*
X143660714Y-119016664D02*
X143613095Y-119111902D01*
X143613095Y-119111902D02*
X143565476Y-119159521D01*
X143565476Y-119159521D02*
X143470238Y-119207140D01*
X143470238Y-119207140D02*
X143279762Y-119207140D01*
X143279762Y-119207140D02*
X143184524Y-119254759D01*
X143184524Y-119254759D02*
X143136905Y-119302378D01*
X143136905Y-119302378D02*
X143089286Y-119397616D01*
X143089286Y-119397616D02*
X143089286Y-119588092D01*
X143089286Y-119588092D02*
X143136905Y-119683330D01*
X143136905Y-119683330D02*
X143184524Y-119730950D01*
X143184524Y-119730950D02*
X143279762Y-119778569D01*
X143279762Y-119778569D02*
X143470238Y-119778569D01*
X143470238Y-119778569D02*
X143565476Y-119730950D01*
X143565476Y-119730950D02*
X143613095Y-119683330D01*
X143613095Y-119683330D02*
X143660714Y-119588092D01*
X143660714Y-119588092D02*
X143660714Y-119397616D01*
X143660714Y-119397616D02*
X143613095Y-119302378D01*
X143613095Y-119302378D02*
X143565476Y-119254759D01*
X143565476Y-119254759D02*
X143470238Y-119207140D01*
X138803095Y-120098569D02*
X138803095Y-119098569D01*
X139374523Y-120098569D02*
X138945952Y-119527140D01*
X139374523Y-119098569D02*
X138803095Y-119669997D01*
X115943155Y-93584819D02*
X115943155Y-92584819D01*
X115943155Y-92584819D02*
X116181250Y-92584819D01*
X116181250Y-92584819D02*
X116324107Y-92632438D01*
X116324107Y-92632438D02*
X116419345Y-92727676D01*
X116419345Y-92727676D02*
X116466964Y-92822914D01*
X116466964Y-92822914D02*
X116514583Y-93013390D01*
X116514583Y-93013390D02*
X116514583Y-93156247D01*
X116514583Y-93156247D02*
X116466964Y-93346723D01*
X116466964Y-93346723D02*
X116419345Y-93441961D01*
X116419345Y-93441961D02*
X116324107Y-93537200D01*
X116324107Y-93537200D02*
X116181250Y-93584819D01*
X116181250Y-93584819D02*
X115943155Y-93584819D01*
X117371726Y-92918152D02*
X117371726Y-93584819D01*
X117133631Y-92537200D02*
X116895536Y-93251485D01*
X116895536Y-93251485D02*
X117514583Y-93251485D01*
X112609345Y-93904819D02*
X112609345Y-92904819D01*
X113180773Y-93904819D02*
X112752202Y-93333390D01*
X113180773Y-92904819D02*
X112609345Y-93476247D01*
X145986667Y-75876950D02*
X146129524Y-75924569D01*
X146129524Y-75924569D02*
X146367619Y-75924569D01*
X146367619Y-75924569D02*
X146462857Y-75876950D01*
X146462857Y-75876950D02*
X146510476Y-75829330D01*
X146510476Y-75829330D02*
X146558095Y-75734092D01*
X146558095Y-75734092D02*
X146558095Y-75638854D01*
X146558095Y-75638854D02*
X146510476Y-75543616D01*
X146510476Y-75543616D02*
X146462857Y-75495997D01*
X146462857Y-75495997D02*
X146367619Y-75448378D01*
X146367619Y-75448378D02*
X146177143Y-75400759D01*
X146177143Y-75400759D02*
X146081905Y-75353140D01*
X146081905Y-75353140D02*
X146034286Y-75305521D01*
X146034286Y-75305521D02*
X145986667Y-75210283D01*
X145986667Y-75210283D02*
X145986667Y-75115045D01*
X145986667Y-75115045D02*
X146034286Y-75019807D01*
X146034286Y-75019807D02*
X146081905Y-74972188D01*
X146081905Y-74972188D02*
X146177143Y-74924569D01*
X146177143Y-74924569D02*
X146415238Y-74924569D01*
X146415238Y-74924569D02*
X146558095Y-74972188D01*
X146891429Y-74924569D02*
X147129524Y-75924569D01*
X147129524Y-75924569D02*
X147320000Y-75210283D01*
X147320000Y-75210283D02*
X147510476Y-75924569D01*
X147510476Y-75924569D02*
X147748572Y-74924569D01*
X148558095Y-75257902D02*
X148558095Y-75924569D01*
X148320000Y-74876950D02*
X148081905Y-75591235D01*
X148081905Y-75591235D02*
X148700952Y-75591235D01*
X172497917Y-102070700D02*
X172640774Y-102118319D01*
X172640774Y-102118319D02*
X172878869Y-102118319D01*
X172878869Y-102118319D02*
X172974107Y-102070700D01*
X172974107Y-102070700D02*
X173021726Y-102023080D01*
X173021726Y-102023080D02*
X173069345Y-101927842D01*
X173069345Y-101927842D02*
X173069345Y-101832604D01*
X173069345Y-101832604D02*
X173021726Y-101737366D01*
X173021726Y-101737366D02*
X172974107Y-101689747D01*
X172974107Y-101689747D02*
X172878869Y-101642128D01*
X172878869Y-101642128D02*
X172688393Y-101594509D01*
X172688393Y-101594509D02*
X172593155Y-101546890D01*
X172593155Y-101546890D02*
X172545536Y-101499271D01*
X172545536Y-101499271D02*
X172497917Y-101404033D01*
X172497917Y-101404033D02*
X172497917Y-101308795D01*
X172497917Y-101308795D02*
X172545536Y-101213557D01*
X172545536Y-101213557D02*
X172593155Y-101165938D01*
X172593155Y-101165938D02*
X172688393Y-101118319D01*
X172688393Y-101118319D02*
X172926488Y-101118319D01*
X172926488Y-101118319D02*
X173069345Y-101165938D01*
X173402679Y-101118319D02*
X173640774Y-102118319D01*
X173640774Y-102118319D02*
X173831250Y-101404033D01*
X173831250Y-101404033D02*
X174021726Y-102118319D01*
X174021726Y-102118319D02*
X174259822Y-101118319D01*
X174783631Y-101546890D02*
X174688393Y-101499271D01*
X174688393Y-101499271D02*
X174640774Y-101451652D01*
X174640774Y-101451652D02*
X174593155Y-101356414D01*
X174593155Y-101356414D02*
X174593155Y-101308795D01*
X174593155Y-101308795D02*
X174640774Y-101213557D01*
X174640774Y-101213557D02*
X174688393Y-101165938D01*
X174688393Y-101165938D02*
X174783631Y-101118319D01*
X174783631Y-101118319D02*
X174974107Y-101118319D01*
X174974107Y-101118319D02*
X175069345Y-101165938D01*
X175069345Y-101165938D02*
X175116964Y-101213557D01*
X175116964Y-101213557D02*
X175164583Y-101308795D01*
X175164583Y-101308795D02*
X175164583Y-101356414D01*
X175164583Y-101356414D02*
X175116964Y-101451652D01*
X175116964Y-101451652D02*
X175069345Y-101499271D01*
X175069345Y-101499271D02*
X174974107Y-101546890D01*
X174974107Y-101546890D02*
X174783631Y-101546890D01*
X174783631Y-101546890D02*
X174688393Y-101594509D01*
X174688393Y-101594509D02*
X174640774Y-101642128D01*
X174640774Y-101642128D02*
X174593155Y-101737366D01*
X174593155Y-101737366D02*
X174593155Y-101927842D01*
X174593155Y-101927842D02*
X174640774Y-102023080D01*
X174640774Y-102023080D02*
X174688393Y-102070700D01*
X174688393Y-102070700D02*
X174783631Y-102118319D01*
X174783631Y-102118319D02*
X174974107Y-102118319D01*
X174974107Y-102118319D02*
X175069345Y-102070700D01*
X175069345Y-102070700D02*
X175116964Y-102023080D01*
X175116964Y-102023080D02*
X175164583Y-101927842D01*
X175164583Y-101927842D02*
X175164583Y-101737366D01*
X175164583Y-101737366D02*
X175116964Y-101642128D01*
X175116964Y-101642128D02*
X175069345Y-101594509D01*
X175069345Y-101594509D02*
X174974107Y-101546890D01*
X168330655Y-93584819D02*
X168330655Y-92584819D01*
X168330655Y-92584819D02*
X168568750Y-92584819D01*
X168568750Y-92584819D02*
X168711607Y-92632438D01*
X168711607Y-92632438D02*
X168806845Y-92727676D01*
X168806845Y-92727676D02*
X168854464Y-92822914D01*
X168854464Y-92822914D02*
X168902083Y-93013390D01*
X168902083Y-93013390D02*
X168902083Y-93156247D01*
X168902083Y-93156247D02*
X168854464Y-93346723D01*
X168854464Y-93346723D02*
X168806845Y-93441961D01*
X168806845Y-93441961D02*
X168711607Y-93537200D01*
X168711607Y-93537200D02*
X168568750Y-93584819D01*
X168568750Y-93584819D02*
X168330655Y-93584819D01*
X169235417Y-92584819D02*
X169854464Y-92584819D01*
X169854464Y-92584819D02*
X169521131Y-92965771D01*
X169521131Y-92965771D02*
X169663988Y-92965771D01*
X169663988Y-92965771D02*
X169759226Y-93013390D01*
X169759226Y-93013390D02*
X169806845Y-93061009D01*
X169806845Y-93061009D02*
X169854464Y-93156247D01*
X169854464Y-93156247D02*
X169854464Y-93394342D01*
X169854464Y-93394342D02*
X169806845Y-93489580D01*
X169806845Y-93489580D02*
X169759226Y-93537200D01*
X169759226Y-93537200D02*
X169663988Y-93584819D01*
X169663988Y-93584819D02*
X169378274Y-93584819D01*
X169378274Y-93584819D02*
X169283036Y-93537200D01*
X169283036Y-93537200D02*
X169235417Y-93489580D01*
X164996845Y-93904819D02*
X164996845Y-92904819D01*
X165568273Y-93904819D02*
X165139702Y-93333390D01*
X165568273Y-92904819D02*
X164996845Y-93476247D01*
X172497917Y-75876950D02*
X172640774Y-75924569D01*
X172640774Y-75924569D02*
X172878869Y-75924569D01*
X172878869Y-75924569D02*
X172974107Y-75876950D01*
X172974107Y-75876950D02*
X173021726Y-75829330D01*
X173021726Y-75829330D02*
X173069345Y-75734092D01*
X173069345Y-75734092D02*
X173069345Y-75638854D01*
X173069345Y-75638854D02*
X173021726Y-75543616D01*
X173021726Y-75543616D02*
X172974107Y-75495997D01*
X172974107Y-75495997D02*
X172878869Y-75448378D01*
X172878869Y-75448378D02*
X172688393Y-75400759D01*
X172688393Y-75400759D02*
X172593155Y-75353140D01*
X172593155Y-75353140D02*
X172545536Y-75305521D01*
X172545536Y-75305521D02*
X172497917Y-75210283D01*
X172497917Y-75210283D02*
X172497917Y-75115045D01*
X172497917Y-75115045D02*
X172545536Y-75019807D01*
X172545536Y-75019807D02*
X172593155Y-74972188D01*
X172593155Y-74972188D02*
X172688393Y-74924569D01*
X172688393Y-74924569D02*
X172926488Y-74924569D01*
X172926488Y-74924569D02*
X173069345Y-74972188D01*
X173402679Y-74924569D02*
X173640774Y-75924569D01*
X173640774Y-75924569D02*
X173831250Y-75210283D01*
X173831250Y-75210283D02*
X174021726Y-75924569D01*
X174021726Y-75924569D02*
X174259822Y-74924569D01*
X175069345Y-74924569D02*
X174878869Y-74924569D01*
X174878869Y-74924569D02*
X174783631Y-74972188D01*
X174783631Y-74972188D02*
X174736012Y-75019807D01*
X174736012Y-75019807D02*
X174640774Y-75162664D01*
X174640774Y-75162664D02*
X174593155Y-75353140D01*
X174593155Y-75353140D02*
X174593155Y-75734092D01*
X174593155Y-75734092D02*
X174640774Y-75829330D01*
X174640774Y-75829330D02*
X174688393Y-75876950D01*
X174688393Y-75876950D02*
X174783631Y-75924569D01*
X174783631Y-75924569D02*
X174974107Y-75924569D01*
X174974107Y-75924569D02*
X175069345Y-75876950D01*
X175069345Y-75876950D02*
X175116964Y-75829330D01*
X175116964Y-75829330D02*
X175164583Y-75734092D01*
X175164583Y-75734092D02*
X175164583Y-75495997D01*
X175164583Y-75495997D02*
X175116964Y-75400759D01*
X175116964Y-75400759D02*
X175069345Y-75353140D01*
X175069345Y-75353140D02*
X174974107Y-75305521D01*
X174974107Y-75305521D02*
X174783631Y-75305521D01*
X174783631Y-75305521D02*
X174688393Y-75353140D01*
X174688393Y-75353140D02*
X174640774Y-75400759D01*
X174640774Y-75400759D02*
X174593155Y-75495997D01*
D14*
%TO.C,D9*%
X167251250Y-121443750D02*
X167901250Y-121443750D01*
X168501250Y-120323750D02*
X168501250Y-122563750D01*
X168621250Y-120323750D02*
X168621250Y-122563750D01*
X168741250Y-120323750D02*
X168741250Y-122563750D01*
X172791250Y-121443750D02*
X172141250Y-121443750D01*
X167901250Y-120323750D02*
X172141250Y-120323750D01*
X172141250Y-122563750D01*
X167901250Y-122563750D01*
X167901250Y-120323750D01*
%TO.C,SW7*%
X113643750Y-54593750D02*
X114243750Y-54593750D01*
X113943750Y-54893750D02*
X113643750Y-54593750D01*
X114243750Y-54593750D02*
X113943750Y-54893750D01*
X115343750Y-52793750D02*
X115343750Y-64593750D01*
X119443750Y-52793750D02*
X115343750Y-52793750D01*
X119443750Y-64593750D02*
X115343750Y-64593750D01*
X120943750Y-58693750D02*
X121943750Y-58693750D01*
X121443750Y-58193750D02*
X121443750Y-59193750D01*
X123443750Y-52793750D02*
X127543750Y-52793750D01*
X127543750Y-52793750D02*
X127543750Y-55193750D01*
X127543750Y-57393750D02*
X127543750Y-59993750D01*
X127543750Y-62193750D02*
X127543750Y-64593750D01*
X127543750Y-64593750D02*
X123443750Y-64593750D01*
X124443750Y-58693750D02*
G75*
G02*
X118443750Y-58693750I-3000000J0D01*
G01*
X118443750Y-58693750D02*
G75*
G02*
X124443750Y-58693750I3000000J0D01*
G01*
%TO.C,SW5*%
X140335000Y-102552500D02*
X154305000Y-102552500D01*
X140335000Y-116522500D02*
X140335000Y-102552500D01*
X154305000Y-102552500D02*
X154305000Y-116522500D01*
X154305000Y-116522500D02*
X140335000Y-116522500D01*
%TO.C,SW1*%
X114458750Y-76358750D02*
X128428750Y-76358750D01*
X114458750Y-90328750D02*
X114458750Y-76358750D01*
X128428750Y-76358750D02*
X128428750Y-90328750D01*
X128428750Y-90328750D02*
X114458750Y-90328750D01*
D15*
%TO.C,U1*%
X79549000Y-113991272D02*
X79549000Y-105996000D01*
X80049000Y-105496000D02*
X80959000Y-105496000D01*
D11*
X80959000Y-103015000D02*
X80959000Y-116985000D01*
D15*
X80959000Y-103015000D02*
X80959000Y-116985000D01*
X80959000Y-114495000D02*
X80048728Y-114491272D01*
X100009000Y-101110000D02*
X82864000Y-101110000D01*
X100009000Y-118890000D02*
X82864000Y-118890000D01*
X101914000Y-116985000D02*
X101914000Y-103015000D01*
X79549000Y-105996000D02*
G75*
G02*
X80049000Y-105496000I500000J0D01*
G01*
X80048728Y-114491272D02*
G75*
G02*
X79549001Y-113991272I291J500018D01*
G01*
X80959000Y-103015000D02*
G75*
G02*
X82864000Y-101110000I1905000J0D01*
G01*
X82864000Y-118890000D02*
G75*
G02*
X80959000Y-116985000I1J1905001D01*
G01*
X100009000Y-101110000D02*
G75*
G02*
X101914000Y-103015000I0J-1905000D01*
G01*
X101914000Y-116985000D02*
G75*
G02*
X100009000Y-118890000I-1905001J1D01*
G01*
D16*
X81452000Y-118950000D02*
G75*
G02*
X80948000Y-118950000I-252000J0D01*
G01*
X80948000Y-118950000D02*
G75*
G02*
X81452000Y-118950000I252000J0D01*
G01*
X82332000Y-117807000D02*
G75*
G02*
X81828000Y-117807000I-252000J0D01*
G01*
X81828000Y-117807000D02*
G75*
G02*
X82332000Y-117807000I252000J0D01*
G01*
D14*
%TO.C,D5*%
X113911250Y-121443750D02*
X114561250Y-121443750D01*
X115161250Y-120323750D02*
X115161250Y-122563750D01*
X115281250Y-120323750D02*
X115281250Y-122563750D01*
X115401250Y-120323750D02*
X115401250Y-122563750D01*
X119451250Y-121443750D02*
X118801250Y-121443750D01*
X114561250Y-120323750D02*
X118801250Y-120323750D01*
X118801250Y-122563750D01*
X114561250Y-122563750D01*
X114561250Y-120323750D01*
%TO.C,SW2*%
X114141250Y-102552500D02*
X128111250Y-102552500D01*
X114141250Y-116522500D02*
X114141250Y-102552500D01*
X128111250Y-102552500D02*
X128111250Y-116522500D01*
X128111250Y-116522500D02*
X114141250Y-116522500D01*
D17*
%TO.C,J1*%
X145356250Y-52293750D02*
X145356250Y-64293750D01*
X145356250Y-64293750D02*
X183356250Y-64293750D01*
X150356250Y-64293750D02*
X150356250Y-52293750D01*
X179856250Y-64293750D02*
X179856250Y-52293750D01*
X183356250Y-52293750D02*
X145356250Y-52293750D01*
X183356250Y-64293750D02*
X183356250Y-52293750D01*
D14*
%TO.C,D7*%
X140105000Y-95250000D02*
X140755000Y-95250000D01*
X141355000Y-94130000D02*
X141355000Y-96370000D01*
X141475000Y-94130000D02*
X141475000Y-96370000D01*
X141595000Y-94130000D02*
X141595000Y-96370000D01*
X145645000Y-95250000D02*
X144995000Y-95250000D01*
X140755000Y-94130000D02*
X144995000Y-94130000D01*
X144995000Y-96370000D01*
X140755000Y-96370000D01*
X140755000Y-94130000D01*
%TO.C,D8*%
X140105000Y-121443750D02*
X140755000Y-121443750D01*
X141355000Y-120323750D02*
X141355000Y-122563750D01*
X141475000Y-120323750D02*
X141475000Y-122563750D01*
X141595000Y-120323750D02*
X141595000Y-122563750D01*
X145645000Y-121443750D02*
X144995000Y-121443750D01*
X140755000Y-120323750D02*
X144995000Y-120323750D01*
X144995000Y-122563750D01*
X140755000Y-122563750D01*
X140755000Y-120323750D01*
%TO.C,D4*%
X113911250Y-95250000D02*
X114561250Y-95250000D01*
X115161250Y-94130000D02*
X115161250Y-96370000D01*
X115281250Y-94130000D02*
X115281250Y-96370000D01*
X115401250Y-94130000D02*
X115401250Y-96370000D01*
X119451250Y-95250000D02*
X118801250Y-95250000D01*
X114561250Y-94130000D02*
X118801250Y-94130000D01*
X118801250Y-96370000D01*
X114561250Y-96370000D01*
X114561250Y-94130000D01*
%TO.C,SW4*%
X140335000Y-76358750D02*
X154305000Y-76358750D01*
X140335000Y-90328750D02*
X140335000Y-76358750D01*
X154305000Y-76358750D02*
X154305000Y-90328750D01*
X154305000Y-90328750D02*
X140335000Y-90328750D01*
%TO.C,SW8*%
X166846250Y-102552500D02*
X180816250Y-102552500D01*
X166846250Y-116522500D02*
X166846250Y-102552500D01*
X180816250Y-102552500D02*
X180816250Y-116522500D01*
X180816250Y-116522500D02*
X166846250Y-116522500D01*
%TO.C,D3*%
X166298750Y-95250000D02*
X166948750Y-95250000D01*
X167548750Y-94130000D02*
X167548750Y-96370000D01*
X167668750Y-94130000D02*
X167668750Y-96370000D01*
X167788750Y-94130000D02*
X167788750Y-96370000D01*
X171838750Y-95250000D02*
X171188750Y-95250000D01*
X166948750Y-94130000D02*
X171188750Y-94130000D01*
X171188750Y-96370000D01*
X166948750Y-96370000D01*
X166948750Y-94130000D01*
%TO.C,SW6*%
X166846250Y-76358750D02*
X180816250Y-76358750D01*
X166846250Y-90328750D02*
X166846250Y-76358750D01*
X180816250Y-76358750D02*
X180816250Y-90328750D01*
X180816250Y-90328750D02*
X166846250Y-90328750D01*
%TD*%
M02*
